<?xml version="1.0" encoding="UTF-8" standalone="no"?>
<!DOCTYPE svg  PUBLIC '-//W3C//DTD SVG 1.1//EN'  'http://www.w3.org/Graphics/SVG/1.1/DTD/svg11.dtd'>
<svg xmlns="http://www.w3.org/2000/svg" version="1.1">
<defs>
<font id="InStyle" horiz-adv-x="520">
<font-face descent="-254" ascent="746" bbox="-56 -260 841 1004" panose-1="2 0 0 0 0 0 0 0 0 0" underline-position="-150" cap-height="750" unicode-range="U+0020-0451" x-height="386" underline-thickness="50" units-per-em="1000" font-weight="400" font-family="InStyle"/>
<missing-glyph/>
<glyph glyph-name="space" unicode=" " horiz-adv-x="150"/>
<glyph glyph-name="exclam" unicode="!" d="M140 45q0 -19 -13 -32t-32 -13t-32 13t-13 32t13 32t32 13t32 -13t13 -32zM97 153h-4q-18 460 -43 597h90q-25 -137 -43 -597z" horiz-adv-x="190"/>
<glyph glyph-name="quotedbl" unicode='&quot;' d="M188 750l-84 -166h-4l46 166h42zM118 750l-84 -166h-4l46 166h42z" horiz-adv-x="218"/>
<glyph glyph-name="numbersign" unicode="#" d="M290 750l-66 -248h150l66 248h20l-66 -248h136v-20h-142l-56 -210h168v-20h-173l-67 -252h-20l67 252h-150l-67 -252h-20l67 252h-107v20h112l56 210h-138v20h144l66 248h20zM218 482l-56 -210h150l56 210h-150z" horiz-adv-x="560"/>
<glyph glyph-name="dollar" unicode="$" d="M268 -90v131q-10 -1 -32 -1q-23 0 -34 2v-132h-4v132q-102 14 -178 76l22 88q15 -64 57.5 -105.5t98.5 -53.5v340q-72 35 -110.5 74t-38.5 104q0 45 39.5 88.5t109.5 53.5v138h4v-137q20 2 31 2q6 0 17.5 -0.5t17.5 -0.5v136h4v-136q87 -6 155 -60l-22 -78 q-28 115 -133 132v-271q43 -22 66 -35.5t53 -37.5t43.5 -52.5t13.5 -64.5q0 -81 -44 -136t-132 -64v-132h-4zM385 198q0 52 -29.5 86.5t-83.5 64.5v-302q52 11 82.5 52.5t30.5 98.5zM268 351l-66 34v-339q11 -2 34 -2q17 0 32 3v304zM202 469q37 -21 66 -35v269q-18 3 -35 3 t-31 -3v-234zM102 605q0 -76 96 -134v232q-50 -10 -73 -41.5t-23 -56.5z" horiz-adv-x="478"/>
<glyph glyph-name="percent" unicode="%" d="M553 207q0 -43 -19 -92t-58 -86.5t-86 -37.5q-44 0 -68 33t-24 86q0 83 49.5 149.5t112.5 66.5q43 0 68 -33.5t25 -85.5zM459 322q-42 0 -76 -81.5t-34 -170.5q0 -75 42 -75t76 80.5t34 169.5q0 77 -42 77zM50 0l465 750h13l-465 -750h-13zM280 644q0 -43 -19 -92 t-58 -86.5t-86 -37.5q-44 0 -68 33t-24 86q0 83 49.5 149.5t112.5 66.5q43 0 68 -33.5t25 -85.5zM186 759q-42 0 -76 -81.5t-34 -170.5q0 -75 42 -75t76 80.5t34 169.5q0 77 -42 77z" horiz-adv-x="578"/>
<glyph glyph-name="ampersand" unicode="&amp;" d="M20 183q0 42 13.5 74.5t43 57.5t53.5 39.5t67 36.5q-4 5 -24 31.5t-25 34t-19 29t-18 34t-9 31t-5 36.5q0 63 51 118t139 55q87 0 133.5 -46t46.5 -95q0 -30 -9.5 -54.5t-20.5 -40t-36 -32.5t-40 -24.5t-49.5 -23.5t-47.5 -22l167 -229q3 9 15.5 50.5t18 56.5t17.5 44 t25 47t29 31h49q-30 -14 -53 -38t-42 -62t-28 -62.5t-26 -73.5l51 -69q71 -97 91 -117h-102q-20 38 -60 92l-12 16q-28 -57 -67 -87.5t-100 -30.5q-109 0 -163 57t-54 136zM237 -6q109 0 163 119l-199 273q-48 -33 -74.5 -81.5t-26.5 -131.5q0 -95 39 -137t98 -42zM177 597 q0 -55 84 -172q60 36 93 80t33 114q0 77 -27 107t-73 30q-47 0 -78.5 -36.5t-31.5 -122.5z" horiz-adv-x="595"/>
<glyph glyph-name="quotesingle" unicode="&apos;" d="M118 750l-84 -166h-4l46 166h42z" horiz-adv-x="148"/>
<glyph glyph-name="parenleft" unicode="(" d="M104 350q0 -53 2 -92t8.5 -86t19.5 -82.5t33.5 -71.5t53 -65t75.5 -51l-2 -3q-132 64 -198 180t-66 271t66 271t198 180l2 -3q-43 -22 -75.5 -51t-53 -65t-33.5 -71.5t-19.5 -82.5t-8.5 -86t-2 -92z" horiz-adv-x="301"/>
<glyph glyph-name="parenright" unicode=")" d="M197 350q0 53 -2 92t-8.5 86t-19.5 82.5t-33.5 71.5t-53 65t-75.5 51l2 3q132 -64 198 -180t66 -271t-66 -271t-198 -180l-2 3q43 22 75.5 51t53 65t33.5 71.5t19.5 82.5t8.5 86t2 92z" horiz-adv-x="301"/>
<glyph glyph-name="asterisk" unicode="*" d="M168 595q0 5 1 7q-66 35 -121 35q-12 0 -18 -1l42 73q26 -58 99 -104q6 6 12 7q-3 85 -40 138h84q-39 -55 -40 -138q5 -1 11 -7q74 45 100 104l42 -73q-6 1 -18 1q-56 0 -122 -35q2 -4 2 -7t-2 -7q66 -35 122 -35q12 0 18 1l-42 -73q-27 59 -100 104q-5 -7 -11 -7 q1 -85 40 -138h-84q37 51 40 138q-7 0 -12 7q-72 -45 -99 -104l-42 73q6 -1 18 -1q55 0 121 35q-1 2 -1 7z" horiz-adv-x="370"/>
<glyph glyph-name="plus" unicode="+" d="M10 374h217v217h12v-217h217v-12h-217v-217h-12v217h-217v12z" horiz-adv-x="466"/>
<glyph glyph-name="comma" unicode="," d="M50 -103v4q17 7 33 29.5t16 41.5q0 12 -7.5 19.5t-17 11t-17 14t-7.5 28.5q0 19 13 32t32 13t32 -14t13 -36q0 -42 -25 -84.5t-65 -58.5z" horiz-adv-x="190"/>
<glyph glyph-name="hyphen" unicode="-" d="M20 264h226v-32h-226v32z" horiz-adv-x="266"/>
<glyph glyph-name="period" unicode="." d="M140 45q0 -19 -13 -32t-32 -13t-32 13t-13 32t13 32t32 13t32 -13t13 -32z" horiz-adv-x="190"/>
<glyph glyph-name="slash" unicode="/" d="M0 -110l400 900h13l-400 -900h-13z" horiz-adv-x="413"/>
<glyph glyph-name="zero" unicode="0" d="M492 374q0 -108 -23.5 -192.5t-75.5 -138t-127 -53.5t-127 53.5t-75.5 138t-23.5 192.5t23.5 193t75.5 139t127 54t127 -54t75.5 -139t23.5 -193zM266 756q-147 0 -147 -382q0 -380 147 -380t147 380q0 382 -147 382z" horiz-adv-x="532"/>
<glyph glyph-name="one" unicode="1" d="M189 760v-643q0 -71 7 -117h-86q7 46 7 117v573q-49 -45 -77 -98v42z" horiz-adv-x="286"/>
<glyph glyph-name="two" unicode="2" d="M225 409v-4q-83 14 -137 67t-54 129q0 71 55 115t142 44q86 0 142.5 -55t56.5 -140q0 -64 -27.5 -130.5t-79.5 -132.5t-101 -117.5t-117 -112.5h250q85 0 110 23l-47 -95h-388q43 46 61.5 65t55 59t52 60.5t43 56.5t39 59.5t28.5 58.5t24 65t12.5 66.5t5.5 74.5 q0 32 -5 62t-17.5 59.5t-37.5 47.5t-60 18q-64 0 -92 -43t-28 -108q0 -87 22 -131t92 -61z" horiz-adv-x="488"/>
<glyph glyph-name="three" unicode="3" d="M87 750h355l-271 -327q39 25 99 25q77 0 130.5 -58.5t53.5 -139.5q0 -114 -74 -187t-179 -73q-41 0 -87 12t-73 32l19 66q17 -45 57 -75.5t84 -30.5q83 0 128.5 74.5t45.5 181.5q0 77 -37.5 131.5t-103.5 54.5q-32 0 -60.5 -21.5t-41.5 -53.5l-12 9l255 308h-225 q-85 0 -110 -23z" horiz-adv-x="484"/>
<glyph glyph-name="four" unicode="4" d="M477 212h-113v-95q0 -71 7 -117h-86q7 46 7 117v95h-287l359 558v-506h56q69 0 86 16zM292 649l-248 -385h248v385z" horiz-adv-x="516"/>
<glyph glyph-name="five" unicode="5" d="M114 750h220q85 0 110 23l-47 -95h-287l-27 -227q56 28 111 28q98 0 168 -59t70 -163q0 -109 -74.5 -188t-177.5 -79q-39 0 -83 13.5t-72 33.5l19 60q16 -50 54 -76.5t82 -26.5q45 0 80 27t54.5 69t29 85t9.5 82q0 33 -9.5 69t-27.5 70.5t-50.5 56.5t-72.5 22 q-48 0 -78 -27.5t-41 -71.5h-5l-3 67l12 6z" horiz-adv-x="474"/>
<glyph glyph-name="six" unicode="6" d="M252 461q109 0 166.5 -66.5t57.5 -164.5q0 -95 -64.5 -167.5t-164.5 -72.5q-108 0 -160 67.5t-52 206.5q0 170 103 313.5t253 192.5l2 -4q-88 -34 -155.5 -123.5t-99.5 -206.5q53 25 114 25zM221 447q-45 0 -85 -17q-22 -86 -22 -167q0 -131 30.5 -200t102.5 -69 q42 0 73 24.5t47 63t23 75.5t7 73q0 91 -45.5 152.5t-130.5 64.5z" horiz-adv-x="511"/>
<glyph glyph-name="seven" unicode="7" d="M229 0h-87q0 68 14 141t30 126.5t55 140t59.5 127.5t72.5 143h-253q-85 0 -110 -23l47 95h365q-95 -146 -153 -318t-58 -309q0 -72 18 -123z" horiz-adv-x="432"/>
<glyph glyph-name="eight" unicode="8" d="M436 607q0 -64 -42 -110.5t-108 -70.5q35 -24 52.5 -36.5t46 -37t42.5 -45t25.5 -50.5t11.5 -63q0 -78 -59.5 -141t-142.5 -63q-42 0 -79.5 10t-70.5 32t-52.5 62.5t-19.5 95.5q0 128 164 201q-66 43 -101 84.5t-35 103.5q0 76 54.5 128.5t138.5 52.5q71 0 123 -45 t52 -108zM401 150q0 26 -6.5 50t-15 41.5t-26.5 37.5t-29.5 31t-37.5 28.5t-36.5 24.5t-39.5 24q-104 -69 -104 -196q0 -80 41.5 -138.5t114.5 -58.5q69 0 104 49.5t35 106.5zM133 617q0 -31 11 -57.5t35.5 -51t45 -40t57.5 -40.5q49 28 69 72t20 107q0 62 -26.5 105.5 t-83.5 43.5q-60 0 -94 -39.5t-34 -99.5z" horiz-adv-x="504"/>
<glyph glyph-name="nine" unicode="9" d="M263 289q-110 0 -169 68t-59 167q0 94 63.5 165t162.5 71q107 0 161.5 -78.5t54.5 -222.5q0 -166 -99.5 -298.5t-249.5 -180.5l-2 4q88 34 153.5 123t95.5 206q-51 -24 -112 -24zM293 304q45 0 84 17q21 81 21 166q0 269 -137 269q-42 0 -73 -24.5t-46 -63t-21.5 -75.5 t-6.5 -73q0 -91 47 -153.5t132 -62.5z" horiz-adv-x="512"/>
<glyph glyph-name="colon" unicode=":" d="M140 341q0 -19 -13 -32t-32 -13t-32 13t-13 32t13 32t32 13t32 -13t13 -32zM140 45q0 -19 -13 -32t-32 -13t-32 13t-13 32t13 32t32 13t32 -13t13 -32z" horiz-adv-x="190"/>
<glyph glyph-name="semicolon" unicode=";" d="M50 -103v4q17 7 33 29.5t16 41.5q0 12 -7.5 19.5t-17 11t-17 14t-7.5 28.5q0 19 13 32t32 13t32 -14t13 -36q0 -42 -25 -84.5t-65 -58.5zM140 341q0 -19 -13 -32t-32 -13t-32 13t-13 32t13 32t32 13t32 -13t13 -32z" horiz-adv-x="190"/>
<glyph glyph-name="less" unicode="&lt;" d="M456 175l-446 193l446 193v-12l-419 -181l419 -181v-12z" horiz-adv-x="466"/>
<glyph glyph-name="equal" unicode="=" d="M10 319h446v-12h-446v12zM10 429h446v-12h-446v12z" horiz-adv-x="466"/>
<glyph glyph-name="greater" unicode="&gt;" d="M456 368l-446 -193v12l419 181l-419 181v12z" horiz-adv-x="466"/>
<glyph glyph-name="question" unicode="?" d="M182 166v-4q-33 0 -51.5 21t-18.5 49q0 42 18 81.5t44 72t52 65.5t44 74.5t18 86.5q0 54 -27.5 97t-76.5 43q-51 0 -77.5 -34t-26.5 -95q0 -57 14 -89t58 -48l-1 -4q-126 30 -126 139q0 63 46 101t113 38q69 0 122.5 -42t53.5 -106q0 -57 -24 -104.5t-58 -80t-68 -61.5 t-58 -63t-24 -71q0 -26 15.5 -46t38.5 -20zM210 45q0 -19 -13 -32t-32 -13t-32 13t-13 32t13 32t32 13t32 -13t13 -32z" horiz-adv-x="380"/>
<glyph glyph-name="at" unicode="@" d="M359 13q38 0 68 40t30 102v135q0 100 -81 100q-104 0 -104 -199q0 -89 26 -133.5t61 -44.5zM570 -3q109 0 109 195q0 75 -16.5 137t-51 110.5t-93 75.5t-137.5 27q-153 0 -225 -96.5t-72 -253.5t72 -253t225 -96q138 0 227 86l11 -21q-97 -69 -238 -69q-158 0 -254.5 102 t-96.5 251t96.5 252t254.5 103t255 -103t97 -252q0 -44 -12.5 -80t-31.5 -57.5t-42 -36.5t-42.5 -20.5t-34.5 -5.5q-113 0 -113 115q-12 -58 -47 -86.5t-67 -28.5q-60 0 -99.5 51.5t-39.5 147.5q0 97 47.5 150t124.5 53q27 0 73.5 -21.5t69.5 -24.5v-242q0 -109 51 -109z " horiz-adv-x="763"/>
<glyph glyph-name="A" unicode="A" d="M400 117l-47 151h-238l-36 -115q-17 -55 -17 -124q0 -21 2 -29h-59q33 39 70 153l193 617l204 -653q20 -67 43 -117h-86q-4 35 -29 117zM234 649l-118 -377h235z"/>
<glyph glyph-name="B" unicode="B" d="M40 750h138q123 0 180 -48t57 -118q0 -60 -44 -105t-138 -58q48 -3 87 -17t63.5 -35t41 -48t23.5 -54.5t7 -55.5q0 -38 -12.5 -73t-39 -67t-74.5 -51.5t-111 -19.5h-178q7 38 7 117v517q0 79 -7 116zM218 418h-99v-414h99q64 0 110.5 55t46.5 152t-46.5 152t-110.5 55z M178 746h-59v-324h65q64 0 107.5 40t43.5 122q0 84 -45 123t-112 39z" horiz-adv-x="480"/>
<glyph glyph-name="C" unicode="C" d="M498 220h10q-14 -100 -67.5 -165t-140.5 -65q-125 0 -192.5 109t-67.5 275t67.5 276t192.5 110q111 0 188 -61l-21 -88q-11 73 -57 109t-110 36q-65 0 -107 -54t-58.5 -136t-16.5 -192q0 -109 16.5 -191t58.5 -135.5t107 -53.5q87 0 136.5 63t61.5 163z" horiz-adv-x="518"/>
<glyph glyph-name="D" unicode="D" d="M40 750h178q128 0 207 -107.5t79 -268.5q0 -160 -78.5 -267t-207.5 -107h-178q7 38 7 117v517q0 79 -7 116zM218 746h-99v-742h99q97 0 152 104.5t55 265.5t-55 266.5t-152 105.5z" horiz-adv-x="544"/>
<glyph glyph-name="E" unicode="E" d="M433 88l-31 -88h-362q7 38 7 117v517q0 79 -7 116h332l31 -87q-96 83 -185 83h-99v-324h51q97 0 156 24l52 -51q-72 23 -208 23h-51v-414h129q96 0 185 84z" horiz-adv-x="463"/>
<glyph glyph-name="F" unicode="F" d="M170 422q97 0 156 24l52 -51q-72 23 -208 23h-51v-302q0 -78 7 -116h-86q7 38 7 117v517q0 79 -7 116h332l31 -87q-96 83 -185 83h-99v-324h51z" horiz-adv-x="413"/>
<glyph glyph-name="G" unicode="G" d="M508 270v-175q-18 -3 -40.5 -20.5t-41 -36t-52.5 -33.5t-74 -15q-125 0 -192.5 109t-67.5 275t67.5 276t192.5 110q111 0 188 -61l-21 -88q-11 73 -57 109t-110 36q-65 0 -107 -54t-58.5 -136t-16.5 -192q0 -109 16.5 -191t58.5 -135.5t107 -53.5q57 0 96.5 31.5 t39.5 97.5v147q0 71 -7 116h86q-7 -45 -7 -116z" horiz-adv-x="555"/>
<glyph glyph-name="H" unicode="H" d="M493 634v-517q0 -79 7 -117h-86q7 46 7 117v301h-302v-301q0 -79 7 -117h-86q7 46 7 117v517q0 71 -7 116h86q-7 -37 -7 -116v-212h302v212q0 71 -7 116h86q-7 -37 -7 -116z" horiz-adv-x="540"/>
<glyph glyph-name="I" unicode="I" d="M119 634v-517q0 -71 7 -117h-86q7 46 7 117v517q0 71 -7 116h86q-7 -45 -7 -116z" horiz-adv-x="166"/>
<glyph glyph-name="J" unicode="J" d="M299 634v-418q0 -226 -157 -226q-82 0 -132 33l20 130q6 -89 34 -124t78 -35q45 0 65 40.5t20 137.5v462q0 71 -7 116h86q-7 -45 -7 -116z" horiz-adv-x="346"/>
<glyph glyph-name="K" unicode="K" d="M283 597l-104 -126l243 -355q40 -58 92 -116h-99q-8 14 -20 32.5t-29.5 43t-27.5 40.5l-204 302h-15v-302q0 -71 7 -116h-86q7 37 7 116v517q0 80 -7 117h86q-7 -45 -7 -117v-211h13l146 175q78 94 78 145q0 6 -1 8h69q-35 -27 -141 -153z" horiz-adv-x="514"/>
<glyph glyph-name="L" unicode="L" d="M433 88l-31 -88h-362q7 38 7 117v517q0 79 -7 116h86q-7 -37 -7 -116v-630h129q96 0 185 84z" horiz-adv-x="443"/>
<glyph glyph-name="M" unicode="M" d="M632 0h-87q1 9 1 27q0 42 -6 90l-60 555l-183 -597l-179 581l-54 -503q-2 -24 -2 -46q0 -78 13 -107h-60q15 23 28 71.5t17 81.5l55 513q-16 51 -33 84h82l168 -547l134 437q16 54 16 90q0 13 -1 20h70q-1 -8 -1 -26q0 -40 6 -90l56 -517q9 -76 20 -117z" horiz-adv-x="647"/>
<glyph glyph-name="N" unicode="N" d="M162 633l306 -509v473q0 33 -7.5 81.5t-19.5 71.5h59q-12 -23 -20 -71.5t-8 -81.5v-607h-4l-397 656v-494q0 -33 8 -81.5t20 -70.5h-59q12 22 19.5 70.5t7.5 81.5v501q-39 62 -64 97h96q18 -43 63 -117z" horiz-adv-x="530"/>
<glyph glyph-name="O" unicode="O" d="M572 374q0 -165 -70 -274.5t-196 -109.5t-196 109.5t-70 274.5t70 275.5t196 110.5t196 -110.5t70 -275.5zM306 756q-64 0 -107.5 -53.5t-61.5 -137t-18 -191.5t18 -190.5t61.5 -136t107.5 -53.5t107.5 53.5t61.5 136t18 190.5t-18 191.5t-61.5 137t-107.5 53.5z" horiz-adv-x="612"/>
<glyph glyph-name="P" unicode="P" d="M126 0h-86q7 37 7 116v517q0 79 -7 117h178q63 0 111 -18t74.5 -48t39 -64t12.5 -71q0 -82 -57.5 -141.5t-179.5 -59.5h-99v-232q0 -79 7 -116zM218 746h-99v-394h99q66 0 111.5 50t45.5 147q0 96 -46 146.5t-111 50.5z" horiz-adv-x="480"/>
<glyph glyph-name="Q" unicode="Q" d="M495 -169q-51 0 -141.5 44t-140.5 44q-26 0 -40 -7l-3 4q16 24 51 44.5t71 30.5q-80 4 -138 57.5t-86 137.5t-28 188q0 165 70 275.5t196 110.5t196 -110.5t70 -275.5t-70 -274.5t-196 -109.5q-33 -8 -70 -26.5t-57 -42.5q45 20 113 20q44 0 123 -23.5t121 -23.5 q33 0 54.5 8.5t36.5 38.5l3 -2q-50 -108 -135 -108zM306 756q-64 0 -107.5 -53.5t-61.5 -137t-18 -191.5t18 -190.5t61.5 -136t107.5 -53.5t107.5 53.5t61.5 136t18 190.5t-18 191.5t-61.5 137t-107.5 53.5z" horiz-adv-x="612"/>
<glyph glyph-name="R" unicode="R" d="M124 418h-5v-302q0 -71 7 -116h-86q7 37 7 116v518q0 78 -7 116h148q124 0 180.5 -43.5t56.5 -112.5q0 -67 -50.5 -117t-157.5 -58l205 -303q40 -58 92 -116h-99q-10 18 -77 116l-201 296q-4 6 -13 6zM188 746h-69v-324h69q65 0 111 44t46 128q0 152 -157 152z" horiz-adv-x="514"/>
<glyph glyph-name="S" unicode="S" d="M20 68l22 88q18 -76 72 -119t122 -43q67 0 108 48.5t41 115.5q0 94 -89 164l-110 87q-83 65 -110 101t-27 95q0 52 49.5 103.5t134.5 51.5q61 0 105 -12.5t89 -48.5l-22 -78q-33 135 -172 135q-36 0 -63.5 -13.5t-41 -33t-20 -36t-6.5 -28.5q0 -48 25.5 -81.5 t105.5 -97.5l110 -87q105 -83 105 -177q0 -90 -53 -151t-159 -61q-52 0 -111 20.5t-105 57.5z" horiz-adv-x="478"/>
<glyph glyph-name="T" unicode="T" d="M232 0q7 46 7 117v629h-44q-91 0 -185 -83l31 87h468l31 -87q-94 83 -185 83h-44v-629q0 -71 7 -117h-86z" horiz-adv-x="550"/>
<glyph glyph-name="U" unicode="U" d="M255 -10q-60 0 -104 19t-65 43.5t-33 59.5t-14 54t-2 40v427q0 71 -7 117h86q-7 -38 -7 -117v-427q0 -20 2 -39t11.5 -51.5t27 -56t52.5 -41.5t82 -18t83 18.5t54.5 43t29.5 56.5t13.5 52t2.5 36v391q0 33 -7.5 81.5t-19.5 71.5h59q-12 -23 -20 -71.5t-8 -81.5v-391 q0 -19 -1.5 -37.5t-13.5 -54t-32.5 -60t-64.5 -44.5t-104 -20z" horiz-adv-x="519"/>
<glyph glyph-name="V" unicode="V" d="M120 633l166 -532l155 496q17 55 17 124q0 21 -2 29h59q-33 -39 -70 -153l-193 -617l-204 653q-20 67 -43 117h86q4 -35 29 -117z"/>
<glyph glyph-name="W" unicode="W" d="M120 633l151 -521l106 368l-44 153q-16 58 -43 117h86q4 -35 29 -117l8 -28q15 64 15 116q0 21 -2 29h59q-19 -22 -39 -69.5t-31 -83.5l141 -485l140 485q17 62 17 124q0 21 -2 29h59q-19 -22 -39 -69.5t-31 -83.5l-178 -617l-143 493l-142 -493l-189 653q-16 58 -43 117 h86q4 -35 29 -117z" horiz-adv-x="775"/>
<glyph glyph-name="X" unicode="X" d="M177 633l104 -202l97 166q50 83 50 153h61q-42 -42 -106 -153l-100 -171l161 -310q39 -77 65 -116h-96q-13 42 -51 116l-123 237l-115 -201q-17 -30 -35 -79.5t-18 -72.5h-61q23 22 56 69.5t53 82.5l118 206l-142 275q-39 76 -65 117h96q13 -42 51 -117z" horiz-adv-x="519"/>
<glyph glyph-name="Y" unicode="Y" d="M194 334l-130 299q-36 84 -59 117h86q1 -12 6.5 -27.5t10.5 -27t14.5 -32.5t13.5 -30l128 -295l120 277q21 48 21 98q0 17 -3 37h69q-39 -36 -83 -135l-122 -281v-217q0 -71 7 -117h-86q7 46 7 117v217z" horiz-adv-x="476"/>
<glyph glyph-name="Z" unicode="Z" d="M500 68l-31 -68h-449l382 746h-177q-90 0 -175 -53l31 57h402l-382 -746h214q97 0 185 64z"/>
<glyph glyph-name="bracketleft" unicode="[" d="M128 797v-894h103v-4h-171v902h171v-4h-103z" horiz-adv-x="251"/>
<glyph glyph-name="backslash" unicode="\" d="M13 790l400 -900h-13l-400 900h13z" horiz-adv-x="413"/>
<glyph glyph-name="bracketright" unicode="]" d="M123 -97v894h-103v4h171v-902h-171v4h103z" horiz-adv-x="251"/>
<glyph glyph-name="underscore" unicode="_" d="M-2 -50h510v-12h-510v12z" horiz-adv-x="506"/>
<glyph glyph-name="grave" unicode="`" d="M154 474l-134 166h52l86 -166h-4z" horiz-adv-x="178"/>
<glyph glyph-name="a" unicode="a" d="M280 254v-149q0 -73 4 -105h-66v44q-40 -54 -95 -54q-40 0 -69 30.5t-29 85.5q0 41 34.5 77t101.5 36q24 0 57 -6v41q0 75 -9.5 105.5t-45.5 30.5q-68 0 -97 -85l-20 65q57 24 117 24q32 0 54.5 -9t34.5 -21.5t18.5 -33.5t8 -37t1.5 -39zM155 14q37 0 63 38v154 q-20 7 -41 7q-40 0 -66.5 -26.5t-26.5 -77.5q0 -95 71 -95z" horiz-adv-x="319"/>
<glyph glyph-name="b" unicode="b" d="M96 755v-476q12 58 47 86.5t67 28.5q61 0 100 -51.5t39 -147.5q0 -97 -47.5 -150t-124.5 -53q-46 0 -81 25q-59 35 -62 36v613q0 58 -29 74q5 -1 17 -1q50 0 74 16zM194 373q-38 0 -68 -39.5t-30 -101.5v-127q0 -109 81 -109q104 0 104 199q0 89 -26 133.5t-61 44.5z" horiz-adv-x="379"/>
<glyph glyph-name="c" unicode="c" d="M195 390q-49 0 -73 -55t-24 -142q0 -88 29.5 -139t81.5 -51q54 0 96 50l3 -2q-50 -59 -113 -59q-80 0 -122.5 54.5t-42.5 146.5q0 86 43.5 143.5t121.5 57.5q63 0 113 -27l-21 -68q-15 91 -92 91z" horiz-adv-x="321"/>
<glyph glyph-name="d" unicode="d" d="M345 755v-653q0 -45 5 -75l-71 -35q4 35 4 110v5q-12 -58 -47 -86.5t-67 -28.5q-60 0 -99.5 51.5t-39.5 147.5q0 97 47.5 150t124.5 53q46 0 81 -25v297q0 59 -28 74q5 -1 17 -1q49 0 73 16zM185 13q38 0 68 39t30 101v137q0 100 -81 100q-104 0 -104 -199 q0 -89 26 -133.5t61 -44.5z" horiz-adv-x="385"/>
<glyph glyph-name="e" unicode="e" d="M195 394q50 0 82.5 -22t32.5 -55q0 -35 -26 -54t-86 -30q-60 -12 -100 -17v-23q0 -88 29.5 -139t81.5 -51q54 0 96 50l3 -2q-50 -59 -113 -59q-80 0 -122.5 54.5t-42.5 146.5q0 86 43.5 143.5t121.5 57.5zM248 317q0 29 -12.5 51t-40.5 22q-45 0 -69.5 -47.5 t-27.5 -122.5q49 6 99 18q51 11 51 79z" horiz-adv-x="333"/>
<glyph glyph-name="f" unicode="f" d="M122 382v-266q0 -84 4 -116h-71q5 32 5 116v266h-50v4h50v263q0 109 102 109q32 0 63 -17l-20 -55q-7 22 -11 33.5t-13 23t-19 11.5q-23 0 -31.5 -16t-8.5 -52v-300h50v-4h-50z" horiz-adv-x="181"/>
<glyph glyph-name="g" unicode="g" d="M307 462q-15 0 -25.5 -11.5t-10.5 -27.5q0 -17 8.5 -32.5t22.5 -33t20 -28.5q27 -38 27 -86q0 -64 -45 -107.5t-109 -43.5q-25 0 -51 8q-47 -43 -47 -52t20 -12q37 -8 55 -12.5t53.5 -15t54.5 -20.5t41.5 -25t32.5 -34t10 -42q0 -73 -55 -109t-133 -36q-38 0 -74.5 10.5 t-64 34.5t-27.5 56q0 57 54 84t121 30q-12 4 -156 33q36 46 109 112q-44 17 -70.5 54.5t-26.5 86.5q0 64 45 107.5t109 43.5q53 0 92 -30q-30 37 -30 72q0 26 16 50t42 24q9 0 13 -2l2 -55q-9 9 -23 9zM320 -149q0 65 -121 102q-57 -1 -96 -26t-39 -80q0 -50 33.5 -75 t90.5 -25q60 0 96 30t36 74zM281 243q0 63 -20.5 105t-65.5 42t-65.5 -42t-20.5 -105t20.5 -105t65.5 -42t65.5 42t20.5 105z" horiz-adv-x="374"/>
<glyph glyph-name="h" unicode="h" d="M248 0q4 32 4 105v144q0 60 -19.5 90t-51.5 30q-38 0 -59.5 -32t-25.5 -90v-142q0 -73 5 -105h-71q4 32 4 105v561q0 58 -29 74q5 -1 17 -1q50 0 74 16v-468q12 55 41.5 81t59.5 26q56 0 86.5 -39t30.5 -106v-144q0 -73 5 -105h-71z" horiz-adv-x="354"/>
<glyph glyph-name="i" unicode="i" d="M126 396v-280q0 -84 4 -116h-71q5 32 5 116v192q0 58 -29 74q5 -1 17 -1q52 0 74 15zM140 523q0 -19 -13 -32t-32 -13t-32 13t-13 32t13 32t32 13t32 -13t13 -32z" horiz-adv-x="180"/>
<glyph glyph-name="j" unicode="j" d="M54 -148v456q0 58 -29 74q5 -1 17 -1q52 0 74 15v-545q0 -109 -102 -109q-34 0 -55 21l2 6q17 -19 41 -19q52 0 52 102zM130 523q0 -19 -13 -32t-32 -13t-32 13t-13 32t13 32t32 13t32 -13t13 -32z" horiz-adv-x="165"/>
<glyph glyph-name="k" unicode="k" d="M106 755v-591l79 109q38 52 38 97q0 6 -2 16h72q-52 -44 -102 -113l-23 -31l105 -155q46 -68 62 -87h-78q-10 22 -42 68l-84 123l-25 -35v-51q0 -73 4 -105h-71q5 32 5 105v561q0 58 -29 74q5 -1 17 -1q50 0 74 16z" horiz-adv-x="335"/>
<glyph glyph-name="l" unicode="l" d="M106 105q0 -73 4 -105h-71q5 32 5 105v561q0 58 -29 74q5 -1 17 -1q50 0 74 16v-650z" horiz-adv-x="155"/>
<glyph glyph-name="m" unicode="m" d="M247 0q5 32 5 105v164q0 105 -58 105q-32 0 -55 -37.5t-23 -89.5v-142q0 -73 4 -105h-71q5 32 5 105v203q0 58 -29 74q5 -1 17 -1q52 0 74 15v-109q22 107 100 107q91 0 98 -107q22 107 100 107q98 0 98 -125v-164q0 -73 4 -105h-71q5 32 5 105v164q0 105 -58 105 q-32 0 -55 -37.5t-23 -89.5v-142q0 -73 4 -105h-71z" horiz-adv-x="551"/>
<glyph glyph-name="n" unicode="n" d="M267 0q5 32 5 105v164q0 50 -18.5 77.5t-49.5 27.5q-38 0 -63 -37t-25 -90v-142q0 -73 4 -105h-71q5 32 5 105v203q0 58 -29 74q5 -1 17 -1q52 0 74 15v-109q12 56 43 81.5t67 25.5q55 0 81.5 -35t26.5 -90v-164q0 -73 4 -105h-71z" horiz-adv-x="373"/>
<glyph glyph-name="o" unicode="o" d="M358 193q0 -86 -43 -143.5t-121 -57.5t-121 57.5t-43 143.5t43 143.5t121 57.5t121 -57.5t43 -143.5zM194 390q-49 0 -72.5 -55t-23.5 -142t23.5 -142t72.5 -55t72.5 55t23.5 142t-23.5 142t-72.5 55z" horiz-adv-x="388"/>
<glyph glyph-name="p" unicode="p" d="M116 17v-165q0 -70 4 -102h-71q5 32 5 102v457q0 57 -29 74q6 -1 19 -1q49 0 72 14v-117q12 58 47 86.5t67 28.5q61 0 100 -51.5t39 -147.5q0 -97 -47.5 -150t-124.5 -53q-46 0 -81 25zM116 232v-137q0 -99 81 -99q104 0 104 199q0 89 -26 133.5t-61 44.5 q-38 0 -68 -39.5t-30 -101.5z" horiz-adv-x="399"/>
<glyph glyph-name="q" unicode="q" d="M283 369q25 7 66 31q-4 -33 -4 -131v-402q0 -85 4 -117h-71q5 32 5 117v240q-12 -58 -47 -86.5t-68 -28.5q-60 0 -99 51.5t-39 147.5q0 97 47 150t124 53q45 0 82 -25zM184 13q39 0 69 41t30 106v121q0 109 -82 109q-104 0 -104 -199q0 -89 26 -133.5t61 -44.5z" horiz-adv-x="379"/>
<glyph glyph-name="r" unicode="r" d="M282 371l-30 -65q-2 27 -16.5 42.5t-38.5 15.5q-33 0 -57 -33.5t-24 -83.5v-131q0 -84 4 -116h-71q5 32 5 116v192q0 58 -29 74q5 -1 17 -1q52 0 74 15v-109q12 56 43 81.5t67 25.5q31 0 56 -23z" horiz-adv-x="282"/>
<glyph glyph-name="s" unicode="s" d="M85 335q0 -26 19.5 -48t47.5 -39t55.5 -35.5t47 -45.5t19.5 -61q0 -47 -35.5 -80.5t-90.5 -33.5t-123 37l21 78q8 -54 36 -82.5t66 -28.5q34 0 56 20.5t22 51.5t-18.5 56t-44.5 42l-52 34t-44.5 41t-18.5 54q0 40 27.5 69.5t74.5 29.5q63 0 113 -27l-21 -68 q-15 91 -92 91q-28 0 -46.5 -15.5t-18.5 -39.5z" horiz-adv-x="299"/>
<glyph glyph-name="t" unicode="t" d="M214 386v-4h-83v-290q0 -21 1 -33.5t4.5 -28t12 -23t22.5 -7.5q24 0 41 19l2 -6q-21 -21 -55 -21q-26 0 -44 6.5t-27 15t-13.5 24.5t-5 25.5t-0.5 27.5v291h-59v4h59v140l62 52v-192h83z" horiz-adv-x="224"/>
<glyph glyph-name="u" unicode="u" d="M319 386v-284q0 -45 5 -75l-71 -35q4 35 4 107q-12 -56 -43 -81.5t-67 -25.5q-50 0 -79 32t-29 93v164q0 73 -4 105h66v-269q0 -51 18.5 -78t49.5 -27q37 0 62.5 36.5t25.5 90.5v142q0 73 -4 105h66z" horiz-adv-x="354"/>
<glyph glyph-name="v" unicode="v" d="M116 269l75 -197l76 197q13 33 13 72q0 24 -6 45h60q-32 -35 -63 -117l-107 -277h-4l-106 277q-36 91 -49 117h71q8 -35 40 -117z" horiz-adv-x="339"/>
<glyph glyph-name="w" unicode="w" d="M112 269l64 -188l64 188q-29 82 -45 117h71q4 -21 36 -117l64 -188l64 188q14 38 14 73q0 28 -11 44h60q-29 -32 -59 -117l-95 -277h-4l-93 271l-93 -271h-4l-95 277q-29 82 -45 117h71q4 -21 36 -117z" horiz-adv-x="498"/>
<glyph glyph-name="x" unicode="x" d="M72 0h-62q54 46 82 91l52 84l-52 94q-44 81 -70 117h71q21 -49 61 -117l23 -42l26 42q36 57 40 117h62q-51 -44 -96 -117l-29 -47l59 -105q58 -99 71 -117h-71q-25 53 -62 117l-30 53l-49 -79q-24 -39 -26 -91z" horiz-adv-x="320"/>
<glyph glyph-name="y" unicode="y" d="M116 269l75 -197l76 197q13 33 13 72q0 24 -6 45h60q-32 -35 -63 -117l-141 -365q-34 -87 -34 -132q0 -16 1 -22h-59q52 61 88 154l34 88l-106 277q-36 91 -49 117h71q8 -35 40 -117z" horiz-adv-x="339"/>
<glyph glyph-name="z" unicode="z" d="M30 317l26 69h241l-215 -382h75q39 0 79 19.5t70 55.5l-30 -79h-266l215 382h-50q-77 0 -145 -65z" horiz-adv-x="316"/>
<glyph glyph-name="braceleft" unicode="{" d="M20 348v4q90 0 90 112q0 24 -6 72t-6 78q0 88 53.5 134.5t139.5 52.5v-4q-69 -5 -102 -39t-33 -102q0 -38 8 -98t8 -89q0 -46 -24.5 -79.5t-66.5 -39.5q42 -6 66.5 -39.5t24.5 -79.5q0 -29 -8 -89t-8 -98q0 -68 33 -102t102 -39v-4q-86 6 -139.5 52.5t-53.5 134.5 q0 30 6 78t6 72q0 112 -90 112z" horiz-adv-x="301"/>
<glyph glyph-name="bar" unicode="|" d="M50 -110v900h12v-900h-12z" horiz-adv-x="112"/>
<glyph glyph-name="braceright" unicode="}" d="M281 352v-4q-90 0 -90 -112q0 -24 6 -72t6 -78q0 -88 -53.5 -134.5t-139.5 -52.5v4q69 5 102 39t33 102q0 38 -8 98t-8 89q0 46 24.5 79.5t66.5 39.5q-42 6 -66.5 39.5t-24.5 79.5q0 29 8 89t8 98q0 68 -33 102t-102 39v4q86 -6 139.5 -52.5t53.5 -134.5q0 -30 -6 -78 t-6 -72q0 -112 90 -112z" horiz-adv-x="301"/>
<glyph glyph-name="asciitilde" unicode="~" d="M366 348q23 0 39.5 9t24.5 19t21 32l5 -2q-25 -49 -54.5 -66t-77.5 -17q-35 0 -115.5 32.5t-108.5 32.5q-23 0 -39.5 -9t-24.5 -19t-21 -32l-5 2q25 49 54.5 66t77.5 17q32 0 111.5 -32.5t112.5 -32.5z" horiz-adv-x="466"/>
<glyph glyph-name="uni00A0" unicode=" " horiz-adv-x="150"/>
<glyph glyph-name="exclamdown" unicode="¡" d="M50 455q0 19 13 32t32 13t32 -13t13 -32t-13 -32t-32 -13t-32 13t-13 32zM93 347h4q18 -460 43 -597h-90q25 137 43 597z" horiz-adv-x="190"/>
<glyph glyph-name="cent" unicode="¢" d="M160 845v-285q15 4 35 4q11 0 31 -2v283h4v-283q44 -7 78 -25l-21 -68q-12 69 -57 85v-380q40 8 75 49l3 -2q-35 -42 -78 -54v-257h-4v256q-13 -4 -31 -4t-35 3v-255h-4v256q-62 12 -94 64.5t-32 132.5q0 74 32.5 128.5t93.5 68.5v285h4zM195 560q-18 0 -35 -10v-362 q21 -15 49 -15q11 0 17 1v382q-13 4 -31 4zM98 363q0 -128 58 -172v357q-58 -38 -58 -185z" horiz-adv-x="321"/>
<glyph glyph-name="sterling" unicode="£" d="M340 410h-174v-193q0 -66 -30 -115t-90 -98h202q96 0 185 84l-31 -88h-362v4q30 35 42 77t12 136v193h-69v4h69v150q0 81 37.5 138.5t113.5 57.5q89 0 147 -61l-22 -78q-28 82 -50.5 108.5t-74.5 26.5q-26 0 -42.5 -13.5t-24 -42.5t-10 -59t-2.5 -77v-150h174v-4z" horiz-adv-x="443"/>
<glyph glyph-name="yen" unicode="¥" d="M426 330h-160v-66h160v-4h-160v-143q0 -71 7 -117h-86q7 46 7 117v143h-144v4h144v66h-144v4h144l-130 299q-36 84 -59 117h86q1 -12 6.5 -27.5t10.5 -27t14.5 -32.5t13.5 -30l128 -295l120 277q21 48 21 98q0 17 -3 37h69q-39 -36 -83 -135l-122 -281h160v-4z" horiz-adv-x="476"/>
<glyph glyph-name="brokenbar" unicode="¦" d="M50 -110v370h12v-370h-12zM50 420v370h12v-370h-12z" horiz-adv-x="112"/>
<glyph glyph-name="section" unicode="§" d="M407 -28q0 -86 -54 -144t-148 -58q-47 0 -85.5 18t-89.5 60l22 88q20 -82 54.5 -122t98.5 -40q61 0 100 44t39 110q0 84 -89 154l-110 87q-105 83 -105 177q0 93 75 158q-36 39 -36 101q0 23 10 49t29.5 50t55 40t79.5 16q99 0 164 -61l-22 -78q-18 73 -53.5 104 t-88.5 31q-36 0 -62 -13t-38 -33t-16.5 -36t-4.5 -29q0 -46 23 -74t108 -95l110 -87q105 -83 105 -177q0 -49 -23 -98.5t-63 -81.5q15 -33 15 -60zM192 226l110 -87q62 -50 87 -101q36 50 36 130q0 86 -99 164l-110 87q-83 65 -96 80q-27 -35 -27 -109q0 -86 99 -164z" horiz-adv-x="508"/>
<glyph glyph-name="dieresis" unicode="¨" d="M280 523q0 -19 -13 -32t-32 -13t-32 13t-13 32t13 32t32 13t32 -13t13 -32zM140 523q0 -19 -13 -32t-32 -13t-32 13t-13 32t13 32t32 13t32 -13t13 -32z" horiz-adv-x="330"/>
<glyph glyph-name="copyright" unicode="©" d="M795 374q0 -162 -105.5 -273t-277.5 -111t-277 111t-105 273t105 274t277 112t277.5 -111.5t105.5 -274.5zM412 756q-85 0 -149 -29.5t-102 -83t-56 -121t-18 -149.5t18 -149t56 -119.5t101.5 -81.5t149.5 -29t150 29t102 81.5t56 119.5t18 149t-18 149.5t-56 121 t-102 83t-150 29.5zM560 278h27q-11 -70 -54.5 -115.5t-114.5 -45.5q-104 0 -163.5 77t-59.5 192t59.5 193t163.5 78q90 0 153 -43l-25 -72q-10 53 -44.5 82t-83.5 29q-78 0 -113.5 -74t-35.5 -193t35.5 -192t113.5 -73q69 0 101 42t41 115z" horiz-adv-x="833"/>
<glyph glyph-name="guillemotleft" unicode="«" d="M197 193l119 -193h-4l-172 193l172 193h4zM87 193l119 -193h-4l-172 193l172 193h4z" horiz-adv-x="336"/>
<glyph glyph-name="logicalnot" unicode="¬" d="M20 264h326v-132h-4v100h-322v32z" horiz-adv-x="366"/>
<glyph glyph-name="uni00AD" unicode="­" d="M20 264h226v-32h-226v32z" horiz-adv-x="266"/>
<glyph glyph-name="registered" unicode="®" d="M795 374q0 -162 -105.5 -273t-277.5 -111t-277 111t-105 273t105 274t277 112t277.5 -111.5t105.5 -274.5zM412 756q-85 0 -149 -29.5t-102 -83t-56 -121t-18 -149.5t18 -149t56 -119.5t101.5 -81.5t149.5 -29t150 29t102 81.5t56 119.5t18 149t-18 149.5t-56 121 t-102 83t-150 29.5zM337 417h-4v-211q0 -58 4 -79h-71q6 25 6 79v362q0 53 -6 79h114q88 0 131.5 -30t43.5 -78q0 -46 -35 -80.5t-110 -40.5l143 -212q29 -41 63 -79h-78q-6 10 -54 79l-139 206q-3 5 -8 5zM380 643h-47v-222h47q46 0 78 30t32 88q0 104 -110 104z" horiz-adv-x="833"/>
<glyph glyph-name="macron" unicode="¯" d="M20 540h266v-20h-266v20z" horiz-adv-x="306"/>
<glyph glyph-name="degree" unicode="°" d="M30 638q0 46 33.5 79t78.5 33t77.5 -33t32.5 -79t-32.5 -78t-77.5 -32q-46 0 -79 32t-33 78zM66 638q0 -41 20.5 -73.5t55.5 -32.5t54.5 32t19.5 74t-19.5 75t-54.5 33t-55.5 -33.5t-20.5 -74.5z" horiz-adv-x="282"/>
<glyph glyph-name="acute" unicode="´" d="M158 640l-134 -166h-4l86 166h52z" horiz-adv-x="178"/>
<glyph glyph-name="paragraph" unicode="¶" d="M356 746h-28v-786l-32 -20v408h-19q-122 0 -179.5 59.5t-57.5 141.5q0 37 12.5 71t39 64t74.5 48t111 18h118q-7 -38 -7 -117v-633l-32 -20v766z" horiz-adv-x="435"/>
<glyph glyph-name="periodcentered" unicode="·" d="M140 315q0 -19 -13 -32t-32 -13t-32 13t-13 32t13 32t32 13t32 -13t13 -32z" horiz-adv-x="190"/>
<glyph glyph-name="cedilla" unicode="¸" d="M391 -182q-51 0 -71 44l3 2q19 -35 58 -35q37 0 37 54q0 47 -34 47q-16 0 -26 -10l20 74h4l-17 -65q17 10 42 10q27 0 43 -16.5t16 -39.5q0 -28 -22.5 -46.5t-52.5 -18.5z" horiz-adv-x="833"/>
<glyph glyph-name="guillemotright" unicode="»" d="M130 0l119 193l-119 193h4l172 -193l-172 -193h-4zM20 0l119 193l-119 193h4l172 -193l-172 -193h-4z" horiz-adv-x="336"/>
<glyph glyph-name="questiondown" unicode="¿" d="M203 334v4q33 0 51.5 -21t18.5 -49q0 -42 -18 -81.5t-44 -72t-52 -65.5t-44 -74.5t-18 -86.5q0 -54 27.5 -97t76.5 -43q51 0 77.5 34t26.5 95q0 57 -14 89t-58 48l1 4q126 -30 126 -139q0 -63 -46 -101t-113 -38q-69 0 -122.5 42t-53.5 106q0 57 24 104.5t58 80t68 61.5 t58 63t24 71q0 26 -15.5 46t-38.5 20zM175 455q0 19 13 32t32 13t32 -13t13 -32t-13 -32t-32 -13t-32 13t-13 32z" horiz-adv-x="380"/>
<glyph glyph-name="Agrave" unicode="À" d="M400 117l-47 151h-238l-36 -115q-17 -55 -17 -124q0 -21 2 -29h-59q33 39 70 153l193 617l204 -653q20 -67 43 -117h-86q-4 35 -29 117zM234 649l-118 -377h235zM333 838l-134 166h52l86 -166h-4z"/>
<glyph glyph-name="Aacute" unicode="Á" d="M400 117l-47 151h-238l-36 -115q-17 -55 -17 -124q0 -21 2 -29h-59q33 39 70 153l193 617l204 -653q20 -67 43 -117h-86q-4 35 -29 117zM234 649l-118 -377h235zM337 1004l-134 -166h-4l86 166h52z"/>
<glyph glyph-name="Acircumflex" unicode="Â" d="M400 117l-47 151h-238l-36 -115q-17 -55 -17 -124q0 -21 2 -29h-59q33 39 70 153l193 617l204 -653q20 -67 43 -117h-86q-4 35 -29 117zM234 649l-118 -377h235zM294 1004l86 -166h-4l-108 134l-108 -134h-4l86 166h52z"/>
<glyph glyph-name="Atilde" unicode="Ã" d="M400 117l-47 151h-238l-36 -115q-17 -55 -17 -124q0 -21 2 -29h-59q33 39 70 153l193 617l204 -653q20 -67 43 -117h-86q-4 35 -29 117zM234 649l-118 -377h235zM348 884q20 0 32 7t30 32l2 -3q-27 -38 -45 -50t-47 -12q-22 0 -69 19.5t-63 19.5q-20 0 -32 -7t-30 -32 l-2 3q27 38 45 50t47 12q20 0 66 -19.5t66 -19.5z"/>
<glyph glyph-name="Adieresis" unicode="Ä" d="M400 117l-47 151h-238l-36 -115q-17 -55 -17 -124q0 -21 2 -29h-59q33 39 70 153l193 617l204 -653q20 -67 43 -117h-86q-4 35 -29 117zM234 649l-118 -377h235zM383 887q0 -19 -13 -32t-32 -13t-32 13t-13 32t13 32t32 13t32 -13t13 -32zM243 887q0 -19 -13 -32t-32 -13 t-32 13t-13 32t13 32t32 13t32 -13t13 -32z"/>
<glyph glyph-name="Aring" unicode="Å" d="M400 117l-47 151h-238l-36 -115q-17 -55 -17 -124q0 -21 2 -29h-59q33 39 70 153l193 617l204 -653q20 -67 43 -117h-86q-4 35 -29 117zM234 649l-118 -377h235zM172 862q0 40 27.5 68t68.5 28q40 0 68 -28t28 -68q0 -41 -28 -68.5t-68 -27.5q-41 0 -68.5 27.5 t-27.5 68.5zM194 862q0 -39 19.5 -65.5t54.5 -26.5q33 0 53.5 27t20.5 65q0 37 -20.5 64.5t-53.5 27.5q-35 0 -54.5 -27.5t-19.5 -64.5z"/>
<glyph glyph-name="AE" unicode="Æ" d="M75 153l157 502q-15 48 -36 95h466l31 -87q-96 83 -185 83h-232l101 -324h83q97 0 156 24l52 -51q-72 23 -208 23h-82l94 -301q21 -69 42 -113h24q96 0 185 84l-31 -88h-262q-7 46 -30 117l-47 151h-238l-36 -115q-17 -55 -17 -124q0 -21 2 -29h-59q33 39 70 153z M351 272l-117 377l-118 -377h235z" horiz-adv-x="753"/>
<glyph glyph-name="Ccedilla" unicode="Ç" d="M498 220h10q-14 -100 -67.5 -165t-140.5 -65q-125 0 -192.5 109t-67.5 275t67.5 276t192.5 110q111 0 188 -61l-21 -88q-11 73 -57 109t-110 36q-65 0 -107 -54t-58.5 -136t-16.5 -192q0 -109 16.5 -191t58.5 -135.5t107 -53.5q87 0 136.5 63t61.5 163zM317 -182 q-51 0 -71 44l3 2q19 -35 58 -35q37 0 37 54q0 47 -34 47q-16 0 -26 -10l20 74h4l-17 -65q17 10 42 10q27 0 43 -16.5t16 -39.5q0 -28 -22.5 -46.5t-52.5 -18.5z" horiz-adv-x="518"/>
<glyph glyph-name="Egrave" unicode="È" d="M433 88l-31 -88h-362q7 38 7 117v517q0 79 -7 116h332l31 -87q-96 83 -185 83h-99v-324h51q97 0 156 24l52 -51q-72 23 -208 23h-51v-414h129q96 0 185 84zM286 838l-134 166h52l86 -166h-4z" horiz-adv-x="463"/>
<glyph glyph-name="Eacute" unicode="É" d="M433 88l-31 -88h-362q7 38 7 117v517q0 79 -7 116h332l31 -87q-96 83 -185 83h-99v-324h51q97 0 156 24l52 -51q-72 23 -208 23h-51v-414h129q96 0 185 84zM300 1004l-134 -166h-4l86 166h52z" horiz-adv-x="463"/>
<glyph glyph-name="Ecircumflex" unicode="Ê" d="M433 88l-31 -88h-362q7 38 7 117v517q0 79 -7 116h332l31 -87q-96 83 -185 83h-99v-324h51q97 0 156 24l52 -51q-72 23 -208 23h-51v-414h129q96 0 185 84zM237 1004l86 -166h-4l-108 134l-108 -134h-4l86 166h52z" horiz-adv-x="463"/>
<glyph glyph-name="Edieresis" unicode="Ë" d="M433 88l-31 -88h-362q7 38 7 117v517q0 79 -7 116h332l31 -87q-96 83 -185 83h-99v-324h51q97 0 156 24l52 -51q-72 23 -208 23h-51v-414h129q96 0 185 84zM336 887q0 -19 -13 -32t-32 -13t-32 13t-13 32t13 32t32 13t32 -13t13 -32zM196 887q0 -19 -13 -32t-32 -13 t-32 13t-13 32t13 32t32 13t32 -13t13 -32z" horiz-adv-x="463"/>
<glyph glyph-name="Igrave" unicode="Ì" d="M119 634v-517q0 -71 7 -117h-86q7 46 7 117v517q0 71 -7 116h86q-7 -45 -7 -116zM148 838l-134 166h52l86 -166h-4z" horiz-adv-x="166"/>
<glyph glyph-name="Iacute" unicode="Í" d="M119 634v-517q0 -71 7 -117h-86q7 46 7 117v517q0 71 -7 116h86q-7 -45 -7 -116zM152 1004l-134 -166h-4l86 166h52z" horiz-adv-x="166"/>
<glyph glyph-name="Icircumflex" unicode="Î" d="M119 634v-517q0 -71 7 -117h-86q7 46 7 117v517q0 71 -7 116h86q-7 -45 -7 -116zM109 1004l86 -166h-4l-108 134l-108 -134h-4l86 166h52z" horiz-adv-x="166"/>
<glyph glyph-name="Idieresis" unicode="Ï" d="M119 634v-517q0 -71 7 -117h-86q7 46 7 117v517q0 71 -7 116h86q-7 -45 -7 -116zM198 887q0 -19 -13 -32t-32 -13t-32 13t-13 32t13 32t32 13t32 -13t13 -32zM58 887q0 -19 -13 -32t-32 -13t-32 13t-13 32t13 32t32 13t32 -13t13 -32z" horiz-adv-x="166"/>
<glyph glyph-name="Ntilde" unicode="Ñ" d="M162 633l306 -509v473q0 33 -7.5 81.5t-19.5 71.5h59q-12 -23 -20 -71.5t-8 -81.5v-607h-4l-397 656v-494q0 -33 8 -81.5t20 -70.5h-59q12 22 19.5 70.5t7.5 81.5v501q-39 62 -64 97h96q18 -43 63 -117zM362 884q20 0 32 7t30 32l2 -3q-27 -38 -45 -50t-47 -12 q-22 0 -69 19.5t-63 19.5q-20 0 -32 -7t-30 -32l-2 3q27 38 45 50t47 12q20 0 66 -19.5t66 -19.5z" horiz-adv-x="530"/>
<glyph glyph-name="Ograve" unicode="Ò" d="M572 374q0 -165 -70 -274.5t-196 -109.5t-196 109.5t-70 274.5t70 275.5t196 110.5t196 -110.5t70 -275.5zM306 756q-64 0 -107.5 -53.5t-61.5 -137t-18 -191.5t18 -190.5t61.5 -136t107.5 -53.5t107.5 53.5t61.5 136t18 190.5t-18 191.5t-61.5 137t-107.5 53.5zM371 838 l-134 166h52l86 -166h-4z" horiz-adv-x="612"/>
<glyph glyph-name="Oacute" unicode="Ó" d="M572 374q0 -165 -70 -274.5t-196 -109.5t-196 109.5t-70 274.5t70 275.5t196 110.5t196 -110.5t70 -275.5zM306 756q-64 0 -107.5 -53.5t-61.5 -137t-18 -191.5t18 -190.5t61.5 -136t107.5 -53.5t107.5 53.5t61.5 136t18 190.5t-18 191.5t-61.5 137t-107.5 53.5z M375 1004l-134 -166h-4l86 166h52z" horiz-adv-x="612"/>
<glyph glyph-name="Ocircumflex" unicode="Ô" d="M572 374q0 -165 -70 -274.5t-196 -109.5t-196 109.5t-70 274.5t70 275.5t196 110.5t196 -110.5t70 -275.5zM306 756q-64 0 -107.5 -53.5t-61.5 -137t-18 -191.5t18 -190.5t61.5 -136t107.5 -53.5t107.5 53.5t61.5 136t18 190.5t-18 191.5t-61.5 137t-107.5 53.5z M332 1004l86 -166h-4l-108 134l-108 -134h-4l86 166h52z" horiz-adv-x="612"/>
<glyph glyph-name="Otilde" unicode="Õ" d="M572 374q0 -165 -70 -274.5t-196 -109.5t-196 109.5t-70 274.5t70 275.5t196 110.5t196 -110.5t70 -275.5zM306 756q-64 0 -107.5 -53.5t-61.5 -137t-18 -191.5t18 -190.5t61.5 -136t107.5 -53.5t107.5 53.5t61.5 136t18 190.5t-18 191.5t-61.5 137t-107.5 53.5zM393 884 q20 0 32 7t30 32l2 -3q-27 -38 -45 -50t-47 -12q-22 0 -69 19.5t-63 19.5q-20 0 -32 -7t-30 -32l-2 3q27 38 45 50t47 12q19 0 66 -19.5t66 -19.5z" horiz-adv-x="612"/>
<glyph glyph-name="Odieresis" unicode="Ö" d="M572 374q0 -165 -70 -274.5t-196 -109.5t-196 109.5t-70 274.5t70 275.5t196 110.5t196 -110.5t70 -275.5zM306 756q-64 0 -107.5 -53.5t-61.5 -137t-18 -191.5t18 -190.5t61.5 -136t107.5 -53.5t107.5 53.5t61.5 136t18 190.5t-18 191.5t-61.5 137t-107.5 53.5zM421 887 q0 -19 -13 -32t-32 -13t-32 13t-13 32t13 32t32 13t32 -13t13 -32zM281 887q0 -19 -13 -32t-32 -13t-32 13t-13 32t13 32t32 13t32 -13t13 -32z" horiz-adv-x="612"/>
<glyph glyph-name="multiply" unicode="×" d="M22 165l203 203l-203 203l8 8l203 -203l203 203l8 -8l-203 -203l203 -203l-8 -8l-203 203l-203 -203z" horiz-adv-x="466"/>
<glyph glyph-name="Oslash" unicode="Ø" d="M40 0l69 100q-69 105 -69 274q0 165 70 275.5t196 110.5q118 0 189 -102l64 92h13l-70 -101q70 -108 70 -275q0 -165 -70 -274.5t-196 -109.5q-119 0 -190 101l-63 -91h-13zM493 374q0 129 -27 223l-317 -457q48 -146 157 -146q64 0 107.5 53.5t61.5 136t18 190.5z M306 756q-64 0 -107.5 -53.5t-61.5 -137t-18 -191.5q0 -131 26 -222l317 458q-48 146 -156 146z" horiz-adv-x="612"/>
<glyph glyph-name="Ugrave" unicode="Ù" d="M255 -10q-60 0 -104 19t-65 43.5t-33 59.5t-14 54t-2 40v427q0 71 -7 117h86q-7 -38 -7 -117v-427q0 -20 2 -39t11.5 -51.5t27 -56t52.5 -41.5t82 -18t83 18.5t54.5 43t29.5 56.5t13.5 52t2.5 36v391q0 33 -7.5 81.5t-19.5 71.5h59q-12 -23 -20 -71.5t-8 -81.5v-391 q0 -19 -1.5 -37.5t-13.5 -54t-32.5 -60t-64.5 -44.5t-104 -20zM334 838l-134 166h52l86 -166h-4z" horiz-adv-x="519"/>
<glyph glyph-name="Uacute" unicode="Ú" d="M255 -10q-60 0 -104 19t-65 43.5t-33 59.5t-14 54t-2 40v427q0 71 -7 117h86q-7 -38 -7 -117v-427q0 -20 2 -39t11.5 -51.5t27 -56t52.5 -41.5t82 -18t83 18.5t54.5 43t29.5 56.5t13.5 52t2.5 36v391q0 33 -7.5 81.5t-19.5 71.5h59q-12 -23 -20 -71.5t-8 -81.5v-391 q0 -19 -1.5 -37.5t-13.5 -54t-32.5 -60t-64.5 -44.5t-104 -20zM338 1004l-134 -166h-4l86 166h52z" horiz-adv-x="519"/>
<glyph glyph-name="Ucircumflex" unicode="Û" d="M255 -10q-60 0 -104 19t-65 43.5t-33 59.5t-14 54t-2 40v427q0 71 -7 117h86q-7 -38 -7 -117v-427q0 -20 2 -39t11.5 -51.5t27 -56t52.5 -41.5t82 -18t83 18.5t54.5 43t29.5 56.5t13.5 52t2.5 36v391q0 33 -7.5 81.5t-19.5 71.5h59q-12 -23 -20 -71.5t-8 -81.5v-391 q0 -19 -1.5 -37.5t-13.5 -54t-32.5 -60t-64.5 -44.5t-104 -20zM295 1004l86 -166h-4l-108 134l-108 -134h-4l86 166h52z" horiz-adv-x="519"/>
<glyph glyph-name="Udieresis" unicode="Ü" d="M255 -10q-60 0 -104 19t-65 43.5t-33 59.5t-14 54t-2 40v427q0 71 -7 117h86q-7 -38 -7 -117v-427q0 -20 2 -39t11.5 -51.5t27 -56t52.5 -41.5t82 -18t83 18.5t54.5 43t29.5 56.5t13.5 52t2.5 36v391q0 33 -7.5 81.5t-19.5 71.5h59q-12 -23 -20 -71.5t-8 -81.5v-391 q0 -19 -1.5 -37.5t-13.5 -54t-32.5 -60t-64.5 -44.5t-104 -20zM374 887q0 -19 -13 -32t-32 -13t-32 13t-13 32t13 32t32 13t32 -13t13 -32zM234 887q0 -19 -13 -32t-32 -13t-32 13t-13 32t13 32t32 13t32 -13t13 -32z" horiz-adv-x="519"/>
<glyph glyph-name="Yacute" unicode="Ý" d="M194 334l-130 299q-36 84 -59 117h86q1 -12 6.5 -27.5t10.5 -27t14.5 -32.5t13.5 -30l128 -295l120 277q21 48 21 98q0 17 -3 37h69q-39 -36 -83 -135l-122 -281v-217q0 -71 7 -117h-86q7 46 7 117v217zM327 1004l-134 -166h-4l86 166h52z" horiz-adv-x="476"/>
<glyph glyph-name="agrave" unicode="à" d="M280 254v-149q0 -73 4 -105h-66v44q-40 -54 -95 -54q-40 0 -69 30.5t-29 85.5q0 41 34.5 77t101.5 36q24 0 57 -6v41q0 75 -9.5 105.5t-45.5 30.5q-68 0 -97 -85l-20 65q57 24 117 24q32 0 54.5 -9t34.5 -21.5t18.5 -33.5t8 -37t1.5 -39zM155 14q37 0 63 38v154 q-20 7 -41 7q-40 0 -66.5 -26.5t-26.5 -77.5q0 -95 71 -95zM224 474l-134 166h52l86 -166h-4z" horiz-adv-x="319"/>
<glyph glyph-name="aacute" unicode="á" d="M280 254v-149q0 -73 4 -105h-66v44q-40 -54 -95 -54q-40 0 -69 30.5t-29 85.5q0 41 34.5 77t101.5 36q24 0 57 -6v41q0 75 -9.5 105.5t-45.5 30.5q-68 0 -97 -85l-20 65q57 24 117 24q32 0 54.5 -9t34.5 -21.5t18.5 -33.5t8 -37t1.5 -39zM155 14q37 0 63 38v154 q-20 7 -41 7q-40 0 -66.5 -26.5t-26.5 -77.5q0 -95 71 -95zM238 640l-134 -166h-4l86 166h52z" horiz-adv-x="319"/>
<glyph glyph-name="acircumflex" unicode="â" d="M280 254v-149q0 -73 4 -105h-66v44q-40 -54 -95 -54q-40 0 -69 30.5t-29 85.5q0 41 34.5 77t101.5 36q24 0 57 -6v41q0 75 -9.5 105.5t-45.5 30.5q-68 0 -97 -85l-20 65q57 24 117 24q32 0 54.5 -9t34.5 -21.5t18.5 -33.5t8 -37t1.5 -39zM155 14q37 0 63 38v154 q-20 7 -41 7q-40 0 -66.5 -26.5t-26.5 -77.5q0 -95 71 -95zM185 640l86 -166h-4l-108 134l-108 -134h-4l86 166h52z" horiz-adv-x="319"/>
<glyph glyph-name="atilde" unicode="ã" d="M280 254v-149q0 -73 4 -105h-66v44q-40 -54 -95 -54q-40 0 -69 30.5t-29 85.5q0 41 34.5 77t101.5 36q24 0 57 -6v41q0 75 -9.5 105.5t-45.5 30.5q-68 0 -97 -85l-20 65q57 24 117 24q32 0 54.5 -9t34.5 -21.5t18.5 -33.5t8 -37t1.5 -39zM155 14q37 0 63 38v154 q-20 7 -41 7q-40 0 -66.5 -26.5t-26.5 -77.5q0 -95 71 -95zM247 520q20 0 32 7t30 32l2 -3q-27 -38 -45 -50t-47 -12q-22 0 -69 19.5t-63 19.5q-20 0 -32 -7t-30 -32l-2 3q27 38 45 50t47 12q19 0 66 -19.5t66 -19.5z" horiz-adv-x="319"/>
<glyph glyph-name="adieresis" unicode="ä" d="M280 254v-149q0 -73 4 -105h-66v44q-40 -54 -95 -54q-40 0 -69 30.5t-29 85.5q0 41 34.5 77t101.5 36q24 0 57 -6v41q0 75 -9.5 105.5t-45.5 30.5q-68 0 -97 -85l-20 65q57 24 117 24q32 0 54.5 -9t34.5 -21.5t18.5 -33.5t8 -37t1.5 -39zM155 14q37 0 63 38v154 q-20 7 -41 7q-40 0 -66.5 -26.5t-26.5 -77.5q0 -95 71 -95zM275 523q0 -19 -13 -32t-32 -13t-32 13t-13 32t13 32t32 13t32 -13t13 -32zM135 523q0 -19 -13 -32t-32 -13t-32 13t-13 32t13 32t32 13t32 -13t13 -32z" horiz-adv-x="319"/>
<glyph glyph-name="aring" unicode="å" d="M280 254v-149q0 -73 4 -105h-66v44q-40 -54 -95 -54q-40 0 -69 30.5t-29 85.5q0 41 34.5 77t101.5 36q24 0 57 -6v41q0 75 -9.5 105.5t-45.5 30.5q-68 0 -97 -85l-20 65q57 24 117 24q32 0 54.5 -9t34.5 -21.5t18.5 -33.5t8 -37t1.5 -39zM155 14q37 0 63 38v154 q-20 7 -41 7q-40 0 -66.5 -26.5t-26.5 -77.5q0 -95 71 -95zM64 560q0 40 27.5 68t68.5 28q40 0 68 -28t28 -68q0 -41 -28 -68.5t-68 -27.5q-41 0 -68.5 27.5t-27.5 68.5zM86 560q0 -39 19.5 -65.5t54.5 -26.5q33 0 53.5 27t20.5 65q0 37 -20.5 64.5t-53.5 27.5 q-35 0 -54.5 -27.5t-19.5 -64.5z" horiz-adv-x="319"/>
<glyph glyph-name="ae" unicode="æ" d="M383 394q50 0 82.5 -22t32.5 -55q0 -35 -26 -54t-86 -30q-60 -12 -100 -17v-23q0 -88 29.5 -139t81.5 -51q54 0 96 50l3 -2q-50 -59 -113 -59q-99 0 -141 82q-54 -84 -119 -84q-40 0 -69 30.5t-29 85.5q0 41 34.5 77t101.5 36q24 0 57 -6v41q0 75 -9.5 105.5t-45.5 30.5 q-68 0 -97 -85l-20 65q57 24 117 24q77 0 103 -52q44 52 117 52zM155 14q37 0 63 38v154q-20 7 -41 7q-40 0 -66.5 -26.5t-26.5 -77.5q0 -95 71 -95zM436 317q0 29 -12.5 51t-40.5 22q-45 0 -69.5 -47.5t-27.5 -122.5q49 6 99 18q51 11 51 79z" horiz-adv-x="521"/>
<glyph glyph-name="ccedilla" unicode="ç" d="M195 390q-49 0 -73 -55t-24 -142q0 -88 29.5 -139t81.5 -51q54 0 96 50l3 -2q-50 -59 -113 -59q-80 0 -122.5 54.5t-42.5 146.5q0 86 43.5 143.5t121.5 57.5q63 0 113 -27l-21 -68q-15 91 -92 91zM189 -172q-51 0 -71 44l3 2q19 -35 58 -35q37 0 37 54q0 47 -34 47 q-16 0 -26 -10l20 74h4l-17 -65q17 10 42 10q27 0 43 -16.5t16 -39.5q0 -28 -22.5 -46.5t-52.5 -18.5z" horiz-adv-x="321"/>
<glyph glyph-name="egrave" unicode="è" d="M195 394q50 0 82.5 -22t32.5 -55q0 -35 -26 -54t-86 -30q-60 -12 -100 -17v-23q0 -88 29.5 -139t81.5 -51q54 0 96 50l3 -2q-50 -59 -113 -59q-80 0 -122.5 54.5t-42.5 146.5q0 86 43.5 143.5t121.5 57.5zM248 317q0 29 -12.5 51t-40.5 22q-45 0 -69.5 -47.5 t-27.5 -122.5q49 6 99 18q51 11 51 79zM251 474l-134 166h52l86 -166h-4z" horiz-adv-x="333"/>
<glyph glyph-name="eacute" unicode="é" d="M195 394q50 0 82.5 -22t32.5 -55q0 -35 -26 -54t-86 -30q-60 -12 -100 -17v-23q0 -88 29.5 -139t81.5 -51q54 0 96 50l3 -2q-50 -59 -113 -59q-80 0 -122.5 54.5t-42.5 146.5q0 86 43.5 143.5t121.5 57.5zM248 317q0 29 -12.5 51t-40.5 22q-45 0 -69.5 -47.5 t-27.5 -122.5q49 6 99 18q51 11 51 79zM265 640l-134 -166h-4l86 166h52z" horiz-adv-x="333"/>
<glyph glyph-name="ecircumflex" unicode="ê" d="M195 394q50 0 82.5 -22t32.5 -55q0 -35 -26 -54t-86 -30q-60 -12 -100 -17v-23q0 -88 29.5 -139t81.5 -51q54 0 96 50l3 -2q-50 -59 -113 -59q-80 0 -122.5 54.5t-42.5 146.5q0 86 43.5 143.5t121.5 57.5zM248 317q0 29 -12.5 51t-40.5 22q-45 0 -69.5 -47.5 t-27.5 -122.5q49 6 99 18q51 11 51 79zM217 640l86 -166h-4l-108 134l-108 -134h-4l86 166h52z" horiz-adv-x="333"/>
<glyph glyph-name="edieresis" unicode="ë" d="M195 394q50 0 82.5 -22t32.5 -55q0 -35 -26 -54t-86 -30q-60 -12 -100 -17v-23q0 -88 29.5 -139t81.5 -51q54 0 96 50l3 -2q-50 -59 -113 -59q-80 0 -122.5 54.5t-42.5 146.5q0 86 43.5 143.5t121.5 57.5zM248 317q0 29 -12.5 51t-40.5 22q-45 0 -69.5 -47.5 t-27.5 -122.5q49 6 99 18q51 11 51 79zM306 523q0 -19 -13 -32t-32 -13t-32 13t-13 32t13 32t32 13t32 -13t13 -32zM166 523q0 -19 -13 -32t-32 -13t-32 13t-13 32t13 32t32 13t32 -13t13 -32z" horiz-adv-x="333"/>
<glyph glyph-name="igrave" unicode="ì" d="M126 396v-280q0 -84 4 -116h-71q5 32 5 116v192q0 58 -29 74q5 -1 17 -1q52 0 74 15zM160 474l-134 166h52l86 -166h-4z" horiz-adv-x="180"/>
<glyph glyph-name="iacute" unicode="í" d="M126 396v-280q0 -84 4 -116h-71q5 32 5 116v192q0 58 -29 74q5 -1 17 -1q52 0 74 15zM163 640l-134 -166h-4l86 166h52z" horiz-adv-x="180"/>
<glyph glyph-name="icircumflex" unicode="î" d="M126 396v-280q0 -84 4 -116h-71q5 32 5 116v192q0 58 -29 74q5 -1 17 -1q52 0 74 15zM119 640l86 -166h-4l-108 134l-108 -134h-4l86 166h52z" horiz-adv-x="180"/>
<glyph glyph-name="idieresis" unicode="ï" d="M126 396v-280q0 -84 4 -116h-71q5 32 5 116v192q0 58 -29 74q5 -1 17 -1q52 0 74 15zM209 523q0 -19 -13 -32t-32 -13t-32 13t-13 32t13 32t32 13t32 -13t13 -32zM69 523q0 -19 -13 -32t-32 -13t-32 13t-13 32t13 32t32 13t32 -13t13 -32z" horiz-adv-x="180"/>
<glyph glyph-name="ntilde" unicode="ñ" d="M267 0q5 32 5 105v164q0 50 -18.5 77.5t-49.5 27.5q-38 0 -63 -37t-25 -90v-142q0 -73 4 -105h-71q5 32 5 105v203q0 58 -29 74q5 -1 17 -1q52 0 74 15v-109q12 56 43 81.5t67 25.5q55 0 81.5 -35t26.5 -90v-164q0 -73 4 -105h-71zM289 520q20 0 32 7t30 32l2 -3 q-27 -38 -45 -50t-47 -12q-22 0 -69 19.5t-63 19.5q-20 0 -32 -7t-30 -32l-2 3q27 38 45 50t47 12q19 0 66 -19.5t66 -19.5z" horiz-adv-x="373"/>
<glyph glyph-name="ograve" unicode="ò" d="M358 193q0 -86 -43 -143.5t-121 -57.5t-121 57.5t-43 143.5t43 143.5t121 57.5t121 -57.5t43 -143.5zM194 390q-49 0 -72.5 -55t-23.5 -142t23.5 -142t72.5 -55t72.5 55t23.5 142t-23.5 142t-72.5 55zM259 474l-134 166h52l86 -166h-4z" horiz-adv-x="388"/>
<glyph glyph-name="oacute" unicode="ó" d="M358 193q0 -86 -43 -143.5t-121 -57.5t-121 57.5t-43 143.5t43 143.5t121 57.5t121 -57.5t43 -143.5zM194 390q-49 0 -72.5 -55t-23.5 -142t23.5 -142t72.5 -55t72.5 55t23.5 142t-23.5 142t-72.5 55zM263 640l-134 -166h-4l86 166h52z" horiz-adv-x="388"/>
<glyph glyph-name="ocircumflex" unicode="ô" d="M358 193q0 -86 -43 -143.5t-121 -57.5t-121 57.5t-43 143.5t43 143.5t121 57.5t121 -57.5t43 -143.5zM194 390q-49 0 -72.5 -55t-23.5 -142t23.5 -142t72.5 -55t72.5 55t23.5 142t-23.5 142t-72.5 55zM220 640l86 -166h-4l-108 134l-108 -134h-4l86 166h52z" horiz-adv-x="388"/>
<glyph glyph-name="otilde" unicode="õ" d="M358 193q0 -86 -43 -143.5t-121 -57.5t-121 57.5t-43 143.5t43 143.5t121 57.5t121 -57.5t43 -143.5zM194 390q-49 0 -72.5 -55t-23.5 -142t23.5 -142t72.5 -55t72.5 55t23.5 142t-23.5 142t-72.5 55zM282 520q20 0 32 7t30 32l2 -3q-27 -38 -45 -50t-47 -12 q-22 0 -69 19.5t-63 19.5q-20 0 -32 -7t-30 -32l-2 3q27 38 45 50t47 12q20 0 66 -19.5t66 -19.5z" horiz-adv-x="388"/>
<glyph glyph-name="odieresis" unicode="ö" d="M358 193q0 -86 -43 -143.5t-121 -57.5t-121 57.5t-43 143.5t43 143.5t121 57.5t121 -57.5t43 -143.5zM194 390q-49 0 -72.5 -55t-23.5 -142t23.5 -142t72.5 -55t72.5 55t23.5 142t-23.5 142t-72.5 55zM309 523q0 -19 -13 -32t-32 -13t-32 13t-13 32t13 32t32 13t32 -13 t13 -32zM169 523q0 -19 -13 -32t-32 -13t-32 13t-13 32t13 32t32 13t32 -13t13 -32z" horiz-adv-x="388"/>
<glyph glyph-name="oslash" unicode="ø" d="M30 0l41 51q-41 55 -41 142q0 86 43 143.5t121 57.5q72 0 116 -51l35 43h13l-42 -51q42 -55 42 -142q0 -86 -43 -143.5t-121 -57.5q-73 0 -116 51l-35 -43h-13zM290 193q0 57 -10 98l-170 -209q23 -86 84 -86q49 0 72.5 55t23.5 142zM194 390q-49 0 -72.5 -55t-23.5 -142 q0 -55 9 -98l170 208q-23 87 -83 87z" horiz-adv-x="388"/>
<glyph glyph-name="ugrave" unicode="ù" d="M319 386v-284q0 -45 5 -75l-71 -35q4 35 4 107q-12 -56 -43 -81.5t-67 -25.5q-50 0 -79 32t-29 93v164q0 73 -4 105h66v-269q0 -51 18.5 -78t49.5 -27q37 0 62.5 36.5t25.5 90.5v142q0 73 -4 105h66zM252 474l-134 166h52l86 -166h-4z" horiz-adv-x="354"/>
<glyph glyph-name="uacute" unicode="ú" d="M319 386v-284q0 -45 5 -75l-71 -35q4 35 4 107q-12 -56 -43 -81.5t-67 -25.5q-50 0 -79 32t-29 93v164q0 73 -4 105h66v-269q0 -51 18.5 -78t49.5 -27q37 0 62.5 36.5t25.5 90.5v142q0 73 -4 105h66zM256 640l-134 -166h-4l86 166h52z" horiz-adv-x="354"/>
<glyph glyph-name="ucircumflex" unicode="û" d="M319 386v-284q0 -45 5 -75l-71 -35q4 35 4 107q-12 -56 -43 -81.5t-67 -25.5q-50 0 -79 32t-29 93v164q0 73 -4 105h66v-269q0 -51 18.5 -78t49.5 -27q37 0 62.5 36.5t25.5 90.5v142q0 73 -4 105h66zM213 640l86 -166h-4l-108 134l-108 -134h-4l86 166h52z" horiz-adv-x="354"/>
<glyph glyph-name="udieresis" unicode="ü" d="M319 386v-284q0 -45 5 -75l-71 -35q4 35 4 107q-12 -56 -43 -81.5t-67 -25.5q-50 0 -79 32t-29 93v164q0 73 -4 105h66v-269q0 -51 18.5 -78t49.5 -27q37 0 62.5 36.5t25.5 90.5v142q0 73 -4 105h66zM297 523q0 -19 -13 -32t-32 -13t-32 13t-13 32t13 32t32 13t32 -13 t13 -32zM157 523q0 -19 -13 -32t-32 -13t-32 13t-13 32t13 32t32 13t32 -13t13 -32z" horiz-adv-x="354"/>
<glyph glyph-name="yacute" unicode="ý" d="M116 269l75 -197l76 197q13 33 13 72q0 24 -6 45h60q-32 -35 -63 -117l-141 -365q-34 -87 -34 -132q0 -16 1 -22h-59q52 61 88 154l34 88l-106 277q-36 91 -49 117h71q8 -35 40 -117zM268 640l-134 -166h-4l86 166h52z" horiz-adv-x="339"/>
<glyph glyph-name="afii10023" unicode="Ё" d="M433 88l-31 -88h-362q7 38 7 117v517q0 79 -7 116h332l31 -87q-96 83 -185 83h-99v-324h51q97 0 156 24l52 -51q-72 23 -208 23h-51v-414h129q96 0 185 84zM346 887q0 -19 -13 -32t-32 -13t-32 13t-13 32t13 32t32 13t32 -13t13 -32zM206 887q0 -19 -13 -32t-32 -13 t-32 13t-13 32t13 32t32 13t32 -13t13 -32z" horiz-adv-x="463"/>
<glyph glyph-name="afii10017" unicode="А" d="M400 117l-47 151h-238l-36 -115q-17 -55 -17 -124q0 -21 2 -29h-59q33 39 70 153l193 617l204 -653q20 -67 43 -117h-86q-4 35 -29 117zM234 649l-118 -377h235z"/>
<glyph glyph-name="afii10018" unicode="Б" d="M382 750l31 -87q-97 83 -180 83h-114v-324h99q63 0 111 -19t74.5 -51t39 -67.5t12.5 -73.5t-12.5 -73t-39 -67t-74.5 -51.5t-111 -19.5h-178q7 38 7 117v517q0 79 -7 116h342zM218 418h-99v-414h99q64 0 110.5 55t46.5 152t-46.5 152t-110.5 55z" horiz-adv-x="480"/>
<glyph glyph-name="afii10019" unicode="В" d="M40 750h138q123 0 180 -48t57 -118q0 -60 -44 -105t-138 -58q48 -3 87 -17t63.5 -35t41 -48t23.5 -54.5t7 -55.5q0 -38 -12.5 -73t-39 -67t-74.5 -51.5t-111 -19.5h-178q7 38 7 117v517q0 79 -7 116zM218 418h-99v-414h99q64 0 110.5 55t46.5 152t-46.5 152t-110.5 55z M178 746h-59v-324h65q64 0 107.5 40t43.5 122q0 84 -45 123t-112 39z" horiz-adv-x="480"/>
<glyph glyph-name="afii10020" unicode="Г" d="M372 750l31 -87q-96 83 -185 83h-99v-630q0 -78 7 -116h-86q7 38 7 117v517q0 79 -7 116h332z" horiz-adv-x="413"/>
<glyph glyph-name="afii10021" unicode="Д" d="M0 4h65q55 52 81 96t48 112q44 141 44 332q0 125 -57 206h348q-7 -37 -7 -116v-630h86l-72 -182h-4q12 36 12 76q0 71 -32 102h-416q-32 -29 -32 -102q0 -40 12 -76h-4zM71 4h379v742h-183q-11 -30 -18 -96t-7 -106q0 -187 -44 -333q-20 -66 -47 -112t-80 -95z" horiz-adv-x="608"/>
<glyph glyph-name="afii10022" unicode="Е" d="M433 88l-31 -88h-362q7 38 7 117v517q0 79 -7 116h332l31 -87q-96 83 -185 83h-99v-324h51q97 0 156 24l52 -51q-72 23 -208 23h-51v-414h129q96 0 185 84z" horiz-adv-x="463"/>
<glyph glyph-name="afii10024" unicode="Ж" d="M459 417v-301q0 -79 7 -116h-86q7 45 7 116v301h-4q-57 0 -95 -44t-57.5 -106.5t-38 -125.5t-51 -107t-82.5 -44q-33 0 -54 17l2 3q9 -7 23 -7q20 0 36 29t28 73.5t34 97t49 98.5t77 79.5t116 39.5l-146 177q-95 117 -142 153h69q-1 -2 -1 -8q0 -48 79 -145l145 -176h13 v212q0 72 -7 117h86q-7 -37 -7 -117v-212h13l144 176q80 101 80 145q0 6 -1 8h69q-50 -38 -143 -153l-145 -177q66 -6 116 -39.5t77 -79.5t49 -98.5t34 -97t28 -73.5t36 -29q14 0 23 7l2 -3q-21 -17 -54 -17q-50 0 -82.5 44t-51 107t-38 125.5t-57.5 106.5t-95 44h-4z" horiz-adv-x="846"/>
<glyph glyph-name="afii10025" unicode="З" d="M236 -6q61 0 104 63.5t43 163.5q0 98 -41 147.5t-105 49.5h-68v4h68q52 0 84 44t32 128q0 87 -27.5 124.5t-82.5 37.5q-129 0 -162 -135l-22 78q46 36 85 48.5t99 12.5q102 0 146 -47t44 -119q0 -62 -43 -112.5t-126 -61.5q103 -10 151 -67t48 -132q0 -39 -11 -76.5 t-35.5 -73.5t-71 -58.5t-109.5 -22.5q-52 0 -111 20.5t-105 57.5l22 88q18 -76 72 -119t122 -43z" horiz-adv-x="488"/>
<glyph glyph-name="afii10026" unicode="И" d="M51 -10h-4v644q0 71 -7 116h86q-7 -37 -7 -116v-516l369 642h5v-643q0 -79 7 -117h-86q7 46 7 117v514z" horiz-adv-x="540"/>
<glyph glyph-name="afii10027" unicode="Й" d="M280 765q50 0 77.5 17t27.5 66h73q-26 -87 -178 -87t-178 87h73q0 -49 27.5 -66t77.5 -17zM51 -10h-4v644q0 71 -7 116h86q-7 -37 -7 -116v-516l369 642h5v-643q0 -79 7 -117h-86q7 46 7 117v514z" horiz-adv-x="540"/>
<glyph glyph-name="afii10028" unicode="К" d="M467 -10q-42 0 -74 31.5t-50 79.5t-38.5 103t-40.5 103t-56 79.5t-85 31.5h-4v-302q0 -71 7 -116h-86q7 37 7 116v517q0 80 -7 117h86q-7 -45 -7 -117v-211h13l144 175q80 97 80 145q0 6 -1 8h69q-50 -38 -143 -153l-145 -176q57 -5 103 -31t75.5 -63t53 -81t39 -86.5 t29 -78t28.5 -57t32 -21.5q14 0 23 7l2 -3q-21 -17 -54 -17z" horiz-adv-x="526"/>
<glyph glyph-name="afii10029" unicode="Л" d="M150 212q44 146 44 332q0 125 -57 206h348q-7 -37 -7 -116v-517q0 -79 7 -117h-86q7 46 7 117v629h-183q-11 -30 -18 -96t-7 -106q0 -187 -44 -333q-17 -55 -26.5 -81.5t-33.5 -67t-59 -72.5l-35 73q64 13 96 47t54 102z" horiz-adv-x="525"/>
<glyph glyph-name="afii10030" unicode="М" d="M632 0h-87q1 9 1 27q0 42 -6 90l-60 555l-183 -597l-179 581l-54 -503q-2 -24 -2 -46q0 -78 13 -107h-60q15 23 28 71.5t17 81.5l55 513q-16 51 -33 84h82l168 -547l134 437q16 54 16 90q0 13 -1 20h70q-1 -8 -1 -26q0 -40 6 -90l56 -517q9 -76 20 -117z" horiz-adv-x="647"/>
<glyph glyph-name="afii10031" unicode="Н" d="M493 634v-517q0 -79 7 -117h-86q7 46 7 117v301h-302v-301q0 -79 7 -117h-86q7 46 7 117v517q0 71 -7 116h86q-7 -37 -7 -116v-212h302v212q0 71 -7 116h86q-7 -37 -7 -116z" horiz-adv-x="540"/>
<glyph glyph-name="afii10032" unicode="О" d="M572 374q0 -165 -70 -274.5t-196 -109.5t-196 109.5t-70 274.5t70 275.5t196 110.5t196 -110.5t70 -275.5zM306 756q-64 0 -107.5 -53.5t-61.5 -137t-18 -191.5t18 -190.5t61.5 -136t107.5 -53.5t107.5 53.5t61.5 136t18 190.5t-18 191.5t-61.5 137t-107.5 53.5z" horiz-adv-x="612"/>
<glyph glyph-name="afii10033" unicode="П" d="M493 634v-517q0 -79 7 -117h-86q7 46 7 117v629h-302v-629q0 -79 7 -117h-86q7 46 7 117v517q0 71 -7 116h460q-7 -37 -7 -116z" horiz-adv-x="540"/>
<glyph glyph-name="afii10034" unicode="Р" d="M126 0h-86q7 37 7 116v517q0 79 -7 117h178q63 0 111 -18t74.5 -48t39 -64t12.5 -71q0 -82 -57.5 -141.5t-179.5 -59.5h-99v-232q0 -79 7 -116zM218 746h-99v-394h99q66 0 111.5 50t45.5 147q0 96 -46 146.5t-111 50.5z" horiz-adv-x="480"/>
<glyph glyph-name="afii10035" unicode="С" d="M498 220h10q-14 -100 -67.5 -165t-140.5 -65q-125 0 -192.5 109t-67.5 275t67.5 276t192.5 110q111 0 188 -61l-21 -88q-11 73 -57 109t-110 36q-65 0 -107 -54t-58.5 -136t-16.5 -192q0 -109 16.5 -191t58.5 -135.5t107 -53.5q87 0 136.5 63t61.5 163z" horiz-adv-x="518"/>
<glyph glyph-name="afii10036" unicode="Т" d="M232 0q7 46 7 117v629h-64q-94 0 -165 -63l31 67h468l31 -67q-71 63 -165 63h-64v-629q0 -71 7 -117h-86z" horiz-adv-x="550"/>
<glyph glyph-name="afii10037" unicode="У" d="M237 142l1 4l-180 487q-32 84 -53 117h90q0 -15 6 -33t17.5 -45.5t15.5 -38.5l143 -380l129 362q13 38 13 85q0 21 -8 50h74q-41 -37 -75 -135l-170 -475q-20 -57 -54 -100t-77 -50l-44 80q8 -8 32.5 -14.5t42.5 -6.5q40 0 60.5 24t36.5 69z" horiz-adv-x="490"/>
<glyph glyph-name="afii10038" unicode="Ф" d="M363 654v-10q125 0 190.5 -73.5t65.5 -185.5t-65.5 -185t-190.5 -73v-10q0 -71 7 -117h-86q7 46 7 117v10q-125 0 -190.5 73t-65.5 185t65.5 185.5t190.5 73.5v10q0 71 -7 116h86q-7 -45 -7 -116zM540 385q0 115 -41.5 185t-135.5 70v-509q94 0 135.5 70t41.5 184z M291 131v509q-94 0 -135.5 -70t-41.5 -185q0 -114 41.5 -184t135.5 -70z" horiz-adv-x="654"/>
<glyph glyph-name="afii10039" unicode="Х" d="M177 633l104 -202l97 166q50 83 50 153h61q-42 -42 -106 -153l-100 -171l161 -310q39 -77 65 -116h-96q-13 42 -51 116l-123 237l-115 -201q-17 -30 -35 -79.5t-18 -72.5h-61q23 22 56 69.5t53 82.5l118 206l-142 275q-39 76 -65 117h96q13 -42 51 -117z" horiz-adv-x="519"/>
<glyph glyph-name="afii10040" unicode="Ц" d="M493 633v-629h86l-72 -182h-4q12 36 12 76q0 71 -32 102h-443q7 45 7 116v517q0 71 -7 117h86q-7 -38 -7 -117v-629h302v629q0 71 -7 117h86q-7 -38 -7 -117z" horiz-adv-x="579"/>
<glyph glyph-name="afii10041" unicode="Ч" d="M47 501v133q0 71 -7 116h86q-7 -45 -7 -116v-133q0 -168 138 -168q51 0 119 19v281q0 79 -7 117h86q-7 -38 -7 -117v-517q0 -79 7 -116h-86q7 37 7 116v232q-76 -20 -119 -20q-210 0 -210 173z" horiz-adv-x="480"/>
<glyph glyph-name="afii10042" unicode="Ш" d="M40 0q7 45 7 116v517q0 71 -7 117h86q-7 -38 -7 -117v-629h220v629q0 71 -7 117h86q-7 -38 -7 -117v-629h220v629q0 79 -7 117h86q-7 -46 -7 -117v-517q0 -71 7 -116h-670z" horiz-adv-x="750"/>
<glyph glyph-name="afii10043" unicode="Щ" d="M703 633v-629h86l-72 -182h-4q12 36 12 76q0 71 -32 102h-653q7 45 7 116v517q0 71 -7 117h86q-7 -38 -7 -117v-629h220v629q0 71 -7 117h86q-7 -38 -7 -117v-629h220v629q0 79 -7 117h86q-7 -46 -7 -117z" horiz-adv-x="789"/>
<glyph glyph-name="afii10044" unicode="Ъ" d="M239 746h-64q-94 0 -165 -63l31 67h277q-7 -37 -7 -116v-212h99q63 0 111 -19t74.5 -51t39 -67.5t12.5 -73.5t-12.5 -73t-39 -67t-74.5 -51.5t-111 -19.5h-178q7 38 7 117v629zM410 418h-99v-414h99q64 0 110.5 55t46.5 152t-46.5 152t-110.5 55z" horiz-adv-x="672"/>
<glyph glyph-name="afii10045" unicode="Ы" d="M40 750h86q-7 -37 -7 -116v-212h99q63 0 111 -19t74.5 -51t39 -67.5t12.5 -73.5t-12.5 -73t-39 -67t-74.5 -51.5t-111 -19.5h-178q7 38 7 117v517q0 79 -7 116zM218 418h-99v-414h99q64 0 110.5 55t46.5 152t-46.5 152t-110.5 55zM584 634v-517q0 -71 7 -117h-86 q7 46 7 117v517q0 71 -7 116h86q-7 -45 -7 -116z" horiz-adv-x="631"/>
<glyph glyph-name="afii10046" unicode="Ь" d="M40 750h86q-7 -37 -7 -116v-212h99q63 0 111 -19t74.5 -51t39 -67.5t12.5 -73.5t-12.5 -73t-39 -67t-74.5 -51.5t-111 -19.5h-178q7 38 7 117v517q0 79 -7 116zM218 418h-99v-414h99q64 0 110.5 55t46.5 152t-46.5 152t-110.5 55z" horiz-adv-x="480"/>
<glyph glyph-name="afii10047" unicode="Э" d="M228 -6q65 0 107 53.5t58.5 135.5t16.5 191q0 4 -0.5 22t-0.5 22h-78q-136 0 -208 -23l52 51q59 -24 156 -24h78q-2 77 -10.5 135t-27.5 104.5t-52.5 70.5t-80.5 24q-63 0 -104.5 -35.5t-52.5 -109.5l-21 88q45 36 84.5 48.5t93.5 12.5q84 0 142 -54t83 -138.5t25 -193.5 q0 -166 -67.5 -275t-192.5 -109q-100 0 -196 78l22 88q19 -78 63.5 -120t110.5 -42z" horiz-adv-x="518"/>
<glyph glyph-name="afii10048" unicode="Ю" d="M782 374q0 -165 -70 -274.5t-196 -109.5t-196 109.5t-70 274.5v24h-131v-281q0 -79 7 -117h-86q7 46 7 117v517q0 71 -7 116h86q-7 -37 -7 -116v-232h131q6 155 76 256.5t190 101.5q126 0 196 -110.5t70 -275.5zM516 756q-64 0 -107.5 -53.5t-61.5 -137t-18 -191.5 t18 -190.5t61.5 -136t107.5 -53.5t107.5 53.5t61.5 136t18 190.5t-18 191.5t-61.5 137t-107.5 53.5z" horiz-adv-x="822"/>
<glyph glyph-name="afii10049" unicode="Я" d="M25 3q23 0 41.5 28t30 70t30.5 93.5t41 97t63 81t95 45.5q-124 0 -180.5 46.5t-56.5 119.5t56.5 119.5t180.5 46.5h148q-7 -38 -7 -116v-518q0 -79 7 -116h-86q7 45 7 116v302h-44q-43 0 -73 -44t-48 -107t-37 -126t-54 -107t-85 -44q-33 0 -54 17l2 3q9 -7 23 -7z M395 746h-69q-67 0 -112 -39t-45 -123q0 -83 45 -122.5t112 -39.5h69v324z" horiz-adv-x="514"/>
<glyph glyph-name="afii10065" unicode="а" d="M280 254v-149q0 -73 4 -105h-66v44q-40 -54 -95 -54q-40 0 -69 30.5t-29 85.5q0 41 34.5 77t101.5 36q24 0 57 -6v41q0 75 -9.5 105t-45.5 30q-69 0 -97 -84l-20 65q57 24 117 24q32 0 54.5 -9t34.5 -21.5t18.5 -33.5t8 -37t1.5 -39zM155 14q37 0 63 38v154q-20 7 -41 7 q-40 0 -66.5 -26.5t-26.5 -77.5q0 -95 71 -95z" horiz-adv-x="319"/>
<glyph glyph-name="afii10066" unicode="б" d="M358 193q0 -86 -43 -143.5t-121 -57.5t-121 57.5t-43 143.5q0 23 10 185q4 74 31 124.5t95 85.5q15 8 48 22.5t50 24t38 26t31.5 38.5t11.5 51h4v-27q0 -75 -30.5 -114.5t-108.5 -67.5q-83 -30 -123 -64.5t-43 -98.5q-5 -105 -5 -113q15 58 55 93.5t100 35.5 q78 0 121 -57.5t43 -143.5zM194 390q-49 0 -72.5 -55t-23.5 -142t23.5 -142t72.5 -55t72.5 55t23.5 142t-23.5 142t-72.5 55z" horiz-adv-x="388"/>
<glyph glyph-name="afii10067" unicode="в" d="M39 117v152q0 85 -4 117h92q84 0 113 -22t29 -61q0 -72 -106 -87q67 -4 98.5 -36t31.5 -71q0 -43 -37 -76t-114 -33h-107q4 32 4 117zM142 213h-41v-209h41q83 0 83 105q0 104 -83 104zM127 382h-26v-165h26q74 0 74 86q0 44 -19 61.5t-55 17.5z" horiz-adv-x="318"/>
<glyph glyph-name="afii10068" unicode="г" d="M241 386l26 -69q-68 65 -145 65h-21v-265q0 -85 5 -117h-71q4 32 4 117v152q0 85 -4 117h206z" horiz-adv-x="272"/>
<glyph glyph-name="afii10069" unicode="д" d="M105 386h208q-5 -32 -5 -117v-265h62l-52 -147h-4q9 38 9 61q0 58 -23 82h-230q-23 -24 -23 -82q0 -23 9 -61h-4l-52 147h46q98 73 98 279q0 31 -10.5 60t-28.5 43zM51 4h195v378h-98v-98q0 -210 -97 -280z" horiz-adv-x="370"/>
<glyph glyph-name="afii10070" unicode="е" d="M195 394q50 0 82.5 -22t32.5 -55q0 -35 -26 -54t-86 -30q-60 -12 -100 -17v-23q0 -88 29.5 -139t81.5 -51q54 0 96 50l3 -2q-50 -59 -113 -59q-80 0 -122.5 54.5t-42.5 146.5q0 86 43.5 143.5t121.5 57.5zM248 317q0 29 -12.5 51t-40.5 22q-45 0 -69.5 -47.5 t-27.5 -122.5q49 6 99 18q51 11 51 79z" horiz-adv-x="333"/>
<glyph glyph-name="afii10072" unicode="ж" d="M243 217v52q0 85 -5 117h71q-4 -32 -4 -117v-52q19 -2 34 -6l46 62q38 52 38 97q0 6 -2 16h72q-52 -44 -102 -113l-47 -64q43 -14 77.5 -49.5t52 -70t35 -62t30.5 -27.5q5 0 12 4l2 -5q-12 -9 -29 -9q-45 0 -76.5 31.5t-45.5 70t-35 75t-47 43.5l-15 3v-96q0 -85 4 -117 h-71q5 32 5 117v96l-15 -3q-26 -7 -47 -43.5t-35 -75t-45.5 -70t-76.5 -31.5q-17 0 -29 9l2 5q7 -4 12 -4q13 0 30.5 27.5t35 62t52 70t77.5 49.5l-47 64q-50 69 -102 113h72q-2 -10 -2 -16q0 -45 38 -97l45 -62q16 4 35 6z" horiz-adv-x="548"/>
<glyph glyph-name="afii10073" unicode="з" d="M143 -8q-73 0 -123 27l21 68q8 -46 35.5 -68.5t66.5 -22.5q83 0 83 109q0 48 -19 78t-51 30q-31 0 -55 -13l6 17h21q36 0 60 23t24 67q0 83 -64 83q-77 0 -92 -91l-21 68q50 27 113 27q77 0 104.5 -24t27.5 -63q0 -31 -29 -57t-87 -34q66 -4 98 -37.5t32 -73.5 q0 -43 -37 -78t-114 -35z" horiz-adv-x="319"/>
<glyph glyph-name="afii10074" unicode="и" d="M101 81l212 305h6v-269q0 -85 4 -117h-71q5 32 5 117v181l-213 -308h-5v279q0 85 -4 117h71q-5 -32 -5 -117v-188z" horiz-adv-x="358"/>
<glyph glyph-name="afii10075" unicode="й" d="M179 465q68 0 68 80h67q-21 -84 -135 -84t-135 84h67q0 -80 68 -80zM101 81l212 305h6v-269q0 -85 4 -117h-71q5 32 5 117v181l-213 -308h-5v279q0 85 -4 117h71q-5 -32 -5 -117v-188z" horiz-adv-x="358"/>
<glyph glyph-name="afii10076" unicode="к" d="M101 269v-52q19 -2 34 -6l46 62q38 52 38 97q0 6 -2 16h72q-52 -44 -102 -113l-47 -64q43 -14 77.5 -49.5t52 -70t35 -62t30.5 -27.5q5 0 12 4l2 -5q-12 -9 -29 -9q-45 0 -76.5 31.5t-45.5 70t-35 75t-47 43.5l-15 3v-96q0 -85 5 -117h-71q4 32 4 117v152q0 85 -4 117h71 q-5 -32 -5 -117z" horiz-adv-x="344"/>
<glyph glyph-name="afii10077" unicode="л" d="M96 386h208q-5 -32 -5 -117v-152q0 -85 5 -117h-71q4 32 4 117v265h-96q0 -79 -4.5 -137t-16.5 -116.5t-38 -92.5t-65 -40l-17 50q51 0 77 17t36 52q22 78 22 168q0 31 -10.5 60t-28.5 43z" horiz-adv-x="339"/>
<glyph glyph-name="afii10078" unicode="м" d="M188 -8l-124 321l-14 -196q-3 -45 -3 -47q0 -44 13 -70h-40q20 34 26 117l15 205q-26 60 -28 64h66l120 -314l76 197q13 33 13 72q0 24 -6 45h71q-2 -20 -2 -31t5 -86l12 -152q6 -85 13 -117h-71q0 3 0.5 11t0.5 12q0 12 -5 94l-14 185l-120 -310h-4z" horiz-adv-x="421"/>
<glyph glyph-name="afii10079" unicode="н" d="M319 269v-152q0 -85 5 -117h-71q4 32 4 117v96h-156v-96q0 -85 5 -117h-71q4 32 4 117v152q0 85 -4 117h71q-5 -32 -5 -117v-52h156v52q0 85 -4 117h71q-5 -32 -5 -117z" horiz-adv-x="359"/>
<glyph glyph-name="afii10080" unicode="о" d="M358 193q0 -86 -43 -143.5t-121 -57.5t-121 57.5t-43 143.5t43 143.5t121 57.5t121 -57.5t43 -143.5zM194 390q-49 0 -72.5 -55t-23.5 -142t23.5 -142t72.5 -55t72.5 55t23.5 142t-23.5 142t-72.5 55z" horiz-adv-x="388"/>
<glyph glyph-name="afii10081" unicode="п" d="M39 117v152q0 85 -4 117h289q-5 -32 -5 -117v-152q0 -85 5 -117h-71q4 32 4 117v265h-156v-265q0 -85 5 -117h-71q4 32 4 117z" horiz-adv-x="359"/>
<glyph glyph-name="afii10082" unicode="р" d="M116 17v-165q0 -70 4 -102h-71q5 32 5 102v457q0 57 -29 74q6 -1 19 -1q49 0 72 14v-117q12 58 47 86.5t67 28.5q61 0 100 -51.5t39 -147.5q0 -97 -47.5 -150t-124.5 -53q-46 0 -81 25zM116 232v-137q0 -99 81 -99q104 0 104 199q0 89 -26 133.5t-61 44.5 q-38 0 -68 -39.5t-30 -101.5z" horiz-adv-x="399"/>
<glyph glyph-name="afii10083" unicode="с" d="M195 390q-49 0 -73 -55t-24 -142q0 -88 29.5 -139t81.5 -51q54 0 96 50l3 -2q-50 -59 -113 -59q-80 0 -122.5 54.5t-42.5 146.5q0 86 43.5 143.5t121.5 57.5q63 0 113 -27l-21 -68q-15 91 -92 91z" horiz-adv-x="321"/>
<glyph glyph-name="afii10084" unicode="т" d="M318 386l26 -69q-35 33 -62.5 49t-62.5 16h-11v-265q0 -85 5 -117h-71q4 32 4 117v265h-11q-35 0 -62.5 -16t-62.5 -49l26 69h282z" horiz-adv-x="354"/>
<glyph glyph-name="afii10085" unicode="у" d="M273 269l-87 -247q-14 -39 -22.5 -61t-24.5 -58.5t-32.5 -58.5t-39 -45.5t-50 -35t-60.5 -13.5l-13 42q14 -5 41 -5q65 0 106 49t74 140q2 8 2 13q0 23 -26 84l-84 196q-47 106 -52 117h71q5 -23 43 -117l80 -197l71 197q11 31 11 72q0 21 -7 45h60q-32 -34 -61 -117z " horiz-adv-x="339"/>
<glyph glyph-name="afii10086" unicode="ф" d="M233 386v282q0 57 -29 74q6 -1 19 -1q49 0 72 14v-369q98 0 145.5 -53t47.5 -140t-47.5 -140t-145.5 -53v-148q0 -70 4 -102h-71q5 32 5 102v148q-98 0 -145.5 53t-47.5 140t47.5 140t145.5 53zM233 4v378q-69 0 -97 -50t-28 -139t28 -139t97 -50zM295 382v-378 q69 0 97 50t28 139t-28 139t-97 50z" horiz-adv-x="528"/>
<glyph glyph-name="afii10087" unicode="х" d="M72 0h-62q54 46 82 91l52 84l-52 94q-44 81 -70 117h71q21 -49 61 -117l23 -42l26 42q36 57 40 117h62q-51 -44 -96 -117l-29 -47l59 -105q58 -99 71 -117h-71q-25 53 -62 117l-30 53l-49 -79q-24 -39 -26 -91z" horiz-adv-x="320"/>
<glyph glyph-name="afii10088" unicode="ц" d="M319 269v-265h62l-52 -147h-4q9 38 9 61q0 58 -23 82h-276q4 32 4 117v152q0 85 -4 117h71q-5 -32 -5 -117v-265h156v265q0 85 -4 117h71q-5 -32 -5 -117z" horiz-adv-x="381"/>
<glyph glyph-name="afii10089" unicode="ч" d="M24 235v34q0 85 -4 117h71q-5 -32 -5 -117v-34q0 -81 62 -81q29 0 84 23v92q0 85 -4 117h71q-5 -32 -5 -117v-152q0 -85 5 -117h-71q4 32 4 117v56q-56 -23 -98 -23q-110 0 -110 85z" horiz-adv-x="334"/>
<glyph glyph-name="afii10090" unicode="ш" d="M39 117v152q0 85 -4 117h71q-5 -32 -5 -117v-265h126v265q0 85 -4 117h71q-5 -32 -5 -117v-265h126v265q0 85 -5 117h71q-4 -32 -4 -117v-152q0 -85 4 -117h-446q4 32 4 117z" horiz-adv-x="516"/>
<glyph glyph-name="afii10091" unicode="щ" d="M469 0h-434q4 32 4 117v152q0 85 -4 117h71q-5 -32 -5 -117v-265h126v265q0 85 -4 117h71q-5 -32 -5 -117v-265h126v265q0 85 -5 117h71q-4 -32 -4 -117v-265h62l-52 -147h-4q9 38 9 61q0 58 -23 82z" horiz-adv-x="539"/>
<glyph glyph-name="afii10092" unicode="ъ" d="M237 204h-36v-200h36q83 0 83 100t-83 100zM139 382h-11q-24 0 -45 -9.5t-34 -20t-39 -35.5l19 69h176q-4 -32 -4 -117v-61h36q77 0 114 -31.5t37 -72.5t-37 -72.5t-114 -31.5h-102q4 32 4 117v265z" horiz-adv-x="408"/>
<glyph glyph-name="afii10093" unicode="ы" d="M137 204h-36v-200h36q83 0 83 100t-83 100zM35 386h70q-4 -32 -4 -117v-61h36q77 0 114 -31.5t37 -72.5t-37 -72.5t-114 -31.5h-102q4 32 4 117v152q0 85 -4 117zM386 269v-152q0 -85 5 -117h-71q4 32 4 117v152q0 85 -4 117h71q-5 -32 -5 -117z" horiz-adv-x="426"/>
<glyph glyph-name="afii10094" unicode="ь" d="M137 204h-36v-200h36q83 0 83 100t-83 100zM35 386h70q-4 -32 -4 -117v-61h36q77 0 114 -31.5t37 -72.5t-37 -72.5t-114 -31.5h-102q4 32 4 117v152q0 85 -4 117z" horiz-adv-x="308"/>
<glyph glyph-name="afii10095" unicode="э" d="M146 -8q-76 0 -126 27l21 68q8 -46 36.5 -68.5t68.5 -22.5q97 0 97 217h-46q-105 0 -138 -20l30 42q33 -18 108 -18h45q-3 78 -27 125.5t-69 47.5q-77 0 -92 -91l-21 68q50 27 113 27q78 0 121.5 -57.5t43.5 -143.5t-43.5 -143.5t-121.5 -57.5z" horiz-adv-x="318"/>
<glyph glyph-name="afii10096" unicode="ю" d="M498 193q0 -86 -43 -143.5t-121 -57.5t-121 57.5t-43 143.5v20h-69v-96q0 -85 5 -117h-71q4 32 4 117v152q0 85 -4 117h71q-5 -32 -5 -117v-52h70q6 77 48.5 127t114.5 50q78 0 121 -57.5t43 -143.5zM334 390q-49 0 -72.5 -55t-23.5 -142t23.5 -142t72.5 -55t72.5 55 t23.5 142t-23.5 142t-72.5 55z" horiz-adv-x="528"/>
<glyph glyph-name="afii10097" unicode="я" d="M0 0l1 4q6 -3 11 -3q16 0 26 19.5t18.5 48.5t21 58.5t40.5 54.5t69 32q-61 6 -88 31.5t-27 57.5q0 39 29 61t113 22h87q-4 -32 -4 -117v-152q0 -85 4 -117h-70q4 32 4 117v96h-21q-28 0 -45.5 -22.5t-27 -55t-21 -65t-35.5 -55t-62 -22.5q-13 0 -23 7zM235 382h-21 q-36 0 -55 -17.5t-19 -61.5q0 -86 74 -86h21v165z" horiz-adv-x="336"/>
<glyph glyph-name="afii10071" unicode="ё" d="M195 394q50 0 82.5 -22t32.5 -55q0 -35 -26 -54t-86 -30q-60 -12 -100 -17v-23q0 -88 29.5 -139t81.5 -51q54 0 96 50l3 -2q-50 -59 -113 -59q-80 0 -122.5 54.5t-42.5 146.5q0 86 43.5 143.5t121.5 57.5zM248 317q0 29 -12.5 51t-40.5 22q-45 0 -69.5 -47.5 t-27.5 -122.5q49 6 99 18q51 11 51 79zM311 523q0 -19 -13 -32t-32 -13t-32 13t-13 32t13 32t32 13t32 -13t13 -32zM171 523q0 -19 -13 -32t-32 -13t-32 13t-13 32t13 32t32 13t32 -13t13 -32z" horiz-adv-x="333"/>
</font>
</defs>
</svg>
