<?xml version="1.0" encoding="UTF-8" standalone="no"?>
<!DOCTYPE svg  PUBLIC '-//W3C//DTD SVG 1.1//EN'  'http://www.w3.org/Graphics/SVG/1.1/DTD/svg11.dtd'>
<svg version="1.1" xmlns="http://www.w3.org/2000/svg">
<defs>
<font id="SabonLTCYR-Bold" horiz-adv-x="556">
<font-face underline-thickness="50" font-weight="700" x-height="449" cap-height="698" underline-position="-150" units-per-em="1000" descent="-200" bbox="-49 -250 1103 927" panose-1="0 0 0 0 0 0 0 0 0 0" ascent="800" font-family="R" unicode-range="U+0020-0491"/>
<missing-glyph/>
<glyph horiz-adv-x="278" glyph-name="space" unicode=" "/>
<glyph horiz-adv-x="333" glyph-name="exclam" unicode="!" d="M154 198l-58 310q-3 17 -5 34.5t-2 34.5q0 48 20.5 74.5t55.5 26.5t54.5 -27.5t19.5 -77.5q0 -30 -6 -59l-59 -316h-20zM163 139q32 0 53.5 -22t21.5 -53q0 -32 -21.5 -54t-53.5 -22q-31 0 -53 22t-22 54q0 31 22 53t53 22z"/>
<glyph glyph-name="quotedbl" unicode='&quot;' d="M153 639q-3 29 -3 43q0 26 13 40.5t35 14.5t35 -15t13 -40q0 -17 -3 -43l-26 -213h-37zM312 639q-3 29 -3 43q0 26 13 40.5t35 14.5t35 -15t13 -40q0 -17 -3 -43l-26 -213h-37z"/>
<glyph glyph-name="numbersign" unicode="#" d="M33 0l68 188h-95l17 47h96l54 150h-95l17 47h96l68 190h79l-69 -190h107l69 190h78l-69 -190h96l-18 -47h-95l-54 -150h95l-17 -47h-96l-69 -188h-78l69 188h-107l-69 -188h-78zM358 385h-106l-55 -150h107z"/>
<glyph glyph-name="dollar" unicode="$" d="M294 716q18 0 40.5 -2t43.5 -4t38.5 -4.5t26.5 -4.5q0 -37 3 -72.5t8 -71.5l-28 -5q-10 61 -41.5 93t-82.5 32h-14v-251q24 -14 49 -26t48 -27q48 -29 73.5 -74.5t25.5 -100.5q0 -42 -14.5 -78t-40.5 -64t-62 -45t-79 -21v-93h-31v89q-28 0 -48.5 1.5t-39 6.5t-39 14 t-47.5 24q-3 38 -7.5 76t-8.5 76l28 6q4 -19 7 -32.5t6.5 -24t8 -19.5t11.5 -21q21 -33 56 -49t73 -16v259q-37 21 -69.5 40t-55.5 43.5t-36.5 58t-13.5 83.5q0 40 12.5 74.5t35.5 61t55.5 43.5t71.5 22v56h31v-53h6zM257 671q-34 -13 -53 -42.5t-19 -69.5q0 -45 18 -69 t54 -48v229zM288 32q39 11 62.5 41.5t23.5 72.5q0 48 -24 75t-62 50v-239z"/>
<glyph horiz-adv-x="1000" glyph-name="percent" unicode="%" d="M704 727l-362 -759h-55l364 759h53zM735 332q38 0 69.5 -12t54 -34.5t35 -53.5t12.5 -69q0 -39 -12.5 -71.5t-35.5 -55.5t-55 -36t-71 -13q-78 0 -125 46t-47 124q0 38 13 70.5t36.5 55.5t55.5 36t70 13zM730 21q37 0 54 34.5t17 109.5q0 71 -15.5 102.5t-50.5 31.5 q-26 0 -40.5 -17t-21 -40.5t-8 -49t-1.5 -42.5q0 -16 1.5 -38.5t8 -42.5t19.5 -34t37 -14zM268 705q38 0 69.5 -12t54 -34.5t35 -53.5t12.5 -69q0 -39 -12.5 -71.5t-35.5 -55.5t-55 -36t-71 -13q-78 0 -125 46t-47 124q0 38 13 70.5t36.5 55.5t55.5 36t70 13zM263 394 q37 0 54 34.5t17 109.5q0 71 -15.5 102.5t-50.5 31.5q-26 0 -40.5 -17t-21 -40.5t-8 -49t-1.5 -42.5q0 -16 1.5 -38.5t8 -42.5t19.5 -34t37 -14z"/>
<glyph horiz-adv-x="944" glyph-name="ampersand" unicode="&amp;" d="M214 412q-75 58 -75 136q0 32 13.5 59.5t36.5 48t54.5 32t68.5 11.5q60 0 98.5 -30t38.5 -78q0 -26 -10 -46t-26 -35.5t-36 -28t-40 -24.5q38 -22 65.5 -40.5t52 -40t50.5 -50.5t61 -73l12 19q47 75 70.5 119.5t23.5 64.5q0 17 -14 26.5t-40 9.5h-11v28l17 -1 q17 -1 28 -1.5t21 -1t22 -0.5h31h48h31t24.5 0.5t27.5 1.5l29 2v-29q-43 -1 -62 -4t-36 -12q-20 -11 -48 -40.5t-54 -65.5l-100 -142l15 -22q54 -79 98.5 -114t93.5 -35q32 0 55.5 19t43.5 41l20 -16q-80 -123 -195 -123q-43 0 -77 19q-19 11 -34 22t-29 26t-29.5 36.5 t-36.5 54.5q-26 -30 -53 -57t-57 -47.5t-65 -32.5t-79 -12q-42 0 -78.5 15.5t-63 42.5t-42 64t-15.5 80q0 39 12.5 72.5t33.5 61t49.5 50t60.5 40.5zM311 471q33 27 47 51t14 55q0 38 -21.5 63.5t-54.5 25.5q-32 0 -53.5 -23t-21.5 -56q0 -21 8 -38t21 -31t29 -25.5 t32 -21.5zM493 160q-33 44 -59 75t-53.5 56.5t-61 49.5t-81.5 55q-45 -34 -65 -68.5t-20 -76.5q0 -36 14.5 -67.5t39 -55t58 -37t71.5 -13.5q53 0 87.5 22.5t69.5 59.5z"/>
<glyph horiz-adv-x="278" glyph-name="quotesingle" unicode="&apos;" d="M94 639q-3 29 -3 43q0 26 13 40.5t35 14.5t35 -14.5t13 -40.5q0 -8 -0.5 -18t-2.5 -25l-27 -213h-37z"/>
<glyph horiz-adv-x="333" glyph-name="parenleft" unicode="(" d="M270 689q-8 -15 -14 -25.5t-10 -18.5q-109 -206 -109 -392q0 -39 5 -78.5t14 -79.5q8 -36 17.5 -65.5t22.5 -59.5t31.5 -63.5t45.5 -77.5l-40 -29q-9 12 -15 21.5t-11 16.5q-63 96 -96.5 199.5t-33.5 207.5q0 86 24 179q10 41 20.5 73t24.5 64t34 68.5t48 84.5z"/>
<glyph horiz-adv-x="333" glyph-name="parenright" unicode=")" d="M57 -175q8 14 13.5 25l9.5 19q56 104 82.5 200.5t26.5 191.5q0 79 -18 157q-9 37 -18 66.5t-22 59.5t-32 63.5t-46 77.5l41 29q8 -13 14.5 -22t11.5 -16q63 -96 96 -199.5t33 -207.5q0 -43 -5.5 -87.5t-17.5 -91.5q-10 -40 -20.5 -72.5t-24.5 -65t-34 -68.5t-49 -84z"/>
<glyph glyph-name="asterisk" unicode="*" d="M269 571q-5 15 -7.5 38t-2.5 40q0 64 44 64q19 0 32 -12.5t13 -29.5q0 -13 -7 -29q-6 -11 -11 -19.5t-11.5 -16t-15.5 -16.5t-23 -22zM235 552q-20 2 -33 5t-40 10q-29 8 -41 20t-12 30t12 30.5t30 12.5q15 0 25 -5.5t22 -20.5q15 -19 23 -32t20 -39zM296 545l9 4 l61.5 27t35.5 9q19 0 31 -12.5t12 -30.5q0 -19 -13.5 -32.5t-32.5 -13.5q-9 0 -26 5q-20 6 -34.5 12.5t-42.5 20.5v11zM243 515q-28 -56 -47.5 -79t-40.5 -23q-17 0 -30 13.5t-13 31.5q0 48 102 63l21 3zM281 510q32 -27 51.5 -55.5t19.5 -48.5q0 -17 -13.5 -28t-31.5 -11 q-45 0 -45 61q0 18 2 40t6 39z"/>
<glyph glyph-name="plus" unicode="+" d="M232 213h-212v90h212v212h90v-212h214v-90h-214v-213h-90v213z"/>
<glyph horiz-adv-x="278" glyph-name="comma" unicode="," d="M42 -156q113 33 113 102q0 23 -11 32t-29 17q-23 11 -36 23.5t-13 40.5q0 31 22.5 53t54.5 22q42 0 68 -33t26 -85q0 -40 -17 -77t-48 -65q-12 -11 -23 -19t-23.5 -14t-28.5 -12t-39 -12z"/>
<glyph horiz-adv-x="333" glyph-name="hyphen" unicode="-" d="M42 294l39 -1h185l40 1l-17 -84h-68h-171h-25z"/>
<glyph horiz-adv-x="278" glyph-name="period" unicode="." d="M135 -16q-33 0 -56 23.5t-23 56.5t23 56.5t56 23.5q34 0 57 -23.5t23 -56.5t-23 -56.5t-57 -23.5z"/>
<glyph horiz-adv-x="389" glyph-name="slash" unicode="/" d="M378 710l-296 -727h-80l297 727h79z"/>
<glyph glyph-name="zero" unicode="0" d="M277 700q54 0 97.5 -24t73.5 -69t46 -110t16 -148q0 -54 -11.5 -118t-39.5 -119t-73.5 -91.5t-114.5 -36.5t-114.5 36t-71.5 90t-36.5 117t-10.5 118q0 57 11 119.5t38.5 115t73.5 86.5t116 34zM272 22q32 0 54 18t35.5 47t20.5 65t10.5 71.5t3.5 67v51.5t-0.5 51 t-3.5 67t-10 72.5t-21 65.5t-35 47.5t-53 18.5q-63 0 -93.5 -77t-30.5 -235q0 -168 30 -249t93 -81z"/>
<glyph glyph-name="one" unicode="1" d="M81 552q22 11 37.5 19.5t33 19t40 25t57.5 37.5q16 11 37.5 28.5t37.5 24.5h31l-1 -632q0 -19 7 -27q6 -8 26.5 -12t58.5 -4h22v-31l-24 1q-22 1 -36.5 1h-28.5h-32h-47h-51.5h-34h-28t-33.5 -1l-35 -1v31h11q43 0 61 2.5t28 7.5q12 7 14 24.5t2 28.5v493l-5 1 q-34 -14 -66.5 -31.5t-65.5 -33.5z"/>
<glyph glyph-name="two" unicode="2" d="M46 544q7 16 13 27.5t13.5 21.5t16.5 19.5t22 21.5q72 66 157 66q39 0 71.5 -13t56 -36.5t36 -56t12.5 -72.5q0 -62 -25 -111q-19 -39 -36.5 -67.5t-43.5 -59.5t-67 -72t-107 -104h285l24 60h28l-24 -168h-457v34q15 11 26 20t19 15q128 101 195.5 204t67.5 197 q0 31 -10 57.5t-27 46t-41 30.5t-51 11q-46 0 -77.5 -27.5t-56.5 -62.5z"/>
<glyph glyph-name="three" unicode="3" d="M286 390q8 1 12.5 1h13.5q34 0 63 -11.5t50.5 -31.5t33.5 -47t12 -59q0 -51 -23.5 -98t-63 -82.5t-92 -56.5t-109.5 -21q-66 0 -107 27q-33 22 -33 70q17 18 45 18q5 0 8 -1q13 -38 41.5 -57t69.5 -19q31 0 58 12t46.5 33t30.5 50t11 63q0 33 -10.5 61.5t-29.5 49.5 t-45.5 32.5t-57.5 11.5q-17 0 -33 -3t-36 -10l-6 29l18 6q69 23 108 48q25 17 41 48t16 62q0 48 -29 79t-74 31q-38 0 -67 -19.5t-54 -44.5l-20 21l17 21q16 20 38 38t47 31t51.5 20.5t52.5 7.5q32 0 59 -10t46.5 -27.5t30.5 -42t11 -53.5t-12 -58.5t-33 -51.5 q-10 -10 -18.5 -18t-19 -15t-24 -15t-34.5 -19z"/>
<glyph glyph-name="four" unicode="4" d="M503 290v-90h-79v-200h-111v200h-285v57l334 443h62v-410h79zM313 290v278l-210 -278h210z"/>
<glyph glyph-name="five" unicode="5" d="M475 686l-34 -103h-242l-30 -91q31 -7 52.5 -13.5t39 -14t34 -17.5t37.5 -25q48 -35 76.5 -88.5t28.5 -107.5q0 -50 -20.5 -94t-56 -76.5t-83 -51.5t-101.5 -19q-60 0 -95.5 21.5t-35.5 57.5q0 14 9.5 23.5t22.5 9.5q6 0 12.5 -1.5t9.5 -3.5t4.5 -3.5t4.5 -8.5 q11 -26 40 -42t64 -16q27 0 51 11t41 30.5t27 46t10 57.5q0 42 -20.5 82.5t-56.5 69.5q-18 14 -34 24t-34 18t-41 15t-55 14l97 296h278z"/>
<glyph glyph-name="six" unicode="6" d="M521 681q-37 -9 -64.5 -17.5t-50.5 -20t-44.5 -26.5t-48.5 -37q-149 -125 -149 -316q0 -52 10.5 -96.5t29 -76.5t44.5 -50t56 -18q44 0 71 33t27 87q0 37 -10.5 68.5t-28.5 55t-42.5 37t-53.5 13.5q-17 0 -31.5 -5.5t-36.5 -19.5l-2 30q41 41 72.5 57t70.5 16 q37 0 68.5 -14t54.5 -38.5t36 -58t13 -72.5q0 -47 -18 -88t-49.5 -71.5t-74 -48t-91.5 -17.5q-52 0 -96 19.5t-75 55t-48.5 85t-17.5 109.5q0 91 44 173t132 151q36 29 66.5 49t62.5 34t70 24t90 20z"/>
<glyph glyph-name="seven" unicode="7" d="M83 686h451l8 -7l-367 -702l-48 24l300 578h-311q-10 -19 -15.5 -30t-13.5 -33h-27z"/>
<glyph glyph-name="eight" unicode="8" d="M335 374q18 -8 30.5 -14t23 -13t20 -15t21.5 -19q27 -26 41.5 -60t14.5 -69q0 -42 -17 -78.5t-47 -63.5t-71 -42t-88 -15q-45 0 -82.5 12.5t-64.5 34.5t-42.5 53t-15.5 67t10.5 62t29 45.5t43.5 34.5t54 27q-57 28 -90 77t-33 113q0 42 15.5 77t43 60t66.5 39t86 14 q35 0 68.5 -9.5t60 -29t42.5 -48.5t16 -68q0 -27 -11.5 -57t-31.5 -50q-9 -10 -17.5 -17.5t-18 -14.5t-23 -14.5t-33.5 -18.5zM310 388q78 59 78 147q0 28 -8.5 52t-23.5 42t-35 28t-44 10q-47 0 -78 -32.5t-31 -80.5q0 -28 11.5 -54t31.5 -46q11 -11 20 -18.5t19.5 -14.5 t24.5 -14.5t35 -18.5zM218 308q-37 -24 -57.5 -62.5t-20.5 -84.5q0 -63 35 -102t92 -39q48 0 79.5 30.5t31.5 78.5q0 21 -5 39t-13 32q-10 15 -19.5 26t-24.5 22t-38.5 25t-59.5 35z"/>
<glyph glyph-name="nine" unicode="9" d="M23 14q38 9 65 17.5t50 20t44.5 26.5t48.5 37q149 125 149 316q0 53 -10.5 97t-29 76t-44.5 50t-56 18q-44 0 -71 -33.5t-27 -87.5q0 -36 10.5 -68t28.5 -55.5t43 -37t53 -13.5q17 0 31.5 5.5t36.5 20.5l2 -30q-39 -41 -71.5 -57.5t-71.5 -16.5q-37 0 -68.5 14 t-54.5 38.5t-36 58t-13 72.5q0 47 18 88t49.5 71.5t74 48t91.5 17.5q53 0 96.5 -19.5t74.5 -55t48.5 -85t17.5 -108.5q0 -185 -176 -325q-36 -29 -66.5 -48.5t-62.5 -33.5t-70 -24.5t-90 -20.5z"/>
<glyph horiz-adv-x="278" glyph-name="colon" unicode=":" d="M145 285q-33 0 -56.5 23t-23.5 57q0 33 23.5 56t56.5 23t56.5 -23t23.5 -56q0 -34 -23.5 -57t-56.5 -23zM145 -16q-33 0 -56.5 23t-23.5 57q0 33 23.5 56.5t56.5 23.5t56.5 -23.5t23.5 -56.5q0 -34 -23.5 -57t-56.5 -23z"/>
<glyph horiz-adv-x="278" glyph-name="semicolon" unicode=";" d="M159 285q-34 0 -57 23t-23 57q0 33 23 56t57 23q33 0 56 -23t23 -56q0 -34 -23 -57t-56 -23zM47 -156q113 33 113 102q0 23 -11 32t-29 17q-23 11 -36 23.5t-13 40.5q0 31 22.5 53t54.5 22q42 0 68 -33t26 -85q0 -40 -17 -77t-48 -65q-12 -11 -23 -19t-23.5 -14 t-28.5 -12t-39 -12z"/>
<glyph glyph-name="less" unicode="&lt;" d="M-10 241v33l576 253v-98l-410 -171l410 -172v-98z"/>
<glyph glyph-name="equal" unicode="=" d="M20 407h516v-90h-516v90zM20 198h516v-90h-516v90z"/>
<glyph glyph-name="greater" unicode="&gt;" d="M566 274v-33l-576 -253v98l409 172l-409 171v98z"/>
<glyph horiz-adv-x="444" glyph-name="question" unicode="?" d="M164 196l-4 179q0 8 3.5 11.5t14.5 3.5q69 0 109.5 27t40.5 73q0 21 -7.5 39.5t-20.5 33t-31 23t-39 8.5h-8t-12 -1q-28 -3 -37 -3q-27 0 -44.5 15.5t-17.5 39.5t20.5 41t49.5 17q33 0 67 -18.5t56 -48.5q16 -22 30 -48.5t24 -54.5t16 -55t6 -50q0 -71 -41 -107t-105 -49 l-15 -3q-17 -4 -22 -15t-5 -51v-7h-28zM269 63q0 -32 -22 -54t-54 -22q-31 0 -53 22t-22 54q0 31 22 53t53 22q32 0 54 -22t22 -53z"/>
<glyph horiz-adv-x="800" glyph-name="at" unicode="@" d="M701 75q-138 -96 -290 -96q-84 0 -156 27t-124.5 75t-82.5 113.5t-30 142.5q0 83 33.5 156t91 127t135 85.5t165.5 31.5q74 0 136.5 -22.5t107.5 -62.5t70 -95.5t25 -121.5q0 -55 -18 -106t-47 -91t-67 -64t-79 -24q-42 0 -67 23t-27 65q-42 -88 -123 -88q-28 0 -52 11.5 t-42 31t-28 47t-10 58.5q0 85 57 157q32 42 73.5 65t80.5 23q38 0 63.5 -19t32.5 -51l18 58h73l-40 -132q-20 -67 -29.5 -105.5t-9.5 -55.5q0 -23 13.5 -37.5t36.5 -14.5q29 0 60 26q43 37 69 97t26 123q0 59 -22 108.5t-61 85t-93.5 55.5t-119.5 20q-76 0 -143.5 -29 t-118.5 -79t-80.5 -116.5t-29.5 -141.5q0 -69 25.5 -128t71 -101.5t108 -66.5t135.5 -24q140 0 267 87zM508 449q0 26 -17 42t-43 16q-46 0 -85 -56q-29 -41 -46.5 -89.5t-17.5 -87.5q0 -42 18.5 -65t50.5 -23q52 0 85 67q5 10 8.5 18t7.5 18.5t9 26t12 39.5q10 29 14 50 t4 37v7z"/>
<glyph horiz-adv-x="722" glyph-name="A" unicode="A" d="M706 0l-29 1q-18 1 -28.5 1h-20h-22.5h-37h-43.5h-28.5h-23t-28 -1l-29 -1v31h15q32 0 45 6t13 21q0 10 -3.5 20t-6.5 20l-49 145h-227l-50 -157q-4 -11 -4 -18q0 -37 72 -37h14v-31l-26 1q-26 1 -47.5 1h-47.5h-29h-20h-17.5t-20.5 -1l-21 -1v31q20 1 27 2t19 6 q30 11 47 56l180 516q5 14 8 23t4.5 16t2.5 13t2 15q17 7 25 10t16 7q14 6 26.5 13t26.5 15l12 -3l227 -645q15 -44 68 -44h8v-31zM317 586l-96 -285h191z"/>
<glyph horiz-adv-x="667" glyph-name="B" unicode="B" d="M20 698l17 -1q26 -2 49.5 -2h44.5h13.5h13h17.5t26 1l70 3q20 1 35 1.5t22 0.5q41 0 83 -6.5t76 -24t56 -49t22 -81.5q0 -69 -60 -113q-14 -10 -26 -17t-25 -12.5t-29.5 -10t-39.5 -9.5v-4q23 -1 37.5 -2t26.5 -3t23 -5.5t26 -8.5q50 -17 80 -59t30 -94q0 -42 -19.5 -81 t-54.5 -68q-37 -30 -83.5 -43t-119.5 -13h-22t-40 2q-23 1 -41 1.5t-34 1t-32.5 0.5h-36.5h-22h-17.5h-19t-25.5 -1l-21 -1v31h6q23 0 39 1.5t26 8.5t15 21t5 39v506q0 35 -19 49q-16 12 -72 12v30zM236 392q12 0 17.5 -0.5t11.5 -0.5q35 0 65.5 6t53.5 21t36 41t13 66 q0 64 -37 101t-100 37q-15 0 -30 -1t-30 -3v-267zM236 86q0 -17 8 -27t20 -15.5t27 -7t28 -1.5q35 0 63 12t48 33t31 50t11 63q0 44 -14.5 74.5t-39.5 49.5t-59 28t-74 9h-22t-27 -1v-267z"/>
<glyph horiz-adv-x="722" glyph-name="C" unicode="C" d="M675 636q0 -20 1.5 -49t3.5 -67l1 -20l-25 -2q-53 179 -221 179q-65 0 -113 -24.5t-79.5 -66t-46.5 -96t-15 -114.5q0 -62 16 -124t49 -112t84 -81t121 -31q87 0 135 46.5t72 122.5l28 -4q-6 -26 -9.5 -45t-6.5 -36.5t-5 -36.5t-5 -45q-110 -43 -226 -43 q-90 0 -162.5 26.5t-124.5 74.5t-80 116t-28 152q0 80 28 146.5t78.5 114.5t120.5 74.5t154 26.5q43 0 84 -7.5t82 -20.5l26 -8q19 -6 32.5 -8.5t21.5 -4.5q1 0 3 -0.5t6 -0.5v-32z"/>
<glyph horiz-adv-x="778" glyph-name="D" unicode="D" d="M16 31h10q23 0 38 2.5t24 10t12.5 22t3.5 38.5v491q0 27 -3 40t-12 20q-16 13 -73 13v30l22 -1q33 -2 53.5 -2h43.5q34 0 77 1t91 3q15 1 26 1.5t17 0.5q86 0 157 -25.5t122 -72t79.5 -110.5t28.5 -142t-29.5 -143t-80 -112t-118 -73t-143.5 -26h-19.5t-31.5 2 q-17 1 -37.5 2t-46.5 2q-31 2 -50 2h-38q-10 0 -19.5 -0.5t-18.5 -0.5q-19 -1 -35.5 -1.5t-49.5 -2.5v31zM231 604v-488q0 -85 105 -85q66 0 114.5 27t80 71t46.5 100t15 115q0 64 -16 122t-49 102.5t-84 70.5t-122 26q-12 0 -36 -2t-51 -4z"/>
<glyph horiz-adv-x="611" glyph-name="E" unicode="E" d="M15 698l26 -1q40 -2 63.5 -2h49.5h29t43 0.5t47 0.5h40l168 1l38 1q-1 -8 -1 -13v-9q0 -12 1 -39t3 -69q0 -3 0.5 -7.5t0.5 -11.5l-29 -12q-2 25 -8.5 53.5t-28.5 44.5q-14 11 -42 14t-92 3h-89v-262h99q22 0 39.5 1.5t29.5 9t18.5 23t6.5 42.5v11h31v-106 q0 -32 0.5 -64.5t2.5 -62.5h-30q-1 3 -1 9v6q-1 23 -5 38t-13 24t-24.5 13t-40.5 4h-113v-216q0 -26 5 -40t16 -22q9 -6 24.5 -9t32.5 -4.5t33.5 -1.5h26.5q57 0 90 7t52 24q8 7 13 13.5t10.5 16t11 23.5t12.5 35l29 -4q-7 -23 -11.5 -40t-8.5 -34t-8 -37t-9 -49h-20h-75 t-98 1q-68 1 -115 1h-75h-66t-60 -1l-29 -1v31h9q32 0 48.5 5.5t24 17.5t8.5 32.5t1 50.5v451q0 25 -1.5 40.5t-9.5 24.5t-24.5 12t-45.5 3h-10v30z"/>
<glyph glyph-name="F" unicode="F" d="M17 698l69 -1l83 -2l194 2l127 1h39l-1 -11l4 -126v-19l-29 -7q-3 36 -10.5 59.5t-24 36.5t-44.5 18t-70 5h-117v-266h117q23 0 38 2t24.5 9.5t14.5 21.5t8 39l1 10h30q-2 -16 -2 -48.5v-71.5q0 -21 0.5 -33t1 -21.5t1 -21.5t1.5 -33h-31v8q-1 2 -1 4q-2 27 -7 43.5 t-15 25.5t-27.5 12t-45.5 3h-108v-246q0 -36 17 -48t69 -12h23v-31l-23 1q-38 2 -74.5 2h-74.5h-42h-28.5t-24.5 -0.5t-30 -1.5l-30 -1v31h16q40 0 57 12t17 40v510q0 44 -16 59.5t-61 15.5h-15v30z"/>
<glyph horiz-adv-x="778" glyph-name="G" unicode="G" d="M693 682q-1 -20 -1.5 -39.5t1.5 -39.5q1 -12 1.5 -22t2 -20.5t3 -24t4.5 -31.5l-31 -3q-4 21 -8.5 35.5t-10 26.5t-12.5 22t-17 22q-29 32 -77 50t-105 18q-61 0 -110.5 -21t-84 -60.5t-53 -95.5t-18.5 -126q0 -61 15.5 -122.5t47.5 -111t82.5 -81t120.5 -31.5q27 0 60 6 t55 16v143q0 39 -18 53t-67 14h-5v31h20q32 0 64.5 -1.5t65.5 -1.5h36h25t21.5 0.5t25.5 1.5l26 1v-31h-7q-23 0 -41.5 -8.5t-18.5 -37.5v-153l12 -7.5t11 -5.5v-18q-9 -3 -16 -4.5t-12 -3.5q-68 -19 -127.5 -27.5t-117.5 -8.5q-83 0 -156 25t-127 72.5t-85 116.5t-31 156 q0 155 112 260q59 55 126 79t162 24q38 0 67.5 -4t66.5 -13q21 -5 36.5 -8t29 -5.5t27 -3.5t30.5 -2z"/>
<glyph horiz-adv-x="833" glyph-name="H" unicode="H" d="M814 667h-11q-45 0 -62 -10q-15 -10 -15 -51v-519q0 -32 16 -44t62 -12h10v-31l-21 1q-20 1 -33.5 1.5t-26.5 0.5t-30 -0.5t-45 -0.5h-42.5h-29h-24.5t-29 -1l-30 -1v31h16q45 0 61 12q9 7 12.5 22t3.5 47v224h-358v-247q0 -34 17.5 -46t67.5 -12h9v-31l-21 1 q-21 1 -34.5 1.5t-27.5 0.5t-31.5 -0.5t-47.5 -0.5h-40.5h-27.5h-24t-29 -1l-30 -1v31h13q47 0 61 10q13 9 14 26t1 31v506q0 39 -14 51t-56 12h-19v31h20q31 0 62 -1t62 -1h69t69 1l31 1v-31h-11q-49 0 -66 -11q-17 -10 -17 -53v-211h358v209q0 28 -6 41q-10 25 -75 25h-12 v31h21q33 0 66 -1t66 -1h45.5h30t24 0.5t28.5 0.5l30 1v-31z"/>
<glyph horiz-adv-x="333" glyph-name="I" unicode="I" d="M19 698h19q19 0 30.5 -0.5t23 -0.5t25 -0.5t35.5 -0.5h49.5h32t25 0.5t27.5 0.5l30 1v-30q-26 0 -42 -2.5t-25 -9.5t-12.5 -19.5t-3.5 -32.5v-515q0 -33 17 -45t66 -13v-31l-20 1q-19 1 -32 1.5t-25.5 0.5t-29.5 -0.5t-44 -0.5h-39.5h-27.5h-23t-28 -1l-28 -1v31h10 q46 0 60 10q12 8 13 26.5t1 30.5v507q0 17 -0.5 24.5t-4.5 16.5q-9 22 -57 22h-22v30z"/>
<glyph horiz-adv-x="389" glyph-name="J" unicode="J" d="M50 698h21q32 0 64 -1t64 -1h47h31t24.5 0.5t28.5 0.5l30 1v-30q-15 0 -26 -1t-22 -4q-20 -5 -27.5 -15.5t-7.5 -33.5v-523q0 -31 -1 -53.5t-3 -41t-6.5 -34.5t-10.5 -33q-11 -32 -31.5 -59t-46 -46.5t-55 -31t-59.5 -11.5q-48 0 -80.5 23.5t-32.5 57.5q0 26 18 43t44 17 q23 0 38 -16q5 -7 8 -14t6 -22q4 -17 10.5 -32t28.5 -15q24 0 34 25t10 87v646q0 26 -1.5 39.5t-6.5 21.5q-14 25 -90 26v30z"/>
<glyph horiz-adv-x="722" glyph-name="K" unicode="K" d="M25 698l22 -1q22 -1 52.5 -1h87.5h39h26t22 0.5t26 0.5l29 1v-30q-15 0 -31 -0.5t-29.5 -4.5t-22 -14.5t-8.5 -31.5v-526q0 -34 16 -47t58 -13h20v-31l-21 1q-35 2 -70.5 2h-71.5h-39h-27t-23 -0.5t-28 -1.5l-29 -1v31h8q28 0 43.5 3t24.5 11q13 11 13.5 31t0.5 34v474 q0 26 -0.5 34.5t-5.5 21.5q-6 17 -21 22.5t-53 5.5h-8v30zM428 698h18q17 0 27.5 -0.5t20.5 -0.5t22.5 -0.5t33.5 -0.5h41.5h27t21.5 0.5t24 0.5l26 1v-30h-13q-40 0 -70 -14q-18 -9 -43.5 -29.5t-47.5 -43.5l-158 -172l264 -333q13 -17 21.5 -24.5t19.5 -12.5 q12 -5 21 -6.5t23 -1.5v-31l-22 1q-13 1 -20.5 1h-15h-18.5h-31h-23h-16t-13.5 -0.5t-17.5 -0.5l-21 -1q-5 9 -8.5 15t-7 11t-7.5 10.5t-11 14.5l-234 295l223 251q18 20 25 30t7 18q0 12 -9 17q-5 3 -18 4.5t-28 1.5h-13v30z"/>
<glyph horiz-adv-x="611" glyph-name="L" unicode="L" d="M333 668h-8q-28 0 -42.5 -2.5t-23.5 -8.5q-18 -10 -18 -47v-504q0 -14 6.5 -29t20.5 -21q12 -5 37 -7.5t68 -2.5q57 0 91 9.5t54 29.5q14 15 22 31.5t18 53.5h31l-38 -170h-23h-102t-102 1q-66 1 -106 1h-54h-56.5t-56.5 -1l-28 -1v31h11q24 0 39 3.5t23.5 13t11.5 26 t3 43.5v473q0 25 -0.5 32.5t-4.5 19.5q-5 14 -21 20t-52 6h-10v30l33 -1q33 -1 60 -1h60h45h30t24.5 0.5t27.5 0.5l30 1v-30z"/>
<glyph horiz-adv-x="1000" glyph-name="M" unicode="M" d="M505 176q15 33 35.5 78.5t43.5 95.5t46 102t43.5 99t37 85.5t25.5 61.5l25 -1q20 -1 38.5 -1h41.5h31.5h20.5t17 0.5t19 0.5l21 1v-30h-9q-51 0 -70.5 -13t-17.5 -50l34 -503q3 -43 18.5 -57t59.5 -14h16v-31l-20 1q-19 1 -32 1.5t-25.5 0.5t-27.5 -0.5t-40 -0.5h-47 h-31.5h-25.5t-30 -1l-31 -1v31h8q26 0 41.5 2t23.5 9t10.5 19.5t2.5 34.5v14t-1 14l-29 426l-256 -563h-24l-243 552l-34 -400q-1 -10 -1 -17.5v-13.5q0 -26 3.5 -39.5t11.5 -22.5q14 -15 61 -15h21v-31l-24 1q-29 2 -56 1.5t-56 -0.5h-31h-21.5h-19t-23.5 -1l-23 -1v31 l16 1q26 2 41.5 7t25.5 20t15.5 43.5t10.5 77.5l26 254q5 42 8 83.5t3 83.5q0 19 -3.5 28.5t-11.5 17.5q-11 11 -29.5 15.5t-54.5 5.5v30l30 -1q27 -1 46 -1h46h23h16.5t14.5 0.5t17 0.5l19 1z"/>
<glyph horiz-adv-x="833" glyph-name="N" unicode="N" d="M664 198v353q0 26 -2.5 52.5t-21.5 46.5q-10 11 -25 14.5t-44 3.5h-17v30l19 -1q31 -2 60.5 -2h60.5h33h22.5t19.5 0.5t24 1.5l24 1v-30h-13q-27 0 -44.5 -6t-28 -21.5t-14.5 -41t-4 -64.5v-498q0 -14 1.5 -28t3.5 -28h-37l-516 580v-391q0 -18 0.5 -30.5t1.5 -22.5 t2.5 -19t4.5 -20q7 -27 25 -37t63 -10h15v-31l-18 1q-17 1 -28 1h-22h-24.5h-36.5h-38.5h-25.5h-21t-25 -1l-26 -1v31h10q30 0 45.5 5t25.5 16q12 14 17.5 42.5t5.5 81.5v406q0 26 -6.5 42.5t-20 25.5t-32.5 13t-45 5v30l25 -1q22 -1 43 -1h47h23h16.5t14.5 0.5t17 0.5l18 1 z"/>
<glyph horiz-adv-x="834" glyph-name="O" unicode="O" d="M420 717q81 0 149.5 -26.5t118 -74t77.5 -113t28 -143.5q0 -81 -29 -149.5t-79.5 -118.5t-119.5 -78.5t-149 -28.5q-83 0 -152 27t-118.5 75t-77 115t-27.5 148q0 79 28.5 146t79.5 116t120.5 77t150.5 28zM432 27q62 0 104 26.5t68 68.5t37.5 94.5t11.5 105.5 q0 80 -17.5 145t-50 111.5t-77.5 72t-100 25.5q-62 0 -105.5 -26t-71 -67.5t-40 -94.5t-12.5 -107q0 -79 18.5 -144.5t51.5 -112t79.5 -72t103.5 -25.5z"/>
<glyph glyph-name="P" unicode="P" d="M21 698h12q18 0 40.5 -1t42.5 -1t39.5 1t48.5 2l58 2q11 0 20.5 0.5t18.5 0.5q47 0 89.5 -10t75.5 -32.5t52.5 -59t19.5 -88.5q0 -45 -17.5 -85t-49.5 -70q-32 -29 -73 -42t-101 -13q-7 0 -14 0.5t-14 0.5v32q5 -1 9 -1h7q58 0 90 40.5t32 115.5q0 35 -8 66.5t-25.5 55.5 t-44.5 38t-66 14q-18 0 -34 -4v-566q0 -21 9 -36q17 -27 89 -27h10v-31l-21 1q-20 1 -33.5 1.5t-26.5 0.5t-30 -0.5t-44 -0.5h-45h-30h-25t-30 -1l-31 -1v31h13q34 0 50 9q14 9 14 40v535q0 53 -62 53h-15v30z"/>
<glyph horiz-adv-x="834" glyph-name="Q" unicode="Q" d="M505 -6q19 -9 33 -17t29.5 -19t36 -26.5t51.5 -39.5l22 -17q53 -41 80 -41q19 0 36 14l15 -19q-29 -32 -54 -44.5t-57 -12.5q-28 0 -52 9q-39 16 -75.5 49t-68.5 62q-31 27 -54 44.5t-51 37.5q-3 2 -7.5 5.5t-10.5 8.5q-72 2 -134 30.5t-107 77t-70.5 114t-25.5 140.5 q0 78 28.5 145.5t79.5 116.5t120.5 77t150.5 28t149.5 -26.5t118 -74t77.5 -113t28 -143.5q0 -68 -23.5 -130.5t-63 -112t-91.5 -82t-110 -41.5zM408 676q-62 0 -105.5 -26t-71 -67.5t-40 -94.5t-12.5 -107q0 -79 18.5 -144.5t51.5 -112t79.5 -72t102.5 -25.5q62 0 104.5 26 t68.5 68t37.5 95t11.5 106q0 57 -12.5 119t-41.5 114.5t-75.5 86.5t-115.5 34z"/>
<glyph horiz-adv-x="722" glyph-name="R" unicode="R" d="M681 1l-83 1l-52 -1l-29 -1q-59 78 -107.5 157.5t-95.5 164.5q-18 -2 -35.5 -1.5t-35.5 -1.5v-200q0 -15 2 -28.5t5 -24.5q6 -20 23 -27.5t60 -7.5h10v-31l-23 1q-38 2 -74.5 2h-74.5h-37.5h-26t-22.5 -0.5t-28 -1.5l-29 -1v31h11q45 0 60 10q17 14 17 62v477 q0 23 -1.5 40t-9 27.5t-23 15.5t-42.5 5h-13v30h13q20 0 47 -1t50 -1h34t48 2l67 3q20 1 31 1.5t19 0.5q114 0 179 -47.5t65 -132.5q0 -36 -10.5 -63t-29 -48t-44 -36.5t-55.5 -28.5l137 -210q37 -56 70 -86q13 -11 26 -14.5t36 -5.5v-31zM446 511q0 73 -40 112.5t-112 39.5 q-12 0 -22 -1t-29 -3v-300q16 -1 22.5 -1h13.5q82 0 124.5 33t42.5 120z"/>
<glyph horiz-adv-x="500" glyph-name="S" unicode="S" d="M415 701q0 -17 0.5 -29.5t1.5 -26t2.5 -30t4.5 -41.5l2 -17l-28 -5q-21 125 -127 125q-51 0 -82.5 -32.5t-31.5 -85.5q0 -33 11.5 -55.5t30 -39t43 -29.5t49.5 -25q36 -17 66.5 -36t52 -43.5t34 -57t12.5 -77.5t-17.5 -83.5t-48.5 -66.5t-74 -44t-93 -16q-46 0 -86 12.5 t-81 33.5l-17 152l28 6q4 -21 7.5 -35t7.5 -25t9 -20.5t13 -21.5q19 -28 51.5 -44t69.5 -16q53 0 87 33.5t34 84.5q0 33 -12.5 56t-33 40.5t-45.5 31t-50 26.5q-34 17 -62 36.5t-48 44.5t-30.5 57t-10.5 74q0 46 16 83.5t45 64.5t69.5 42t89.5 15q35 0 70.5 -5.5t70.5 -10.5 z"/>
<glyph horiz-adv-x="722" glyph-name="T" unicode="T" d="M664 554v11q0 51 -16 67.5t-60 16.5h-157v-556q0 -35 17 -48.5t64 -13.5h18v-31l-23 1q-39 2 -77.5 2h-77.5h-39h-27t-23.5 -0.5t-28.5 -1.5l-30 -1v31h17q24 0 39.5 2.5t24.5 10t12.5 20.5t3.5 34v551h-167q-43 0 -64.5 -16.5t-26.5 -64.5l-1 -9h-29q5 29 8.5 49t5 38.5 t2.5 37.5t2 45h23q3 -18 16 -25t42 -7h508q35 0 46.5 6t18.5 28l25 -4q-5 -23 -8 -39.5t-4.5 -30.5t-2 -28t-0.5 -31v-14t1 -19z"/>
<glyph horiz-adv-x="778" glyph-name="U" unicode="U" d="M19 698l30 -1q34 -1 63 -1h63h43h28.5t24 0.5t27.5 0.5l30 1v-30h-21q-38 0 -53.5 -11t-15.5 -40v-383q0 -91 45.5 -145t144.5 -54q56 0 92.5 16.5t58 46.5t30 72.5t8.5 93.5v297q0 19 -2 38.5t-4 31.5q-5 25 -24 31t-41 6h-23v30l25 -1q26 -1 46 -1h46h34.5h23h18.5 t22 1l22 1v-30h-15q-20 0 -31 -2.5t-19 -10.5q-18 -18 -18 -82v-283q0 -75 -13.5 -132t-46 -96t-87 -58.5t-137.5 -19.5q-135 0 -210 63t-75 176v385q0 36 -13.5 48t-55.5 12h-20v30z"/>
<glyph horiz-adv-x="722" glyph-name="V" unicode="V" d="M14 698l31 -1q32 -1 59.5 -1h59.5h43.5h29t23.5 0.5t27 0.5l29 1v-30h-12q-35 0 -48.5 -5t-13.5 -21q0 -10 5 -23l175 -456l149 388q11 28 17 51t6 34q0 16 -10 23q-6 5 -21.5 7t-34.5 2h-14v30l25 -1q26 -1 45.5 -1h45.5h24.5h17t14.5 0.5t17 0.5l19 1v-30h-13 q-22 0 -34.5 -12t-28.5 -52q-46 -119 -90 -233q-27 -67 -45 -113t-37.5 -94t-38.5 -95t-36 -85h-37l-242 597q-9 22 -16.5 38t-13.5 26q-8 13 -22.5 18t-37.5 5h-16v30z"/>
<glyph horiz-adv-x="1000" glyph-name="W" unicode="W" d="M2 698l27 -1q31 -2 57.5 -1.5t58.5 0.5h34.5h23.5h20t24 1l25 1v-30h-5q-26 0 -36.5 -4t-10.5 -14q0 -20 7.5 -40t15.5 -38l175 -415l81 196l-117 275q-2 4 -3.5 7.5t-3.5 7.5q-10 17 -20 21t-34 4h-8v30h19q31 0 51 -1t44 -1q35 0 68.5 1.5t68.5 0.5q36 0 56.5 -0.5 t31 -1t14.5 -0.5h8h28.5t29.5 1l18 1v-30h-16q-18 0 -30 -3t-20.5 -9.5t-14.5 -18t-14 -29.5q0 -1 -7 -17q-7 -15 -20 -45.5t-38 -89.5l123 -291l141 382q14 40 20 60.5t6 30.5q0 17 -12 24t-40 7h-7t-11 -1v30h13q21 0 42 -1t42 -1h25.5h17t14 0.5t16.5 0.5l18 1v-30h-8 q-25 0 -36 -12q-8 -9 -12 -21t-9 -23l-242 -628h-35l-134 315l-132 -315h-34l-242 574q-23 54 -42 85q-8 14 -20 19.5t-37 5.5h-13v30zM605 600q5 13 8.5 25t3.5 20q0 14 -12.5 18.5t-47.5 4.5q-26 0 -35.5 -5t-9.5 -20q0 -5 2.5 -12t5.5 -15l47 -109z"/>
<glyph horiz-adv-x="778" glyph-name="X" unicode="X" d="M14 698l34 -1q35 -1 63.5 -1h63.5h43.5h29t24 0.5t27.5 0.5l30 1v-30h-6q-6 0 -16 0.5t-20 -1t-17 -5.5t-7 -13q0 -8 5.5 -20t19.5 -31l123 -170l127 165q8 10 16.5 23t8.5 25q0 14 -11 20q-7 5 -18 6t-40 1h-8v30l28 -1q31 -1 57 -1h58h33h22.5t19 0.5t22.5 0.5l24 1 v-30h-16q-17 0 -31.5 -2.5t-26.5 -8.5q-19 -9 -34 -22.5t-40 -44.5l-163 -200l199 -281q17 -24 29.5 -38.5t25.5 -22.5t28.5 -11.5t37.5 -5.5v-31l-19 1q-18 1 -29.5 1.5t-23 0.5t-25 -0.5t-34.5 -0.5h-50.5h-33h-25.5t-30 -1l-31 -1v31h10q28 0 37.5 3.5t9.5 13.5 q0 6 -3.5 12.5t-9.5 15.5l-147 209l-136 -179q-6 -8 -16.5 -22.5t-10.5 -24.5q0 -29 75 -29h6v-30l-18 1q-18 1 -29.5 1.5t-23.5 0.5t-28.5 -0.5t-43.5 -0.5h-29.5h-20.5h-18.5t-23.5 -1l-24 -1v31q32 1 46 3.5t29 10.5q9 5 15.5 9t14 11t17 18t24.5 30l168 210l-203 286 q-11 15 -20.5 26.5t-20.5 18.5t-25 10.5t-34 3.5h-11v30z"/>
<glyph horiz-adv-x="722" glyph-name="Y" unicode="Y" d="M313 668h-6h-15t-20 -1.5t-17.5 -5.5t-7.5 -13q0 -11 10 -24.5t17 -22.5l143 -201l118 169q17 25 27 45t10 30q0 11 -9 16q-6 3 -23.5 5.5t-35.5 2.5h-7v30l23 -1q25 -1 45 -1h46h26h17.5h15t18.5 1l19 1v-30q-30 -3 -44.5 -10.5t-30.5 -30.5l-190 -268v-258q0 -27 7 -42 q6 -15 24 -21.5t55 -6.5h11v-31l-22 1q-21 1 -34.5 1.5t-27.5 0.5t-32 -0.5t-48 -0.5h-42h-28.5t-24.5 -0.5t-29 -0.5l-31 -1v31h7q28 0 44 3t26 9q9 5 12.5 15.5t3.5 32.5v238l-219 299q-8 11 -18.5 20.5t-18.5 12.5q-10 5 -17.5 6t-31.5 1v30l36 -1q35 -1 61.5 -1h61.5 h40.5h27t22.5 0.5t27 0.5l29 1v-30z"/>
<glyph horiz-adv-x="722" glyph-name="Z" unicode="Z" d="M96 721q6 -24 41 -24h535l-458 -650h281q19 0 32 0.5t23 2.5t18.5 5t18.5 7q51 26 75 117l29 -7l-5 -22q-11 -50 -18.5 -82t-10.5 -47q-1 -4 -2 -9t-2 -12h-626l459 649h-271q-32 0 -54 -5.5t-37 -19t-23.5 -36t-13.5 -56.5h-29l3 25q4 30 6 50.5t3 37t1.5 32t0.5 36.5z "/>
<glyph horiz-adv-x="333" glyph-name="bracketleft" unicode="[" d="M98 701q5 5 11 5q4 0 10 -0.5t14 -0.5q5 0 11 -0.5t15 -0.5h47h48.5t48.5 1v-31q-14 1 -22.5 1h-17.5q-17 0 -33.5 -0.5t-29.5 -2.5q-17 -2 -24 -10t-7 -28v-756q0 -22 11 -28.5t50 -6.5q24 0 45 -0.5t28 0.5v-32l-17 1q-20 2 -39 2h-39h-22q-24 0 -42 -0.5t-24 -1.5 q-5 -1 -8.5 -1h-5.5q-3 0 -8 3q0 3 1 10.5t1.5 17.5t1 19t0.5 15v755v23t-0.5 16t-1.5 14t-2 17z"/>
<glyph horiz-adv-x="389" glyph-name="backslash" unicode="\" d="M23 737h82l261 -758h-82z"/>
<glyph horiz-adv-x="333" glyph-name="bracketright" unicode="]" d="M225 -186q-4 -3 -8 -3h-5.5t-8.5 1q-6 1 -24 1.5t-42 0.5h-22h-39t-39 -2l-17 -1v32h11.5h19.5h22.5h19.5q39 0 50 6.5t11 28.5v756q0 20 -7 28t-24 10q-13 2 -29.5 2.5t-33.5 0.5h-17.5t-22.5 -1v31q25 -1 48.5 -1h48.5h47q9 0 15 0.5t11 0.5q8 0 14 0.5t10 0.5 q6 0 11 -5q-1 -10 -2 -17t-1.5 -14t-0.5 -16v-23v-755q0 -6 0.5 -15t1 -19t1.5 -17.5t1 -10.5z"/>
<glyph glyph-name="asciicircum" unicode="^" d="M260 737h36l196 -431h-88l-126 292l-126 -292h-88z"/>
<glyph horiz-adv-x="500" glyph-name="underscore" unicode="_" d="M0 -75h500v-50h-500v50z"/>
<glyph horiz-adv-x="278" glyph-name="grave" unicode="`" d="M174 552l-154 97q-17 11 -23.5 20.5t-6.5 21.5q0 14 9.5 23.5t23.5 9.5q22 0 44 -24l147 -148h-40z"/>
<glyph horiz-adv-x="500" glyph-name="a" unicode="a" d="M305 316q0 43 -25.5 62.5t-56.5 19.5q-17 0 -34 -5.5t-25 -13.5q-9 -9 -13 -39q-1 -12 -3 -19t-5.5 -11.5t-9.5 -7t-16 -7.5q-21 -9 -38 -9q-19 0 -19 22q0 20 11.5 43t29.5 33l126 69q23 12 56 12q62 0 97 -33.5t35 -96.5v-231q0 -24 8 -39t24 -15t28 13l14 -18 q-31 -33 -54.5 -46t-51.5 -13q-66 0 -76 75q-70 -75 -154 -75q-49 0 -78 27t-29 73q0 25 8.5 44t31 35.5t61 33t99.5 36.5q11 4 25 8.5t34 11.5v61zM305 221l-13 -4q-28 -8 -51 -16.5t-41 -18.5q-20 -11 -31 -30.5t-11 -42.5q0 -29 15 -44.5t44 -15.5q32 0 50.5 14.5 t37.5 38.5v119z"/>
<glyph glyph-name="b" unicode="b" d="M183 756q-1 -14 -2 -29t-1 -30v-297q22 17 39.5 28.5t34 18.5t33.5 10t36 3q42 0 77.5 -15.5t60.5 -43.5t39 -67t14 -86q0 -57 -19.5 -105t-53.5 -83t-80.5 -55t-100.5 -20q-38 0 -71 9t-65 29q-16 -10 -23.5 -16t-21.5 -19l-14 6q0 17 1.5 33.5t1.5 33.5v588 q-14 9 -24 13.5t-30 12.5v19q28 9 48 16t37 14.5t33.5 16.5t38.5 22zM180 93q19 -32 47 -51.5t58 -19.5q52 0 82 45t30 122q0 45 -10.5 83t-29 65t-44.5 42.5t-57 15.5q-20 0 -36.5 -6t-39.5 -21v-275z"/>
<glyph horiz-adv-x="444" glyph-name="c" unicode="c" d="M430 108q-21 -34 -41 -58t-42 -38t-47 -20.5t-57 -6.5q-46 0 -84.5 16t-66 44.5t-42.5 69t-15 89.5q0 54 19.5 101t54 82t81.5 55t101 20q57 0 92.5 -21t35.5 -54q0 -23 -15 -38t-38 -15q-17 0 -27 8t-24 32q-12 20 -27.5 32t-41.5 12q-23 0 -42.5 -11.5t-34 -31.5 t-22.5 -47.5t-8 -59.5q0 -36 10 -72t30.5 -65t50.5 -47t70 -18q38 0 62 15.5t50 41.5z"/>
<glyph glyph-name="d" unicode="d" d="M363 653q-23 9 -35 13.5t-32 10.5v17q46 16 86 31t81 38l14 -7l-1 -28v-679l58 5v-25l-26 -6q-24 -6 -41 -10t-31.5 -8l-29 -8t-33.5 -10l-8 6v64q-23 -20 -41 -33.5t-34.5 -21.5t-32.5 -11.5t-35 -3.5q-39 0 -72.5 16t-57.5 44.5t-38 67.5t-14 84q0 55 19 103t52 83.5 t78 56t97 20.5q20 0 37 -3t40 -11v205zM363 370q-36 48 -94 48q-55 0 -87.5 -44.5t-32.5 -120.5q0 -41 10.5 -76t29 -61t44 -41t54.5 -15q21 0 39 7t37 24v279z"/>
<glyph horiz-adv-x="444" glyph-name="e" unicode="e" d="M401 284h-270q1 -35 3.5 -55.5t11.5 -46.5q17 -48 56 -77t88 -29q38 0 64 13t52 41l16 -19q-15 -26 -35.5 -49t-45.5 -40t-53.5 -26.5t-59.5 -9.5q-41 0 -76 18.5t-60.5 50t-40 75t-14.5 92.5q0 47 16 91t45.5 77.5t70.5 53.5t90 20q44 0 83.5 -21t57.5 -63 q9 -20 11.5 -36.5t2.5 -48.5zM282 320q28 0 28 34q0 33 -19 53.5t-51 20.5q-21 0 -40.5 -10t-33.5 -27q-13 -16 -19 -29t-14 -42h149z"/>
<glyph horiz-adv-x="333" glyph-name="f" unicode="f" d="M325 449v-57h-112v-323q0 -14 2.5 -22t11.5 -12t27.5 -5t49.5 -1v-29l-19 1q-33 2 -65 2h-65h-33h-23t-19.5 -0.5t-24.5 -1.5l-25 -1v29h5l38 3q17 2 22.5 8.5t5.5 28.5v323h-71v18l70 41q0 32 0.5 52.5t2.5 35.5t5 28t9 30q13 40 52 85q66 77 135 77q28 0 45 -15.5 t17 -41.5q0 -24 -13.5 -40t-33.5 -16q-11 0 -17.5 4.5t-17.5 20.5q-8 11 -15 16t-17 5q-18 0 -28.5 -15.5t-10.5 -43.5v-184h112z"/>
<glyph horiz-adv-x="500" glyph-name="g" unicode="g" d="M138 135v-6q0 -18 7 -27.5t17.5 -14t24.5 -5t27 -0.5q12 0 24 0.5t23 1.5l60 3q10 1 18.5 1.5t16.5 0.5q57 0 89 -30t32 -82q0 -45 -21 -83.5t-58 -67t-87.5 -44.5t-108.5 -16q-39 0 -71.5 8.5t-56 23.5t-36.5 36t-13 46t11.5 43t28.5 31t38.5 22t40.5 15 q-51 10 -74 35.5t-27 77.5l87 60q-47 20 -73 56.5t-26 82.5q0 64 52 111q29 26 64 38t83 12q30 0 57 -6t56 -19q11 -5 18 -6.5t19 -1.5h99v-53h-78q14 -36 14 -70q0 -37 -16.5 -67t-42.5 -51t-59.5 -32t-68.5 -11q-36 0 -66 8zM232 181q34 0 53.5 29.5t19.5 80.5 q0 19 -3.5 43.5t-13 46.5t-26 37t-41.5 15q-35 0 -55.5 -30t-20.5 -82q0 -63 24 -101.5t63 -38.5zM395 -85q0 26 -13 41t-32.5 22t-42 8.5t-41.5 1.5q-22 0 -49.5 -2.5t-51.5 -12t-40.5 -27.5t-16.5 -48q0 -40 36.5 -65t93.5 -25q33 0 62 8t50 22.5t33 34t12 42.5z"/>
<glyph glyph-name="h" unicode="h" d="M531 0l-15 1q-15 1 -24.5 1.5t-19.5 0.5t-22 -0.5t-32 -0.5h-33.5h-22h-18.5t-22 -1l-23 -1v29h11q28 0 38 6q5 2 6.5 8t1.5 20v241q0 87 -75 87q-28 0 -47 -10t-42 -25v-300q0 -14 4.5 -19t18.5 -6q16 -1 23 -1.5t10 -0.5h3.5h1.5v-29l-15 1q-15 1 -25 1.5t-20 0.5 t-22 -0.5t-32 -0.5h-34h-23t-19 -0.5t-22 -0.5l-24 -1v29h10q34 0 43 5t9 30v576q0 11 -8 17q-7 5 -23 11t-33 10v20q28 8 48.5 14t38.5 12.5t37 16t44 22.5l9 -5v-367q37 26 76 49.5t87 23.5q51 0 83 -33t32 -84v-289q0 -8 0.5 -12t2.5 -8q2 -5 14 -7t38 -2h6v-29z"/>
<glyph horiz-adv-x="278" glyph-name="i" unicode="i" d="M203 664q0 -26 -18.5 -43.5t-44.5 -17.5t-44 17.5t-18 43.5t18 44t44 18t44.5 -18t18.5 -44zM192 462v-406q0 -14 8.5 -20.5t22.5 -6.5h32v-29l-16 1q-15 1 -25 1.5t-20 0.5t-22.5 -0.5t-32.5 -0.5h-35.5h-23.5t-19 -0.5t-23 -0.5l-24 -1v29l32 1q20 1 26.5 7.5t6.5 26.5 v281q0 12 -8 19q-9 7 -26.5 12.5t-28.5 7.5v21q26 6 44.5 11t36.5 11.5t37.5 16t47.5 24.5z"/>
<glyph horiz-adv-x="278" glyph-name="j" unicode="j" d="M203 664q0 -26 -18.5 -43.5t-44.5 -17.5t-44 17.5t-18 43.5t18 44t44 18t44.5 -18t18.5 -44zM12 -211q14 6 22.5 10.5t14 8t9 7t7.5 9.5q8 9 12 27t4 38v448q0 14 -4.5 22t-13 12.5t-19.5 6.5t-23 5v23q24 7 44.5 13.5t40 13.5t38.5 15.5t41 20.5l9 -4v-500 q0 -39 -12.5 -76t-43.5 -63q-14 -12 -24.5 -19.5t-22.5 -14t-28.5 -13.5t-43.5 -17z"/>
<glyph glyph-name="k" unicode="k" d="M316 449l19 -1q14 -1 24 -1h20h21.5h27.5q20 0 41 -0.5t41 1.5l15 1v-29q-21 0 -36 -2.5t-28.5 -9t-28.5 -18.5t-37 -32l-91 -83l158 -194q13 -16 32.5 -34t39.5 -18h6v-29l-22 1q-20 1 -34 1h-34h-19h-13h-11.5t-14.5 -1l-15 -1q-41 53 -63 82t-32 42q-13 16 -15 19 q-16 21 -27 34.5t-17.5 20.5t-11 9.5t-9.5 2.5q-10 0 -10 -10v-142q0 -20 10 -24q5 -2 18.5 -3.5t26.5 -1.5h4v-29l-16 1q-15 1 -25 1h-20h-23h-35h-29.5h-20.5h-17.5t-21.5 -1l-22 -1v29q15 0 30.5 2t21.5 5q7 3 7 25v559q0 29 -10 35.5t-23 11.5l-27 10v22q28 8 48 14 t38 12.5t35.5 15.5t41.5 22l9 -6v-520h18l90 86q38 37 52 53t14 24t-14 13.5t-36 6.5v29z"/>
<glyph horiz-adv-x="278" glyph-name="l" unicode="l" d="M16 698q44 10 86 27.5t82 37.5l12 -7v-690q0 -20 9 -28.5t31 -8.5h19v-29l-20 1q-15 1 -24.5 1h-18.5h-21h-32h-34.5h-23t-18.5 -0.5t-23 -0.5l-24 -1v29h21q24 0 33 8t9 29v564q0 17 -5 24q-4 5 -20.5 11.5t-37.5 11.5v21z"/>
<glyph horiz-adv-x="833" glyph-name="m" unicode="m" d="M461 388q41 29 80 52.5t87 23.5q57 0 88.5 -34t31.5 -97v-276q0 -12 3 -18q6 -10 48 -10h9v-29l-16 1q-26 2 -52 1.5t-52 -0.5h-30h-21h-17.5t-21.5 -1l-22 -1v29h12q28 0 36.5 5.5t8.5 25.5v254q0 38 -19.5 58t-55.5 20q-25 0 -47 -10.5t-42 -22.5v-301q0 -22 10 -25.5 t27 -3.5h24v-29l-21 1q-15 1 -24 1h-17h-19h-31h-33.5h-22.5h-19t-22 -1l-22 -1v29h11q28 0 38 6q5 2 6.5 8t1.5 20v242q0 87 -76 87q-27 0 -46.5 -10t-41.5 -25v-301q0 -11 3 -17q6 -10 52 -10h5v-29l-20 1q-15 1 -24 1h-17.5h-20h-31.5h-34h-23t-19 -0.5t-22 -0.5l-24 -1 v29h15q25 0 36 3.5t11 31.5v281q0 19 -22 28q-9 3 -16 6t-13 5t-8 3v18q43 14 84 28.5t81 35.5l7 -5v-72q37 26 75 49t85 23q84 0 109 -76z"/>
<glyph glyph-name="n" unicode="n" d="M530 0l-15 1q-15 1 -24.5 1.5t-19.5 0.5t-21.5 -0.5t-31.5 -0.5h-33.5h-22.5h-19t-22 -1l-22 -1v29h11q24 0 35 4t11 30v241q0 87 -75 87q-26 0 -47 -11t-42 -25v-299q0 -14 4.5 -19t18.5 -6l35 -2h3v-29l-15 1q-15 1 -25 1.5t-20 0.5t-22 -0.5t-32 -0.5h-34h-23 t-19 -0.5t-22 -0.5l-24 -1v29h10q34 0 43 5t9 30v281q0 16 -11 21.5t-24 9.5l-27 8v21q44 11 84 27.5t82 33.5l9 -4v-71q37 26 76 49.5t87 23.5q51 0 83 -33t32 -84v-289q0 -8 0.5 -12t2.5 -8q2 -5 14 -7t38 -2h5v-29z"/>
<glyph glyph-name="o" unicode="o" d="M277 464q52 0 96.5 -17.5t76.5 -48t50.5 -73t18.5 -93.5t-19 -96t-52 -78.5t-77.5 -52.5t-95.5 -19t-94.5 18.5t-75 50.5t-49.5 76t-18 96q0 51 18 94t50.5 75t76 50t94.5 18zM395 208q0 28 -5.5 66.5t-19.5 73t-38 58.5t-62 24q-51 0 -80.5 -49.5t-29.5 -135.5 q0 -28 5 -67t18.5 -74t38 -59.5t62.5 -24.5q51 0 81 50.5t30 137.5z"/>
<glyph glyph-name="p" unicode="p" d="M184 -175q0 -15 10 -20.5t39 -5.5q2 0 11 -0.5t26 -0.5h5v-29h-15q-5 1 -10 1q-29 2 -54.5 1.5t-54.5 -0.5t-53.5 0.5t-53.5 -1.5l-25 -1v29l38 2q17 1 21.5 5t4.5 18v517q0 23 -9.5 28.5t-18.5 7.5t-16 4q-6 2 -11 3t-6 1v20q30 9 51 16t38.5 13.5t34.5 15t39 20.5l9 -6 v-63q70 64 156 64q39 0 71 -15t55 -41.5t36 -63.5t13 -81q0 -56 -20 -105.5t-54 -86t-80 -58t-98 -21.5q-42 0 -79 14v-181zM184 100q27 -35 51.5 -49.5t53.5 -14.5q52 0 82.5 45t30.5 121q0 43 -10 79t-28.5 61.5t-44 40t-55.5 14.5q-20 0 -37 -6t-43 -22v-269z"/>
<glyph glyph-name="q" unicode="q" d="M519 -231q-16 0 -26.5 0.5t-21 0.5t-24 0.5t-36.5 0.5h-33h-23t-19 -0.5t-23 -0.5l-24 -1v30q3 0 11 0.5t17 0.5q11 0 23 1q17 1 21 5t4 19v226q-41 -34 -72 -48t-70 -14q-40 0 -74 15.5t-58.5 43t-38 65.5t-13.5 84q0 56 19.5 104t53.5 83.5t80 56t100 20.5 q28 0 54.5 -5.5t51.5 -19.5l55 41q7 5 10 5q5 0 10 -3.5t5 -8.5t-1 -11t-1 -11v-620q0 -16 5 -21q8 -8 55 -8v-30h-17zM365 359q-28 32 -50.5 44.5t-51.5 12.5q-52 0 -83 -44t-31 -119q0 -42 11 -78t29.5 -63t44 -42.5t54.5 -15.5q37 0 77 28v277z"/>
<glyph horiz-adv-x="389" glyph-name="r" unicode="r" d="M28 406q42 14 81.5 29t79.5 33l9 -8v-71q62 75 120 75q24 0 40.5 -16t16.5 -41q0 -24 -15 -40.5t-38 -16.5q-10 0 -17.5 3t-18.5 12q-12 10 -19 13.5t-16 3.5q-23 0 -37.5 -18.5t-14.5 -47.5v-263q0 -11 5 -16q4 -3 24.5 -5.5t44.5 -2.5h14v-29l-19 1q-31 2 -61 2h-61 h-33.5h-22.5t-20 -0.5t-24 -1.5l-25 -1v29h7q30 0 46 3q11 2 11.5 14.5t0.5 17.5v275q0 17 -2.5 22.5t-12.5 9.5l-43 17v18z"/>
<glyph horiz-adv-x="389" glyph-name="s" unicode="s" d="M321 441q-2 -26 -3 -56.5t1 -50.5l-25 -2q-3 15 -5 24t-4 16t-5 12.5t-8 12.5q-10 15 -28 24t-39 9q-30 0 -50 -18t-20 -45q0 -31 19 -47.5t44 -30.5q13 -7 19 -10.5t10.5 -5.5t10 -5t18.5 -10q85 -44 85 -126q0 -66 -47 -106t-124 -40q-32 0 -60 6.5t-57 18.5 q0 29 -2 57t-6 57l28 2q6 -49 32 -77.5t66 -28.5q32 0 52 18t20 47q0 18 -7.5 31t-19.5 22.5t-26.5 17.5t-28.5 15q-11 5 -20.5 10.5t-17.5 10.5q-77 47 -77 130q0 64 43.5 102.5t115.5 38.5q59 0 116 -23z"/>
<glyph horiz-adv-x="333" glyph-name="t" unicode="t" d="M197 554v-105h119v-57h-119v-261q0 -28 12 -48.5t45 -20.5q12 0 23 4.5t31 16.5l13 -17q-59 -77 -132 -77q-51 0 -78.5 33t-27.5 82v288h-58v21q27 17 46 31t36.5 29.5t35.5 36t42 50.5z"/>
<glyph glyph-name="u" unicode="u" d="M20 432q45 5 90 11t83 18l7 -5l-2 -47v-263q0 -42 17.5 -65.5t48.5 -23.5q42 0 95 46v273q0 4 -2 7.5t-8.5 7.5t-20 8.5t-37.5 10.5l-4 1v23q36 3 59.5 5t42.5 5t37 6.5t42 9.5l8 -6l-3 -65v-321q0 -11 4 -15q6 -7 44 -7h9v-25q-24 -3 -42.5 -5.5t-36 -6t-37 -9 t-47.5 -13.5l-6 4v75q-50 -44 -87.5 -62t-77.5 -18q-31 0 -52.5 11t-35 29t-19.5 42t-6 51v258q0 9 -8 14q-9 5 -24 10t-31 8v23z"/>
<glyph horiz-adv-x="500" glyph-name="v" unicode="v" d="M12 449l15 -1q15 -1 27 -1.5t20 -0.5h53h32h21t17.5 0.5t21.5 1.5l22 1v-29q-32 -1 -42 -3.5t-10 -8.5q0 -7 15 -48l82 -213l81 191q4 10 9.5 25t5.5 26q0 31 -50 31h-9v29l11 -1q11 -1 18.5 -1.5t15 -0.5h16h21.5h24.5t17.5 0.5l16 1t21 1.5v-29q-20 -1 -30 -10 q-10 -8 -15 -16t-14 -28l-167 -380h-27l-159 390q-6 14 -14.5 29t-31.5 15h-14v29z"/>
<glyph horiz-adv-x="778" glyph-name="w" unicode="w" d="M14 449l15 -1q26 -2 52 -2h52h27.5h19t16.5 0.5t20 1.5l21 1v-29h-4q-23 0 -32.5 -3t-9.5 -10q0 -11 5 -25t10 -26l84 -212l86 192l-22 51q-5 12 -7 15t-7 7q-7 5 -21 8t-31 3v29l17 -1q29 -2 58 -2h58h26h18.5t16.5 0.5t20 1.5l21 1v-29h-4q-28 0 -37.5 -5t-9.5 -16 q0 -5 5 -19t10 -25l82 -205l72 181q15 39 15 59q0 30 -47 30h-9v29l11 -1q20 -2 40 -2h41q23 0 32.5 0.5t26.5 1.5l15 1v-29q-17 -2 -25 -4.5t-15 -8.5q-5 -4 -8.5 -8.5t-7 -11t-8 -16.5t-11.5 -27l-147 -358h-28l-122 298l-132 -298h-28l-153 376q-11 28 -18.5 43t-32.5 15 h-16v29z"/>
<glyph glyph-name="x" unicode="x" d="M263 420h-4h-10t-14 -1.5t-12.5 -3.5t-5.5 -7q0 -10 13 -27l66 -88l73 88q13 16 13 23q0 16 -40 16h-11v29l14 -1q23 -2 45 -2h45h23t16.5 0.5t14 1t16.5 0.5l18 1v-29q-15 -1 -24.5 -1.5t-16 -1.5t-11 -2.5t-10.5 -4.5t-11 -6t-10.5 -8t-13 -13t-19.5 -22l-88 -101 l123 -170q19 -26 32.5 -43.5t36.5 -17.5h26v-29l-16 1q-16 1 -26 1.5t-19 0.5h-20h-29h-42h-27.5t-21.5 -0.5t-25 -1.5l-25 -1v29h4q29 0 37.5 1.5t8.5 8.5q0 4 -4.5 10t-15.5 20l-74 102l-73 -90q-21 -27 -21 -38q0 -14 47 -14h8v-29l-14 1q-13 1 -23 1.5t-17 0.5h-49h-24 h-16.5t-14.5 -0.5t-17 -1.5l-18 -1v29h14q15 0 26 1.5t20 6t18.5 14t22.5 24.5q2 2 14 16q10 13 31.5 38.5t62.5 73.5l-124 171q-20 28 -36 36.5t-47 9.5v29l17 -1q29 -2 58 -2h59h31t21.5 0.5t18.5 1t22 0.5l24 1v-29z"/>
<glyph horiz-adv-x="500" glyph-name="y" unicode="y" d="M14 449l15 -1q26 -2 50.5 -2h50.5h30.5h20.5t17.5 0.5t20.5 1.5l22 1v-29h-6q-29 0 -38 -3t-9 -13q0 -8 6.5 -25.5t9.5 -24.5l84 -214l82 210q5 12 8 23.5t3 19.5q0 13 -7 18q-5 4 -20 6.5t-32 2.5h-1v29l12 -1q11 -1 19 -1.5t15.5 -0.5h16.5h23q23 0 40.5 0.5t39.5 2.5 v-29q-13 0 -18 -1t-11 -4q-7 -4 -14 -14t-13 -22t-10.5 -23.5t-7.5 -18.5l-205 -499q-16 -38 -34 -55.5t-41 -17.5q-25 0 -42 17t-17 41q0 25 16.5 42t41.5 17q13 0 23 -4.5t21 -15.5l53 128l-150 370q-5 13 -10.5 26.5t-13.5 24.5q-6 9 -30 9h-11v29z"/>
<glyph horiz-adv-x="444" glyph-name="z" unicode="z" d="M30 332q3 24 5 40.5t3.5 31.5t2.5 31t2 37h22q3 -15 11 -19t32 -4h292l6 -9l-235 -395h114q30 0 39.5 1t19.5 5q26 12 51 83h25l-7 -38.5t-4.5 -30.5t-3 -29t-2.5 -36h-387l242 407h-114q-43 0 -61.5 -15.5t-28.5 -59.5h-24z"/>
<glyph horiz-adv-x="333" glyph-name="braceleft" unicode="{" d="M0 266q34 9 56 19.5t35 27.5t18.5 42t5.5 62v108q0 57 13 96.5t40 64.5t68 37t97 14v-41q-64 -7 -90 -41t-26 -100v-81q0 -39 -2.5 -75t-15.5 -64t-39.5 -47t-73.5 -24q47 -6 73.5 -24.5t39.5 -47t15.5 -64.5t2.5 -75v-81q0 -69 27 -101.5t89 -39.5v-40q-64 3 -106.5 17 t-67 41t-34.5 68.5t-10 99.5v93q0 36 -5 61t-18 42t-35 28t-57 20v5z"/>
<glyph horiz-adv-x="222" glyph-name="bar" unicode="|" d="M66 750h90v-1000h-90v1000z"/>
<glyph horiz-adv-x="333" glyph-name="braceright" unicode="}" d="M333 261q-34 -9 -56.5 -20t-35.5 -28t-18 -42t-5 -61v-93q0 -58 -10 -99.5t-34.5 -68.5t-66.5 -41t-107 -17v40q62 7 89 39.5t27 101.5v81q0 39 3 75t15.5 64.5t39 47t73.5 24.5q-47 5 -73.5 24t-39 47t-15.5 64t-3 75v81q0 66 -26 100t-90 41v41q56 -2 97 -14t68 -37 t40 -64.5t13 -96.5v-108q0 -37 5.5 -62t18.5 -42t35 -27.5t56 -19.5v-5z"/>
<glyph glyph-name="asciitilde" unicode="~" d="M-13 154q18 95 57 145.5t95 50.5q17 0 35.5 -4t35 -9.5t29 -11t17.5 -7.5l75 -30q35 -14 58 -21t40 -7q37 0 59.5 23t40.5 79h40q-5 -20 -8.5 -33.5t-6.5 -24t-7 -20t-9 -21.5q-20 -46 -52 -72t-68 -26q-23 0 -54 8.5t-80 28.5l-67 27q-62 25 -93 25q-68 0 -97 -100h-40z "/>
<glyph glyph-name="sterling" unicode="£" d="M125 113q9 25 15.5 44t11.5 41.5t9.5 53.5t10.5 82l4 33h-119l4 47h120q3 32 6 55t7.5 42t10.5 38t16 43q31 77 89.5 122t125.5 45q37 0 60 -16.5t23 -42.5q0 -21 -11.5 -33.5t-31.5 -12.5t-28 9t-14 26q-11 30 -36 30q-36 0 -59.5 -57t-39.5 -188q-2 -10 -3.5 -25 l-3.5 -35h149l-6 -47h-150q-6 -39 -13 -68t-19.5 -55.5t-32 -54.5t-49.5 -66q14 2 30.5 3.5t28.5 1.5q26 0 44 -6t44 -23q11 -7 26.5 -18.5t32.5 -22t32.5 -18t26.5 -7.5q14 0 22.5 10t8.5 24q0 10 -5 16t-17 14q-14 8 -18.5 14.5t-4.5 18.5q0 17 12.5 30t29.5 13 q23 0 39 -19.5t16 -48.5q0 -26 -11.5 -48t-32.5 -38.5t-49 -25.5t-61 -9q-22 0 -39 3.5t-32 10.5t-30 17.5t-32 23.5q-18 15 -30 23.5t-20 13t-15 6t-16 1.5q-48 -91 -94 -91q-11 0 -17 9t-6 24q0 41 27 61t64 27z"/>
<glyph glyph-name="currency" unicode="¤" d="M109 231q-13 19 -21.5 34t-13.5 29.5t-7 29.5t-2 34t2 34t7 29.5t13.5 30.5t21.5 36l-65 63l41 41l65 -63q20 12 35 20t29 12.5t29.5 6t34.5 1.5q34 0 67.5 -9.5t59.5 -32.5l66 65l41 -41l-65 -64q20 -30 32 -61t12 -69q0 -19 -2 -33.5t-7 -29t-13.5 -29.5t-21.5 -34 l65 -65l-41 -41l-65 63q-19 -13 -34.5 -21t-29.5 -12.5t-29 -6.5t-35 -2q-19 0 -34.5 2t-30 6.5t-29.5 13t-34 21.5l-65 -64l-41 41zM278 493q-28 0 -52.5 -10.5t-43 -28.5t-29 -42.5t-10.5 -52.5t10.5 -52.5t29 -43t43 -29t52.5 -10.5t52.5 10.5t43 29t29 43t10.5 52.5 t-10.5 52.5t-29 42.5t-43 28.5t-52.5 10.5z"/>
<glyph horiz-adv-x="222" glyph-name="brokenbar" unicode="¦" d="M66 125h90v-250h-90v250zM66 625h90v-250h-90v250z"/>
<glyph glyph-name="section" unicode="§" d="M377 292q25 -38 42 -69.5t27.5 -59.5t15 -53.5t4.5 -51.5q0 -52 -19 -97t-52.5 -78.5t-78.5 -52.5t-96 -19q-60 0 -98.5 24t-38.5 62q0 19 12 30.5t32 11.5q37 0 52 -39q11 -29 24 -40.5t35 -11.5q69 0 69 85q0 30 -8.5 58.5t-22 55.5t-29.5 52.5t-31 49.5l-45 74 q-24 39 -40 70.5t-26 58.5t-14.5 52t-4.5 51q0 52 19 98t52 80t78 53.5t97 19.5t86.5 -19t34.5 -49q0 -20 -14.5 -34t-35.5 -14q-20 0 -30.5 10t-20.5 26q-15 23 -27.5 31.5t-31.5 8.5q-29 0 -47 -23t-18 -60q0 -26 12 -57.5t29 -62t35.5 -59t31.5 -48.5zM336 -122 q76 71 76 161q0 38 -14.5 80t-36.5 83.5t-46 79.5t-44 68q-15 23 -30 47t-27.5 50t-20.5 53t-8 55q0 30 9 61q-56 -62 -56 -146q0 -34 12 -69.5t29 -69.5t37.5 -66t36.5 -60q17 -28 35 -57.5t33 -59.5t24.5 -62.5t9.5 -66.5q0 -24 -4.5 -42.5t-14.5 -38.5z"/>
<glyph horiz-adv-x="800" glyph-name="copyright" unicode="©" d="M400 736q78 0 147 -29.5t120.5 -81t81.5 -120.5t30 -147t-29.5 -147t-81 -120.5t-120.5 -81.5t-148 -30q-78 0 -147 30t-120.5 81.5t-81.5 120.5t-30 147t30 147t81.5 120.5t120.5 81t147 29.5zM400 694q-70 0 -131 -26.5t-107 -72t-72.5 -106.5t-26.5 -131t26.5 -131 t72.5 -107t107 -72.5t131 -26.5t131.5 26.5t107 72.5t72 107t26.5 131q0 69 -26.5 130.5t-72 107t-107 72t-131.5 26.5zM576 265q-10 -20 -15.5 -30t-16.5 -23q-27 -35 -64.5 -52.5t-82.5 -17.5q-44 0 -81.5 16t-65.5 44.5t-43.5 67t-15.5 83.5q0 48 16 89t44 71t66 47.5 t82 17.5q26 0 49.5 -5.5t46.5 -19.5q12 -7 16.5 -9t9.5 -2q8 0 11.5 4.5t5.5 18.5h32l4 -154h-34q-4 16 -7 24.5t-8 19.5q-34 81 -114 81q-30 0 -55.5 -13.5t-43.5 -37.5t-28.5 -57t-10.5 -72q0 -37 10.5 -69t29 -54.5t44 -35.5t55.5 -13q28 0 53.5 11.5t44.5 33.5 q11 13 17.5 22.5t18.5 31.5z"/>
<glyph glyph-name="guillemotleft" unicode="«" d="M284 383l-102 -149l99 -152l-18 -16l-180 168l182 166zM469 383l-102 -149l99 -152l-18 -16l-179 168l181 166z"/>
<glyph glyph-name="logicalnot" unicode="¬" d="M20 407h516v-299h-91v209h-425v90z"/>
<glyph horiz-adv-x="400" glyph-name="registered" unicode="®" d="M202 736q39 0 73.5 -15t60.5 -40.5t41 -60t15 -73.5t-15 -74t-40.5 -60.5t-60.5 -40.5t-74 -15t-73.5 15t-60 40.5t-40.5 60t-15 73.5t15 74t40.5 60.5t60 40.5t73.5 15zM202 715q-34 0 -65 -13t-53.5 -36t-36 -53.5t-13.5 -65.5t13 -65.5t36 -53.5t53.5 -36.5 t65.5 -13.5t65.5 13.5t53.5 36t36.5 53.5t13.5 65q0 35 -13 65.5t-36 53.5t-54 36.5t-66 13.5zM102 464q17 2 24 6t7 27v89q0 23 -3 34.5t-28 11.5v17h117q12 0 24.5 -2.5t23.5 -8t18 -14.5t7 -23q0 -20 -17 -33.5t-49 -17.5v-2q5 -2 8 -3.5t8 -4.5q14 -8 21 -19t12 -30 l3 -11q3 -14 11 -14q12 0 14 27h14q-6 -50 -41 -50q-30 0 -36 36l-3 18q-7 44 -51 44h-18v-47q0 -18 5.5 -24t24.5 -6v-16h-96v16zM192 558q61 0 61 39q0 20 -15.5 28.5t-32.5 8.5h-12q-20 0 -22.5 -10.5t-2.5 -27.5v-38h24z"/>
<glyph horiz-adv-x="400" glyph-name="degree" unicode="°" d="M200 736q31 0 58 -11.5t47 -31.5t31.5 -47t11.5 -57q0 -31 -11.5 -58t-31.5 -47t-47 -31.5t-58 -11.5q-30 0 -57 11.5t-47.5 31.5t-32 47t-11.5 58q0 30 11.5 57t32 47t47.5 31.5t57 11.5zM200 682q-19 0 -36 -7.5t-30 -20t-20.5 -29.5t-7.5 -36t7.5 -36.5t20.5 -30 t30 -20t36 -7.5q39 0 66.5 27.5t27.5 65.5q0 39 -27.5 66.5t-66.5 27.5z"/>
<glyph glyph-name="plusminus" unicode="±" d="M232 282h-212v90h212v158h90v-158h214v-90h-214v-159h-90v159zM20 90h516v-90h-516v90z"/>
<glyph glyph-name="mu" unicode="µ" d="M361 66q-50 -42 -86 -61.5t-67 -19.5q-12 0 -20 2.5t-21 9.5v-10q0 -25 1.5 -50t5.5 -57q2 -14 3.5 -27.5t1.5 -27.5q0 -23 -15 -37t-40 -14q-26 0 -41.5 15t-15.5 40q0 7 0.5 14.5t1.5 15.5q9 78 12 156q2 28 2 56v56v247q0 8 -2 12t-10 7q-7 3 -16.5 6t-26.5 8l-8 2v23 q42 5 60.5 7t35.5 5q23 4 37.5 7t37.5 11l9 -6q-1 -14 -1.5 -28t-0.5 -28v-254q0 -42 17.5 -65.5t48.5 -23.5q20 0 44.5 11.5t50.5 34.5v269q0 8 -4 12t-13 7.5t-38 13.5l-17 6v23q39 3 58.5 5t40.5 5q23 4 38.5 6.5t42.5 9.5l9 -6q-2 -26 -2.5 -38.5t-0.5 -26.5v-321 q0 -14 7 -18t34 -4h16v-25q-28 -4 -43 -5.5t-35 -6.5q-20 -4 -36.5 -8.5t-48.5 -13.5l-6 4v75z"/>
<glyph glyph-name="paragraph" unicode="¶" d="M556 673h-11q-25 0 -40.5 -16t-24 -42t-12 -58t-3.5 -64t1 -60.5t1 -46.5v-250q0 -69 -7.5 -114t-25.5 -86q-31 -69 -100 -107.5t-160 -38.5q-63 0 -100.5 21t-37.5 56q0 24 16.5 41t39.5 17t40 -17t17 -40q0 -10 -2 -16.5t-10 -16.5q4 -1 6.5 -1h4.5q19 0 37 11.5 t29 30.5q14 23 20.5 59.5t9 76.5t2.5 79v68v105h-18q-51 0 -96 14t-79.5 42t-54.5 70.5t-20 98.5q0 71 27.5 115t71.5 69t99.5 33.5t111.5 8.5h268v-42zM335 673q-21 -15 -31 -44.5t-13.5 -63.5t-3 -67t0.5 -55v-330v-63t-3.5 -68t-13 -65.5t-29.5 -55.5q-11 -13 -18.5 -20 t-24.5 -15l3 -6q36 5 70 25t56 49q20 28 30.5 63t14.5 72.5t4 75v70.5v244q0 25 -0.5 60.5t3 72.5t12.5 69.5t28 51.5h-85z"/>
<glyph horiz-adv-x="278" glyph-name="periodcentered" unicode="·" d="M139 325q28 0 47.5 -19.5t19.5 -47.5t-19.5 -47.5t-47.5 -19.5t-47.5 19.5t-19.5 47.5t19.5 47.5t47.5 19.5z"/>
<glyph glyph-name="guillemotright" unicode="»" d="M78 85l101 149l-99 151l18 17l180 -168l-182 -167zM263 85l102 149l-100 151l19 17l179 -168l-182 -167z"/>
<glyph glyph-name="divide" unicode="÷" d="M20 303h516v-90h-516v90zM278 138q27 0 45.5 -19t18.5 -46t-18.5 -46t-45.5 -19t-46 19t-19 46t19 46t46 19zM278 507q27 0 45.5 -19t18.5 -45q0 -27 -18.5 -46t-45.5 -19q-26 0 -45.5 19t-19.5 46q0 26 19 45t46 19z"/>
<glyph horiz-adv-x="611" glyph-name="afii10023" unicode="Ё" d="M451 814q0 -25 -17 -42t-42 -17t-42 17t-17 42q0 24 17 41.5t42 17.5t42 -17.5t17 -41.5zM127 814q0 24 17 41.5t42 17.5q24 0 41.5 -17.5t17.5 -41.5q0 -25 -17.5 -42t-41.5 -17q-25 0 -42 17t-17 42zM15 698l26 -1q40 -2 63.5 -2h49.5h29t43 0.5t47 0.5h40l168 1l38 1 q-1 -8 -1 -13v-9q0 -12 1 -39t3 -69q0 -3 0.5 -7.5t0.5 -11.5l-29 -12q-2 25 -8.5 53.5t-28.5 44.5q-14 11 -42 14t-92 3h-89v-262h99q22 0 39.5 1.5t29.5 9t18.5 23t6.5 42.5v11h31v-106q0 -32 0.5 -64.5t2.5 -62.5h-30q-1 3 -1 9v6q-1 23 -5 38t-13 24t-24.5 13t-40.5 4 h-113v-216q0 -26 5 -40t16 -22q9 -6 24.5 -9t32.5 -4.5t33.5 -1.5h26.5q57 0 90 7t52 24q8 7 13 13.5t10.5 16t11 23.5t12.5 35l29 -4q-7 -23 -11.5 -40t-8.5 -34t-8 -37t-9 -49h-20h-75t-98 1q-68 1 -115 1h-75h-66t-60 -1l-29 -1v31h9q32 0 48.5 5.5t24 17.5t8.5 32.5 t1 50.5v451q0 25 -1.5 40.5t-9.5 24.5t-24.5 12t-45.5 3h-10v30z"/>
<glyph horiz-adv-x="803" glyph-name="afii10051" unicode="Ђ" d="M784 217q0 -54 -22 -97t-57.5 -72.5t-79 -45t-87.5 -15.5q-57 0 -90 23.5t-33 57.5q0 26 18 43t44 17q23 0 38 -16q5 -7 8 -14t6 -22q4 -17 10.5 -32t28.5 -15q13 0 28 12t28 35.5t22 57.5t9 77q0 40 -12 70t-32.5 50t-48.5 30t-60 10q-30 0 -58.5 -7.5t-53.5 -18.5v-345 q-22 1 -29 1.5t-10.5 1t-10.5 0.5h-29h-39h-27t-23.5 -0.5t-28.5 -1.5l-30 -1v31h17q24 0 39.5 2.5t24.5 10t12.5 20.5t3.5 34v551h-126q-43 0 -64.5 -17t-26.5 -64l-1 -9h-29q5 29 8.5 49t5 38.5t2.5 37.5t2 45h23q3 -18 16 -25t42 -7h442q35 0 46.5 6t18.5 28l25 -4 q-5 -23 -8 -39.5t-4.5 -30.5t-2 -28t-0.5 -31v-14t1 -19l-32 -11v11q0 51 -16 67.5t-60 16.5h-132v-259q27 13 66.5 25t90.5 12q48 0 91.5 -13.5t75.5 -39.5t51 -65.5t19 -91.5z"/>
<glyph horiz-adv-x="536" glyph-name="afii10052" unicode="Ѓ" d="M192 755l147 148q24 24 45 24q14 0 23.5 -9.5t9.5 -23.5q0 -22 -31 -42l-154 -97h-40zM17 698l69 -1l83 -2l194 2l127 1h39q-2 -39 0 -83t3 -73l-29 -7q-3 36 -10.5 59.5t-24 36.5t-44.5 18t-70 5h-117v-563q0 -36 17 -48t69 -12h23v-31l-23 1q-38 2 -74.5 2h-74.5h-42 h-28.5t-24.5 -0.5t-30 -1.5l-30 -1v31h16q40 0 57 12t17 40v510q0 44 -16 59.5t-61 15.5h-15v30z"/>
<glyph horiz-adv-x="722" glyph-name="afii10053" unicode="Є" d="M470 244q-1 3 -1 9v6q-1 23 -5 38t-13 24t-24.5 13t-40.5 4h-204q5 -58 23 -113.5t51 -99t81.5 -70.5t113.5 -27q87 0 135 46.5t72 122.5l28 -4q-6 -26 -9.5 -45t-6.5 -36.5t-5 -36.5t-5 -45q-110 -43 -226 -43q-90 0 -162.5 26.5t-124.5 74.5t-80 116t-28 152 q0 80 28 146.5t78.5 114.5t120.5 74.5t154 26.5q43 0 84 -7.5t82 -20.5l26 -8q19 -6 32.5 -8.5t21.5 -4.5q1 0 3 -0.5t6 -0.5v-32q0 -20 1.5 -49t3.5 -67l1 -20l-25 -2q-53 179 -221 179q-63 0 -110 -23t-78.5 -62.5t-47.5 -91.5t-18 -110h191q22 0 39.5 1.5t29.5 9t18.5 23 t6.5 42.5v11h31v-106q0 -32 0.5 -64.5t2.5 -62.5h-30z"/>
<glyph horiz-adv-x="500" glyph-name="afii10054" unicode="Ѕ" d="M415 701q0 -17 0.5 -29.5t1.5 -26t2.5 -30t4.5 -41.5l2 -17l-28 -5q-21 125 -127 125q-51 0 -82.5 -32.5t-31.5 -85.5q0 -33 11.5 -55.5t30 -39t43 -29.5t49.5 -25q36 -17 66.5 -36t52 -43.5t34 -57t12.5 -77.5t-17.5 -83.5t-48.5 -66.5t-74 -44t-93 -16q-46 0 -86 12.5 t-81 33.5l-17 152l28 6q4 -21 7.5 -35t7.5 -25t9 -20.5t13 -21.5q19 -28 51.5 -44t69.5 -16q53 0 87 33.5t34 84.5q0 33 -12.5 56t-33 40.5t-45.5 31t-50 26.5q-34 17 -62 36.5t-48 44.5t-30.5 57t-10.5 74q0 46 16 83.5t45 64.5t69.5 42t89.5 15q35 0 70.5 -5.5t70.5 -10.5 z"/>
<glyph horiz-adv-x="333" glyph-name="afii10055" unicode="І" d="M19 698h19q19 0 30.5 -0.5t23 -0.5t25 -0.5t35.5 -0.5h49.5h32t25 0.5t27.5 0.5l30 1v-30q-26 0 -42 -2.5t-25 -9.5t-12.5 -19.5t-3.5 -32.5v-515q0 -33 17 -45t66 -13v-31l-20 1q-19 1 -32 1.5t-25.5 0.5t-29.5 -0.5t-44 -0.5h-39.5h-27.5h-23t-28 -1l-28 -1v31h10 q46 0 60 10q12 8 13 26.5t1 30.5v507q0 17 -0.5 24.5t-4.5 16.5q-9 22 -57 22h-22v30z"/>
<glyph horiz-adv-x="333" glyph-name="afii10056" unicode="Ї" d="M19 698h19q19 0 30.5 -0.5t23 -0.5t25 -0.5t35.5 -0.5h49.5h32t25 0.5t27.5 0.5l30 1v-30q-26 0 -42 -2.5t-25 -9.5t-12.5 -19.5t-3.5 -32.5v-515q0 -33 17 -45t66 -13v-31l-20 1q-19 1 -32 1.5t-25.5 0.5t-29.5 -0.5t-44 -0.5h-39.5h-27.5h-23t-28 -1l-28 -1v31h10 q46 0 60 10q12 8 13 26.5t1 30.5v507q0 17 -0.5 24.5t-4.5 16.5q-9 22 -57 22h-22v30zM329 814q0 -25 -17 -42t-42 -17t-42 17t-17 42q0 24 17 41.5t42 17.5t42 -17.5t17 -41.5zM5 814q0 24 17 41.5t42 17.5q24 0 41.5 -17.5t17.5 -41.5q0 -25 -17.5 -42t-41.5 -17 q-25 0 -42 17t-17 42z"/>
<glyph horiz-adv-x="389" glyph-name="afii10057" unicode="Ј" d="M50 698h21q32 0 64 -1t64 -1h47h31t24.5 0.5t28.5 0.5l30 1v-30q-15 0 -26 -1t-22 -4q-20 -5 -27.5 -15.5t-7.5 -33.5v-523q0 -31 -1 -53.5t-3 -41t-6.5 -34.5t-10.5 -33q-11 -32 -31.5 -59t-46 -46.5t-55 -31t-59.5 -11.5q-48 0 -80.5 23.5t-32.5 57.5q0 26 18 43t44 17 q23 0 38 -16q5 -7 8 -14t6 -22q4 -17 10.5 -32t28.5 -15q24 0 34 25t10 87v646q0 26 -1.5 39.5t-6.5 21.5q-14 25 -90 26v30z"/>
<glyph horiz-adv-x="980" glyph-name="afii10058" unicode="Љ" d="M960 208q0 -45 -18 -83.5t-52 -66t-82.5 -43t-108.5 -15.5q-54 0 -87.5 1t-64.5 1h-42.5h-29.5h-24.5t-28.5 -1l-30 -1v31h16q45 0 61 12q9 7 12.5 22t3.5 47v543h-111q-28 0 -47.5 -10t-22.5 -48l-7 -84q-5 -67 -11.5 -130t-21.5 -135q-9 -43 -22.5 -89t-35.5 -84 t-53.5 -62.5t-75.5 -24.5q-12 0 -24 3.5t-22.5 11t-17 19t-6.5 27.5q0 32 17.5 47t40.5 15q16 0 26 -5.5t14 -9.5q5 -6 13.5 -8t13.5 -2q13 0 29.5 21t32.5 69.5t30 128t22 196.5l7 104q2 33 -12.5 48t-56.5 15h-19v30h20q31 0 62 -1t62 -1h236h69t69 1l31 1v-30h-11 q-23 0 -43 -3t-28 -8q-17 -10 -17 -52v-213h57q56 0 108 -9t92 -30.5t64 -57t24 -87.5zM828 200q0 31 -12 57t-34.5 45t-54.5 30t-71 11h-41v-236q0 -35 15 -49.5t52 -14.5q32 0 58.5 12t46 33t30.5 50t11 62z"/>
<glyph horiz-adv-x="1000" glyph-name="afii10059" unicode="Њ" d="M413 0v31h16q45 0 61 12q9 7 12.5 22t3.5 47v231h-268v-254q0 -34 17.5 -46t67.5 -12h9v-31l-21 1q-21 1 -34.5 1.5t-27.5 0.5t-31.5 -0.5t-47.5 -0.5h-40.5h-27.5h-24t-29 -1l-30 -1v31h13q47 0 61 10q13 9 14 26t1 31v507q0 39 -14 51t-56 12h-19v30h20q31 0 62 -1 t62 -1h69t69 1l31 1v-30h-11q-49 0 -66 -11q-17 -10 -17 -53v-212h268v210q0 28 -6 41q-10 25 -75 25h-12v30h21q33 0 66 -1t66 -1h69t69 1l31 1v-30h-11q-23 0 -43 -3t-28 -8q-17 -10 -17 -53v-212h57q56 0 108 -9t92 -30.5t64 -57t24 -87.5q0 -45 -18 -83.5t-52 -66 t-82.5 -43t-108.5 -15.5q-54 0 -87.5 1t-64.5 1h-42.5h-29h-24.5t-29 -1zM849 200q0 31 -12 57t-34.5 45t-54.5 30t-71 11h-41v-236q0 -35 15 -49.5t52 -14.5q32 0 58.5 12t46 33t30.5 50t11 62z"/>
<glyph horiz-adv-x="872" glyph-name="afii10060" unicode="Ћ" d="M841 0q-31 0 -59 1t-59 1h-67t-67 -1l-31 -1v31h7q49 0 66 11q17 10 17 53v86q0 49 -6.5 83.5t-22 56t-42 31.5t-65.5 10q-21 0 -53 -8t-63 -19v-242q0 -35 17 -48.5t64 -13.5h18v-31l-23 1q-39 2 -77.5 2h-77.5h-39h-27t-23.5 -0.5t-28.5 -1.5l-30 -1v31h17 q24 0 39.5 2.5t24.5 10t12.5 20.5t3.5 34v551h-132q-43 0 -64.5 -16.5t-26.5 -64.5l-1 -9h-29q5 29 8.5 49t5 38.5t2.5 37.5t2 45h23q3 -18 16 -25t42 -7h448q35 0 46.5 6t18.5 28l25 -4q-5 -23 -8 -39.5t-4.5 -30.5t-2 -28t-0.5 -31v-14t1 -19l-32 -11v11q0 51 -16 67.5 t-60 16.5h-132v-268q36 14 81.5 27t82.5 13q57 0 98 -11.5t68 -37t39.5 -66t12.5 -99.5v-113q0 -39 14 -51t56 -12h13v-31h-20z"/>
<glyph horiz-adv-x="700" glyph-name="afii10061" unicode="Ќ" d="M272 755l147 148q24 24 45 24q14 0 23.5 -9.5t9.5 -23.5q0 -22 -31 -42l-154 -97h-40zM311 1q-35 2 -70.5 2h-71.5h-39h-27t-23 -0.5t-28 -1.5l-29 -1v31h8q28 0 43.5 3t24.5 11q13 11 13.5 31t0.5 34v474q0 26 -0.5 34.5t-5.5 21.5q-6 17 -21 22.5t-53 5.5h-8v30l22 -1 q22 -1 52.5 -1h87.5h39h26t22 0.5t26 0.5l29 1v-30q-15 0 -31 -0.5t-29.5 -4.5t-22 -14.5t-8.5 -31.5v-239q17 0 34.5 7t37.5 30l154 182q17 21 24.5 30.5t7.5 17.5q0 12 -9 17q-5 3 -18 4.5t-28 1.5h-13v30h18q17 0 27.5 -0.5t20.5 -0.5t22.5 -0.5t33.5 -0.5h41.5h27 t21.5 0.5t24 0.5l26 1v-30h-13q-40 0 -70 -14q-18 -9 -44 -29t-47 -44l-150 -172l256 -333q13 -17 21.5 -24.5t19.5 -12.5q12 -5 21 -6.5t23 -1.5v-31l-22 1q-13 1 -20.5 1h-15h-18.5h-31h-23h-16t-13.5 -0.5t-17.5 -0.5l-21 -1q-5 9 -8.5 15t-7 11t-7.5 10.5t-11 14.5 l-205 273q-11 15 -32 15v-248q0 -34 16 -47t58 -13h20v-31z"/>
<glyph horiz-adv-x="687" glyph-name="afii10062" unicode="Ў" d="M521 552q14 26 23 49.5t9 34.5q0 17 -10 24q-6 5 -21.5 7t-34.5 2h-14v31l25 -1q25 -1 44 -1h45h45t35 1l19 1v-31h-13q-23 0 -36 -13.5t-33 -51.5l-244 -450q-15 -28 -32.5 -57.5t-39 -53.5t-48 -39.5t-59.5 -15.5q-45 0 -67.5 19.5t-22.5 46.5t14.5 47t43.5 20 q38 0 51 -24q5 -9 12.5 -16t16.5 -7q10 0 21 9.5t21 22t18.5 26.5t13.5 23l13 24l-221 431q-19 37 -35 48t-44 11h-16v31l31 -1q32 -1 59.5 -1h59.5h43.5h29t23.5 0.5t27 0.5l29 1v-31h-12q-35 0 -48.5 -5.5t-13.5 -21.5q0 -13 5 -23l157 -306zM304 870q0 -12 -1 -22.5 t4 -19.5t18 -20t39 -11q25 0 36.5 10.5t16.5 19.5t4 20t-1 23q0 21 14 34.5t36 13.5q30 0 40.5 -15.5t10.5 -31.5t-8.5 -35.5t-27 -36t-48.5 -28t-73 -11.5q-44 0 -74.5 11t-49.5 27.5t-27.5 35t-8.5 32.5q0 8 2 17t7.5 16.5t15.5 13t25 5.5q26 0 38 -14t12 -34z"/>
<glyph horiz-adv-x="833" glyph-name="afii10145" unicode="Џ" d="M784 1q-17 0 -28.5 0.5t-24 0.5h-30h-45.5h-107q-29 0 -48 -10t-32.5 -31.5t-22 -56.5t-16.5 -85h-24q-8 50 -16.5 85t-21.5 56.5t-32.5 31.5t-48.5 10h-124q-31 0 -62 -1t-62 -1h-20v31h19q42 0 56 12t14 51v507q0 14 -1 31t-14 26q-14 10 -61 10h-13v30l30 -1 q17 -1 29 -1h24h27.5h40.5q30 0 47.5 -0.5t31.5 -0.5t27.5 0.5t34.5 1.5l21 1v-30h-9q-50 0 -67.5 -12t-17.5 -46v-500q0 -43 17 -53q17 -11 66 -11h194q65 0 75 25q6 14 6 41v475q0 32 -3.5 47t-12.5 22q-16 12 -61 12h-16v30l30 -1q17 -1 29 -1h24.5h29h42.5q28 0 45 -0.5 t30 -0.5t26.5 0.5t33.5 1.5l21 1v-30h-10q-46 0 -62 -12t-16 -44v-520q0 -41 15 -51q17 -10 62 -10h11v-31z"/>
<glyph horiz-adv-x="722" glyph-name="afii10017" unicode="А" d="M706 0l-29 1q-18 1 -28.5 1h-20h-22.5h-37h-43.5h-28.5h-23t-28 -1l-29 -1v31h15q32 0 45 6t13 21q0 10 -3.5 20t-6.5 20l-49 145h-227l-50 -157q-4 -11 -4 -18q0 -37 72 -37h14v-31l-26 1q-26 1 -47.5 1h-47.5h-29h-20h-17.5t-20.5 -1l-21 -1v31q20 1 27 2t19 6 q30 11 47 56l180 516q5 14 8 23t4.5 16t2.5 13t2 15q17 7 25 10t16 7q14 6 26.5 13t26.5 15l12 -3l227 -645q15 -44 68 -44h8v-31zM317 586l-96 -285h191z"/>
<glyph horiz-adv-x="625" glyph-name="afii10018" unicode="Б" d="M594 211q0 -50 -18 -89t-52 -66t-82.5 -41.5t-108.5 -14.5q-6 0 -22 0.5t-31 0.5l-109 1q-25 0 -40.5 0.5t-27.5 0.5t-24 -0.5t-29 -1.5l-30 -1v31h13q47 0 61 10q13 9 14 26t1 31v507q0 39 -14 51t-56 12h-19v30h20q31 0 62 -1t62 -1l216 1l119 1h41q-1 -11 -1 -22 t-0.5 -23t-0.5 -25q0 -29 1.5 -49t1.5 -37l-29 -7q-3 36 -9.5 59.5t-21.5 37t-41.5 18.5t-68.5 5h-132v-254q11 1 30 2.5t37 1.5q56 0 108 -11t92 -34t64 -60t24 -89zM462 201q0 35 -11 66.5t-30 51.5q-41 43 -130 43q-8 0 -23 -1t-29 -2v-252q0 -35 14.5 -49.5t52.5 -14.5 q35 0 63.5 12t49 33.5t32 50.5t11.5 62z"/>
<glyph horiz-adv-x="667" glyph-name="afii10019" unicode="В" d="M20 698l17 -1q26 -2 49.5 -2h44.5h13.5h13h17.5t26 1l70 3q20 1 35 1.5t22 0.5q41 0 83 -6.5t76 -24t56 -49t22 -81.5q0 -69 -60 -113q-14 -10 -26 -17t-25 -12.5t-29.5 -10t-39.5 -9.5v-4q23 -1 37.5 -2t26.5 -3t23 -5.5t26 -8.5q50 -17 80 -59t30 -94q0 -42 -19.5 -81 t-54.5 -68q-37 -30 -83.5 -43t-119.5 -13h-22t-40 2q-23 1 -41 1.5t-34 1t-32.5 0.5h-36.5h-22h-17.5h-19t-25.5 -1l-21 -1v31h6q23 0 39 1.5t26 8.5t15 21t5 39v506q0 35 -19 49q-16 12 -72 12v30zM236 392q12 0 17.5 -0.5t11.5 -0.5q35 0 65.5 6t53.5 21t36 41t13 66 q0 64 -37 101t-100 37q-15 0 -30 -1t-30 -3v-267zM236 86q0 -17 8 -27t20 -15.5t27 -7t28 -1.5q35 0 63 12t48 33t31 50t11 63q0 44 -14.5 74.5t-39.5 49.5t-59 28t-74 9h-22t-27 -1v-267z"/>
<glyph horiz-adv-x="536" glyph-name="afii10020" unicode="Г" d="M17 698l69 -1l83 -2l194 2l127 1h39q-2 -39 0 -83t3 -73l-29 -7q-3 36 -10.5 59.5t-24 36.5t-44.5 18t-70 5h-117v-563q0 -36 17 -48t69 -12h23v-31l-23 1q-38 2 -74.5 2h-74.5h-42h-28.5t-24.5 -0.5t-30 -1.5l-30 -1v31h16q40 0 57 12t17 40v510q0 44 -16 59.5t-61 15.5 h-15v30z"/>
<glyph horiz-adv-x="722" glyph-name="afii10021" unicode="Д" d="M707 -172h-29l-4 25q-7 46 -19 75t-30.5 45.5t-44 22.5t-60.5 6h-298q-34 0 -65 -6t-56 -22.5t-42 -45.5t-25 -75l-4 -25h-29l7 218h15q38 0 58.5 12.5t32.5 32.5q16 27 34.5 73t35 103t29.5 121.5t18 128.5q2 26 2.5 44t0.5 44q0 41 -16 52t-60 11h-13v30l30 -1 q17 -1 28.5 -1h23.5h28h41h241q28 0 45 -0.5t30.5 -0.5t26.5 0.5t33 1.5l21 1v-30h-10q-46 0 -62 -11.5t-16 -43.5v-507q0 -20 6 -32t17 -18t26.5 -8t34.5 -2h25zM475 654h-109q-25 0 -40 -3.5t-23.5 -12.5t-11.5 -24.5t-5 -39.5q-4 -67 -11.5 -123.5t-19.5 -109.5t-29 -107 t-40 -116q-5 -14 -9 -27t-3 -23t9.5 -16t28.5 -6h182q65 0 75 25q6 14 6 41v542z"/>
<glyph horiz-adv-x="611" glyph-name="afii10022" unicode="Е" d="M15 698l26 -1q40 -2 63.5 -2h49.5h29t43 0.5t47 0.5h40l168 1l38 1q-1 -8 -1 -13v-9q0 -12 1 -39t3 -69q0 -3 0.5 -7.5t0.5 -11.5l-29 -12q-2 25 -8.5 53.5t-28.5 44.5q-14 11 -42 14t-92 3h-89v-262h99q22 0 39.5 1.5t29.5 9t18.5 23t6.5 42.5v11h31v-106 q0 -32 0.5 -64.5t2.5 -62.5h-30q-1 3 -1 9v6q-1 23 -5 38t-13 24t-24.5 13t-40.5 4h-113v-216q0 -26 5 -40t16 -22q9 -6 24.5 -9t32.5 -4.5t33.5 -1.5h26.5q57 0 90 7t52 24q8 7 13 13.5t10.5 16t11 23.5t12.5 35l29 -4q-7 -23 -11.5 -40t-8.5 -34t-8 -37t-9 -49h-20h-75 t-98 1q-68 1 -115 1h-75h-66t-60 -1l-29 -1v31h9q32 0 48.5 5.5t24 17.5t8.5 32.5t1 50.5v451q0 25 -1.5 40.5t-9.5 24.5t-24.5 12t-45.5 3h-10v30z"/>
<glyph horiz-adv-x="1000" glyph-name="afii10024" unicode="Ж" d="M634 1q-35 2 -68.5 2h-69.5h-39h-27t-23 -0.5t-28 -1.5l-29 -1v31h8q26 0 42 2.5t25 10.5t12 22.5t3 37.5v239q-8 -1 -16 -3.5t-12 -8.5l-190 -280q-6 -9 -10 -14.5t-7.5 -10.5t-7.5 -11t-9 -15l-21 1q-10 0 -16 0.5t-11.5 0.5h-13h-21.5h-31h-18.5h-15t-20.5 -1l-22 -1 v31q14 0 23 1.5t21 6.5q11 5 20 12.5t21 24.5l234 333l-128 172q-19 26 -46 45.5t-45 28.5q-27 13 -70 13h-13v30l26 -1q14 0 24 -0.5t21.5 -0.5h27h41.5q21 0 33.5 0.5t22.5 0.5t21 0.5t27 0.5h18v-30h-13h-15.5t-18 -2t-15 -6.5t-6.5 -13.5q0 -8 7.5 -17.5t24.5 -31.5 l135 -182q26 -35 64 -35v214q0 20 -2 34t-9.5 23t-23.5 13t-45 4h-8v30l22 -1q22 -1 50.5 -1h85.5h38.5h25t21 0.5t25.5 0.5l29 1v-30h-8q-28 0 -44.5 -4t-24 -13t-9.5 -23t-2 -34v-214q38 0 64 35l135 182q17 22 24.5 31.5t7.5 17.5q0 9 -6.5 13.5t-15 6.5t-18 2h-15.5h-13 v30h18q17 0 27.5 -0.5t20.5 -0.5t22.5 -0.5t33.5 -0.5h41.5h27t21.5 0.5t24 0.5l26 1v-30h-13q-43 0 -70 -13q-18 -9 -45 -28.5t-46 -45.5l-128 -172l234 -333q12 -17 21 -24.5t20 -12.5q12 -5 21 -6.5t23 -1.5v-31l-22 1q-13 1 -20.5 1h-15h-18.5h-31h-21.5h-13t-11 -0.5 t-16.5 -0.5l-21 -1q-5 9 -9 15t-7.5 11t-7.5 10.5t-10 14.5l-190 280q-4 6 -12 8.5t-16 3.5v-239q0 -23 3 -37.5t12 -22.5t25 -10.5t42 -2.5h8v-31z"/>
<glyph glyph-name="afii10025" unicode="З" d="M515 205q0 -49 -20.5 -89.5t-57.5 -69.5t-88.5 -45t-113.5 -16q-46 0 -99 13t-94 34l-17 159l29 6q9 -36 25 -67t38.5 -53.5t52.5 -35.5t67 -13q33 0 59 13t43.5 35.5t27 53t9.5 66.5q0 51 -18.5 86.5t-53.5 53.5q-17 9 -39 12.5t-45 3.5q-3 0 -19 -0.5t-23 -1.5v46 q7 -1 21.5 -1h21.5q13 0 35.5 5.5t39.5 18.5q25 20 42.5 54.5t17.5 72.5q0 57 -29.5 94t-92.5 37q-68 0 -109 -38t-52 -101l-28 5l2 17q3 25 4.5 41.5t2.5 30t1.5 26t0.5 29.5q15 3 35 8t44 10t51 8.5t55 3.5q125 0 183.5 -43t58.5 -110q0 -33 -12 -61.5t-32.5 -51.5 t-48 -40t-59.5 -26v-3q37 -3 70.5 -15t58.5 -33.5t40 -53.5t15 -75z"/>
<glyph horiz-adv-x="833" glyph-name="afii10026" unicode="И" d="M311 1q-21 1 -34.5 1.5t-27.5 0.5t-31.5 -0.5t-47.5 -0.5h-40.5h-27.5h-24t-29 -1l-30 -1v31h13q47 0 61 10q13 9 14 26t1 31v507q0 39 -14 51t-56 12h-19v30h20q31 0 62 -1t62 -1h69t69 1l31 1v-30h-11q-49 0 -66 -11q-17 -10 -17 -53v-421l358 413v7q0 27 -6 40 q-10 25 -75 25h-12v30h21q33 0 66 -1t66 -1h45.5h30t24 0.5t28.5 0.5l30 1v-30h-11q-45 0 -62 -10q-8 -5 -11.5 -16.5t-3.5 -33.5v-521q0 -32 16 -44t62 -12h10v-31l-21 1q-20 1 -33.5 1.5t-26.5 0.5t-30 -0.5t-45 -0.5h-42.5h-29h-24.5t-29 -1l-30 -1v31h16q45 0 61 12 q9 7 12.5 22t3.5 47v409l-358 -413v-19q0 -34 17.5 -46t67.5 -12h9v-31z"/>
<glyph horiz-adv-x="833" glyph-name="afii10027" unicode="Й" d="M364 870q0 -12 -1 -22.5t4 -19.5t18 -20t39 -11q25 0 36.5 10.5t16.5 19.5t4 20t-1 23q0 21 14 34.5t36 13.5q30 0 40.5 -15.5t10.5 -31.5t-8.5 -35.5t-27 -36t-48.5 -28t-73 -11.5q-44 0 -74.5 11t-49.5 27.5t-27.5 35t-8.5 32.5q0 8 2 17t7.5 16.5t15.5 13t25 5.5 q26 0 38 -14t12 -34zM311 1q-21 1 -34.5 1.5t-27.5 0.5t-31.5 -0.5t-47.5 -0.5h-40.5h-27.5h-24t-29 -1l-30 -1v31h13q47 0 61 10q13 9 14 26t1 31v507q0 39 -14 51t-56 12h-19v30h20q31 0 62 -1t62 -1h69t69 1l31 1v-30h-11q-49 0 -66 -11q-17 -10 -17 -53v-421l358 413v7 q0 27 -6 40q-10 25 -75 25h-12v30h21q33 0 66 -1t66 -1h45.5h30t24 0.5t28.5 0.5l30 1v-30h-11q-45 0 -62 -10q-8 -5 -11.5 -16.5t-3.5 -33.5v-521q0 -32 16 -44t62 -12h10v-31l-21 1q-20 1 -33.5 1.5t-26.5 0.5t-30 -0.5t-45 -0.5h-42.5h-29h-24.5t-29 -1l-30 -1v31h16 q45 0 61 12q9 7 12.5 22t3.5 47v409l-358 -413v-19q0 -34 17.5 -46t67.5 -12h9v-31z"/>
<glyph horiz-adv-x="722" glyph-name="afii10028" unicode="К" d="M311 1q-35 2 -70.5 2h-71.5h-39h-27t-23 -0.5t-28 -1.5l-29 -1v31h8q28 0 43.5 3t24.5 11q13 11 13.5 31t0.5 34v474q0 26 -0.5 34.5t-5.5 21.5q-6 17 -21 22.5t-53 5.5h-8v30l22 -1q22 -1 52.5 -1h87.5h39h26t22 0.5t26 0.5l29 1v-30q-15 0 -31 -0.5t-29.5 -4.5 t-22 -14.5t-8.5 -31.5v-239q17 0 34.5 7t37.5 30l154 182q17 21 24.5 30.5t7.5 17.5q0 12 -9 17q-5 3 -18 4.5t-28 1.5h-13v30h18q17 0 27.5 -0.5t20.5 -0.5t22.5 -0.5t33.5 -0.5h41.5h27t21.5 0.5t24 0.5l26 1v-30h-13q-40 0 -70 -14q-18 -9 -44 -29t-47 -44l-150 -172 l256 -333q13 -17 21.5 -24.5t19.5 -12.5q12 -5 21 -6.5t23 -1.5v-31l-22 1q-13 1 -20.5 1h-15h-18.5h-31h-23h-16t-13.5 -0.5t-17.5 -0.5l-21 -1q-5 9 -8.5 15t-7 11t-7.5 10.5t-11 14.5l-205 273q-11 15 -32 15v-248q0 -34 16 -47t58 -13h20v-31z"/>
<glyph horiz-adv-x="722" glyph-name="afii10029" unicode="Л" d="M682 1q-20 1 -33 1.5t-26.5 0.5t-30.5 -0.5t-45 -0.5h-43.5h-31h-26t-29.5 -1l-30 -1v31h21q45 0 61 12q9 7 12.5 22t3.5 47v543h-118q-28 0 -47.5 -10t-22.5 -48l-7 -84q-5 -67 -11.5 -130t-21.5 -135q-9 -43 -22.5 -89t-35.5 -84t-53.5 -62.5t-75.5 -24.5 q-12 0 -24 3.5t-22.5 11t-17 19t-6.5 27.5q0 32 17.5 47t40.5 15q16 0 26 -5.5t14 -9.5q5 -6 13.5 -8t13.5 -2q13 0 29.5 21t32.5 69.5t30 128t22 196.5l7 104q2 33 -12.5 48t-56.5 15h-19v30h20q31 0 62 -1t62 -1h243h45.5h30t24 0.5t28.5 0.5l30 1v-30h-11q-45 0 -62 -10 q-8 -5 -11.5 -16.5t-3.5 -33.5v-521q0 -32 16 -44t62 -12h10v-31z"/>
<glyph horiz-adv-x="1000" glyph-name="afii10030" unicode="М" d="M505 176q15 33 35.5 78.5t43.5 95.5t46 102t43.5 99t37 85.5t25.5 61.5l25 -1q20 -1 38.5 -1h41.5h31.5h20.5t17 0.5t19 0.5l21 1v-30h-9q-51 0 -70.5 -13t-17.5 -50l34 -503q3 -43 18.5 -57t59.5 -14h16v-31l-20 1q-19 1 -32 1.5t-25.5 0.5t-27.5 -0.5t-40 -0.5h-47 h-31.5h-25.5t-30 -1l-31 -1v31h8q26 0 41.5 2t23.5 9t10.5 19.5t2.5 34.5v14t-1 14l-29 426l-256 -563h-24l-243 552l-34 -400q-1 -10 -1 -17.5v-13.5q0 -26 3.5 -39.5t11.5 -22.5q14 -15 61 -15h21v-31l-24 1q-29 2 -56 1.5t-56 -0.5h-31h-21.5h-19t-23.5 -1l-23 -1v31 l16 1q26 2 41.5 7t25.5 20t15.5 43.5t10.5 77.5l26 254q5 42 8 83.5t3 83.5q0 19 -3.5 28.5t-11.5 17.5q-11 11 -29.5 15.5t-54.5 5.5v30l30 -1q27 -1 46 -1h46h23h16.5t14.5 0.5t17 0.5l19 1z"/>
<glyph horiz-adv-x="833" glyph-name="afii10031" unicode="Н" d="M814 667h-11q-45 0 -62 -10q-15 -10 -15 -51v-519q0 -32 16 -44t62 -12h10v-31l-21 1q-20 1 -33.5 1.5t-26.5 0.5t-30 -0.5t-45 -0.5h-42.5h-29h-24.5t-29 -1l-30 -1v31h16q45 0 61 12q9 7 12.5 22t3.5 47v224h-358v-247q0 -34 17.5 -46t67.5 -12h9v-31l-21 1 q-21 1 -34.5 1.5t-27.5 0.5t-31.5 -0.5t-47.5 -0.5h-40.5h-27.5h-24t-29 -1l-30 -1v31h13q47 0 61 10q13 9 14 26t1 31v506q0 39 -14 51t-56 12h-19v31h20q31 0 62 -1t62 -1h69t69 1l31 1v-31h-11q-49 0 -66 -11q-17 -10 -17 -53v-211h358v209q0 28 -6 41q-10 25 -75 25h-12 v31h21q33 0 66 -1t66 -1h45.5h30t24 0.5t28.5 0.5l30 1v-31z"/>
<glyph horiz-adv-x="834" glyph-name="afii10032" unicode="О" d="M420 717q81 0 149.5 -26.5t118 -74t77.5 -113t28 -143.5q0 -81 -29 -149.5t-79.5 -118.5t-119.5 -78.5t-149 -28.5q-83 0 -152 27t-118.5 75t-77 115t-27.5 148q0 79 28.5 146t79.5 116t120.5 77t150.5 28zM432 27q62 0 104 26.5t68 68.5t37.5 94.5t11.5 105.5 q0 80 -17.5 145t-50 111.5t-77.5 72t-100 25.5q-62 0 -105.5 -26t-71 -67.5t-40 -94.5t-12.5 -107q0 -79 18.5 -144.5t51.5 -112t79.5 -72t103.5 -25.5z"/>
<glyph horiz-adv-x="833" glyph-name="afii10033" unicode="П" d="M793 1q-20 1 -33.5 1.5t-26.5 0.5t-30 -0.5t-45 -0.5h-42.5h-29h-24.5t-29 -1l-30 -1v31h16q45 0 61 12q9 7 12.5 22t3.5 47v475q0 28 -6 41q-10 25 -75 25h-194q-49 0 -66 -11q-17 -10 -17 -53v-500q0 -34 17.5 -46t67.5 -12h9v-31l-21 1q-21 1 -34.5 1.5t-27.5 0.5 t-31.5 -0.5t-47.5 -0.5h-40.5h-27.5h-24t-29 -1l-30 -1v31h13q47 0 61 10q13 9 14 26t1 31v507q0 39 -14 51t-56 12h-19v30h20q31 0 62 -1t62 -1h493h45.5h30t24 0.5t28.5 0.5l30 1v-30h-11q-45 0 -62 -10q-15 -10 -15 -51v-520q0 -32 16 -44t62 -12h10v-31z"/>
<glyph glyph-name="afii10034" unicode="Р" d="M21 698h12q18 0 40.5 -1t42.5 -1t39.5 1t48.5 2l58 2q11 0 20.5 0.5t18.5 0.5q47 0 89.5 -10t75.5 -32.5t52.5 -59t19.5 -88.5q0 -45 -17.5 -85t-49.5 -70q-32 -29 -73 -42t-101 -13q-7 0 -14 0.5t-14 0.5v32q5 -1 9 -1h7q58 0 90 40.5t32 115.5q0 35 -8 66.5t-25.5 55.5 t-44.5 38t-66 14q-18 0 -34 -4v-566q0 -21 9 -36q17 -27 89 -27h10v-31l-21 1q-20 1 -33.5 1.5t-26.5 0.5t-30 -0.5t-44 -0.5h-45h-30h-25t-30 -1l-31 -1v31h13q34 0 50 9q14 9 14 40v535q0 53 -62 53h-15v30z"/>
<glyph horiz-adv-x="722" glyph-name="afii10035" unicode="С" d="M675 636q0 -20 1.5 -49t3.5 -67l1 -20l-25 -2q-53 179 -221 179q-65 0 -113 -24.5t-79.5 -66t-46.5 -96t-15 -114.5q0 -62 16 -124t49 -112t84 -81t121 -31q87 0 135 46.5t72 122.5l28 -4q-6 -26 -9.5 -45t-6.5 -36.5t-5 -36.5t-5 -45q-110 -43 -226 -43 q-90 0 -162.5 26.5t-124.5 74.5t-80 116t-28 152q0 80 28 146.5t78.5 114.5t120.5 74.5t154 26.5q43 0 84 -7.5t82 -20.5l26 -8q19 -6 32.5 -8.5t21.5 -4.5q1 0 3 -0.5t6 -0.5v-32z"/>
<glyph horiz-adv-x="722" glyph-name="afii10036" unicode="Т" d="M664 554v11q0 51 -16 67.5t-60 16.5h-157v-556q0 -35 17 -48.5t64 -13.5h18v-31l-23 1q-39 2 -77.5 2h-77.5h-39h-27t-23.5 -0.5t-28.5 -1.5l-30 -1v31h17q24 0 39.5 2.5t24.5 10t12.5 20.5t3.5 34v551h-167q-43 0 -64.5 -16.5t-26.5 -64.5l-1 -9h-29q5 29 8.5 49t5 38.5 t2.5 37.5t2 45h23q3 -18 16 -25t42 -7h508q35 0 46.5 6t18.5 28l25 -4q-5 -23 -8 -39.5t-4.5 -30.5t-2 -28t-0.5 -31v-14t1 -19z"/>
<glyph horiz-adv-x="687" glyph-name="afii10037" unicode="У" d="M521 552q14 26 23 49.5t9 34.5q0 13 -7 19.5t-17 9.5t-21.5 3h-20.5h-14v30l25 -1q25 -1 44 -1h45h45t35 1l19 1v-30h-13q-23 0 -36 -13t-33 -51l-244 -450q-15 -28 -32.5 -57.5t-39 -53.5t-48 -39.5t-59.5 -15.5q-45 0 -67.5 19.5t-22.5 46.5t14.5 47t43.5 20 q38 0 51 -24q5 -9 12.5 -16t16.5 -7q10 0 21 9.5t21 22t18.5 26.5t13.5 23l13 24l-221 431q-19 37 -35 47.5t-44 10.5h-16v30l31 -1q32 -1 59.5 -1h59.5h43.5h29t23.5 0.5t27 0.5l29 1v-30h-12q-35 0 -48.5 -5t-13.5 -21q0 -13 5 -23l157 -306z"/>
<glyph horiz-adv-x="853" glyph-name="afii10038" unicode="Ф" d="M814 370q0 -60 -21.5 -108.5t-61.5 -82.5t-95.5 -52t-123.5 -18h-22v-20q0 -33 17 -45t66 -13v-31l-20 1q-19 1 -31.5 1.5t-25 0.5t-29 -0.5t-43.5 -0.5h-39h-26.5h-22.5t-28 -1l-28 -1v31h10q46 0 60 10q12 8 13 26.5t1 30.5v11h-22q-68 0 -123.5 18t-95.5 52 t-61.5 82.5t-21.5 108.5q0 65 27.5 110.5t72 75t101.5 43t116 13.5h7q0 35 -12 45.5t-50 10.5h-22v30h19q19 0 33 -0.5t28 -0.5t30 -0.5t38 -0.5h58.5t56.5 1l30 1v-30q-49 0 -66 -10.5t-17 -45.5h7q59 0 115.5 -13.5t101.5 -43t72.5 -75t27.5 -110.5zM678 365 q0 44 -12.5 82t-36.5 66t-59 45.5t-80 20.5v-434q97 6 142.5 63t45.5 157zM364 579q-45 -3 -80 -20.5t-59 -45.5t-36.5 -66t-12.5 -82q0 -100 45.5 -157t142.5 -63v434z"/>
<glyph horiz-adv-x="778" glyph-name="afii10039" unicode="Х" d="M14 698l34 -1q35 -1 63.5 -1h63.5h43.5h29t24 0.5t27.5 0.5l30 1v-30h-6q-6 0 -16 0.5t-20 -1t-17 -5.5t-7 -13q0 -8 5.5 -20t19.5 -31l123 -170l127 165q8 10 16.5 23t8.5 25q0 14 -11 20q-7 5 -18 6t-40 1h-8v30l28 -1q31 -1 57 -1h58h33h22.5t19 0.5t22.5 0.5l24 1 v-30h-16q-17 0 -31.5 -2.5t-26.5 -8.5q-19 -9 -34 -22.5t-40 -44.5l-163 -200l199 -281q17 -24 29.5 -38.5t25.5 -22.5t28.5 -11.5t37.5 -5.5v-31l-19 1q-18 1 -29.5 1.5t-23 0.5t-25 -0.5t-34.5 -0.5h-50.5h-33h-25.5t-30 -1l-31 -1v31h10q28 0 37.5 3.5t9.5 13.5 q0 6 -3.5 12.5t-9.5 15.5l-147 209l-136 -179q-6 -8 -16.5 -22.5t-10.5 -24.5q0 -29 75 -29h6v-30l-18 1q-18 1 -29.5 1.5t-23.5 0.5t-28.5 -0.5t-43.5 -0.5h-29.5h-20.5h-18.5t-23.5 -1l-24 -1v31q32 1 46 3.5t29 10.5q9 5 15.5 9t14 11t17 18t24.5 30l168 210l-203 286 q-11 15 -20.5 26.5t-20.5 18.5t-25 10.5t-34 3.5h-11v30z"/>
<glyph horiz-adv-x="833" glyph-name="afii10040" unicode="Ц" d="M817 -172h-29l-4 25q-7 46 -19 75t-30.5 45.5t-43.5 22.5t-60 6h-468q-31 0 -62 -1t-62 -1h-20v31h19q42 0 56 12t14 51v507q0 14 -1 31t-14 26q-14 10 -61 10h-13v30l30 -1q17 -1 29 -1h24h27.5h40.5q30 0 47.5 -0.5t31.5 -0.5t27.5 0.5t34.5 1.5l21 1v-30h-9 q-50 0 -67.5 -12t-17.5 -46v-500q0 -43 17 -53q17 -11 66 -11h184q65 0 75 25q6 14 6 41v475q0 32 -3.5 47t-12.5 22q-16 12 -61 12h-16v30l30 -1q17 -1 29 -1h24.5h29h42.5q28 0 45 -0.5t30.5 -0.5t26.5 0.5t33 1.5l21 1v-30h-10q-46 0 -62 -12t-16 -44v-506q0 -20 6 -32 t17 -18t26.5 -8t34.5 -2h25z"/>
<glyph horiz-adv-x="722" glyph-name="afii10041" unicode="Ч" d="M687 1q-20 1 -33.5 1.5t-26.5 0.5t-30 -0.5t-45 -0.5h-42.5h-29h-24.5t-29 -1l-30 -1v31h16q45 0 61 12q9 7 12.5 22t3.5 47v235q-18 -7 -41 -15.5t-47.5 -16t-49.5 -12t-46 -4.5q-57 0 -98 11.5t-68 37t-39.5 66t-12.5 99.5v92q0 39 -14 51t-56 12h-13v30h20q31 0 59 -1 t59 -1h67t67 1l31 1v-30h-7q-49 0 -66 -11q-17 -10 -17 -53v-65q0 -49 6.5 -83t22 -56t42 -32t65.5 -10q24 0 63 10.5t73 24.5v209q0 28 -6 41q-10 25 -75 25h-8v30h21q33 0 64 -1t64 -1h45.5h30t24 0.5t28.5 0.5l30 1v-30h-11q-45 0 -62 -10q-15 -10 -15 -51v-520 q0 -32 16 -44t62 -12h10v-31z"/>
<glyph horiz-adv-x="1100" glyph-name="afii10042" unicode="Ш" d="M706 698v-30h-5q-50 0 -67.5 -12t-17.5 -46v-500q0 -43 17 -53q17 -11 66 -11h84q65 0 75 25q6 14 6 41v475q0 32 -3.5 47t-12.5 22q-16 12 -61 12h-16v30l30 -1q17 0 28.5 -0.5t24.5 -0.5h29.5h42.5q28 0 45 -0.5t30.5 -0.5t26.5 0.5t33 1.5l21 1v-30h-10q-46 0 -62 -12 t-16 -44v-520q0 -41 15 -51q17 -10 62 -10h11v-31l-30 1q-17 0 -28.5 0.5t-24 0.5h-30h-45.5h-761q-31 0 -62 -1t-62 -1h-20v31h19q42 0 56 12t14 51v507q0 14 -1 31t-14 26q-14 10 -61 10h-13v30l30 -1q17 0 28.5 -0.5t23.5 -0.5h28h41q30 0 47.5 -0.5t31.5 -0.5t27.5 0.5 t34.5 1.5l21 1v-30h-9q-50 0 -67.5 -12t-17.5 -46v-500q0 -43 17 -53q17 -11 66 -11h84q65 0 75 25q6 14 6 41v498q0 34 -17.5 46t-67.5 12h-4v30l29 -1q21 -1 35 -1h27h26.5h33.5h33h29h30t37 1z"/>
<glyph horiz-adv-x="1115" glyph-name="afii10043" unicode="Щ" d="M1095 -172h-29l-4 25q-7 46 -19 75t-30.5 45.5t-43.5 22.5t-60 6h-746q-31 0 -62 -1t-62 -1h-20v31h19q42 0 56 12t14 51v507q0 14 -1 31t-14 26q-14 10 -61 10h-13v30l30 -1q17 0 28.5 -0.5t23.5 -0.5h28h41q30 0 47.5 -0.5t31.5 -0.5t27.5 0.5t34.5 1.5l21 1v-30h-9 q-50 0 -67.5 -12t-17.5 -46v-500q0 -43 17 -53q17 -11 66 -11h84q65 0 75 25q6 14 6 41v498q0 34 -17.5 46t-67.5 12h-4v30l29 -1q21 -1 35 -1h27h26.5h33.5h33h29h30t37 1l29 1v-30h-5q-50 0 -67.5 -12t-17.5 -46v-500q0 -43 17 -53q17 -11 66 -11h84q65 0 75 25q6 14 6 41 v475q0 32 -3.5 47t-12.5 22q-16 12 -61 12h-16v30l30 -1q17 0 28.5 -0.5t24.5 -0.5h29.5h42.5q28 0 45 -0.5t30.5 -0.5t26.5 0.5t33 1.5l21 1v-30h-10q-46 0 -62 -12t-16 -44v-506q0 -20 6 -32t17 -18t26.5 -8t34.5 -2h25z"/>
<glyph horiz-adv-x="778" glyph-name="afii10044" unicode="Ъ" d="M760 211q0 -50 -18 -89t-52 -66t-82.5 -41.5t-108.5 -14.5q-6 0 -22 0.5t-31 0.5l-109 1q-25 0 -40.5 0.5t-27.5 0.5t-24 -0.5t-29 -1.5l-30 -1v31h13q47 0 61 10q13 9 14 26t1 31v556h-140q-43 0 -63 -17t-28 -64l-2 -13h-29q5 29 8.5 49t5 38.5t2.5 37.5t2 45h23 q3 -18 16 -26t42 -8h218h71.5t71.5 1l31 1v-30h-11q-23 0 -43 -3t-28 -8q-17 -10 -17 -53v-203q11 1 30 2.5t37 1.5q56 0 108 -11t92 -34t64 -60t24 -89zM628 201q0 35 -11 66.5t-30 51.5q-41 43 -130 43q-8 0 -23 -1t-29 -2v-252q0 -15 1 -23t6 -15q8 -12 19.5 -19t40.5 -7 q35 0 63.5 12t49 33.5t32 50.5t11.5 62z"/>
<glyph horiz-adv-x="900" glyph-name="afii10045" unicode="Ы" d="M591 211q0 -50 -18 -89t-52 -66t-82.5 -41.5t-108.5 -14.5q-6 0 -22 0.5t-31 0.5l-109 1q-25 0 -40.5 0.5t-27.5 0.5t-24 -0.5t-29 -1.5l-30 -1v31h13q47 0 61 10q13 9 14 26t1 31v507q0 39 -14 51t-56 12h-19v30h20q31 0 62 -1t62 -1h71.5t71.5 1l31 1v-30h-11 q-23 0 -43 -3t-28 -8q-17 -10 -17 -53v-203q11 1 30 2.5t37 1.5q56 0 108 -11t92 -34t64 -60t24 -89zM459 201q0 35 -11 66.5t-30 51.5q-41 43 -130 43q-8 0 -23 -1t-29 -2v-252q0 -15 1 -23t6 -15q8 -12 19.5 -19t40.5 -7q35 0 63.5 12t49 33.5t32 50.5t11.5 62zM666 602 q0 28 -6 41q-10 25 -75 25h-12v30h21q33 0 66 -1t66 -1h45.5h30t24 0.5t28.5 0.5l30 1v-30h-11q-45 0 -62 -10q-15 -10 -15 -51v-520q0 -32 16 -44t62 -12h10v-31l-21 1q-20 1 -33.5 1.5t-26.5 0.5t-30 -0.5t-45 -0.5h-42.5h-29h-24.5t-29 -1l-30 -1v31h16q45 0 61 12 q9 7 12.5 22t3.5 47v490z"/>
<glyph horiz-adv-x="611" glyph-name="afii10046" unicode="Ь" d="M593 211q0 -50 -18 -89t-52 -66t-82.5 -41.5t-108.5 -14.5q-6 0 -22 0.5t-31 0.5l-109 1q-25 0 -40.5 0.5t-27.5 0.5t-24 -0.5t-29 -1.5l-30 -1v31h13q47 0 61 10q13 9 14 26t1 31v507q0 39 -14 51t-56 12h-19v30h20q31 0 62 -1t62 -1h71.5t71.5 1l31 1v-30h-11 q-23 0 -43 -3t-28 -8q-17 -10 -17 -53v-203q11 1 30 2.5t37 1.5q56 0 108 -11t92 -34t64 -60t24 -89zM461 201q0 35 -11 66.5t-30 51.5q-41 43 -130 43q-8 0 -23 -1t-29 -2v-252q0 -15 1 -23t6 -15q8 -12 19.5 -19t40.5 -7q35 0 63.5 12t49 33.5t32 50.5t11.5 62z"/>
<glyph horiz-adv-x="722" glyph-name="afii10047" unicode="Э" d="M686 349q0 -80 -28 -146.5t-78.5 -114.5t-120.5 -74.5t-154 -26.5q-58 0 -126.5 10.5t-124.5 32.5q-1 23 -3 41.5t-4.5 37t-6 39t-6.5 45.5l28 4q29 -82 81.5 -125.5t146.5 -43.5q65 0 113 24.5t79.5 66t46.5 96t15 114.5v9h-216q-25 0 -40.5 -4t-24.5 -13t-12.5 -24 t-5.5 -38v-6q0 -6 -1 -9h-30q2 30 2.5 62.5t0.5 64.5v106h31v-11q0 -27 6.5 -42.5t18.5 -23t29.5 -9t39.5 -1.5h198q-7 55 -26 106.5t-50 91.5t-75 64.5t-100 24.5q-85 0 -141.5 -38.5t-79.5 -134.5l-25 2l1 14q3 38 4 67t1 49v32q4 0 6 0.5t3 0.5q8 2 21.5 4.5t32.5 8.5 l26 8q41 13 83.5 20.5t79.5 7.5q85 0 156 -26.5t122 -74.5t79 -116t28 -152z"/>
<glyph horiz-adv-x="1123" glyph-name="afii10048" unicode="Ю" d="M1078 360q0 -81 -27.5 -149.5t-76.5 -118.5t-115 -78.5t-143 -28.5q-78 0 -143 26t-112.5 72.5t-75 111.5t-29.5 143h-118v-249q0 -34 17.5 -46t67.5 -12h9v-31l-21 1q-21 1 -34.5 1.5t-27.5 0.5t-31.5 -0.5t-47.5 -0.5h-40.5h-27.5h-24t-29 -1l-30 -1v31h13q47 0 61 10 q13 9 14 26t1 31v507q0 39 -14 51t-56 12h-19v30h20q31 0 62 -1t62 -1h69t69 1l31 1v-30h-11q-49 0 -66 -11q-17 -10 -17 -53v-214h120q7 71 37 131t78 103.5t111 68t136 24.5q78 0 143.5 -26.5t113.5 -74t74.5 -113t26.5 -143.5zM939 322q0 80 -16.5 145t-47 111.5t-73 72 t-94.5 25.5q-58 0 -99 -26t-67 -67.5t-37.5 -94.5t-11.5 -107q0 -79 17 -144.5t48.5 -112t75.5 -72t97 -25.5q58 0 98 26.5t64.5 68.5t35 94.5t10.5 105.5z"/>
<glyph horiz-adv-x="687" glyph-name="afii10049" unicode="Я" d="M657 668q-33 0 -49 -6.5t-21 -23.5q-6 -21 -6 -58v-477q0 -24 3.5 -38.5t12.5 -22t24 -9.5t37 -2h11v-31l-29 1q-16 1 -27.5 1.5t-23 0.5h-26h-37.5h-74.5t-74.5 -2l-23 -1v31h10q43 0 60 7.5t23 27.5q3 11 5 24.5t2 28.5v200q-18 2 -35.5 1.5t-35.5 1.5 q-47 -85 -95.5 -164.5t-107.5 -157.5l-29 1l-52 1l-83 -1l-29 -1v31q23 2 36 5.5t26 14.5q33 30 70 86l137 210q-30 13 -55.5 28.5t-44 36.5t-29 48t-10.5 63q0 85 65 132.5t179 47.5q8 0 19 -0.5t31 -1.5l67 -3q32 -2 48 -2h34q23 0 50 1t47 1h13v-30h-13zM454 661 q-19 2 -29 3t-22 1q-72 0 -112 -40.5t-40 -113.5q0 -87 42.5 -120t124.5 -33h13.5t22.5 1v302z"/>
<glyph horiz-adv-x="500" glyph-name="afii10065" unicode="а" d="M305 316q0 43 -25.5 62.5t-56.5 19.5q-17 0 -34 -5.5t-25 -13.5q-9 -9 -13 -39q-1 -12 -3 -19t-5.5 -11.5t-9.5 -7t-16 -7.5q-21 -9 -38 -9q-19 0 -19 22q0 20 11.5 43t29.5 33l126 69q23 12 56 12q62 0 97 -33.5t35 -96.5v-231q0 -24 8 -39t24 -15t28 13l14 -18 q-31 -33 -54.5 -46t-51.5 -13q-66 0 -76 75q-70 -75 -154 -75q-49 0 -78 27t-29 73q0 25 8.5 44t31 35.5t61 33t99.5 36.5q11 4 25 8.5t34 11.5v61zM305 221l-13 -4q-28 -8 -51 -16.5t-41 -18.5q-20 -11 -31 -30.5t-11 -42.5q0 -29 15 -44.5t44 -15.5q32 0 50.5 14.5 t37.5 38.5v119z"/>
<glyph horiz-adv-x="537" glyph-name="afii10066" unicode="б" d="M499 222q0 -49 -18 -92t-49.5 -75t-74.5 -50.5t-92 -18.5q-57 0 -100 20.5t-71 56t-42 83.5t-14 102q0 65 11 132t35.5 123t65 95.5t99.5 48.5l168 26q28 5 36 12t16 16l15 -7q-12 -30 -22 -53t-21.5 -39t-26 -25.5t-36.5 -12.5q-18 -2 -41 -5t-45 -6t-40.5 -6t-28.5 -5 q-42 -9 -67.5 -32.5t-39.5 -54t-20 -65t-10 -66.5l2 -1q8 20 24 41.5t39 40.5t52.5 31t63.5 12q54 0 97 -17t73 -47t46 -71.5t16 -90.5zM376 200q0 27 -5 64t-17.5 70.5t-35 57t-57.5 23.5q-47 0 -74 -48.5t-27 -131.5q0 -27 4.5 -64.5t17 -71t34.5 -57t58 -23.5 q48 0 75 48.5t27 132.5z"/>
<glyph horiz-adv-x="480" glyph-name="afii10067" unicode="в" d="M450 129q0 -26 -12.5 -51.5t-34.5 -43.5q-23 -20 -53.5 -27t-77.5 -7h-255v29h9h21.5t16.5 3t10.5 10t3.5 22v321q0 15 -3.5 22t-10.5 10t-16.5 3h-21.5h-6v29h251q26 0 53 -4t49 -15.5t36 -31.5t14 -52q0 -44 -39 -73q-17 -13 -32 -19t-44 -12v-3q14 -1 23.5 -1.5t17 -2 t14.5 -3.5t17 -5q32 -11 51 -38t19 -60zM307 336q0 38 -22 60.5t-59 22.5q-9 0 -18 -0.5t-18 -1.5v-160q8 0 11 -0.5t6 -0.5q42 0 71 16.5t29 63.5zM331 124q0 52 -32 74t-80 22h-12.5t-16.5 -1v-159q0 -12 9 -20q5 -5 16 -7.5t25 -2.5q42 0 66.5 26t24.5 68z"/>
<glyph horiz-adv-x="410" glyph-name="afii10068" unicode="г" d="M188 63q0 -26 9.5 -30t33.5 -4h21v-29l-18 1q-15 1 -25 1h-20h-22h-32h-34h-23h-19t-22 -1l-23 -1v29h9h21.5t16.5 3t10.5 10t3.5 22v321q0 15 -3.5 22t-10.5 10t-16.5 3h-21.5h-9v29h389l4 -140l-26 -7q-3 33 -9.5 53.5t-21 32t-38.5 15.5t-61 4h-63v-344z"/>
<glyph horiz-adv-x="523" glyph-name="afii10069" unicode="д" d="M316 407h-52q-18 0 -29 -1.5t-18 -6.5t-10 -15t-5 -27q-3 -22 -6.5 -54t-10.5 -68.5t-17 -76t-26 -76.5q-5 -12 -5 -21q0 -8 7 -12.5t28 -4.5h101q24 0 33.5 4t9.5 30v329zM511 -157h-26l-4 23q-7 42 -18 68t-27 40.5t-39 20t-54 5.5h-167q-31 0 -55.5 -5.5t-42.5 -20 t-30.5 -40.5t-19.5 -68l-4 -23h-26l8 197h9q25 0 45.5 7.5t37.5 42.5q15 32 26.5 74.5t19 83.5t11 76.5t3.5 53.5q0 28 -14 35t-38 7h-9v29h393v-29h-9h-15q-17 0 -27 -5.5t-10 -29.5v-292q0 -18 6 -29t17 -16t25.5 -6.5t31.5 -1.5h9z"/>
<glyph horiz-adv-x="444" glyph-name="afii10070" unicode="е" d="M401 284h-270q1 -35 3.5 -55.5t11.5 -46.5q17 -48 56 -77t88 -29q38 0 64 13t52 41l16 -19q-15 -26 -35.5 -49t-45.5 -40t-53.5 -26.5t-59.5 -9.5q-41 0 -76 18.5t-60.5 50t-40 75t-14.5 92.5q0 47 16 91t45.5 77.5t70.5 53.5t90 20q44 0 83.5 -21t57.5 -63 q9 -20 11.5 -36.5t2.5 -48.5zM282 320q28 0 28 34q0 33 -19 53.5t-51 20.5q-21 0 -40.5 -10t-33.5 -27q-13 -16 -19 -29t-14 -42h149z"/>
<glyph horiz-adv-x="754" glyph-name="afii10072" unicode="ж" d="M740 1q-20 1 -33.5 1h-33.5h-19h-12.5h-11t-14.5 -1l-15 -1l-142 211q-5 8 -14.5 8.5t-14.5 0.5v-162q0 -20 10 -24q5 -2 18.5 -3.5t26.5 -1.5h4v-29l-22 1q-15 1 -23.5 1h-17h-20.5h-34h-29.5h-20t-17 -0.5t-20.5 -0.5l-22 -1v29q15 0 30.5 2t21.5 5q7 3 7 25v159 q-5 0 -14.5 -1t-14.5 -8l-142 -211l-15 1q-9 1 -14.5 1h-11h-12.5h-19h-33.5t-33.5 -1l-18 -1v29h6q20 0 38.5 16t31.5 33l147 194l-81 86q-20 21 -34.5 33.5t-27.5 18.5t-27.5 8t-35.5 2v29l15 -1q20 -2 38.5 -1.5t38.5 0.5h27.5h21.5t20.5 0.5t24.5 1.5l19 1v-30 q-22 -1 -35.5 -6.5t-13.5 -13.5q0 -4 0.5 -8.5t6 -12.5t17 -21.5t33.5 -34.5l67 -65q6 -5 16 -7.5t15 -2.5v137q0 15 -3.5 22t-10.5 10t-16.5 3h-21.5h-9v29l23 -1q13 0 21.5 -0.5t18 -0.5h22h33.5h30.5h18.5h16.5t23.5 1l23 1v-29h-18q-24 0 -33.5 -4t-9.5 -30v-138 q5 0 15 2.5t16 7.5l67 65q22 21 33.5 34.5t17 21.5t6 12.5t0.5 8.5q0 8 -13.5 13.5t-35.5 6.5v30l19 -1q14 -1 24.5 -1.5t20.5 -0.5h21.5h27.5q20 0 38.5 -0.5t38.5 1.5l15 1v-29q-21 0 -35.5 -2t-27.5 -8t-27.5 -18.5t-34.5 -33.5l-81 -86l147 -194q13 -17 31.5 -33 t38.5 -16h6v-29z"/>
<glyph horiz-adv-x="430" glyph-name="afii10073" unicode="з" d="M391 130q0 -32 -15.5 -58.5t-41.5 -45.5t-61.5 -29.5t-76.5 -10.5q-16 0 -39 4t-47.5 15.5t-48.5 30.5t-41 49l25 19q13 -15 26.5 -27.5t29.5 -21.5t36.5 -14t47.5 -5q20 0 36.5 8t28.5 20.5t19 29t7 33.5q0 33 -10.5 53.5t-33.5 32.5q-11 6 -25 8t-30 2h-6.5t-12.5 -0.5 t-13 -0.5h-9l8 37q5 0 17 -0.5t17 -0.5q22 0 37 9t24 23t13 31.5t4 34.5q0 12 -4 25t-12.5 24t-21.5 18.5t-31 7.5q-34 0 -51.5 -11.5t-27.5 -26.5q-5 -7 -8 -12.5t-5 -12.5t-4 -16t-5 -24l-25 2q2 20 1 50.5t-3 56.5q23 9 59 18.5t96 9.5q20 0 43 -2.5t43 -10.5 q30 -11 50 -33t20 -54q0 -43 -28.5 -74t-70.5 -43v-2q24 -2 46 -9.5t38.5 -22t26 -35t9.5 -49.5z"/>
<glyph glyph-name="afii10074" unicode="и" d="M234 1q-15 1 -25 1.5t-19 0.5t-21 -0.5t-32 -0.5h-34h-22.5h-18.5t-22 -1l-23 -1v29h9h21.5t16.5 3t10.5 10t3.5 22v321q0 15 -3.5 22t-10.5 10t-16.5 3h-21.5h-9v29l23 -1q13 -1 22 -1h18.5h22.5h34q20 0 32 -0.5t21 -0.5t19 0.5t25 1.5l15 1v-29h-18q-24 0 -33.5 -4 t-9.5 -30v-239l180 226v13q0 26 -9.5 30t-33.5 4h-18v29l15 -1q15 -1 25 -1.5t19 -0.5t21 0.5t32 0.5h34h22.5h18.5t22 1l23 1v-29h-9h-21.5t-16.5 -3t-10.5 -10t-3.5 -22v-321q0 -15 3.5 -22t10.5 -10t16.5 -3h21.5h9v-29l-23 1q-13 1 -22 1h-18.5h-22.5h-34q-20 0 -32 0.5 t-21 0.5t-19 -0.5t-25 -1.5l-15 -1v29h18q24 0 33.5 4t9.5 30v243l-180 -226v-17q0 -26 9.5 -30t33.5 -4h18v-29z"/>
<glyph glyph-name="afii10075" unicode="й" d="M516 1q-13 1 -22 1h-18.5h-22.5h-34q-20 0 -32 0.5t-21 0.5t-19 -0.5t-25 -1.5l-15 -1v29h18q24 0 33.5 4t9.5 30v243l-180 -226v-17q0 -26 9.5 -30t33.5 -4h18v-29l-15 1q-15 1 -25 1.5t-19 0.5t-21 -0.5t-32 -0.5h-34h-22.5h-18.5t-22 -1l-23 -1v29h9h21.5t16.5 3 t10.5 10t3.5 22v321q0 15 -3.5 22t-10.5 10t-16.5 3h-21.5h-9v29l23 -1q13 -1 22 -1h18.5h22.5h34q20 0 32 -0.5t21 -0.5t19 0.5t25 1.5l15 1v-29h-18q-24 0 -33.5 -4t-9.5 -30v-239l180 226v13q0 26 -9.5 30t-33.5 4h-18v29l15 -1q15 -1 25 -1.5t19 -0.5t21 0.5t32 0.5h34 h22.5h18.5t22 1l23 1v-29h-9h-21.5t-16.5 -3t-10.5 -10t-3.5 -22v-321q0 -15 3.5 -22t10.5 -10t16.5 -3h21.5h9v-29zM280 555q-43 0 -73 11t-49 27t-27 34t-8 32q0 7 2 15.5t7.5 16t14.5 12.5t23 5q25 0 36.5 -13t11.5 -33q0 -6 -0.5 -11.5t-0.5 -10.5q0 -13 4 -22 q6 -9 19 -20.5t40 -11.5q26 0 38.5 11t18.5 21q3 5 3.5 10.5t0.5 10.5q0 6 -0.5 11.5t-0.5 11.5q0 20 13 33t34 13q28 0 37.5 -15t9.5 -30t-8 -34t-26 -35.5t-47.5 -27.5t-72.5 -11z"/>
<glyph horiz-adv-x="525" glyph-name="afii10076" unicode="к" d="M505 1q-20 1 -33.5 1h-33.5h-19h-13h-11.5t-14.5 -1l-15 -1l-123 180q-16 23 -25.5 29.5t-22.5 6.5h-4v-158q0 -20 10 -24q5 -2 18.5 -3.5t26.5 -1.5h4v-29l-22 1q-15 1 -24 1h-18h-21h-34h-29.5h-20.5h-17.5t-21.5 -1l-22 -1v29q15 0 30.5 2t21.5 5q7 3 7 25v324 q0 15 -3.5 22t-10.5 10t-16.5 3h-21.5h-9v29l23 -1q13 -1 22 -1h18.5h22.5h34h30.5h18h15.5t23 1l23 1v-29h-14q-24 0 -33.5 -4t-9.5 -30v-138q4 0 15 1.5t19 9.5l67 64q21 20 32.5 33t17 21.5t6.5 13.5t1 9q0 8 -13 13.5t-35 6.5v30l19 -1q14 -1 24.5 -1.5t21 -0.5h22h27.5 q20 0 38.5 -0.5t38.5 1.5l15 1v-29q-21 0 -35.5 -2t-27.5 -8t-27.5 -18.5t-34.5 -33.5l-82 -86l148 -194q13 -17 31.5 -33t38.5 -16h6v-29z"/>
<glyph horiz-adv-x="510" glyph-name="afii10077" unicode="л" d="M110 420v29h383v-29h-9h-21.5t-16.5 -3t-10.5 -10t-3.5 -22v-321q0 -15 3.5 -22t10.5 -10t16.5 -3h21.5h9v-29l-23 1q-13 1 -22 1h-19h-23h-34q-20 0 -32 0.5t-22 0.5t-20 -0.5t-25 -1.5l-15 -1v29h18q24 0 33.5 4t9.5 30v342h-60q-24 0 -33 -4t-10 -30 q-2 -48 -6.5 -95.5t-12.5 -95.5q-9 -54 -23.5 -90.5t-31 -58.5t-35 -31.5t-36.5 -9.5q-32 0 -50.5 16t-18.5 39q0 29 14 42.5t33 13.5q14 0 21.5 -4t12.5 -9q6 -7 9 -9t12 -2q11 0 26.5 37t25.5 94q8 47 11.5 94t3.5 83q0 15 -3.5 22t-10.5 10t-16.5 3h-21.5h-9z"/>
<glyph horiz-adv-x="667" glyph-name="afii10078" unicode="м" d="M632 1q-26 2 -47 1.5t-51 -0.5q-29 0 -48 0.5t-50 -1.5l-15 -1v29h18q24 0 34.5 4t8.5 30l-17 263l-158 -332h-24l-155 332l-15 -234q-2 -33 7.5 -48t33.5 -15h18v-29l-15 1q-15 1 -24 1.5t-15.5 0.5t-12.5 -0.5t-15 -0.5h-14.5h-11h-13.5t-21 -1l-23 -1v29h9q24 0 38 15 t16 49l19 292q1 15 -2.5 22t-10.5 10t-17 3h-22h-9v29l23 -1q13 -1 21.5 -1h15h13h15.5h33t29 1l15 1l142 -302l144 302l15 -1q11 -1 26 -1h28q15 0 27.5 -0.5t38.5 1.5l23 1v-29h-9h-22t-17 -3t-10.5 -10t-2.5 -22l18 -321q1 -15 4.5 -22t10 -10t16 -3h21.5h9v-29z"/>
<glyph glyph-name="afii10079" unicode="н" d="M237 1q-19 2 -39 1.5t-60 -0.5h-34h-23h-19t-22 -1l-23 -1v29h9h21.5t16.5 3t10.5 10t3.5 22v321q0 15 -3.5 22t-10.5 10t-16.5 3h-21.5h-9v29l23 -1q13 -1 22 -1h19h23h34h31h19h17t24 1l23 1v-29h-18q-24 0 -33.5 -4t-9.5 -30v-130h174v130q0 26 -9.5 30t-33.5 4h-18 v29l15 -1q15 -1 25 -1.5t20 -0.5t22 0.5t32 0.5h34h23h19t22 1l23 1v-29h-9h-21.5t-16.5 -3t-10.5 -10t-3.5 -22v-321q0 -15 3.5 -22t10.5 -10t16.5 -3h21.5h9v-29l-23 1q-13 1 -22 1h-19h-23h-34q-40 0 -61 0.5t-38 -1.5l-15 -1v29h18q24 0 33.5 4t9.5 30v151h-174v-151 q0 -26 9.5 -30t33.5 -4h18v-29z"/>
<glyph glyph-name="afii10080" unicode="о" d="M277 464q52 0 96.5 -17.5t76.5 -48t50.5 -73t18.5 -93.5t-19 -96t-52 -78.5t-77.5 -52.5t-95.5 -19t-94.5 18.5t-75 50.5t-49.5 76t-18 96q0 51 18 94t50.5 75t76 50t94.5 18zM395 208q0 28 -5.5 66.5t-19.5 73t-38 58.5t-62 24q-51 0 -80.5 -49.5t-29.5 -135.5 q0 -28 5 -67t18.5 -74t38 -59.5t62.5 -24.5q51 0 81 50.5t30 137.5z"/>
<glyph glyph-name="afii10081" unicode="п" d="M539 420h-9h-21.5t-16.5 -3t-10.5 -10t-3.5 -22v-321q0 -15 3.5 -22t10.5 -10t16.5 -3h21.5h9v-29l-23 1q-13 1 -22 1h-19h-23h-34q-20 0 -32 0.5t-22 0.5t-20 -0.5t-25 -1.5l-15 -1v29h18q24 0 33.5 4t9.5 30v310q0 26 -9.5 30t-33.5 4h-88q-24 0 -33.5 -4t-9.5 -30 v-310q0 -26 9.5 -30t33.5 -4h18v-29l-15 1q-15 1 -25 1.5t-20 0.5t-22 -0.5t-32 -0.5h-34h-23h-19t-22 -1l-23 -1v29h9h21.5t16.5 3t10.5 10t3.5 22v321q0 15 -3.5 22t-10.5 10t-16.5 3h-21.5h-9v29h522v-29z"/>
<glyph glyph-name="afii10082" unicode="р" d="M184 -175q0 -15 10 -20.5t39 -5.5q2 0 11 -0.5t26 -0.5h5v-29h-15q-5 1 -10 1q-29 2 -54.5 1.5t-54.5 -0.5t-53.5 0.5t-53.5 -1.5l-25 -1v29l38 2q17 1 21.5 5t4.5 18v517q0 23 -9.5 28.5t-18.5 7.5t-16 4q-6 2 -11 3t-6 1v20q30 9 51 16t38.5 13.5t34.5 15t39 20.5l9 -6 v-63q70 64 156 64q39 0 71 -15t55 -41.5t36 -63.5t13 -81q0 -56 -20 -105.5t-54 -86t-80 -58t-98 -21.5q-42 0 -79 14v-181zM184 100q27 -35 51.5 -49.5t53.5 -14.5q52 0 82.5 45t30.5 121q0 43 -10 79t-28.5 61.5t-44 40t-55.5 14.5q-20 0 -37 -6t-43 -22v-269z"/>
<glyph horiz-adv-x="444" glyph-name="afii10083" unicode="с" d="M430 109q-21 -34 -41 -58t-42 -38t-47 -20.5t-57 -6.5q-46 0 -84.5 16t-66 44.5t-42.5 69t-15 89.5q0 54 19.5 101t54 82t81.5 55t101 20q57 0 92.5 -21t35.5 -54q0 -23 -15 -38t-38 -15q-17 0 -27 8t-24 32q-12 20 -27.5 32t-41.5 12q-23 0 -42.5 -11.5t-34 -31.5 t-22.5 -47.5t-8 -59.5q0 -36 10 -72t30.5 -65t50.5 -47t70 -18q38 0 62 15.5t50 41.5z"/>
<glyph horiz-adv-x="444" glyph-name="afii10084" unicode="т" d="M441 470q-4 -21 -7 -33.5t-4.5 -22.5t-2 -20.5t-0.5 -25.5q0 -6 0.5 -13t0.5 -17l-25 -9v9q0 37 -14.5 53t-54.5 16h-57v-344q0 -26 9.5 -30t33.5 -4h21v-29l-18 1q-15 1 -25 1h-20h-22h-32h-34h-23h-19t-22 -1l-23 -1v29h9h21.5t16.5 3t10.5 10t3.5 22v343h-45 q-43 0 -61.5 -15.5t-28.5 -59.5h-24q4 24 6.5 41t4 32t2 30.5t0.5 36.5h22q3 -15 11 -19t32 -4h282q22 0 34.5 2.5t18.5 22.5z"/>
<glyph horiz-adv-x="500" glyph-name="afii10085" unicode="у" d="M14 449l15 -1q26 -2 50.5 -2h50.5h30.5t20.5 0.5t17.5 1t20.5 0.5l22 1v-29h-6q-29 0 -38 -3t-9 -13q0 -8 6.5 -25.5t9.5 -24.5l84 -214l82 210q5 12 8 23.5t3 19.5q0 11 -6.5 16.5t-15.5 8t-19 2.5h-18h-1v29l12 -1q11 -1 19 -1.5t15.5 -0.5h16.5h23h36t33 2h3q3 0 8 1 v-29q-13 0 -18 -1t-11 -4q-7 -4 -14 -14t-13 -22t-10.5 -23.5t-7.5 -18.5l-205 -499q-16 -38 -34 -55.5t-41 -17.5q-25 0 -42 17t-17 41q0 25 16.5 42t41.5 17q6 0 16 1.5t20 5.5t19 11t13 18l29 72l-159 393q-5 14 -13 25.5t-25 11.5h-18v29z"/>
<glyph horiz-adv-x="725" glyph-name="afii10086" unicode="ф" d="M691 235q0 -52 -15.5 -97t-42 -79t-62 -53.5t-76.5 -19.5q-23 0 -41.5 5.5t-32.5 13.5v-170q0 -20 9 -28.5t31 -8.5h19v-29l-23 1q-15 1 -25.5 1h-20.5h-20.5h-26.5h-33h-20.5t-16 -0.5t-21.5 -0.5l-32 -1v29h21q24 0 33 8t9 29v170q-14 -8 -32.5 -13.5t-41.5 -5.5 q-41 0 -76.5 19.5t-62 53.5t-42 79t-15.5 97q0 51 15.5 93t41 73t59 48t69.5 17q28 0 48.5 -9.5t36.5 -18.5v192q0 17 -5 24q-4 5 -20.5 11.5t-37.5 11.5v21q44 10 86 27.5t82 37.5l12 -7v-318q16 9 36.5 18.5t48.5 9.5q36 0 69.5 -17t59 -48t41 -73t15.5 -93zM567 211 q0 115 -22.5 163.5t-64.5 48.5q-17 0 -30.5 -6t-28.5 -18v-310q7 -22 23 -44t41 -22q42 0 62 47.5t20 140.5zM304 399q-15 12 -28.5 18t-30.5 6q-42 0 -64.5 -48.5t-22.5 -163.5q0 -93 20 -140.5t62 -47.5q26 0 41.5 22t22.5 44v310z"/>
<glyph glyph-name="afii10087" unicode="х" d="M263 420h-4h-10t-14 -1.5t-12.5 -3.5t-5.5 -7q0 -10 13 -27l66 -88l73 88q13 16 13 23q0 16 -40 16h-11v29l14 -1q23 -2 45 -2h45h23t16.5 0.5t14 1t16.5 0.5l18 1v-29q-15 -1 -24.5 -1.5t-16 -1.5t-11 -2.5t-10.5 -4.5t-11 -6t-10.5 -8t-13 -13t-19.5 -22l-88 -101 l123 -170q19 -26 32.5 -43.5t36.5 -17.5h26v-29l-16 1q-16 1 -26 1.5t-19 0.5h-20h-29h-42h-27.5t-21.5 -0.5t-25 -1.5l-25 -1v29h4q29 0 37.5 1.5t8.5 8.5q0 4 -4.5 10t-15.5 20l-74 102l-73 -90q-21 -27 -21 -38q0 -14 47 -14h8v-29l-14 1q-13 1 -23 1.5t-17 0.5h-49h-24 h-16.5t-14.5 -0.5t-17 -1.5l-18 -1v29h14q15 0 26 1.5t20 6t18.5 14t22.5 24.5q2 2 14 16q10 13 31.5 38.5t62.5 73.5l-124 171q-20 28 -36 36.5t-47 9.5v29l17 -1q29 -2 58 -2h59h31t21.5 0.5t18.5 1t22 0.5l24 1v-29z"/>
<glyph horiz-adv-x="566" glyph-name="afii10088" unicode="ц" d="M554 -157h-26l-4 23q-7 42 -18 68t-27 40.5t-39 20t-54 5.5h-369v29h9h21.5t16.5 3t10.5 10t3.5 22v321q0 15 -3.5 22t-10.5 10t-16.5 3h-21.5h-9v29l23 -1q13 -1 22 -1h19h23h34q20 0 32 -0.5t22 -0.5t20 0.5t25 1.5l15 1v-29h-18q-24 0 -33.5 -4t-9.5 -30v-308 q0 -26 9.5 -30t33.5 -4h82q24 0 33.5 4t9.5 30v308q0 26 -9.5 30t-33.5 4h-18v29l15 -1q15 -1 25 -1.5t20 -0.5t22 0.5t32 0.5h34h23h19t22 1l23 1v-29h-9h-21.5t-16.5 -3t-10.5 -10t-3.5 -22v-292q0 -18 6 -29t17 -16t25.5 -6.5t31.5 -1.5h9z"/>
<glyph horiz-adv-x="520" glyph-name="afii10089" unicode="ч" d="M332 209q-28 -12 -64.5 -23t-66.5 -11q-72 0 -105 28t-33 103v79q0 15 -3.5 22t-10.5 10t-16.5 3h-21.5h-9v29l23 -1q13 -1 22 -1h19h23h34q20 0 31.5 -0.5t20.5 -0.5t18.5 0.5t24.5 1.5l15 1v-29h-14q-24 0 -33.5 -4t-9.5 -30v-50q0 -62 13.5 -85.5t55.5 -23.5 q17 0 40.5 5.5t46.5 14.5v139q0 26 -9.5 30t-33.5 4h-14v29l15 -1q15 -1 24.5 -1.5t18.5 -0.5t20.5 0.5t31.5 0.5h34h23h19t22 1l23 1v-29h-9h-21.5t-16.5 -3t-10.5 -10t-3.5 -22v-321q0 -15 3.5 -22t10.5 -10t16.5 -3h21.5h9v-29l-23 1q-13 1 -22 1h-19h-23h-34 q-20 0 -32 0.5t-22 0.5t-20 -0.5t-25 -1.5l-15 -1v29h18q24 0 33.5 4t9.5 30v146z"/>
<glyph horiz-adv-x="800" glyph-name="afii10090" unicode="ш" d="M759 1q-13 1 -22 1h-19h-23h-34h-523h-34h-23h-19t-22 -1l-23 -1v29h9h21.5t16.5 3t10.5 10t3.5 22v321q0 15 -3.5 22t-10.5 10t-16.5 3h-21.5h-9v29l23 -1q13 -1 22 -1h19h23h34h31h19h17t24 1l23 1v-29h-18q-24 0 -33.5 -4t-9.5 -30v-308q0 -26 9.5 -30t33.5 -4h66 q24 0 33.5 4t9.5 30v308q0 26 -9.5 30t-33.5 4h-14v29l15 -1q15 -1 25 -1.5t19 -0.5t21 0.5t32 0.5h31h19.5h17.5t24 1l23 1v-29h-14q-24 0 -33.5 -4t-9.5 -30v-308q0 -26 9.5 -30t33.5 -4h66q24 0 33.5 4t9.5 30v308q0 26 -9.5 30t-33.5 4h-18v29l15 -1q15 -1 25 -1.5 t20 -0.5t22 0.5t32 0.5h34h23h19t22 1l23 1v-29h-9h-21.5t-16.5 -3t-10.5 -10t-3.5 -22v-321q0 -15 3.5 -22t10.5 -10t16.5 -3h21.5h9v-29z"/>
<glyph horiz-adv-x="810" glyph-name="afii10091" unicode="щ" d="M801 -157h-26l-4 23q-7 42 -18 68t-27 40.5t-39 20t-54 5.5h-618v29h9h21.5t16.5 3t10.5 10t3.5 22v321q0 15 -3.5 22t-10.5 10t-16.5 3h-21.5h-9v29l23 -1q13 -1 22 -1h19h23h34h31h19h17t24 1l23 1v-29h-18q-24 0 -33.5 -4t-9.5 -30v-308q0 -26 9.5 -30t33.5 -4h66 q24 0 33.5 4t9.5 30v308q0 26 -9.5 30t-33.5 4h-14v29l15 -1q15 -1 25 -1.5t19 -0.5t21 0.5t32 0.5h31h20h18t24 1l22 1v-29h-14q-24 0 -33.5 -4t-9.5 -30v-308q0 -26 9.5 -30t33.5 -4h66q24 0 33.5 4t9.5 30v308q0 26 -9.5 30t-33.5 4h-18v29l15 -1q15 -1 25 -1.5t20 -0.5 t22 0.5t32 0.5h34h23h19t22 1l23 1v-29h-9h-21.5t-16.5 -3t-10.5 -10t-3.5 -22v-292q0 -18 6 -29t17 -16t25.5 -6.5t31.5 -1.5h9z"/>
<glyph horiz-adv-x="577" glyph-name="afii10092" unicode="ъ" d="M556 142q0 -67 -51 -104.5t-132 -37.5q-32 0 -62.5 1t-72.5 1h-33h-20.5h-16.5t-21 -1l-23 -1v29h9h21.5t16.5 3t10.5 10t3.5 22v343h-61q-43 0 -61.5 -15.5t-28.5 -59.5h-24q3 24 5 40.5t3.5 31.5t2.5 31t2 37h22q3 -15 11 -19t32 -4h271v-29h-18q-24 0 -33.5 -4 t-9.5 -30v-122q16 2 37.5 3t30.5 1q36 0 70.5 -6t61 -21t42.5 -39t16 -60zM437 140q0 53 -24 75t-63 22q-2 0 -9 -0.5t-15 -1.5t-15.5 -1.5t-12.5 -0.5v-158q0 -24 9.5 -32t29.5 -8q30 0 49.5 8.5t30.5 22.5t15.5 33.5t4.5 40.5z"/>
<glyph horiz-adv-x="700" glyph-name="afii10093" unicode="ы" d="M449 142q0 -67 -51 -104.5t-132 -37.5q-32 0 -62.5 1t-72.5 1h-33h-20.5h-16.5t-21 -1l-23 -1v29h9h21.5t16.5 3t10.5 10t3.5 22v321q0 15 -3.5 22t-10.5 10t-16.5 3h-21.5h-9v29l23 -1q13 -1 22 -1h19h23h34h31h19h17t24 1l23 1v-29h-18q-24 0 -33.5 -4t-9.5 -30v-122 q16 2 37.5 3t30.5 1q36 0 70.5 -6t61 -21t42.5 -39t16 -60zM330 140q0 53 -24 75t-63 22q-2 0 -9 -0.5t-15 -1.5t-15.5 -1.5t-12.5 -0.5v-158q0 -24 9.5 -32t29.5 -8q30 0 49.5 8.5t30.5 22.5t15.5 33.5t4.5 40.5zM660 1q-13 1 -22 1h-19h-23h-34q-20 0 -32 0.5t-22 0.5 t-20 -0.5t-25 -1.5l-15 -1v29h18q24 0 33.5 4t9.5 30v323q0 26 -9.5 30t-33.5 4h-18v29l15 -1q15 -1 25 -1.5t20 -0.5t22 0.5t32 0.5h34h23h19t22 1l23 1v-29h-9h-21.5t-16.5 -3t-10.5 -10t-3.5 -22v-321q0 -15 3.5 -22t10.5 -10t16.5 -3h21.5h9v-29z"/>
<glyph horiz-adv-x="470" glyph-name="afii10094" unicode="ь" d="M449 142q0 -67 -51 -104.5t-132 -37.5q-32 0 -62.5 1t-72.5 1h-33h-20.5h-16.5t-21 -1l-23 -1v29h9h21.5t16.5 3t10.5 10t3.5 22v321q0 15 -3.5 22t-10.5 10t-16.5 3h-21.5h-9v29l23 -1q13 -1 22 -1h19h23h34q20 0 32 -0.5t22 -0.5t20 0.5t25 1.5l15 1v-29h-18 q-24 0 -33.5 -4t-9.5 -30v-122q16 2 37.5 3t30.5 1q36 0 70.5 -6t61 -21t42.5 -39t16 -60zM330 140q0 53 -24 75t-63 22q-2 0 -9 -0.5t-15 -1.5t-15.5 -1.5t-12.5 -0.5v-158q0 -24 9.5 -32t29.5 -8q30 0 49.5 8.5t30.5 22.5t15.5 33.5t4.5 40.5z"/>
<glyph horiz-adv-x="444" glyph-name="afii10095" unicode="э" d="M409 205q0 -49 -16 -89.5t-44.5 -69t-66 -44.5t-81.5 -16q-28 0 -52 6.5t-45.5 20.5t-41 38t-40.5 58l18 15q26 -26 50 -41.5t62 -15.5q33 0 59.5 12.5t46 33.5t32 48.5t18.5 57.5h-177v38h182v12q0 32 -10 61.5t-27.5 52t-41.5 35.5t-51 13q-43 0 -65 -13t-32 -28 q-5 -7 -8 -12.5t-5 -12.5t-4 -16t-5 -24l-25 2q2 20 1 50.5t-3 56.5q28 11 63 21t83 10q47 0 88 -20.5t72 -55.5t48.5 -82.5t17.5 -101.5z"/>
<glyph horiz-adv-x="778" glyph-name="afii10096" unicode="ю" d="M498 464q52 0 96.5 -17.5t76.5 -48t50.5 -73t18.5 -93.5t-19 -96t-52 -78.5t-77.5 -52.5t-95.5 -19q-49 0 -91.5 17t-74 47.5t-50.5 72.5t-21 91h-68v-151q0 -26 9.5 -30t33.5 -4h18v-29l-15 1q-15 1 -25 1.5t-20 0.5t-22 -0.5t-32 -0.5h-34h-23h-19t-22 -1l-23 -1v29h9 h21.5t16.5 3t10.5 10t3.5 22v321q0 15 -3.5 22t-10.5 10t-16.5 3h-21.5h-9v29l23 -1q13 -1 22 -1h19h23h34q20 0 32 -0.5t22 -0.5t20 0.5t25 1.5l15 1v-29h-18q-24 0 -33.5 -4t-9.5 -30v-130h70q5 45 25 83t51.5 66t72.5 43.5t88 15.5zM616 208q0 28 -5.5 66.5t-19.5 73 t-38 58.5t-62 24q-51 0 -80.5 -49.5t-29.5 -135.5q0 -28 5 -67t18.5 -74t38 -59.5t62.5 -24.5q51 0 81 50.5t30 137.5z"/>
<glyph horiz-adv-x="500" glyph-name="afii10097" unicode="я" d="M462 1q-13 0 -22 0.5t-19 0.5h-23h-34q-20 0 -32 0.5t-22 0.5t-20 -0.5t-25 -1.5l-15 -1v29h18q24 0 33.5 4t9.5 30v141q-11 2 -15 1.5t-16 0.5q-29 -54 -59.5 -104.5t-68.5 -101.5l-15 1q-9 1 -14.5 1h-10.5h-12h-19h-33.5t-33.5 -1l-18 -1v29h6q20 0 39.5 16t30.5 33 l94 144q-38 17 -63.5 42t-25.5 71q0 55 41.5 86t114.5 31q28 0 66.5 -2t64.5 -3h34h23t19 0.5t22 0.5l24 1v-29h-10h-21.5t-16.5 -3t-10.5 -10t-3.5 -22v-321q0 -15 3.5 -22t10.5 -10t16.5 -3h21.5h10v-29zM311 411q-11 2 -16.5 2h-12.5q-42 0 -65 -22.5t-23 -64.5 q0 -50 25 -68.5t72 -18.5h7.5t12.5 1v171z"/>
<glyph horiz-adv-x="444" glyph-name="afii10071" unicode="ё" d="M391 623q0 -25 -17 -42t-42 -17t-42 17t-17 42q0 24 17 41.5t42 17.5t42 -17.5t17 -41.5zM67 623q0 24 17 41.5t42 17.5q24 0 41.5 -17.5t17.5 -41.5q0 -25 -17.5 -42t-41.5 -17q-25 0 -42 17t-17 42zM401 284h-270q1 -35 3.5 -55.5t11.5 -46.5q17 -48 56 -77t88 -29 q38 0 64 13t52 41l16 -19q-15 -26 -35.5 -49t-45.5 -40t-53.5 -26.5t-59.5 -9.5q-41 0 -76 18.5t-60.5 50t-40 75t-14.5 92.5q0 47 16 91t45.5 77.5t70.5 53.5t90 20q44 0 83.5 -21t57.5 -63q9 -20 11.5 -36.5t2.5 -48.5zM282 320q28 0 28 34q0 33 -19 53.5t-51 20.5 q-21 0 -40.5 -10t-33.5 -27q-13 -16 -19 -29t-14 -42h149z"/>
<glyph horiz-adv-x="500" glyph-name="afii10099" unicode="ђ" d="M349 241q0 87 -75 87q-28 0 -47 -10t-42 -25v-237q0 -14 4.5 -19t18.5 -6q26 -2 30.5 -2h6.5h1v-29l-15 1q-15 1 -25 1.5t-20 0.5t-22 -0.5t-32 -0.5h-34h-23t-19 -0.5t-22 -0.5l-24 -1v29h10q34 0 43 5t9 30v424h-64v49h64v103q0 11 -8 17q-7 5 -23 11t-33 10v20 q28 8 48.5 14t38.5 12.5t37 16t44 22.5l9 -5v-221h218v-49h-218v-160q37 26 76 49.5t87 23.5q51 0 83 -33t32 -84v-219q0 -39 -12.5 -76t-43.5 -63q-14 -12 -24.5 -19.5t-22.5 -14t-28.5 -13.5t-43.5 -17l-7 27q14 6 22.5 10.5t14 8t9 7t7.5 9.5q8 9 11.5 27t3.5 38v252z "/>
<glyph horiz-adv-x="410" glyph-name="afii10100" unicode="ѓ" d="M188 63q0 -26 9.5 -30t33.5 -4h21v-29l-18 1q-15 1 -25 1h-20h-22h-32h-34h-23h-19t-22 -1l-23 -1v29h9h21.5t16.5 3t10.5 10t3.5 22v321q0 15 -3.5 22t-10.5 10t-16.5 3h-21.5h-9v29h389l4 -140l-26 -7q-3 33 -9.5 53.5t-21 32t-38.5 15.5t-61 4h-63v-344zM114 552 l147 148q24 24 45 24q14 0 23.5 -9.5t9.5 -23.5q0 -22 -31 -42l-154 -97h-40z"/>
<glyph horiz-adv-x="444" glyph-name="afii10101" unicode="є" d="M422 109q-21 -34 -40.5 -58t-41 -38t-45 -20.5t-52.5 -6.5q-43 0 -81 16t-66.5 44.5t-44.5 69t-16 89.5q0 54 17.5 101.5t48.5 82.5t72 55.5t88 20.5q48 0 83 -10t63 -21q-2 -26 -3 -56.5t1 -50.5l-25 -2q-3 15 -5 24t-4 16t-5 12.5t-8 12.5q-10 15 -32 28t-65 13 q-27 0 -51 -13t-41.5 -35.5t-27.5 -52t-10 -61.5v-12h182v-38h-177q6 -30 18.5 -57.5t32 -48.5t46 -33.5t59.5 -12.5q38 0 62 15.5t50 41.5z"/>
<glyph horiz-adv-x="389" glyph-name="afii10102" unicode="ѕ" d="M321 441q-2 -26 -3 -56.5t1 -50.5l-25 -2q-3 15 -5 24t-4 16t-5 12.5t-8 12.5q-10 15 -28 24t-39 9q-30 0 -50 -18t-20 -45q0 -31 19 -47.5t44 -30.5q13 -7 19 -10.5t10.5 -5.5t10 -5t18.5 -10q85 -44 85 -126q0 -66 -47 -106t-124 -40q-32 0 -60 6.5t-57 18.5 q0 29 -2 57t-6 57l28 2q6 -49 32 -77.5t66 -28.5q32 0 52 18t20 47q0 18 -7.5 31t-19.5 22.5t-26.5 17.5t-28.5 15q-11 5 -20.5 10.5t-17.5 10.5q-77 47 -77 130q0 64 43.5 102.5t115.5 38.5q59 0 116 -23z"/>
<glyph horiz-adv-x="278" glyph-name="afii10103" unicode="і" d="M203 664q0 -26 -18.5 -43.5t-44.5 -17.5t-44 17.5t-18 43.5t18 44t44 18t44.5 -18t18.5 -44zM192 462v-406q0 -14 8.5 -20.5t22.5 -6.5h32v-29l-16 1q-15 1 -25 1.5t-20 0.5t-22.5 -0.5t-32.5 -0.5h-35.5h-23.5t-19 -0.5t-23 -0.5l-24 -1v29l32 1q20 1 26.5 7.5t6.5 26.5 v281q0 12 -8 19q-9 7 -26.5 12.5t-28.5 7.5v21q26 6 44.5 11t36.5 11.5t37.5 16t47.5 24.5z"/>
<glyph horiz-adv-x="278" glyph-name="afii10104" unicode="ї" d="M192 462v-406q0 -14 8.5 -20.5t22.5 -6.5h32v-29l-16 1q-15 1 -25 1.5t-20 0.5t-22.5 -0.5t-32.5 -0.5h-35.5h-23.5t-19 -0.5t-23 -0.5l-24 -1v29l32 1q20 1 26.5 7.5t6.5 26.5v281q0 12 -8 19q-9 7 -26.5 12.5t-28.5 7.5v21q26 6 44.5 11t36.5 11.5t37.5 16t47.5 24.5z M302 663q0 -25 -17 -42t-42 -17t-42 17t-17 42q0 24 17 41.5t42 17.5t42 -17.5t17 -41.5zM-22 663q0 24 17 41.5t42 17.5q24 0 41.5 -17.5t17.5 -41.5q0 -25 -17.5 -42t-41.5 -17q-25 0 -42 17t-17 42z"/>
<glyph horiz-adv-x="278" glyph-name="afii10105" unicode="ј" d="M203 664q0 -26 -18.5 -43.5t-44.5 -17.5t-44 17.5t-18 43.5t18 44t44 18t44.5 -18t18.5 -44zM12 -211q14 6 22.5 10.5t14 8t9 7t7.5 9.5q8 9 12 27t4 38v448q0 14 -4.5 22t-13 12.5t-19.5 6.5t-23 5v23q24 7 44.5 13.5t40 13.5t38.5 15.5t41 20.5l9 -4v-500 q0 -39 -12.5 -76t-43.5 -63q-14 -12 -24.5 -19.5t-22.5 -14t-28.5 -13.5t-43.5 -17z"/>
<glyph horiz-adv-x="703" glyph-name="afii10106" unicode="љ" d="M680 132q0 -64 -51 -98t-132 -34q-22 0 -52.5 1t-72.5 1q-16 0 -38 0.5t-53 -1.5l-23 -1v29h18q24 0 33.5 4t9.5 30v342h-60q-24 0 -33 -4t-10 -30q-2 -48 -6.5 -95.5t-12.5 -95.5q-9 -54 -23.5 -90.5t-31 -58.5t-35 -31.5t-36.5 -9.5q-32 0 -50.5 16t-18.5 39 q0 29 14 42.5t33 13.5q14 0 21.5 -4t12.5 -9q6 -7 9 -9t12 -2q11 0 26.5 37t25.5 94q8 47 11.5 94t3.5 83q0 15 -3.5 22t-10.5 10t-16.5 3h-21.5h-9v29h383v-29h-18q-24 0 -33.5 -4t-9.5 -30v-129h58q97 0 143.5 -29.5t46.5 -95.5zM561 130q0 38 -22.5 64t-84.5 26h-22v-145 q0 -24 12.5 -32t24.5 -8q54 0 73 27.5t19 67.5z"/>
<glyph horiz-adv-x="722" glyph-name="afii10107" unicode="њ" d="M701 132q0 -64 -51 -98t-132 -34q-16 0 -29.5 0.5t-28 0.5t-30.5 0.5t-37 0.5q-20 0 -32 0.5t-22 0.5t-20 -0.5t-25 -1.5l-15 -1v29h18q24 0 33.5 4t9.5 30v157h-154v-157q0 -26 9.5 -30t33.5 -4h18v-29l-15 1q-15 1 -25 1.5t-20 0.5t-22 -0.5t-32 -0.5h-34h-23h-19 t-22 -1l-23 -1v29h9h21.5t16.5 3t10.5 10t3.5 22v321q0 15 -3.5 22t-10.5 10t-16.5 3h-21.5h-9v29l23 -1q13 -1 22 -1h19h23h34q20 0 32 -0.5t22 -0.5t20 0.5t25 1.5l15 1v-29h-18q-24 0 -33.5 -4t-9.5 -30v-128h154v128q0 26 -9.5 30t-33.5 4h-18v29l15 -1q15 -1 25.5 -1.5 t21 -0.5t23 0.5t32.5 0.5t33 -0.5t23.5 -0.5t21 0.5t25.5 1.5l15 1v-29h-18q-24 0 -33.5 -4t-9.5 -30v-129h58q97 0 143.5 -29.5t46.5 -95.5zM582 130q0 38 -22.5 64t-84.5 26h-22v-145q0 -24 12.5 -32t24.5 -8q54 0 73 27.5t19 67.5z"/>
<glyph glyph-name="afii10108" unicode="ћ" d="M410 488h-218v-160q37 26 76 49.5t87 23.5q51 0 83 -33t32 -84v-226q0 -8 0.5 -12t2.5 -8q2 -5 14 -7t38 -2h6v-29l-15 1q-15 1 -24.5 1.5t-19.5 0.5t-22 -0.5t-32 -0.5h-33.5h-22h-18.5t-22 -1l-23 -1v29h11q28 0 38 6q5 2 6.5 8t1.5 20v178q0 87 -75 87q-28 0 -47 -10 t-42 -25v-237q0 -14 4.5 -19t18.5 -6q26 -2 30.5 -2h6.5h1v-29l-15 1q-15 1 -25 1.5t-20 0.5t-22 -0.5t-32 -0.5h-34h-23t-19 -0.5t-22 -0.5l-24 -1v29h10q34 0 43 5t9 30v424h-64v49h64v103q0 11 -8 17q-7 5 -23 11t-33 10v20q28 8 48.5 14t38.5 12.5t37 16t44 22.5l9 -5 v-221h218v-49z"/>
<glyph horiz-adv-x="525" glyph-name="afii10109" unicode="ќ" d="M174 552l147 148q24 24 45 24q14 0 23.5 -9.5t9.5 -23.5q0 -22 -31 -42l-154 -97h-40zM505 1q-20 1 -33.5 1h-33.5h-19h-13h-11.5t-14.5 -1l-15 -1l-123 180q-16 23 -25.5 29.5t-22.5 6.5h-4v-158q0 -20 10 -24q5 -2 18.5 -3.5t26.5 -1.5h4v-29l-22 1q-15 1 -24 1h-18 h-21h-34h-29.5h-20.5h-17.5t-21.5 -1l-22 -1v29q15 0 30.5 2t21.5 5q7 3 7 25v324q0 15 -3.5 22t-10.5 10t-16.5 3h-21.5h-9v29l23 -1q13 -1 22 -1h18.5h22.5h34h30.5h18h15.5t23 1l23 1v-29h-14q-24 0 -33.5 -4t-9.5 -30v-138q4 0 15 1.5t19 9.5l67 64q21 20 32.5 33 t17 21.5t6.5 13.5t1 9q0 8 -13 13.5t-35 6.5v30l19 -1q14 -1 24.5 -1.5t21 -0.5h22h27.5q20 0 38.5 -0.5t38.5 1.5l15 1v-30q-21 0 -35.5 -1.5t-27.5 -7.5t-27.5 -18.5t-34.5 -33.5l-82 -86l148 -194q13 -17 31.5 -33t38.5 -16h6v-29z"/>
<glyph horiz-adv-x="500" glyph-name="afii10110" unicode="ў" d="M270 555q-43 0 -73 11t-49 27t-27 34t-8 32q0 7 2 15.5t7.5 16t14.5 12.5t23 5q25 0 36.5 -13t11.5 -33q0 -6 -0.5 -11.5t-0.5 -10.5q0 -13 4 -22q6 -9 19 -20.5t40 -11.5q26 0 38.5 11t18.5 21q3 5 3.5 10.5t0.5 10.5q0 6 -0.5 11.5t-0.5 11.5q0 20 13 33t34 13 q28 0 37.5 -15t9.5 -30t-8 -34t-26 -35.5t-47.5 -27.5t-72.5 -11zM14 449l15 -1q26 -2 50.5 -2h50.5h30.5t20.5 0.5t17.5 1t20.5 0.5l22 1v-29h-6q-29 0 -38 -3t-9 -13q0 -8 6.5 -25.5t9.5 -24.5l84 -214l82 210q5 12 8 23.5t3 19.5q0 11 -6.5 16.5t-15.5 8t-19 2.5h-18h-1 v29l12 -1q11 -1 19 -1.5t15.5 -0.5h16.5h23h36t33 2h3q3 0 8 1v-29q-13 0 -18 -1t-11 -4q-7 -4 -14 -14t-13 -22t-10.5 -23.5t-7.5 -18.5l-205 -499q-16 -38 -34 -55.5t-41 -17.5q-25 0 -42 17t-17 41q0 25 16.5 42t41.5 17q6 0 16 1.5t20 5.5t19 11t13 18l29 72l-159 393 q-5 14 -13 25.5t-25 11.5h-18v29z"/>
<glyph glyph-name="afii10193" unicode="џ" d="M391 0q-26 0 -43 -7.5t-28 -25t-18 -47t-14 -73.5h-20q-7 44 -14 73.5t-18 47t-28 25t-43 7.5h-148v29h9h21.5t16.5 3t10.5 10t3.5 22v321q0 15 -3.5 22t-10.5 10t-16.5 3h-21.5h-9v29l23 -1q13 -1 22 -1h19h23h34q20 0 32 -0.5t22 -0.5t20 0.5t25 1.5l15 1v-29h-18 q-24 0 -33.5 -4t-9.5 -30v-308q0 -26 9.5 -30t33.5 -4h88q24 0 33.5 4t9.5 30v308q0 26 -9.5 30t-33.5 4h-18v29l15 -1q15 -1 25 -1.5t20 -0.5t22 0.5t32 0.5h34h23h19t22 1l23 1v-29h-9h-21.5t-16.5 -3t-10.5 -10t-3.5 -22v-321q0 -15 3.5 -22t10.5 -10t16.5 -3h21.5h9v-29 h-148z"/>
<glyph horiz-adv-x="536" glyph-name="afii10050" unicode="Ґ" d="M237 91q0 -36 17 -48t69 -12h23v-31l-23 1q-38 2 -74.5 2h-74.5h-42h-28.5t-24.5 -0.5t-30 -1.5l-30 -1v31h16q40 0 57 12t17 40v511q0 44 -16 59.5t-61 15.5h-15v29l69 -1l83 -2l206 2q29 0 50 6t36.5 19.5t26.5 37t20 58.5l25 -4q-6 -40 -12 -75.5t-11 -83.5l-39 1 q-46 2 -68 2h-41q-11 0 -20.5 -0.5t-22.5 -0.5t-32 -0.5t-50 -0.5v-565z"/>
<glyph horiz-adv-x="410" glyph-name="afii10098" unicode="ґ" d="M393 407h-205v-344q0 -26 9.5 -30t33.5 -4h21v-29l-18 1q-15 1 -25 1h-20h-22h-32h-34h-23h-19t-22 -1l-23 -1v29h9h21.5t16.5 3t10.5 10t3.5 22v321q0 15 -3.5 22t-10.5 10t-16.5 3h-21.5h-9v29h240q39 0 63 6.5t38 19.5t20.5 32.5t10.5 45.5l24 -6z"/>
</font>
</defs>
</svg>
