<?xml version="1.0" encoding="UTF-8" standalone="no"?>
<!DOCTYPE svg  PUBLIC '-//W3C//DTD SVG 1.1//EN'  'http://www.w3.org/Graphics/SVG/1.1/DTD/svg11.dtd'>
<svg version="1.1" xmlns="http://www.w3.org/2000/svg">
<defs>
<font id="SabonLTCYR-BoldItalic" horiz-adv-x="556">
<font-face unicode-range="U+0020-0491" cap-height="698" font-weight="700" slope="-10" x-height="461" font-style="italic" units-per-em="1000" bbox="-141 -250 1147 930" underline-thickness="50" underline-position="-150" ascent="800" panose-1="0 0 0 0 0 0 0 0 0 0" font-family="R" descent="-200"/>
<missing-glyph/>
<glyph glyph-name="space" unicode=" " horiz-adv-x="278"/>
<glyph glyph-name="exclam" unicode="!" horiz-adv-x="333" d="M170 510q2 24 3.5 38.5t3 24.5t3.5 19t5 22q19 71 79 71q31 0 48.5 -18t17.5 -50q0 -44 -34 -122l-125 -290l-25 2zM208 60q0 -31 -21.5 -52.5t-52.5 -21.5t-52.5 21.5t-21.5 52.5t21.5 52.5t52.5 21.5t52.5 -21.5t21.5 -52.5z"/>
<glyph glyph-name="quotedbl" unicode='&quot;' horiz-adv-x="519" d="M197 660q1 7 4 21t5 21q5 16 18 25.5t29 9.5q20 0 33.5 -13t13.5 -31q0 -13 -6 -28.5t-11 -27.5l-80 -211h-37zM361 660q3 13 6 26.5t8.5 25t15.5 18.5t27 7q20 0 33.5 -13t13.5 -33q0 -11 -3.5 -21t-14.5 -33l-100 -209h-37z"/>
<glyph glyph-name="numbersign" unicode="#" d="M0 0l89 188h-96l23 47h95l70 150h-95l22 47h96l88 190h78l-88 -190h107l88 190h79l-89 -190h96l-23 -47h-95l-70 -150h96l-23 -47h-96l-88 -188h-78l88 188h-107l-88 -188h-79zM366 385h-106l-70 -150h107z"/>
<glyph glyph-name="dollar" unicode="$" d="M376 713q21 -2 38.5 -6.5t42.5 -12.5q5 -2 12.5 -4.5t13.5 -2.5q13 0 16 14l24 -2q-6 -30 -10.5 -52t-7.5 -41t-6 -39.5t-7 -47.5l-29 -3l1.5 16.5t0.5 13.5q0 54 -22.5 86t-73.5 43l-45 -247q8 -7 13 -12.5t9 -9.5q37 -36 61.5 -64.5t39 -54t20.5 -49.5t6 -51 q0 -49 -18.5 -86t-50 -62.5t-73 -38.5t-86.5 -14l-16 -87h-36l17 89q-17 3 -30 5.5t-25.5 6.5t-27.5 10.5t-36 16.5l-37 -34l-21 5q6 33 9.5 56.5t6.5 46t5.5 46.5t5.5 58l29 2v-11q0 -72 32.5 -115t94.5 -52l49 270q-26 25 -50 49t-43 51t-30 58t-11 69q0 41 15 75 t42.5 58.5t66 39t86.5 15.5l10 53h34zM335 677q-43 -5 -73.5 -28.5t-30.5 -72.5q0 -37 19.5 -64t43.5 -52zM252 29q53 5 82 34.5t29 76.5q0 44 -19.5 72t-48.5 57z"/>
<glyph glyph-name="percent" unicode="%" horiz-adv-x="1000" d="M248 -31l471 762h56l-471 -762h-56zM320 706q69 0 111 -39.5t42 -105.5q0 -43 -15 -79.5t-41.5 -63t-63 -41.5t-79.5 -15q-71 0 -111 39t-40 108q0 43 14.5 79t41 62.5t62.5 41t79 14.5zM270 394q35 0 56.5 27.5t35.5 86.5q6 26 10 55t4 43q0 30 -15 49t-40 19 q-29 0 -49 -25t-32 -59.5t-17 -70t-5 -56.5q0 -32 14 -50.5t38 -18.5zM757 334q69 0 111 -39.5t42 -105.5q0 -43 -15 -79.5t-41.5 -63t-63 -41.5t-79.5 -15q-71 0 -111 39t-40 108q0 43 14.5 79t41 62.5t62.5 41t79 14.5zM707 22q35 0 56.5 27.5t35.5 86.5q6 26 10 55t4 43 q0 30 -15 49t-40 19q-29 0 -49 -25t-32 -59.5t-17 -70t-5 -56.5q0 -32 14 -50.5t38 -18.5z"/>
<glyph glyph-name="ampersand" unicode="&amp;" horiz-adv-x="889" d="M420 526q25 24 41.5 42t26 32t13.5 26t4 24q0 6 -0.5 12.5t-1.5 12.5q-1 4 -2 11t-1 11q0 20 14 33t37 13q21 0 33 -13t12 -36q0 -29 -26 -64.5t-86 -91.5l-141 -131q-45 -42 -76.5 -73.5t-51 -55.5t-28.5 -42.5t-9 -36.5q0 -22 14 -41.5t38.5 -33.5t57 -22.5t69.5 -8.5 q64 0 121.5 20t96.5 57q29 27 48 64t33 95q2 10 5 24t3 24q0 12 -10.5 21t-19.5 16q-19 14 -31.5 20t-26.5 6q-25 0 -43 -17.5t-18 -40.5q0 -14 6 -21t24 -12q34 -10 34 -39q0 -20 -15 -32.5t-39 -12.5q-30 0 -49 19.5t-19 48.5t15 59.5t43 56.5q29 28 63.5 43.5t66.5 15.5 q48 0 100 -57q38 -41 56.5 -55.5t32.5 -14.5q12 0 21.5 8t9.5 19q0 14 -14 27q-11 11 -15.5 19t-4.5 19q0 17 11 27.5t28 10.5q21 1 34 -16.5t13 -45.5q0 -48 -44 -89q-23 -22 -49.5 -33.5t-51.5 -11.5t-42.5 14.5t-34.5 30.5q-5 -42 -10 -72.5t-13 -55.5t-19.5 -48 t-29.5 -51q-45 -72 -117.5 -110t-166.5 -38q-58 0 -108 17t-87 50t-57.5 80.5t-20.5 108.5q0 114 86 211q84 92 176 92q45 0 71 -38zM144 240q16 24 29.5 40t30 33.5t39 39.5t58.5 58l17 17q1 3 1 6q0 46 -52 46q-26 0 -50.5 -14t-43 -37.5t-29.5 -54.5t-11 -65 q0 -39 11 -69z"/>
<glyph glyph-name="quotesingle" unicode="&apos;" horiz-adv-x="278" d="M167 660q2 13 5 23.5t5 18.5q5 16 17.5 25.5t29.5 9.5q20 0 33.5 -13t13.5 -33q0 -8 -2.5 -17t-5.5 -17t-6 -13.5t-3 -6.5l-96 -209h-37z"/>
<glyph glyph-name="parenleft" unicode="(" horiz-adv-x="333" d="M371 693q-55 -55 -98 -121t-71.5 -139t-43.5 -150t-15 -155q0 -88 19.5 -166t51.5 -159l-48 -19q-44 81 -64.5 173.5t-20.5 184.5q0 60 9 120t28 119q17 53 34.5 94t41.5 79.5t58 79.5t82 93z"/>
<glyph glyph-name="parenright" unicode=")" horiz-adv-x="333" d="M-36 -183q56 55 98.5 121.5t71 139t43.5 150t15 155.5q0 47 -4.5 87t-13.5 78t-22 77t-30 82l47 20q43 -80 64 -174t21 -184q0 -123 -37 -240q-17 -52 -34.5 -93.5t-41.5 -80t-57.5 -79t-82.5 -92.5z"/>
<glyph glyph-name="asterisk" unicode="*" horiz-adv-x="463" d="M284 566v69q0 38 9.5 54t32.5 16q19 0 31 -10t12 -26q0 -14 -12.5 -34t-36.5 -51l-18 -23zM253 545l-13 3q-63 14 -87.5 28t-24.5 37q0 17 12.5 30t27.5 13q9 0 21 -7q11 -6 22 -19t33 -45l18 -26zM317 544l12 4q46 15 65.5 20.5t33.5 5.5q17 0 26.5 -10.5t9.5 -29.5 q0 -17 -10.5 -28.5t-26.5 -11.5q-24 0 -110 31v19zM264 508l-6 -9q-19 -28 -32 -45.5t-22.5 -27t-17.5 -12.5t-18 -3q-13 0 -26 13q-13 15 -13 32q0 8 4.5 15.5t11.5 12.5q9 6 28.5 13t60.5 18l21 6zM303 506l9 -13q17 -24 27.5 -39.5t16.5 -26t8 -18t2 -15.5 q0 -16 -11.5 -26t-29.5 -10q-22 0 -31.5 12t-9.5 40q0 10 1 31t1 45v16z"/>
<glyph glyph-name="plus" unicode="+" d="M232 213h-212v90h212v212h90v-212h214v-90h-214v-213h-90v213z"/>
<glyph glyph-name="comma" unicode="," horiz-adv-x="278" d="M-25 -124q30 3 56 11.5t45 21.5t30 29t11 33q0 25 -31 34q-23 7 -33 16q-8 7 -12.5 19t-4.5 26q0 32 19.5 51t51.5 19q41 0 65 -27.5t24 -75.5q0 -42 -19.5 -78.5t-54.5 -61.5q-15 -11 -28.5 -19t-29 -13t-34.5 -9t-46 -8z"/>
<glyph glyph-name="hyphen" unicode="-" horiz-adv-x="370" d="M80 285q17 -1 27.5 -1.5t20.5 -0.5t22.5 0.5t31.5 0.5h46.5h30t23 0.5t25.5 0.5l28 1q-4 -13 -7 -23t-5 -19t-4 -19.5t-5 -24.5l-19 1q-19 1 -31 1.5t-24.5 0.5h-29h-44.5h-33h-23.5t-20.5 -0.5t-25 -1.5l-26 -1q5 14 8.5 24t6 19.5t5 19.5t5.5 23z"/>
<glyph glyph-name="period" unicode="." horiz-adv-x="278" d="M190 60q0 -31 -21.5 -52.5t-52.5 -21.5t-52.5 21.5t-21.5 52.5t21.5 52.5t52.5 21.5t52.5 -21.5t21.5 -52.5z"/>
<glyph glyph-name="slash" unicode="/" horiz-adv-x="333" d="M324 707h64l-338 -715h-64z"/>
<glyph glyph-name="zero" unicode="0" d="M364 702q36 0 71.5 -16t58.5 -43q55 -66 55 -203q0 -44 -7 -95t-22.5 -101t-39 -96.5t-57 -82t-77 -56.5t-98.5 -21q-94 0 -144.5 65.5t-50.5 189.5q0 45 7.5 96.5t24 102.5t41.5 98t59.5 83t79 57.5t99.5 21.5zM249 25q31 0 53 14.5t37.5 37t25.5 49.5t18 52 q29 92 42.5 172.5t13.5 162.5q0 21 -1.5 47t-9.5 49t-23.5 38.5t-44.5 15.5q-42 0 -71.5 -27.5t-53.5 -87.5q-35 -90 -54 -186.5t-19 -193.5q0 -23 2.5 -48t11.5 -46t26 -35t47 -14z"/>
<glyph glyph-name="one" unicode="1" d="M128 530q39 22 78 43t77 44q61 38 90 56t40 24.5t11.5 7t4.5 2.5l13 -6q-6 -21 -9 -36.5t-7 -35.5t-9 -49.5t-14 -79.5l-38 -212q-18 -100 -26 -152.5t-8 -69.5q0 -15 11.5 -22.5t27 -10.5t32 -2.5t25.5 0.5h21l-5 -31l-24 1q-24 1 -39 1.5t-31 0.5t-36.5 -0.5 t-55.5 -0.5h-45.5h-31h-26.5t-33 -1l-34 -1l4 31l54 1q17 0 35 4.5t25 23.5q6 17 48 243l49 263v1q0 8 -6 8q-2 0 -10 -3l-144 -74z"/>
<glyph glyph-name="two" unicode="2" d="M454 110l37 71l31 -7l-49 -174q-6 1 -15 1h-8q-12 0 -29.5 0.5t-37.5 1t-42 1t-42 0.5q-57 0 -113 -1t-113 -2l-64 -1l10 42l19 16q13 11 32 28t43 40q48 45 87.5 85.5t71.5 77.5q48 56 74 113.5t26 108.5t-31.5 83t-82.5 32q-48 0 -80 -20.5t-65 -52.5l-20 28 q61 63 117.5 92t113.5 29q74 0 122 -40.5t48 -117.5q0 -56 -24.5 -106t-81.5 -110q-30 -31 -53.5 -55t-49.5 -47.5t-58 -50.5t-78 -65h305z"/>
<glyph glyph-name="three" unicode="3" d="M16 100l49 20q21 -44 56 -68.5t77 -24.5q34 0 62.5 14.5t49.5 40t32.5 61t11.5 77.5q0 127 -125 127q-13 0 -24 -0.5t-19 -1.5l11 36q17 1 28.5 2.5t21 3.5t19 5t21.5 8q45 18 72.5 57.5t27.5 84.5q0 47 -26.5 73t-74.5 26q-42 0 -70.5 -14t-61.5 -39l-17 29 q100 84 205 84q32 0 61 -7.5t51 -23.5t35.5 -41t13.5 -60q0 -72 -56 -123q-13 -12 -25 -21t-25.5 -17t-31 -16t-43.5 -18q35 -1 64 -12t50.5 -30t33.5 -46t12 -62q0 -48 -22.5 -91.5t-61.5 -75.5t-91 -51t-110 -19q-42 0 -82.5 9t-77.5 27z"/>
<glyph glyph-name="four" unicode="4" d="M513 700l-74 -412h108l-16 -83h-107l-39 -205h-108l38 203h-292l5 48l428 449h57zM383 568l-263 -280h210z"/>
<glyph glyph-name="five" unicode="5" d="M65 123q13 -43 48 -68.5t82 -25.5q31 0 57.5 12t45.5 33.5t30 50.5t11 63q0 40 -16 74t-41.5 61.5t-57.5 50t-64 40.5l111 275l20 -1q31 -2 62 -2h62h41.5t27 0.5t22 1t25.5 0.5l28 1l-37 -103h-249l-35 -89q39 -21 78 -48.5t69.5 -61.5t49.5 -75.5t19 -90.5t-19.5 -92 t-54 -74.5t-81 -49.5t-100.5 -18q-45 0 -82.5 10t-77.5 31l-20 74z"/>
<glyph glyph-name="six" unicode="6" d="M559 675q-40 -11 -69.5 -21.5t-54 -24t-47.5 -31.5t-51 -44q-78 -73 -120.5 -168.5t-42.5 -201.5q0 -160 104 -160q52 0 79 40q18 29 28.5 70t10.5 86q0 121 -89 121q-18 0 -35 -4t-40 -14l10 39q55 26 109 26q74 0 119 -46t45 -122q0 -50 -18.5 -92.5t-51.5 -74 t-77.5 -49t-96.5 -17.5q-48 0 -87 15.5t-66.5 44.5t-42.5 69.5t-15 91.5q0 103 46.5 196.5t131.5 162.5q36 29 66.5 49t65 36t78 29t103.5 27z"/>
<glyph glyph-name="seven" unicode="7" d="M133 512h-29q6 16 10.5 28.5t9 27.5t10 36.5t13.5 56.5l6 25h24q20 0 36 -0.5t32 -0.5t33.5 -0.5t38.5 -0.5h49h55t46 0.5t43.5 1t46.5 1.5l46 2v-14l-449 -706l-50 23l379 587h-313z"/>
<glyph glyph-name="eight" unicode="8" d="M222 356q-24 26 -40 47t-26.5 41t-15 40t-4.5 42q0 39 15 70.5t42.5 54.5t66 35.5t84.5 12.5q89 0 142 -38.5t53 -102.5q0 -37 -16.5 -66t-42 -52t-56 -40.5t-59.5 -31.5l16 -15q56 -53 79 -93.5t23 -85.5q0 -40 -17.5 -75t-48.5 -60t-73 -39.5t-91 -14.5q-35 0 -70 8.5 t-63 27t-45.5 47.5t-17.5 69q0 36 12 63.5t32 49.5t46.5 39.5t56.5 33.5l32 18zM343 393q60 37 86 73.5t26 86.5q0 53 -27 81.5t-80 28.5q-50 0 -78.5 -28.5t-28.5 -76.5q0 -28 8.5 -50.5t23 -42t33 -37t37.5 -35.5zM263 314q-120 -61 -120 -172q0 -55 30.5 -87t83.5 -32 t82 30t29 85q0 38 -15 67t-41 57q-12 13 -25 25.5t-24 26.5z"/>
<glyph glyph-name="nine" unicode="9" d="M38 21q41 11 70 22t54 24.5t48 31.5t50 43q78 73 120 168t43 201q0 161 -104 161q-52 0 -78 -41q-19 -29 -29.5 -69.5t-10.5 -86.5q0 -59 22.5 -89.5t66.5 -30.5q18 0 35 4t40 14l-10 -40q-53 -25 -109 -25q-74 0 -119 46t-45 121q0 50 18.5 93t51.5 74.5t78 49t97 17.5 q48 0 86.5 -15.5t66 -44.5t42.5 -70t15 -91q0 -103 -46 -195.5t-132 -163.5q-34 -28 -64.5 -48.5t-65.5 -36.5t-78.5 -29t-104.5 -28z"/>
<glyph glyph-name="colon" unicode=":" horiz-adv-x="278" d="M266 360q0 -31 -21.5 -52.5t-52.5 -21.5t-52.5 21.5t-21.5 52.5t21.5 52.5t52.5 21.5t52.5 -21.5t21.5 -52.5zM192 60q0 -31 -21.5 -52.5t-52.5 -21.5t-52.5 21.5t-21.5 52.5t21.5 52.5t52.5 21.5t52.5 -21.5t21.5 -52.5z"/>
<glyph glyph-name="semicolon" unicode=";" horiz-adv-x="278" d="M275 360q0 -31 -21.5 -52.5t-52.5 -21.5t-52.5 21.5t-21.5 52.5t21.5 52.5t52.5 21.5t52.5 -21.5t21.5 -52.5zM-12 -124q30 3 56.5 11.5t45.5 21.5t30 29t11 33q0 24 -32 34q-11 3 -18.5 7t-13.5 9q-8 7 -12.5 19t-4.5 26q0 32 19.5 51t51.5 19q41 0 65 -28t24 -75 q0 -42 -19.5 -78.5t-54.5 -61.5q-15 -11 -28.5 -19t-29 -13t-34.5 -9t-46 -8z"/>
<glyph glyph-name="less" unicode="&lt;" d="M-10 241v33l576 253v-98l-410 -171l410 -172v-98z"/>
<glyph glyph-name="equal" unicode="=" d="M20 407h516v-90h-516v90zM20 198h516v-90h-516v90z"/>
<glyph glyph-name="greater" unicode="&gt;" d="M566 274v-33l-576 -253v98l409 172l-409 171v98z"/>
<glyph glyph-name="question" unicode="?" horiz-adv-x="444" d="M262 491q26 8 46 17t36 17q34 19 34 57q0 29 -18 46t-49 17q-24 0 -46 -11l-18 -9q-14 -7 -22.5 -9.5t-16.5 -2.5q-18 0 -29 11.5t-11 30.5q0 24 23 38t65 14q39 0 72 -13t56.5 -36t37 -54.5t13.5 -69.5q0 -60 -37 -91q-9 -7 -16 -11.5t-17 -9t-26 -10t-43 -14.5l-24 -8 q-62 -21 -86 -37.5t-24 -40.5q0 -21 17 -36t43 -15q7 0 13 1.5t19 6.5l6 2q11 3 20 3q15 0 24 -9.5t9 -26.5q0 -20 -13.5 -30.5t-36.5 -10.5q-28 0 -56 12t-52 36q-51 48 -51 112q0 40 23.5 68.5t68.5 43.5zM250 60q0 -31 -21.5 -52.5t-52.5 -21.5t-52.5 21.5t-21.5 52.5 t21.5 52.5t52.5 21.5t52.5 -21.5t21.5 -52.5z"/>
<glyph glyph-name="at" unicode="@" horiz-adv-x="800" d="M701 75q-138 -96 -290 -96q-84 0 -156 27t-124.5 75t-82.5 113.5t-30 142.5q0 83 33.5 156t91 127t135 85.5t165.5 31.5q74 0 136.5 -22.5t107.5 -62.5t70 -95t25 -121q0 -55 -18 -106.5t-47 -91.5t-67 -64t-79 -24q-42 0 -67 23t-27 65q-42 -88 -122 -88 q-28 0 -52.5 11.5t-42.5 31t-28 47t-10 58.5q0 85 57 157q32 42 73.5 65t80.5 23q38 0 63.5 -19t32.5 -51l18 58h73l-40 -132q-20 -68 -29.5 -106.5t-9.5 -55.5q0 -23 13.5 -37t35.5 -14q30 0 61 26q43 37 69 97.5t26 123.5q0 59 -22 108t-61 84.5t-93.5 55.5t-119.5 20 q-76 0 -143.5 -29t-118.5 -78.5t-80.5 -116t-29.5 -141.5q0 -70 25.5 -128.5t71 -101.5t108 -67t136.5 -24q139 0 266 87zM367 186q35 0 59.5 26.5t46.5 89.5q10 26 18.5 56.5t13.5 50.5q3 17 3 33q0 29 -16.5 47t-42.5 18q-47 0 -86 -56q-29 -42 -46.5 -90t-17.5 -88 t18 -63.5t50 -23.5z"/>
<glyph glyph-name="A" unicode="A" horiz-adv-x="685" d="M463 726l14 -8l82 -484q12 -72 22.5 -118.5t21.5 -63.5q14 -21 56 -21h25l-5 -31h-3q-4 0 -13 0.5t-24 1.5t-38.5 1.5t-49.5 0.5q-20 0 -41.5 -0.5t-47.5 -1.5q-29 -1 -48.5 -1.5t-30.5 -0.5h-6l5 31h13q43 0 55 6q10 6 10 23q0 6 -0.5 11t-2.5 16l-23 155h-235l-41 -77 q-20 -36 -32 -67t-12 -43q0 -13 16.5 -18.5t54.5 -5.5h15l-4 -31h-4q-3 0 -10.5 0.5t-19.5 1.5q-13 1 -33 1.5t-41 0.5q-17 0 -34.5 -0.5t-40.5 -1.5q-25 -1 -41 -1.5t-24 -0.5h-6l5 31q42 0 60 8q23 11 48 53l320 559q5 10 13.5 25t20.5 35zM227 292h199l-48 274z"/>
<glyph glyph-name="B" unicode="B" horiz-adv-x="630" d="M95 698l17 -1q29 -2 48.5 -2.5t40.5 -0.5q14 0 25.5 0.5l34.5 1.5q47 2 69.5 2h37.5q38 0 79.5 -6t76 -23t56.5 -47t22 -78q0 -39 -17 -69t-43 -51t-58.5 -34.5t-64.5 -20.5q33 -5 62.5 -15t52 -27.5t36 -45t13.5 -68.5q0 -90 -71 -147q-42 -35 -96.5 -50.5t-135.5 -15.5 q-23 0 -33.5 0.5t-19 0.5t-21.5 0.5t-41 0.5h-49h-50t-53 -1l-27 -1l5 31h11q29 0 51 8q12 5 18.5 16.5t12.5 37.5l4 18l79 417q5 22 8.5 48.5t3.5 40.5q0 19 -7 29t-18 14.5t-25.5 5.5t-29.5 1h-13zM287 385q49 0 80 9.5t54 32.5q22 21 34.5 54.5t12.5 70.5q0 53 -32 82 q-16 14 -36 19.5t-58 5.5q-7 0 -14 -0.5t-14 -0.5l-50 -273h23zM218 139q-3 -16 -5 -30t-2 -31q0 -21 14 -29t50 -8q86 0 126 45q21 24 34 62.5t13 79.5q0 61 -37 92q-18 15 -45 21t-78 6q-7 0 -11.5 -0.5t-13.5 -0.5h-6z"/>
<glyph glyph-name="C" unicode="C" horiz-adv-x="741" d="M739 686q-7 -29 -12 -50.5t-9 -41.5t-7 -42t-6 -52l-28 3q-1 83 -45 126.5t-127 43.5q-65 0 -119 -27.5t-92.5 -77t-60 -119.5t-21.5 -154q0 -66 16.5 -114.5t51.5 -87.5q61 -67 151 -67q86 0 154 60q13 11 23 22t19 24.5t19 31t22 41.5l28 -8q-8 -27 -14 -46.5 t-10.5 -37.5t-8.5 -38t-10 -48q-10 2 -15 2q-20 0 -42 -8.5t-41 -13.5q-42 -11 -77 -16t-70 -5q-73 0 -134.5 23.5t-106 67t-69.5 104t-25 134.5q0 87 31.5 160.5t87 127t130.5 83.5t161 30q43 0 85.5 -8.5t81.5 -25.5q11 -5 20 -8.5t21 -3.5q21 0 26 20z"/>
<glyph glyph-name="D" unicode="D" horiz-adv-x="778" d="M97 698l25 -1q35 -2 57 -3t49 -1q21 0 45.5 1t38.5 1q23 1 47 1.5t47 0.5q90 0 152.5 -20.5t110.5 -65.5q90 -87 90 -225q0 -91 -37.5 -169.5t-106.5 -132.5q-30 -24 -61 -40t-68.5 -26t-84 -14t-108.5 -4q-25 0 -36.5 0.5t-21 0.5t-23 0.5t-42.5 0.5h-66h-43t-46 -1 l-27 -1l5 31h24q25 0 40 7q7 3 12.5 8t10 15.5t8.5 27.5t9 44l77 409q7 35 8.5 54.5t1.5 24.5q0 8 -3.5 16.5t-9.5 13.5q-9 8 -27.5 11t-50.5 5zM220 124q-2 -11 -3.5 -23t-1.5 -19q0 -23 18.5 -32t66.5 -9q153 0 227 87q45 52 70.5 126.5t25.5 152.5q0 55 -18 105t-50 84 q-57 60 -194 60q-11 0 -21.5 -1.5t-21.5 -2.5z"/>
<glyph glyph-name="E" unicode="E" horiz-adv-x="648" d="M109 698l22 -1q36 -2 62.5 -3t49.5 -1q10 0 28 0.5t38 1t38.5 1t29.5 0.5l197 2h57q-4 -24 -6.5 -42t-4.5 -34t-4 -33.5t-4 -41.5h-31q1 9 1.5 14t0.5 10q0 45 -23 65q-13 11 -39 15.5t-73 4.5h-44q-21 0 -42.5 -1t-42.5 -3l-48 -265h13t22 -0.5t24 -0.5h21 q50 0 76.5 5.5t39.5 17.5q11 10 16 23t15 49h29q-4 -18 -7.5 -32l-6.5 -26t-5 -24.5t-5 -28.5t-5 -29.5t-4 -27.5t-4 -30t-5 -39h-28q0 9 1.5 22t1.5 26.5t-3 24.5t-13 16q-18 9 -116 9h-33t-33 -2l-40 -216q-3 -14 -4 -25t-1 -19q0 -20 11.5 -26t28.5 -7q26 -1 62.5 -1.5 t63.5 -0.5q57 0 91 7.5t54 24.5q8 7 14.5 14.5t13 18t14.5 25.5t18 39h31q-8 -28 -14 -48.5t-11 -39.5t-10 -39t-11 -47l-38 1l-162 2q-63 1 -99 1.5t-45 0.5q-10 0 -45 -0.5t-96 -1.5q-22 0 -36 -0.5t-24.5 -0.5t-19 -0.5t-20.5 -1.5l5 31h17q21 0 34.5 2.5t22.5 8.5t14 17 t8 29l89 473q3 17 5.5 33.5t2.5 33.5q0 22 -15.5 30.5t-55.5 8.5h-13z"/>
<glyph glyph-name="F" unicode="F" horiz-adv-x="593" d="M106 698q8 0 14 -0.5t11 -0.5q19 -1 36 -2t35.5 -1.5t40.5 -0.5h51h65q42 0 74.5 0.5t58.5 0.5q17 0 31 0.5l28 1t30.5 1t38.5 1.5q-5 -38 -10 -76.5t-9 -77.5h-28v15q0 52 -24 74q-12 11 -35 16t-70 5q-14 0 -29 -0.5t-29 -0.5q-30 0 -60 -3l-53 -278h52q39 0 68 1t48 4 q17 3 27.5 12.5t17 22.5t11 28t8.5 28h26l-6 -30q-5 -25 -9 -43.5t-7.5 -37.5t-6.5 -42t-7 -58l-3 -27h-29q0 9 1 21.5t1 25.5t-3 24t-11 16q-16 11 -106 11q-40 0 -79 -3l-37 -202q-2 -14 -4 -27t-2 -27q0 -19 11 -27.5t37 -9.5l48 -1l-4 -31l-22 1q-21 1 -37.5 1.5 t-27.5 0.5h-80h-41t-28 -0.5l-24 -1t-29 -0.5l-31 -1l5 31q9 0 16 -0.5t12 -0.5q35 0 50 16.5t22 50.5l60 315q17 91 24.5 142.5t7.5 66.5q0 23 -12 32q-17 14 -78 14z"/>
<glyph glyph-name="G" unicode="G" horiz-adv-x="815" d="M785 684q-7 -31 -12 -53t-8.5 -41.5t-6.5 -40t-7 -48.5l-26 2l-3 29q-7 65 -57 104t-131 39q-68 0 -127 -28.5t-102.5 -78.5t-68 -117.5t-24.5 -146.5q0 -53 14 -103.5t42.5 -89.5t71.5 -62.5t102 -23.5q46 0 82 18q11 6 18 11t11.5 15.5t8 29t8.5 49.5l12 74q1 2 1 5 q0 8 -4 15.5t-9 11.5q-17 11 -79 11h-7l5 32l22 -1q36 -2 70.5 -2.5t70.5 -0.5h41.5t27 0.5t22 1t25.5 0.5l27 1l-4 -31h-20q-29 0 -43 -9q-12 -8 -20.5 -35.5t-14.5 -60.5t-10 -64.5t-7 -48.5q-63 -29 -124 -45.5t-132 -16.5q-75 0 -138 22t-109.5 64t-72.5 102.5 t-26 137.5q0 93 35 168t94.5 127.5t139 80.5t169.5 28q63 0 118 -13q24 -6 41 -11.5t29 -10t21 -7.5t18 -3q7 0 12.5 5t7.5 13z"/>
<glyph glyph-name="H" unicode="H" horiz-adv-x="796" d="M109 698l19 -1q19 -1 31.5 -1.5t24 -0.5h26h38.5h44t29.5 0.5t24 1t27.5 0.5l30 1l-5 -31h-15q-33 0 -48.5 -11t-20.5 -39l-43 -229h322l32 181q3 17 5 31t2 31q0 21 -17.5 28.5t-65.5 7.5l4 31l21 -1q17 -1 31 -1.5t27.5 -0.5h29.5h38h40.5t27.5 0.5t23.5 1t26.5 0.5 l28 1l-5 -31h-22q-22 0 -33 -5q-11 -4 -17.5 -16t-10.5 -27t-6 -30t-4 -25l-81 -448l-4 -26t-2 -27q0 -23 16.5 -27.5t34.5 -4.5h30l-5 -31l-21 1q-35 2 -69.5 2h-69.5h-36.5t-25.5 -0.5l-22 -1t-27 -0.5l-28 -1l4 31h23q23 0 36 5t20.5 15t11 25t7.5 36l42 225h-320 l-42 -228q-2 -12 -4 -25t-2 -18q0 -24 13.5 -29.5t33.5 -5.5h34l-5 -31l-20 1q-35 2 -70 2h-70h-36.5h-25.5t-22 -0.5t-27 -1.5l-28 -1l4 31h21q20 0 32.5 3t21 10.5t13.5 21t9 34.5l84 449q5 26 7.5 48t2.5 33q0 21 -17 29t-65 8z"/>
<glyph glyph-name="I" unicode="I" horiz-adv-x="352" d="M-5 31h22q24 0 38 6t22 17t12 27.5t8 38.5l74 395q7 36 11.5 63.5t4.5 48.5q0 15 -6.5 23t-17 11.5t-23 4.5t-23.5 1h-15l4 31h4q35 0 70.5 -1.5t70.5 -1.5q39 0 77.5 1.5t77.5 1.5h6l-5 -31h-6q-42 0 -60.5 -8.5t-22.5 -30.5l-77 -407q-26 -138 -26 -158q0 -12 7 -18.5 t16.5 -9.5t20.5 -3.5t20 -0.5h16l-5 -31q-11 0 -20.5 0.5t-20.5 1.5q-15 1 -41.5 1.5t-52.5 0.5q-21 0 -41.5 -0.5t-45.5 -1.5q-20 -1 -38.5 -1.5t-38.5 -0.5z"/>
<glyph glyph-name="J" unicode="J" horiz-adv-x="352" d="M98 698h22q35 0 69 -1t69 -1h46h30t25 0.5t29 0.5l31 1l-4 -31q-19 -2 -34.5 -2t-27 -3.5t-19 -14.5t-12.5 -36l-57 -301q-18 -95 -32 -163t-28.5 -118.5t-30.5 -88t-38 -71.5q-64 -102 -176 -102q-45 0 -73 22.5t-28 58.5q0 28 16 44t43 16q24 0 38 -12t14 -33 q0 -6 -0.5 -12.5t-0.5 -12.5q0 -11 7.5 -18.5t18.5 -7.5q28 0 42 34q11 25 21 61t16 69l105 547q5 27 10 53.5t5 54.5q0 21 -18 28.5t-71 7.5h-12z"/>
<glyph glyph-name="K" unicode="K" horiz-adv-x="685" d="M111 698h19q18 0 30 -0.5t23 -0.5t24.5 -0.5t34.5 -0.5h48.5h31.5h24.5t27.5 1l29 1l-5 -31h-16q-34 0 -48 -11.5t-20 -43.5l-49 -252q14 1 23.5 3t18.5 6.5t18.5 13t22.5 21.5l111 108q111 108 111 136q0 11 -12.5 15t-47.5 4h-10l5 31l23 -1q28 -2 53 -1.5t53 0.5h32 h21.5t18 0.5t21.5 0.5l23 1l-5 -31h-20q-14 0 -27 -3t-24 -9q-11 -7 -25 -18t-26 -22l-241 -238l139 -208q13 -19 23 -33.5t19.5 -26.5t19 -23.5t21.5 -23.5q17 -17 31 -24t34 -7h19l-4 -31h-23q-15 0 -23 0.5t-14.5 0.5h-12.5h-16q-28 -1 -35.5 -2t-12.5 -1 q-20 0 -31.5 1.5t-18.5 5.5q-5 3 -10.5 8t-13.5 15t-18.5 25t-26.5 39l-148 224q-4 5 -8 7.5t-13 2.5l-37 -206q-2 -14 -5 -28.5t-3 -28.5q0 -33 60 -33h9t11 1l-5 -31l-20 1q-19 1 -31.5 1.5t-25.5 0.5t-29 -0.5t-43 -0.5h-40.5h-27.5h-23.5t-28.5 -1l-29 -1l4 31h15 q23 0 37 2.5t23 9.5t14 20t9 34l85 454q5 28 8 46.5t3 29.5q0 23 -14.5 31.5t-52.5 8.5h-16z"/>
<glyph glyph-name="L" unicode="L" horiz-adv-x="630" d="M109 698h20q20 0 32 -0.5t24 -0.5t26.5 -0.5t38.5 -0.5h48h31.5t25 0.5t27.5 0.5l30 1l-5 -31h-16q-24 0 -38 -2t-22.5 -9t-12.5 -20t-8 -34l-100 -557h159q39 0 62 4t49 16q32 14 53 39.5t41 76.5l31 -3q-10 -27 -17 -47.5t-13 -39.5t-11.5 -40t-13.5 -51 q-16 0 -23.5 0.5t-16 0.5h-24h-49.5q-40 0 -70.5 0.5t-53.5 0.5h-52.5t-82.5 -1q-38 0 -76 -0.5t-77 -0.5h-37l5 31h21q19 0 29.5 1.5t19.5 6.5t15 15.5t10 23t6 25.5t3 22l81 435q5 23 7 39.5t2 30.5q1 23 -16 30t-67 7z"/>
<glyph glyph-name="M" unicode="M" horiz-adv-x="944" d="M102 698h13q22 0 43.5 -1t43.5 -1h27.5h18t15 0.5t17.5 0.5l19 1l163 -522l260 469q8 14 15 26.5t14 26.5h14q12 0 20 -0.5t15.5 -0.5t16 -0.5t21.5 -0.5h39.5h24.5t18.5 0.5t20.5 0.5l22 1l-3 -31h-8q-28 0 -43.5 -3.5t-23.5 -11.5q-6 -6 -10 -18t-8 -34t-6.5 -55 t-5.5 -80l-20 -370q-2 -41 14.5 -52.5t56.5 -11.5h18l-4 -31l-21 1q-21 1 -34.5 1.5t-27.5 0.5t-32.5 -0.5t-48.5 -0.5h-39.5h-27.5t-23.5 -0.5t-28.5 -0.5l-31 -1l5 31h24q24 0 38 5t22 15t11 25.5t4 36.5l34 470q-13 -22 -33 -56t-42 -71.5t-42 -72.5t-32 -58 q-21 -38 -46.5 -83.5t-50 -90t-44.5 -84.5t-30 -68h-40q-4 16 -7.5 32t-8.5 32l-140 442l-84 -339q-11 -43 -14 -63t-3 -33q0 -21 13.5 -30t45.5 -9h22l-3 -31l-16 1q-16 1 -26.5 1.5t-21.5 0.5t-25 -0.5t-37 -0.5h-29h-20h-18t-22 -1l-22 -1l4 31q27 0 44 3t28 11.5 t18 24.5t14 42l124 465q-8 30 -14 43.5t-17 26.5q-11 12 -26 16t-46 4z"/>
<glyph glyph-name="N" unicode="N" horiz-adv-x="778" d="M72 698h13q23 0 44.5 -1t44.5 -1h21.5h15t12.5 0.5t15 0.5l17 1q8 -16 13 -23.5t6 -9.5q38 -63 106.5 -168t168.5 -255q10 -14 24.5 -36.5t34.5 -51.5l11 61q18 99 29.5 167t18.5 114t9.5 73.5t2.5 45.5q0 26 -13 37q-18 15 -60 15h-13l4 31h17q26 0 51 -1t51 -1h36.5 h23.5h19.5t22.5 1l23 1l-4 -31h-20q-18 0 -35 -5q-10 -4 -18 -10t-14 -17.5t-10.5 -29.5t-9.5 -45l-84 -462l9 -15q5 -7 12 -17t15.5 -18t18 -13.5t18.5 -5.5l-5 -29l-11 1q-10 1 -17 1.5t-14 0.5t-16 -0.5t-24 -0.5h-21h-14t-12 -0.5t-15 -0.5l-16 -1q-3 7 -9 18t-13 22 t-13 21.5t-11 17.5l-290 443l-11 -59q-31 -165 -45.5 -261.5t-14.5 -122.5q0 -25 14.5 -36.5t48.5 -11.5h23l-5 -31l-16 1q-15 1 -25 1.5t-20 0.5t-22.5 -0.5t-32.5 -0.5h-35.5h-23.5h-19.5t-23.5 -1l-24 -1l5 31h12q30 0 47.5 10.5t28 27.5t15.5 39.5t9 46.5l77 420l-35 57 q-12 20 -29 27.5t-40 7.5h-9z"/>
<glyph glyph-name="O" unicode="O" horiz-adv-x="852" d="M483 715q75 0 138 -24t108 -67.5t70.5 -103t25.5 -131.5q0 -86 -33.5 -160t-91 -128t-133 -84.5t-159.5 -30.5q-77 0 -139.5 23t-107 66t-69 103t-24.5 134q0 88 31 162t86 127.5t131.5 83.5t166.5 30zM409 24q76 0 129 37.5t86 95t47.5 126.5t14.5 133q0 125 -52.5 193 t-149.5 68q-73 0 -125.5 -38t-86.5 -95.5t-49.5 -126t-15.5 -130.5q0 -125 53 -194t149 -69z"/>
<glyph glyph-name="P" unicode="P" horiz-adv-x="593" d="M-2 31h23q33 0 49 12q6 4 11 10t8.5 17.5t7.5 29t9 44.5l72 400q4 19 7 38t3 38q0 27 -18.5 37t-69.5 10h-3l5 31q27 -2 60.5 -2h66.5q42 0 83.5 1t83.5 1q220 0 220 -161q0 -42 -17.5 -82t-46.5 -67q-32 -30 -83 -46.5t-111 -16.5q-18 0 -32 1t-25 4l7 37q17 -5 41 -5 q54 0 85 40q21 27 32.5 64t11.5 78q0 114 -113 114q-12 0 -20.5 -0.5t-20.5 -2.5l-93 -505q-4 -19 -7 -38t-3 -39q0 -16 6.5 -24.5t16.5 -12.5t22.5 -4.5t24.5 -0.5h26l-4 -31l-28 1q-40 2 -77.5 1.5t-76.5 -0.5h-34.5h-24t-21.5 -0.5t-28 -0.5l-30 -1z"/>
<glyph glyph-name="Q" unicode="Q" horiz-adv-x="852" d="M298 -77l329 -88q21 -6 43 -6q23 0 36.5 8.5t13.5 22.5q0 3 -4 11q-9 18 -9 28q0 15 10.5 25t27.5 10q15 0 25 -11t10 -28q0 -41 -49 -76q-34 -26 -74 -37.5t-91 -11.5q-69 0 -136 19t-133 39q-59 18 -97 28.5t-66 17.5t-51 11.5t-53 9.5l5 23l49 10q52 10 86 17.5 t61.5 14t53.5 13.5t60 17q-31 5 -53 10.5t-40.5 13.5t-35 18.5t-36.5 26.5q-56 44 -84 108t-28 145q0 87 31 161t85.5 128t130 84t164.5 30q76 0 139.5 -24t109 -67t71 -102.5t25.5 -131.5q0 -51 -15 -103t-41.5 -98.5t-63 -84.5t-78.5 -61q-24 -13 -56 -25t-73 -25 q-32 -10 -58 -17.5t-52.5 -14t-56 -13.5t-68.5 -15zM408 24q76 0 129 37.5t86 95t47.5 126.5t14.5 133q0 125 -52 193t-149 68q-74 0 -126.5 -37.5t-86 -95t-49 -126.5t-15.5 -131q0 -125 53 -194t148 -69z"/>
<glyph glyph-name="R" unicode="R" horiz-adv-x="685" d="M106 698h15q9 0 21.5 -1t29.5 -1h73h26t14.5 0.5t16.5 0.5h31q30 0 47 0.5t22 0.5q103 0 156 -38.5t53 -113.5q0 -41 -16.5 -76.5t-46.5 -60.5q-13 -11 -25 -19t-26.5 -14.5t-32.5 -12t-44 -12.5q12 -12 20.5 -21.5t16.5 -20t16.5 -25t21.5 -36.5l47 -82 q24 -43 41.5 -69.5t31.5 -41t27 -19.5t29 -5h22l-4 -31h-21h-23t-13.5 0.5t-16.5 1t-32 0.5h-24.5t-13 -0.5l-11 -1t-19.5 -0.5h-13q-13 16 -22 28t-18 26t-19.5 33t-27.5 48q-12 22 -25 43.5t-24 44.5q-18 36 -31 59.5t-23 37t-18 18.5t-17 5q-2 0 -8 -2l-44 -245 q-3 -18 -3 -27q0 -23 14 -30.5t57 -7.5h22l-4 -31l-21 1q-21 1 -37 1.5t-27 0.5h-77h-40.5h-27.5t-24 -0.5t-29 -1.5l-30 -1l4 31h26q11 0 20.5 1t17.5 4q14 5 21.5 21t15.5 61l82 448q2 14 5 28t3 28q0 17 -9.5 26.5t-23.5 13.5t-30 4.5t-28 0.5zM275 376q7 -1 18.5 -2 t23.5 -1q35 0 63.5 11t46.5 32q22 24 35 61t13 75q0 55 -30 83q-14 14 -35.5 18.5t-61.5 4.5q-6 0 -12 -0.5t-12 -0.5z"/>
<glyph glyph-name="S" unicode="S" horiz-adv-x="538" d="M463 516l1.5 16.5t0.5 12.5q0 58 -30.5 95t-91.5 37q-50 0 -81 -28t-31 -73q0 -24 11 -46.5t27.5 -43.5t35.5 -39.5t35 -34.5q23 -23 47 -48t43 -52.5t31 -58.5t12 -66q0 -43 -17 -80t-47 -64t-71.5 -42t-91.5 -15q-44 0 -80 11.5t-75 29.5l-40 -30l-17 2q5 33 8.5 57 t6.5 46t5.5 46t5.5 57l29 2v-10q0 -78 39.5 -123.5t106.5 -45.5q59 0 94 31t35 83q0 30 -14.5 57.5t-36.5 52.5t-46 47t-44 41q-41 39 -66.5 84t-25.5 102q0 42 16 76.5t44.5 59.5t69 38.5t88.5 13.5q26 0 51.5 -3.5t49.5 -13.5q6 -2 15 -6t17 -4q14 0 17 14l24 -2 q-6 -30 -10.5 -52t-7.5 -41t-6 -39.5t-7 -47.5z"/>
<glyph glyph-name="T" unicode="T" horiz-adv-x="667" d="M127 720q4 -13 15 -17.5t36 -4.5h469q22 0 33.5 5t17.5 17h27q-5 -31 -8.5 -53.5t-6 -43.5t-5 -43.5t-5.5 -53.5h-29q1 8 1.5 20t0.5 19q0 45 -20 67q-11 13 -33 18t-71 5h-78l-93 -499q-8 -45 -10 -63t-2 -27q0 -20 13.5 -27.5t47.5 -7.5h30l-4 -31l-22 1 q-21 1 -34.5 1.5t-27.5 0.5t-32 -0.5t-48 -0.5h-41h-28.5h-24.5t-30 -1l-31 -1l5 31h25q32 0 50 10q8 5 14 16t10 24.5t6.5 27t3.5 21.5l95 525h-90q-26 0 -48 -4t-38 -12q-54 -27 -72 -113h-32q8 31 13 53.5t9.5 43.5t8.5 43.5t10 53.5h23z"/>
<glyph glyph-name="U" unicode="U" horiz-adv-x="722" d="M79 698h20q20 0 32 -0.5t24 -0.5t26.5 -0.5t38.5 -0.5h48.5h31.5t24.5 0.5t28.5 0.5l30 1l-5 -31h-15q-28 0 -49 -8q-7 -3 -12.5 -7.5t-10 -16t-8.5 -31t-10 -52.5l-57 -325q-3 -18 -4 -34t-1 -30q0 -63 37 -96t109 -33q40 0 75 10.5t62 32.5q15 12 25.5 25.5t18.5 34.5 t15 53t16 80l53 304q2 13 3 25.5t1 25.5q0 23 -19.5 32t-64.5 10l4 31h17q15 0 25 -0.5t19.5 -0.5t21 -0.5t30.5 -0.5h38.5h25t19.5 0.5t22 0.5l24 1l-4 -31q-17 -1 -27 -1.5t-16.5 -1.5t-10.5 -2.5t-10 -3.5q-10 -4 -17.5 -14.5t-12.5 -24t-8 -27t-5 -24.5l-54 -305 q-4 -25 -9 -53t-13 -55.5t-20 -52t-31 -44.5q-33 -34 -91.5 -54t-125.5 -20q-47 0 -91.5 10.5t-79 34t-55.5 60.5t-21 90q0 19 3.5 42.5t9.5 58.5l55 302q2 14 3.5 25.5t1.5 20.5q0 15 -9.5 22.5t-22.5 11.5t-27.5 4.5t-25.5 0.5z"/>
<glyph glyph-name="V" unicode="V" horiz-adv-x="685" d="M37 698h20q19 0 31 -0.5t23.5 -0.5t25.5 -0.5t36 -0.5h49.5h32t25 0.5t28.5 0.5l30 1l-3 -31q-6 1 -9 1h-8q-64 0 -64 -31q0 -16 19 -97t61 -249l32 -127l113 206q33 60 56.5 104.5t38.5 76t22 53t7 35.5q0 17 -19.5 22.5t-67.5 5.5l5 31h18q32 0 63.5 -1t63.5 -1h28h20 t17.5 0.5t20.5 0.5l22 1l-4 -31h-11q-19 0 -32.5 -2t-24 -9.5t-20.5 -21.5t-23 -38l-340 -609h-39l-145 601q-4 17 -7 30.5t-9 22.5t-16.5 14.5t-30.5 7.5l-40 4z"/>
<glyph glyph-name="W" unicode="W" horiz-adv-x="981" d="M35 698h19q32 0 62.5 -1t62.5 -1h37h24.5t20.5 0.5t25 0.5l27 1l-5 -31q-36 -1 -50 -6t-14 -20q0 -7 1 -15.5t3 -14.5l119 -465l121 189l-69 263q-3 13 -7 26t-11 25q-10 18 -49 18h-7l5 31h32l99 -2h125h79.5t79.5 1l42 1l-5 -31q-22 0 -32 -2t-18 -8q-8 -5 -21.5 -20 t-24.5 -34l-114 -188l71 -262l215 393q37 68 37 94q0 15 -17 21t-55 6l4 31h16q15 0 26.5 -1t19.5 -1h50h34h23t18.5 0.5t20.5 0.5l23 1l-5 -31h-13q-16 0 -27 -1.5t-20 -7.5t-17.5 -18.5t-21.5 -35.5l-354 -617h-37l-78 292l-182 -292h-41l-156 612q-4 15 -9.5 32.5 t-19.5 26.5q-15 10 -45 10q-4 0 -9.5 -0.5t-12.5 -0.5zM647 599q15 26 15 43q0 21 -34 21h-75q-20 0 -20 -18q0 -8 2 -14.5t4 -14.5l36 -140z"/>
<glyph glyph-name="X" unicode="X" horiz-adv-x="667" d="M65 698h21q32 0 63.5 -1t63.5 -1h47h30.5t24 0.5t28.5 0.5l30 1l-4 -31h-13q-7 0 -18 0.5t-21 -1.5t-17 -6.5t-7 -15.5q0 -7 2 -13.5t7 -17.5l92 -182l138 165q19 22 25.5 32.5t6.5 18.5q0 20 -64 20h-9l4 31h18q26 0 52.5 -1t53.5 -1h37h24t19.5 0.5t22.5 0.5l25 1 l-5 -31h-5q-35 0 -60 -11.5t-54 -43.5l-208 -225l151 -290q12 -22 20.5 -35t18 -20t22.5 -9t33 -2h15l-5 -31l-21 1q-21 1 -34.5 1.5t-27 0.5t-31.5 -0.5t-47 -0.5h-41h-28t-24 -0.5t-29 -0.5l-31 -1l5 31h30q5 0 13 0.5t16 2.5t13.5 6t5.5 12q0 7 -5 19.5t-13 29.5l-95 188 l-156 -192q-7 -8 -14.5 -19t-7.5 -22q0 -14 15 -19.5t50 -5.5h13l-5 -31l-18 1q-18 1 -29 1.5t-23 0.5t-27 -0.5t-40 -0.5h-33.5h-22.5t-20 -0.5t-24 -0.5l-26 -1l5 31q29 2 43 4.5t28 9.5q12 7 34.5 27.5t42.5 43.5l193 217l-142 275q-10 20 -17.5 31t-17 16.5t-22 7.5 t-33.5 3q-2 0 -5 0.5t-7 0.5z"/>
<glyph glyph-name="Y" unicode="Y" horiz-adv-x="630" d="M341 667h-12q-6 0 -17 0.5t-21 -1t-17.5 -6.5t-7.5 -15q0 -6 1.5 -14t5.5 -21.5t10 -33.5t16 -49q11 -34 18.5 -56t14.5 -41.5t15 -39.5t20 -49l143 226q17 28 24.5 43.5t7.5 28.5q0 17 -16.5 22t-57.5 6l4 31l128 -2l113 2l-3 -31q-26 -1 -37.5 -2t-25.5 -9 q-7 -4 -12 -7.5t-10.5 -9.5t-12 -15.5t-17.5 -26.5l-208 -317l-31 -171q-2 -10 -3.5 -21t-1.5 -23q0 -22 12 -28.5t52 -6.5h11t15 1l-5 -31l-21 1q-37 2 -74 1.5t-74 -0.5h-36.5h-25.5t-22 -0.5t-28 -0.5l-30 -1l5 31h14q28 0 43.5 4.5t24.5 15t13.5 28.5t9.5 45l28 153 l-124 328q-7 20 -14.5 32t-18.5 18.5t-27 8.5t-40 3l5 31h20q18 0 30 -0.5t23 -0.5t23.5 -0.5t33.5 -0.5h52.5h33.5h26t29 1l30 1z"/>
<glyph glyph-name="Z" unicode="Z" horiz-adv-x="685" d="M180 698q34 0 49 -0.5t29.5 -1t37.5 -0.5h72q86 0 131.5 0.5t69.5 1t35 0.5h26h60v-11l-499 -638h208q36 0 66.5 4t52.5 12q65 24 100 123h31q-12 -48 -24.5 -94t-23.5 -94l-39 1q-62 2 -105.5 1.5t-88.5 -0.5h-162l-163 -2h-29v15l496 637h-188q-80 0 -122 -28t-62 -94 h-34l8 25q9 29 16.5 58.5t15.5 59.5l6 25h30z"/>
<glyph glyph-name="bracketleft" unicode="[" horiz-adv-x="333" d="M199 -190q-20 2 -35.5 2h-32.5h-40t-39 -2l-16 -1l-5 6q8 37 16 73.5t16 73.5q24 114 40.5 197.5t29 156.5t24.5 145.5t27 163.5l12 74l8 5q13 0 22 -0.5t15 -0.5h37h24.5h16.5t13.5 0.5t15.5 0.5l17 1l-5 -30h-11q-44 0 -59.5 -2.5t-23.5 -9.5q-5 -5 -8 -18t-5 -21 l-134 -729q-2 -8 -3 -15t-1 -15q0 -14 10 -19q3 -2 7 -2t12 -0.5t22 -1t36 -2.5l13 -1l-4 -30z"/>
<glyph glyph-name="backslash" unicode="\" horiz-adv-x="333" d="M35 737h82l181 -758h-82z"/>
<glyph glyph-name="bracketright" unicode="]" horiz-adv-x="333" d="M300 695q-1 -8 -2.5 -13.5l-3 -11t-3 -12.5t-3.5 -19q-12 -62 -26 -123t-25 -124l-89 -503l-11 -71l-9 -9q-13 1 -22 1.5t-15 0.5h-38h-24h-16h-13.5t-15.5 -1l-16 -1l4 30h11q45 0 60.5 2t22.5 9q6 6 8.5 19t4.5 21l134 729q2 13 3 19t1 10q0 14 -9 20q-3 2 -7 2.5 t-12.5 0.5t-22 1t-35.5 2l-14 1l5 30l11 -1q11 -1 18 -1.5t14.5 -0.5t17 0.5t24.5 0.5h41h18t26 1z"/>
<glyph glyph-name="asciicircum" unicode="^" d="M260 737h36l196 -431h-88l-126 292l-126 -292h-88z"/>
<glyph glyph-name="underscore" unicode="_" horiz-adv-x="500" d="M0 -75h500v-50h-500v50z"/>
<glyph glyph-name="grave" unicode="`" horiz-adv-x="278" d="M251 559l-132 94q-17 12 -24 22t-7 23q0 17 12 27.5t31 10.5q18 0 29 -9t21 -23l110 -145h-40z"/>
<glyph glyph-name="a" unicode="a" horiz-adv-x="537" d="M434 477q4 7 18 7h36q11 0 15 -2.5t4 -6.5t-10 -37l-87 -288q-4 -14 -7.5 -29t-3.5 -21q0 -7 4.5 -12t11.5 -5q8 0 17 6q10 6 17 11t14.5 12t16 16t21.5 24l21 -21q-9 -12 -16 -20t-15.5 -17t-20.5 -19.5t-31 -27.5q-37 -33 -61.5 -46.5t-46.5 -13.5q-19 0 -31.5 14.5 t-12.5 34.5q0 6 1.5 12.5t5 19t10.5 34t18 57.5l8 25q-11 -19 -19.5 -32.5t-19 -26.5t-24.5 -27t-35 -34q-44 -42 -77 -60t-66 -18t-52 23t-19 64q0 64 32 130.5t94 132.5q56 60 111 94t97 34q20 0 33 -7.5t27 -27.5zM322 409q-62 0 -120 -70q-42 -51 -65.5 -105.5 t-23.5 -102.5q0 -21 12.5 -37.5t28.5 -16.5q20 0 40 10t38 24.5t33 32t25 32.5q76 109 76 184q0 19 -13.5 34t-30.5 15z"/>
<glyph glyph-name="b" unicode="b" d="M125 710l5 19q32 2 54.5 4.5t41.5 6t37.5 9t43.5 14.5l13 -10l-118 -418q5 5 8.5 10t7.5 10q90 106 197 106q54 0 86.5 -34.5t32.5 -93.5q0 -67 -30 -129.5t-80 -111t-114 -77.5t-133 -29q-57 0 -93 29.5t-36 77.5q0 36 11 83q12 50 37 150.5t66 253.5l26 98zM202 22 q63 0 120 77q45 60 69.5 123t24.5 118q0 66 -56 66q-69 0 -130 -83q-41 -54 -64 -114t-23 -112q0 -33 16.5 -54t42.5 -21z"/>
<glyph glyph-name="c" unicode="c" horiz-adv-x="444" d="M431 126q-8 -8 -13.5 -13t-9.5 -9q-63 -58 -125 -88t-120 -30q-60 0 -96.5 40.5t-36.5 106.5q0 113 102 212q57 54 123.5 85t126.5 31q34 0 52.5 -15t18.5 -42q0 -25 -14 -39.5t-40 -14.5q-12 0 -24 3q-9 3 -17 7.5t-31 19.5q-15 11 -21 13.5t-14 2.5q-19 0 -38.5 -13.5 t-33.5 -36.5q-16 -25 -29 -53t-22.5 -56.5t-14.5 -55t-5 -48.5q0 -33 22.5 -55t56.5 -22q31 0 57 11q19 8 33 15t28 16.5t29 22t35 31.5z"/>
<glyph glyph-name="d" unicode="d" horiz-adv-x="574" d="M471 679l-66 31l5 19q21 1 37 3t33 5.5t38 8.5t53 13l16 4l11 -7l-18 -76l-123 -524q-11 -47 -11 -56q0 -5 4.5 -9.5t9.5 -4.5q9 0 25.5 11.5t42.5 37.5l8.5 8.5t13.5 12.5l18 -23q-6 -8 -11 -13t-8 -9q-60 -68 -98.5 -97t-70.5 -29q-19 0 -30.5 13t-11.5 33q0 38 18 108 q-9 -16 -17 -27.5t-16.5 -21.5t-18.5 -20t-25 -22q-72 -62 -146 -62q-45 0 -73 34t-28 89q0 59 29 120.5t86 124.5q99 109 201 109q20 0 37 -4t36 -12zM194 57q30 0 60 18t56 52q42 56 66.5 119.5t24.5 119.5q0 29 -15.5 45t-43.5 16q-29 0 -58.5 -19.5t-55.5 -55.5 q-39 -55 -62 -117t-23 -116q0 -29 14 -45.5t37 -16.5z"/>
<glyph glyph-name="e" unicode="e" horiz-adv-x="444" d="M146 197q-2 -14 -3.5 -25t-1.5 -24q0 -39 20.5 -66t62.5 -27q45 0 85.5 24.5t73.5 52.5l19 -24q-61 -63 -119.5 -92.5t-119.5 -29.5q-60 0 -97.5 40.5t-37.5 106.5q0 63 25.5 122.5t67.5 105t96.5 73.5t112.5 28q50 0 78.5 -22t28.5 -61q0 -73 -89 -122 q-25 -14 -46 -23.5t-43.5 -16t-49 -11t-63.5 -9.5zM158 232q38 4 69 17.5t53.5 34.5t35 47.5t12.5 56.5q0 35 -32 35q-19 0 -40 -16t-40 -42.5t-34.5 -61t-23.5 -71.5z"/>
<glyph glyph-name="f" unicode="f" horiz-adv-x="333" d="M49 398l11 53h99q6 34 12 59t14 45t19 39t27 41q41 59 96.5 93t110.5 34q21 0 33.5 -11.5t12.5 -29.5q0 -28 -10.5 -46t-27.5 -18q-8 0 -17 3.5t-33 16.5q-12 6 -20 8.5t-18 2.5q-15 0 -25.5 -7t-19 -27t-16.5 -56t-18 -93l-9 -54h115l-11 -53h-117l-4 -17 q-15 -65 -35.5 -150.5t-47.5 -180.5q-10 -34 -18.5 -62t-17.5 -57t-20 -63.5t-26 -80.5l-68 -25l-11 8l137 628h-97z"/>
<glyph glyph-name="g" unicode="g" horiz-adv-x="500" d="M123 15q-57 20 -57 57q0 20 10.5 34.5t39.5 34.5q6 5 14.5 10.5t19.5 13.5q-85 31 -85 123q0 37 15 69t41.5 56t62.5 37.5t78 13.5q26 0 55 -5.5t70 -19.5q17 -5 25.5 -7t19.5 -2q15 0 39 7q9 2 15.5 3.5t15.5 1.5q28 0 28 -30q0 -17 -9 -27.5t-23 -10.5q-10 0 -26 7 q-17 8 -29 12l-18 6h-11q14 -12 21 -33t7 -46q0 -35 -15.5 -65.5t-42 -53.5t-62 -36.5t-75.5 -13.5q-15 0 -33.5 2t-30.5 4q-24 -18 -24 -34q0 -7 17.5 -17t40 -20t45 -19t31.5 -13q40 -17 66 -31.5t41.5 -29.5t22 -31.5t6.5 -38.5q0 -35 -18 -64t-51 -49.5t-79 -32 t-102 -11.5q-99 0 -157 30.5t-58 83.5q0 27 13 46t33 33t43.5 24.5t43.5 19.5q5 2 11 5t15 7zM232 186q43 0 66 37q17 28 27.5 64.5t10.5 74.5q0 32 -16.5 50t-45.5 18q-39 0 -63 -36q-19 -29 -30 -66.5t-11 -71.5q0 -32 17 -51t45 -19zM140 -7q-47 -26 -64.5 -49t-17.5 -52 q0 -41 37 -65t98 -24q32 0 60 7.5t48 21.5q27 18 27 51q0 14 -5 25t-20 22t-42 24t-72 32q-15 5 -35 15z"/>
<glyph glyph-name="h" unicode="h" d="M129 707l6 22l18 3q32 5 60.5 9t42.5 8q20 5 29 7.5t13.5 3.5t6.5 2t7 2l10 -8l-140 -523q6 8 10.5 14.5t7.5 10.5q73 102 140.5 153.5t124.5 51.5q30 0 48.5 -23.5t18.5 -62.5q0 -65 -26 -134.5t-77 -139.5q-37 -52 -77.5 -84.5t-68.5 -32.5q-13 0 -21 6t-8 16 q0 11 4.5 31t11.5 40q4 10 9 13.5t16 3.5q14 0 31 -2.5t31 -7.5q5 11 8.5 19t7 17.5t8 24t11.5 38.5q14 49 20.5 85.5t6.5 73.5q0 44 -25 44q-11 0 -28 -9t-36.5 -25.5t-41.5 -39.5t-44 -50q-30 -38 -51 -74.5t-35 -71.5q-8 -21 -14 -43l-12 -44q-3 -10 -5 -17t-4 -10 q-5 -6 -16 -9t-26 -3q-26 0 -37.5 5t-11.5 16q0 4 1 8t3 14l153 644z"/>
<glyph glyph-name="i" unicode="i" horiz-adv-x="315" d="M244 714q26 0 44 -17.5t18 -43.5t-18 -44.5t-44 -18.5t-43.5 18.5t-17.5 44.5t17.5 43.5t43.5 17.5zM285 124l-11 -12q-59 -64 -99.5 -95t-78.5 -31q-20 0 -34 13.5t-14 33.5t11 51l72 217q5 14 7 25t2 16q0 17 -15 17q-8 0 -17 -5t-22 -18l-37 -35l-20 24 q57 67 105.5 101.5t87.5 34.5q19 0 33 -13t14 -30q0 -11 -3.5 -28.5t-10.5 -37.5l-66 -194q-1 -4 -4 -13t-6.5 -18.5t-6 -18.5t-2.5 -13q0 -14 13 -14q9 0 20.5 7.5t23 18t22 21.5t17.5 18z"/>
<glyph glyph-name="j" unicode="j" horiz-adv-x="296" d="M244 714q26 0 44 -17.5t18 -43.5t-18 -44.5t-44 -18.5t-43.5 18.5t-17.5 44.5t17.5 43.5t43.5 17.5zM-53 -204q15 7 22.5 13t18.5 20q17 22 30.5 52.5t20.5 56.5l92 342q2 5 4.5 14t5 18.5t4.5 18.5t2 13q0 18 -17 18q-8 0 -20 -8t-23.5 -18.5t-21.5 -21t-14 -14.5 l-21 22q15 20 38 42t41 39q35 32 60.5 46t46.5 14t35 -14t14 -35t-11.5 -70.5t-32.5 -122.5l-72 -248q-22 -73 -57 -120q-11 -15 -23 -27t-28 -22t-36.5 -19t-48.5 -19z"/>
<glyph glyph-name="k" unicode="k" horiz-adv-x="537" d="M129 710l4 19l13 1q33 3 55.5 5.5t40.5 6t35 8.5t39 13l8 -8l-10 -34l-108 -394q5 5 9 9.5t7 7.5q104 119 199 119q35 0 56.5 -20.5t21.5 -54.5q0 -28 -17 -56.5t-49 -53.5q-18 -14 -33.5 -24t-32.5 -19t-39 -18t-54 -20q13 -5 22 -10t17.5 -12t18 -17t24.5 -27 q11 -13 23 -25.5t23 -26.5q22 -26 36.5 -35t33.5 -9q26 0 40 10l-7 -34q-22 -11 -48.5 -18t-52.5 -7q-35 0 -66 17q-15 9 -28 19t-26.5 24t-29 34.5t-35.5 49.5q-10 15 -17 24.5t-12 15t-10 8.5t-13 7l-43 -177q-3 -15 -46 -15q-20 0 -33.5 5.5t-13.5 13.5q0 2 0.5 3.5 l1.5 4.5l158 661zM170 204q50 7 92 21t73 33.5t48.5 43t17.5 47.5q0 17 -12.5 28t-29.5 11q-29 0 -63 -21t-69 -61q-14 -16 -23.5 -28t-15.5 -23t-10 -23t-8 -28z"/>
<glyph glyph-name="l" unicode="l" horiz-adv-x="296" d="M134 710l5 19l42 3.5t37 5.5t41.5 10t56.5 16l11 -8q-4 -11 -6 -19t-4 -13q-8 -26 -25 -89.5t-43 -166.5q-11 -45 -26 -105.5t-29 -116.5q-16 -65 -32 -133q-2 -10 -2 -13q0 -8 5 -12.5t13 -4.5q10 0 24 10.5t37 33.5q5 5 11.5 11t14.5 15l19 -20l-12 -14 q-111 -129 -179 -129q-20 0 -33.5 14.5t-13.5 34.5q0 12 4 35.5t16 73.5t33 135.5t55 223.5q8 29 18 72t24 100z"/>
<glyph glyph-name="m" unicode="m" horiz-adv-x="833" d="M28 320l52 54l10.5 10.5l11.5 11.5q20 19 35 31.5t28 20t24 10.5t24 3q43 0 43 -46q0 -18 -9 -49.5t-31 -94.5l-19 -55q22 30 40.5 55t37.5 48t41.5 45t53.5 47q33 27 58 38.5t50 11.5q20 0 31.5 -11.5t11.5 -31.5q0 -5 -3.5 -19t-8.5 -28q-6 -19 -14 -43 q-7 -22 -15.5 -50t-19.5 -62q14 21 24 36.5t19.5 28.5t19.5 24.5t22 24.5q27 30 54.5 54t54 41.5t49.5 27t41 9.5q20 0 33.5 -14.5t13.5 -35.5q0 -11 -3.5 -26.5t-7.5 -26.5l-83 -237q-5 -12 -5 -22q0 -7 4.5 -12t10.5 -5q7 0 15 5q10 6 17 11t14 11t15.5 14.5l21.5 21.5 l20 -19q-4 -5 -7 -8.5t-5 -5.5q-31 -35 -56 -59t-46 -39t-39.5 -21.5t-36.5 -6.5q-22 0 -34.5 13.5t-12.5 36.5q0 22 8.5 48t15.5 46l47 138q2 5 5 14.5t6 20t5.5 20.5t2.5 14q0 18 -18 18q-19 0 -46.5 -21.5t-58.5 -59.5q-62 -77 -101 -164q-5 -10 -12 -26.5t-16 -39.5 q-4 -9 -8.5 -21.5t-10.5 -19.5q-11 -13 -45 -13q-50 0 -50 20q0 9 5 23.5t8 23.5l80 232q11 31 11 49q0 7 -5 12t-12 5q-26 0 -66.5 -38t-81.5 -100q-17 -26 -30 -48t-25 -46t-24.5 -52.5t-28.5 -67.5q-1 -7 -5 -9q-5 -3 -14 -4.5t-20 -1.5q-25 0 -40.5 5t-15.5 14q0 5 6 21 l79 238q5 15 12 36.5t7 35.5q0 16 -16 16t-57 -40l-18 -17z"/>
<glyph glyph-name="n" unicode="n" horiz-adv-x="574" d="M28 318l13 15q61 70 100 99t73 29q19 0 30.5 -12.5t11.5 -33.5q0 -12 -5 -29l-57 -175q20 27 34.5 47.5t27.5 37t26.5 31t30.5 31.5q100 103 172 103q19 0 33 -14.5t14 -34.5q0 -27 -23 -90l-56 -153q-13 -35 -17 -47.5t-4 -19.5q0 -8 5 -14t13 -6q11 0 25.5 10.5 t37.5 35.5l18 18l19 -21l-16 -16q-33 -35 -57.5 -58.5t-44.5 -38t-37 -20.5t-34 -6q-20 0 -34 14.5t-14 34.5q0 26 19 87.5t61 170.5q10 24 10 44q0 19 -19 19q-33 0 -112 -94q-66 -76 -103 -157q-5 -11 -12 -28t-16 -40q-3 -8 -7.5 -20.5t-9.5 -17.5q-6 -9 -32 -9 q-33 0 -45.5 4t-12.5 15q0 7 2.5 16t10.5 33q8 23 16 46.5t16 46.5q17 50 28 82.5t17 53.5t8.5 33t2.5 20q0 17 -13 17q-8 0 -21 -11t-36 -32q-3 -2 -7.5 -6.5t-10.5 -9.5z"/>
<glyph glyph-name="o" unicode="o" horiz-adv-x="537" d="M312 461q43 0 78.5 -13.5t61 -38t39.5 -59.5t14 -79q0 -59 -21 -111t-58 -90.5t-86 -61t-105 -22.5q-44 0 -80.5 14.5t-62.5 41t-40 63t-14 81.5q0 57 21.5 107t59 87.5t87 59t106.5 21.5zM394 334q0 44 -21 68.5t-59 24.5q-29 0 -54.5 -16t-44.5 -46q-31 -51 -48.5 -115 t-17.5 -128q0 -50 20.5 -76t58.5 -26q61 0 99 59q15 23 27 53.5t21 64.5t14 69t5 68z"/>
<glyph glyph-name="p" unicode="p" d="M32 376q14 7 25 12t24 10t29.5 10.5t42.5 12.5l31 128l110 30l-35 -132q26 8 54 12.5t62 4.5q159 0 159 -123q0 -65 -28.5 -130.5t-80.5 -122.5q-45 -49 -96 -75t-101 -26q-23 0 -43.5 5.5t-34.5 16.5l-44 -181l79 -17l-4 -24q-9 -1 -12 -1t-10 -1t-21.5 -3t-45.5 -6 q-16 -2 -27 -4t-21 -3.5t-19.5 -3.5t-22.5 -5l-13 7l153 614q-15 -4 -26 -7.5t-22 -8t-24 -9.5t-32 -12l-13 -5zM176 104q-4 -13 -4 -26q0 -26 15.5 -41t42.5 -15q28 0 55 18t49 51q19 30 35 63t27 66.5t17.5 66t6.5 59.5q0 37 -22 57t-63 20q-21 0 -44.5 -3t-38.5 -8z"/>
<glyph glyph-name="q" unicode="q" d="M468 478l81 27l-174 -697q9 -3 15.5 -5t13.5 -3.5t16.5 -2.5t24.5 -2l-4 -26l-21 1q-26 2 -47.5 3t-46.5 1q-39 0 -78.5 -1.5t-62.5 -3.5l5 27l7 1l40.5 6t34.5 7l88 338q-11 -16 -16 -22q-48 -65 -106.5 -100.5t-116.5 -35.5q-42 0 -67 30.5t-25 79.5q0 57 32 119.5 t93 127.5q113 118 214 118q29 0 47.5 -11.5t32.5 -35.5zM188 62q30 0 63 21t63 59q43 55 66.5 110t23.5 101q0 31 -18 49.5t-47 18.5q-58 0 -114 -71q-42 -54 -65 -112.5t-23 -110.5q0 -29 14 -47t37 -18z"/>
<glyph glyph-name="r" unicode="r" horiz-adv-x="389" d="M200 234q6 9 10 15.5t6 11.5q35 59 61.5 97.5t48 61.5t40.5 32t40 9q16 0 27.5 -10.5t11.5 -26.5q0 -5 -2 -14t-4 -17q-13 -45 -45 -45q-6 0 -26 3q-5 1 -9.5 2t-9.5 1q-7 0 -13 -2.5t-11 -5.5q-30 -22 -59 -64q-20 -29 -35 -55t-27 -52.5t-23 -55t-22 -63.5l-12 -37 q-5 -14 -9 -20q-7 -9 -38 -9q-56 0 -56 20q0 2 2 12l67 224q5 19 12 44t7 45t-14 20q-7 0 -15.5 -4.5t-16.5 -10.5t-15.5 -12.5t-12.5 -11.5l-18 -18l-17 22q20 26 34 43t27.5 29.5t28 24t35.5 24.5q31 20 56 20q41 0 41 -46q0 -17 -6 -44t-21 -78q-3 -10 -7.5 -24.5 t-10.5 -34.5z"/>
<glyph glyph-name="s" unicode="s" horiz-adv-x="389" d="M57 142q7 -40 45 -61t102 -21q72 0 72 38q0 15 -12.5 27t-41.5 32l-77 51q-40 26 -55 47.5t-15 51.5q0 35 21.5 58.5t47.5 43.5q30 23 49.5 34t37.5 15q7 2 20 2.5t25 0.5q93 0 93 -63q0 -16 -5 -28.5t-20 -34.5h-22q-8 28 -34.5 43t-68.5 15q-33 0 -51.5 -10.5 t-18.5 -29.5q0 -15 13.5 -29.5t47.5 -36.5l72 -46q33 -21 45.5 -39.5t12.5 -47.5q0 -60 -60 -115q-33 -30 -65 -42t-77 -12q-60 0 -96 25t-36 65q0 23 8.5 37t22.5 30h20z"/>
<glyph glyph-name="t" unicode="t" horiz-adv-x="333" d="M44 398l14 53h105l43 142h104l-43 -142h118l-13 -53h-120l-69 -239q-4 -14 -8 -26.5t-4 -26.5q0 -19 22 -19q14 0 31 11t43 37l25 25l18 -21l-17 -20q-31 -37 -57.5 -62t-49 -40.5t-42.5 -22t-40 -6.5q-24 0 -39.5 15.5t-15.5 40.5q0 12 3.5 31.5t12 51t22 76t33.5 107.5 q5 15 12 37t16 51h-104z"/>
<glyph glyph-name="u" unicode="u" horiz-adv-x="574" d="M451 165q-8 -22 -13.5 -43t-5.5 -26q0 -7 5 -11.5t13 -4.5q20 0 63 49q3 4 7.5 8.5l10.5 10.5l21 -22l-10 -10q-67 -67 -106.5 -99t-70.5 -32q-18 0 -31 13.5t-13 33.5q0 8 2 18t5 21q6 23 11 41t12 39.5t17.5 51.5t26.5 75q-14 -21 -24 -36.5t-17 -25.5 q-75 -111 -141 -169.5t-115 -58.5q-20 0 -32.5 15t-12.5 38q0 10 2 22t6.5 29t12 40.5t18.5 55.5l32 93q12 34 16 46t4 16q0 6 -4.5 10t-9.5 4q-11 0 -25 -10t-46 -40q-2 -2 -4 -3.5t-5 -4.5l-21 21q10 10 16.5 17t11.5 12q33 33 56.5 55t41.5 34.5t33.5 17.5t31.5 5 q19 0 32.5 -13.5t13.5 -33.5q0 -10 -1.5 -22.5t-6.5 -26.5l-75 -222q-3 -9 -8 -20.5t-5 -21.5q0 -14 16 -14q13 0 26.5 10.5t35.5 37.5l70 85q36 44 63 92.5t51 99.5q5 10 9.5 19.5t9.5 19.5t15 10q12 0 66 -26l8 -4z"/>
<glyph glyph-name="v" unicode="v" horiz-adv-x="500" d="M14 321l5 5q109 139 185 139q21 0 33 -13.5t12 -36.5q0 -17 -7 -42t-22 -76l-28 -94q-8 -26 -13 -43t-8 -28t-4.5 -17.5t-1.5 -12.5q0 -19 12.5 -30t33.5 -11q30 0 60.5 18t56.5 50q33 42 51.5 91.5t18.5 96.5v13.5t-1 14.5l-5 40q0 6 -0.5 11t-0.5 9q0 26 16 42t42 16 q25 0 41.5 -16.5t16.5 -41.5q0 -47 -34 -120t-94 -154q-50 -67 -114 -106t-127 -39q-36 0 -58 22.5t-22 59.5q0 25 7.5 63.5t24.5 89.5l25 77q6 20 8.5 27.5t2.5 12.5q0 8 -5 13.5t-13 5.5q-20 0 -57 -39l-16 -17z"/>
<glyph glyph-name="w" unicode="w" horiz-adv-x="778" d="M354 160q-12 -16 -22 -28t-20 -22.5t-23 -21.5t-31 -26q-48 -39 -82 -57t-60 -18q-25 0 -43 20t-18 48q0 12 1.5 25t5.5 31t11 42.5t17 58.5l24 80q4 12 8 25.5t4 24.5q0 5 -4 9.5t-11 4.5q-19 0 -58 -39l-17 -17l-21 23l47 51q38 42 77 65.5t68 23.5q20 0 32 -14t12 -38 q0 -15 -5 -33.5t-19 -61.5l-31 -92q-14 -39 -22 -75t-8 -53q0 -11 6 -18t16 -7q16 0 41.5 15t46.5 37l59 61q13 14 21.5 23.5t11.5 17.5q5 14 7.5 30t6.5 30q11 38 23 71t26 60q23 46 66 46q45 0 45 -50q0 -10 -2 -19.5t-5 -19.5q-6 -18 -15.5 -34t-31.5 -45 q-7 -18 -11.5 -31.5l-7.5 -22.5q-11 -36 -18 -74t-7 -64q0 -43 43 -43q28 0 59 19t58 51q33 40 51.5 89t18.5 96v12t-1 12l-3 38q-1 6 -1 12v11q0 62 56 62q26 0 42 -13.5t16 -36.5q0 -26 -12 -63.5t-32.5 -79.5t-48 -85t-57.5 -80q-22 -26 -49 -47.5t-56 -37t-58.5 -24 t-56.5 -8.5q-34 0 -53.5 20t-19.5 56q0 48 14 98z"/>
<glyph glyph-name="x" unicode="x" d="M64 109q-1 -3 -1 -9q0 -32 33 -32q20 0 43.5 20t61.5 68l35 43l-21 74q-3 12 -7.5 29t-11.5 32.5t-18 26.5t-27 11q-21 0 -37 -19q-10 -11 -15.5 -19t-16.5 -30l-26 15q57 142 143 142q25 0 41.5 -12t28 -31t18 -40.5t12.5 -41.5q2 -6 4.5 -15.5t6.5 -21.5q14 21 34 49.5 t44.5 54t52 43.5t54.5 18q23 0 37 -15t14 -38q0 -20 -16 -41t-39 -32l-16 6v3q0 12 -8.5 20.5t-20.5 8.5q-14 0 -29 -9t-29 -22t-26 -27t-19 -24q-5 -7 -10.5 -14.5t-11.5 -16.5l29 -94q3 -11 8.5 -27t13 -31t18 -26t24.5 -11q17 0 37.5 19t37.5 51l24 -19 q-9 -17 -15.5 -29.5t-13.5 -22.5t-15.5 -20t-20.5 -22q-44 -45 -90 -45q-34 0 -57.5 30.5t-44.5 109.5l-9 34l-14 -19l-21 -28t-18 -23.5t-18 -22t-21 -23.5q-29 -32 -50.5 -45t-47.5 -13q-27 0 -43.5 15t-16.5 41q0 20 11 38.5t36 37.5z"/>
<glyph glyph-name="y" unicode="y" horiz-adv-x="519" d="M36 282l-24 15q0 16 0.5 27t2 20t4 18t6.5 20q13 36 37 59.5t65 23.5q61 0 93 -50q12 -19 21.5 -40t18 -51t16.5 -73t18 -106l13 -80l21 34q25 41 41.5 70.5t26 52t13.5 39.5t4 32q0 16 -5.5 34.5t-10.5 34.5q-6 23 -6 38q0 29 17.5 47.5t44.5 18.5q25 0 39 -16t14 -45 q0 -22 -5 -45.5t-14 -47.5q-64 -163 -210 -346q-52 -65 -111 -126q-38 -40 -66 -55.5t-61 -15.5q-58 0 -58 52q0 23 10 37t27 14q8 0 16 -1.5t16 -3.5q14 -3 24 -4.5t18 -1.5q12 0 20 1t16 4.5t16.5 9.5t21.5 17q56 46 56 81v8.5t-2 11.5l-29 163q-9 53 -20.5 93.5 t-23.5 69.5q-12 28 -29 43.5t-36 15.5q-34 0 -34 -55q0 -23 3 -35z"/>
<glyph glyph-name="z" unicode="z" horiz-adv-x="463" d="M328 351q-9 -4 -19.5 -5.5t-21.5 -1.5q-29 0 -74 17q-14 5 -35.5 16t-35.5 11q-33 0 -33 -29q0 -6 1 -9l5 -13q1 -3 1 -10q0 -11 -7.5 -18.5t-19.5 -7.5q-30 0 -30 30q0 9 2 16t7.5 16t16 21t28.5 31q24 26 44.5 37t43.5 11q27 0 54 -12.5t51 -23.5q6 -3 15.5 -7.5t20 -9 t20 -7.5t16.5 -3q18 0 18 22q0 6 -1 12t-1 12q0 12 8.5 20t22.5 8q12 0 19.5 -7t7.5 -19q0 -24 -51 -74l-261 -256q15 0 27 -1.5t22.5 -5.5t21.5 -11t26 -18l51 -39q29 -22 41 -28t24 -6t21 9.5t9 22.5q0 5 -2 8.5t-9 8.5q-19 16 -19 30q0 11 7.5 17.5t20.5 6.5 q17 0 28 -13.5t11 -34.5q0 -46 -42 -93q-36 -42 -78 -42q-27 0 -56 19t-79 68q-17 17 -36 31.5t-44 14.5q-22 0 -22 -16q0 -5 1 -8.5t1 -5.5q1 -5 1.5 -10t0.5 -7q0 -12 -7.5 -19.5t-21.5 -7.5q-29 0 -29 30q0 12 5.5 22t19.5 24z"/>
<glyph glyph-name="braceleft" unicode="{" horiz-adv-x="333" d="M3 266q19 4 31.5 7.5t22 7t17.5 8t17 10.5q23 16 36 41.5t24 76.5l17 83q11 51 25.5 97t52.5 84q31 29 73 42.5t105 13.5h14l-8 -42q-38 -2 -61 -11t-43 -31q-16 -19 -25.5 -43t-20.5 -74l-17 -81q-6 -30 -11.5 -50.5t-11.5 -35.5t-12.5 -26.5t-15.5 -23.5 q-20 -25 -49 -38.5t-74 -18.5q48 -8 76.5 -35.5t28.5 -69.5q0 -18 -5 -45t-9 -45l-20 -93q-3 -13 -4 -25.5t-1 -25.5q0 -30 9 -48t29 -29q15 -8 25.5 -10.5t30.5 -3.5l-8 -41q-20 1 -33.5 2t-24.5 3t-22 5t-26 9q-38 14 -60 44t-22 67q0 17 2.5 37.5t7.5 43.5l22 108 q6 29 7 56.5t-16 53.5q-10 15 -26 24t-48 17z"/>
<glyph glyph-name="bar" unicode="|" horiz-adv-x="222" d="M66 750h90v-1000h-90v1000z"/>
<glyph glyph-name="braceright" unicode="}" horiz-adv-x="333" d="M317 261q-19 -4 -31.5 -7.5t-22 -7t-17 -8l-17.5 -10.5q-23 -15 -35.5 -41t-23.5 -77l-17 -83q-8 -39 -15.5 -66.5t-16.5 -48t-20.5 -36t-26.5 -29.5q-30 -29 -72 -42.5t-105 -13.5h-15l9 41q38 2 61 11t42 31q17 19 27 43.5t20 74.5l17 80q6 31 11.5 51.5t11 35.5 t12.5 26t16 23q20 25 49 38.5t74 18.5q-21 3 -40 11t-33.5 21t-23 30.5t-8.5 41.5q0 16 2.5 34.5t7.5 39.5l24 111q3 17 5 35t-1 35.5t-11.5 32.5t-25.5 24q-15 8 -25.5 10.5t-31.5 3.5l9 42q20 -1 33.5 -2t24.5 -3.5t22 -5.5t26 -9q38 -14 60 -44t22 -67q0 -17 -2.5 -37.5 t-7.5 -43.5l-23 -108q-5 -20 -5.5 -29.5t-0.5 -21.5q0 -48 23 -68.5t66 -31.5z"/>
<glyph glyph-name="asciitilde" unicode="~" d="M-13 154q18 95 57 145.5t95 50.5q29 0 54.5 -8.5t51.5 -19.5l86 -34q35 -14 58 -21t41 -7q36 0 59 23.5t40 78.5h40q-5 -20 -8.5 -33.5t-6.5 -24t-7 -20t-9 -21.5q-19 -45 -51 -71.5t-66 -26.5q-26 0 -56 8.5t-81 28.5l-67 27q-33 14 -54.5 19.5t-40.5 5.5 q-67 0 -95 -100h-40z"/>
<glyph glyph-name="sterling" unicode="£" d="M139 127q9 24 14.5 42.5t9 40t7 50.5t8.5 75l3 27h-116l5 48h116q8 81 31.5 147t59 112.5t81.5 71.5t100 25q26 0 49 -6t39 -18q22 -16 22 -51q0 -60 -61 -60q-9 0 -16 0.5t-15 2.5q1 6 1 10v9q0 66 -51 66q-24 0 -41.5 -12.5t-31 -42.5t-23.5 -79.5t-20 -124.5 q-1 -8 -2.5 -20.5t-4.5 -29.5h166l-7 -48h-166q-9 -38 -17 -65.5t-19 -52.5t-27.5 -50.5t-40.5 -60.5q7 1 17 1.5t18 0.5q15 0 29 -2t28 -5q11 -3 20 -6t19 -8t22 -12.5t30 -18.5q17 -11 34.5 -21.5t39.5 -10.5q19 0 30 10t11 28q0 38 -51 41q-2 4 -2.5 10t-0.5 11 q0 22 13 35t34 13q27 0 44 -19t17 -49t-12.5 -57t-34 -48t-49.5 -33.5t-58 -12.5q-41 0 -76 19.5t-67 41.5q-20 14 -32 21.5t-20.5 12t-16 6.5t-18.5 4q-4 -5 -7 -8.5t-5 -5.5q-23 -27 -37.5 -43t-24.5 -24.5t-18 -11t-17 -2.5q-26 0 -26 34q0 31 30 58t84 45z"/>
<glyph glyph-name="currency" unicode="¤" d="M109 231q-13 19 -21.5 34t-13.5 29.5t-7 29.5t-2 34t2 34t7 29.5t13.5 30.5t21.5 36l-65 63l41 41l65 -63q20 13 35 21t29 12.5t29 6.5t34 2q20 0 35 -2t29.5 -6.5t30 -13t34.5 -21.5l65 64l41 -41l-65 -63q13 -20 21.5 -35.5t13.5 -30t7 -30t2 -34.5t-2 -34t-7 -29.5 t-13.5 -29.5t-21.5 -34l65 -65l-41 -41l-65 63q-19 -13 -34.5 -21t-29.5 -12.5t-29 -6.5t-35 -2q-19 0 -34.5 2t-30 6.5t-29.5 13t-34 21.5l-65 -64l-41 41zM278 493q-28 0 -52.5 -10.5t-43 -28.5t-29 -42.5t-10.5 -52.5t10.5 -52.5t29 -43t43 -29t52.5 -10.5t52.5 10.5 t43 29t29 43t10.5 52.5t-10.5 52.5t-29 42.5t-43 28.5t-52.5 10.5z"/>
<glyph glyph-name="brokenbar" unicode="¦" horiz-adv-x="222" d="M66 125h90v-250h-90v250zM66 625h90v-250h-90v250z"/>
<glyph glyph-name="section" unicode="§" d="M403 269q13 -31 21.5 -54t13.5 -41.5t7 -35t2 -34.5q0 -59 -25 -113.5t-66.5 -96t-96 -66t-114.5 -24.5q-44 0 -75 19.5t-31 47.5q0 19 15.5 33t36.5 14q19 0 29 -13t19 -27q13 -20 22.5 -27t24.5 -7q19 0 35.5 10.5t28.5 28.5t19 42.5t7 53.5q0 54 -19.5 102t-40.5 97 l-27 62q-28 63 -39 104.5t-11 79.5q0 54 23 105t61 90.5t87.5 63t102.5 23.5q48 0 79.5 -19t31.5 -48q0 -19 -13.5 -32.5t-33.5 -13.5q-17 0 -27.5 8.5t-20.5 28.5q-11 21 -21 29.5t-26 8.5q-32 0 -53 -32t-21 -82q0 -31 9.5 -67t31.5 -89zM302 -98q21 10 37.5 33.5 t28.5 52.5t18.5 58.5t6.5 50.5q0 15 -1.5 28.5t-5.5 28.5t-10.5 32.5t-16.5 41.5l-53 122q-14 33 -23 56.5t-14.5 42.5t-7.5 36.5t-2 36.5q0 64 19 94q-14 -7 -21 -14t-22 -30q-43 -65 -43 -138q0 -17 1.5 -32t6 -32t12 -37t19.5 -47l34 -77q10 -22 21 -46t20 -49t15 -50 t6 -49q0 -29 -7 -57.5t-18 -55.5z"/>
<glyph glyph-name="copyright" unicode="©" horiz-adv-x="800" d="M427 736q78 0 147 -29.5t120.5 -81t81.5 -120.5t30 -147t-29.5 -147t-81 -120.5t-120.5 -81.5t-148 -30q-78 0 -147 30t-120.5 81.5t-81.5 120.5t-30 147t30 147t81.5 120.5t120.5 81t147 29.5zM427 694q-70 0 -131 -26.5t-107 -72t-72.5 -106.5t-26.5 -131t26.5 -131 t72.5 -107t107 -72.5t131 -26.5t131.5 26.5t107 72.5t72 107t26.5 131q0 69 -26.5 130.5t-72 107t-107 72t-131.5 26.5zM603 265q-10 -20 -15.5 -30t-16.5 -23q-27 -35 -64.5 -52.5t-82.5 -17.5q-44 0 -81.5 16t-65.5 44.5t-43.5 67t-15.5 83.5q0 48 16 89t44 71t66 47.5 t82 17.5q26 0 49.5 -5.5t46.5 -19.5q12 -7 16.5 -9t9.5 -2q8 0 11.5 4.5t5.5 18.5h32l4 -154h-34q-4 16 -7 24.5t-8 19.5q-34 81 -114 81q-30 0 -55.5 -13.5t-43.5 -37.5t-28.5 -57t-10.5 -72q0 -37 10.5 -69t29 -54.5t44 -35.5t55.5 -13q28 0 53.5 11.5t44.5 33.5 q11 13 17.5 22.5t18.5 31.5z"/>
<glyph glyph-name="guillemotleft" unicode="«" horiz-adv-x="519" d="M277 404l15 -19l-140 -149l89 -158l-21 -14l-168 181zM465 404l15 -19l-140 -149l89 -158l-20 -14l-168 181z"/>
<glyph glyph-name="logicalnot" unicode="¬" d="M20 407h516v-299h-91v209h-425v90z"/>
<glyph glyph-name="registered" unicode="®" horiz-adv-x="400" d="M272 736q39 0 73.5 -15t60.5 -40.5t41 -60t15 -73.5t-15 -74t-40.5 -60.5t-60.5 -40.5t-74 -15t-73.5 15t-60 40.5t-40.5 60t-15 73.5t15 74t40.5 60.5t60 40.5t73.5 15zM272 715q-34 0 -65 -13t-53.5 -36t-36 -53.5t-13.5 -65.5t13 -65.5t36 -53.5t53.5 -36.5 t65.5 -13.5t65.5 13.5t53.5 36t36.5 53.5t13.5 65q0 35 -13 65.5t-36 53.5t-54 36.5t-66 13.5zM172 464q17 2 24 6t7 27v89q0 23 -3 34.5t-28 11.5v17h117q12 0 24.5 -2.5t23.5 -8t18 -14.5t7 -23q0 -20 -17 -33.5t-49 -17.5v-2q5 -2 8 -3.5t8 -4.5q14 -8 21 -19t12 -30 l3 -11q3 -14 11 -14q12 0 14 27h14q-6 -50 -41 -50q-30 0 -36 36l-3 18q-7 44 -51 44h-18v-47q0 -18 5.5 -24t24.5 -6v-16h-96v16zM262 558q61 0 61 39q0 20 -15.5 28.5t-32.5 8.5h-12q-20 0 -22.5 -10.5t-2.5 -27.5v-38h24z"/>
<glyph glyph-name="degree" unicode="°" horiz-adv-x="400" d="M271 736q30 0 57 -11.5t47.5 -31.5t32 -47t11.5 -57q0 -31 -11.5 -58t-32 -47t-47.5 -31.5t-57 -11.5q-31 0 -58 11.5t-47 31.5t-31.5 47t-11.5 58q0 30 11.5 57t31.5 47t47 31.5t58 11.5zM271 682q-39 0 -66.5 -27.5t-27.5 -65.5q0 -39 27.5 -66.5t66.5 -27.5t66.5 27.5 t27.5 66.5q0 38 -27.5 65.5t-66.5 27.5z"/>
<glyph glyph-name="plusminus" unicode="±" d="M232 282h-212v90h212v158h90v-158h214v-90h-214v-159h-90v159zM20 90h516v-90h-516v90z"/>
<glyph glyph-name="mu" unicode="µ" horiz-adv-x="574" d="M30 322l45 46q12 13 29 29.5t35.5 31t38.5 24.5t39 10q23 0 36.5 -13.5t13.5 -36.5q0 -25 -11 -58l-74 -206q-4 -11 -8.5 -23t-4.5 -23q0 -14 17 -14q13 0 33 17.5t39.5 40t36 44t23.5 30.5q37 49 68 101t54 109q13 32 25 32q11 0 22.5 -6t20.5 -10q10 -4 14.5 -6t7 -3 t4.5 -2t7 -3l-5 -13q-8 -19 -19 -52.5t-28 -82.5t-28 -83t-18 -54q-7 -22 -8.5 -29.5t-1.5 -15.5q0 -21 16 -21q10 0 23 10.5t39 36.5l21 21l21 -22q-20 -22 -31 -33.5t-26 -26.5q-12 -12 -26.5 -26t-31 -26t-34 -20.5t-34.5 -8.5q-23 0 -35.5 13.5t-12.5 37.5q0 9 2.5 20 t7.5 29q5 19 10 35t11 34t14 40.5t18 53.5l10 30q-5 -9 -9.5 -15.5t-7.5 -11.5q-77 -116 -143 -183q-16 -16 -31.5 -30t-32.5 -26q-28 -21 -49 -21q-5 0 -9 1t-9 6q-2 -8 -3 -13t-3 -16q-3 -18 -4 -27.5l-3 -28.5q-3 -33 -4.5 -49t-4.5 -30q-13 -72 -63 -72q-22 0 -34.5 14 t-12.5 39q0 19 5.5 40.5t13 43.5t16.5 43t15 39q8 22 15 41.5t16 46.5l81 239q2 5 6 16t4 18q0 15 -14 15q-9 0 -20.5 -7t-22.5 -16.5t-21 -19.5t-16 -15z"/>
<glyph glyph-name="paragraph" unicode="¶" horiz-adv-x="620" d="M434 707q-26 -21 -42.5 -53t-26.5 -68t-15.5 -72.5t-11.5 -67.5l-53 -288q-7 -40 -14.5 -87.5t-20.5 -93.5t-35.5 -86t-60.5 -64l5 -7q53 14 88 44.5t58 71t36.5 87.5t22.5 94l64 341q7 38 12.5 63t10 42.5t8.5 30.5t8 27q36 109 115 109q35 0 57.5 -20t22.5 -51 q0 -12 -3.5 -22t-11.5 -24l-28 12q5 8 6 13t1 12q0 11 -7 18.5t-17 7.5q-15 0 -26 -16q-14 -19 -27 -60.5t-24 -89t-19 -93t-13 -72.5l-45 -249q-11 -60 -38.5 -115.5t-69 -97.5t-96 -67t-120.5 -25q-54 0 -86.5 21t-32.5 55q0 24 16 40t40 16q23 0 39.5 -16t16.5 -39 q0 -20 -20 -43q4 1 6.5 1t4.5 1q30 6 51 32.5t35 61.5t22 71.5t12 61.5l37 212q-19 0 -33 0.5t-25.5 2t-22 4.5t-23.5 7q-54 18 -84.5 64t-30.5 109t28.5 119t79.5 91q26 18 49.5 28t47.5 15t49.5 6t55.5 2l77 2z"/>
<glyph glyph-name="periodcentered" unicode="·" horiz-adv-x="278" d="M139 325q28 0 47.5 -19.5t19.5 -47.5t-19.5 -47.5t-47.5 -19.5t-47.5 19.5t-19.5 47.5t19.5 47.5t47.5 19.5z"/>
<glyph glyph-name="guillemotright" unicode="»" horiz-adv-x="519" d="M250 65l-16 20l140 152l-88 154l21 14l168 -183zM65 65l-16 20l140 152l-88 154l21 14l167 -183z"/>
<glyph glyph-name="divide" unicode="÷" d="M20 303h516v-90h-516v90zM278 138q27 0 45.5 -19t18.5 -46t-18.5 -46t-45.5 -19t-46 19t-19 46t19 46t46 19zM278 507q27 0 45.5 -19t18.5 -45q0 -27 -18.5 -46t-45.5 -19q-26 0 -45.5 19t-19.5 46q0 26 19 45t46 19z"/>
<glyph glyph-name="afii10023" unicode="Ё" horiz-adv-x="648" d="M494 869q24 0 41 -17t17 -41t-17 -40.5t-41 -16.5t-41 16.5t-17 40.5t17 41t41 17zM287 754q-24 0 -41 16.5t-17 40.5t17 41t41 17t41 -17t17 -41t-17 -40.5t-41 -16.5zM109 698l22 -1q36 -2 62.5 -3t49.5 -1q10 0 28 0.5t38 1t38.5 1t29.5 0.5l197 2h57q-4 -24 -6.5 -42 t-4.5 -34t-4 -33.5t-4 -41.5h-31q1 9 1.5 14t0.5 10q0 45 -23 65q-13 11 -39 15.5t-73 4.5h-44q-21 0 -42.5 -1t-42.5 -3l-48 -265h13t22 -0.5t24 -0.5h21q50 0 76.5 5.5t39.5 17.5q11 10 16 23t15 49h29q-4 -18 -7.5 -32l-6.5 -26t-5 -24.5t-5 -28.5t-5 -29.5t-4 -27.5 t-4 -30t-5 -39h-28q0 9 1.5 22t1.5 26.5t-3 24.5t-13 16q-18 9 -116 9h-33t-33 -2l-40 -216q-3 -14 -4 -25t-1 -19q0 -20 11.5 -26t28.5 -7q26 -1 62.5 -1.5t63.5 -0.5q57 0 91 7.5t54 24.5q8 7 14.5 14.5t13 18t14.5 25.5t18 39h31q-8 -28 -14 -48.5t-11 -39.5t-10 -39 t-11 -47l-38 1l-162 2q-63 1 -99 1.5t-45 0.5q-10 0 -45 -0.5t-96 -1.5q-22 0 -36 -0.5t-24.5 -0.5t-19 -0.5t-20.5 -1.5l5 31h17q21 0 34.5 2.5t22.5 8.5t14 17t8 29l89 473q3 17 5.5 33.5t2.5 33.5q0 22 -15.5 30.5t-55.5 8.5h-13z"/>
<glyph glyph-name="afii10051" unicode="Ђ" horiz-adv-x="824" d="M796 257q0 -36 -11 -71.5t-31 -67.5t-49 -58.5t-65 -44.5q-32 -16 -70 -22.5t-78 -6.5q-39 0 -64 16.5t-25 42.5q0 17 10.5 30t30.5 13q6 0 13 -3t13 -6q5 -24 14 -39.5t40 -15.5q21 0 44.5 15.5t44 45t33.5 73t13 100.5q0 51 -29.5 77.5t-68.5 26.5q-50 0 -99.5 -31 t-83.5 -96l-44 -235v0l-49 2q-10 1 -23.5 0.5t-21.5 -0.5h-25.5h-20t-20 -0.5t-24.5 -0.5l-31 -1l5 31h25q32 0 50 10q8 5 14 16t10 24.5t6.5 27t3.5 21.5l95 525h-80q-26 0 -48 -4t-38 -12q-54 -27 -72 -113h-32q8 31 13 53.5t9.5 43.5t8.5 43.5t10 53.5h23q4 -13 15 -17.5 t36 -4.5h449q22 0 33.5 5t17.5 17h27q-5 -31 -8.5 -53.5t-6 -43.5t-5 -43.5t-5.5 -53.5h-29q1 8 1.5 20t0.5 19q0 45 -20 67q-11 13 -33 17.5t-71 4.5h-68l-61 -326q32 45 80.5 78t118.5 33q50 0 88 -14.5t63.5 -39.5t38 -58t12.5 -70z"/>
<glyph glyph-name="afii10052" unicode="Ѓ" d="M458 901q11 11 22 20t27 9q19 0 32 -12t13 -29q0 -23 -25 -38l-164 -97h-44zM222 123q-2 -14 -4 -27t-2 -27q0 -19 11 -27.5t37 -9.5l48 -1l-4 -31l-22 1q-37 2 -72.5 2h-72.5h-41t-28 -0.5l-24 -1t-29 -0.5l-31 -1l5 31q9 0 16 -0.5t12 -0.5q35 0 50 16.5t22 50.5 l60 315q17 91 24.5 142.5t7.5 66.5q0 23 -12 32q-17 14 -78 14l4 31q8 0 14 -0.5t11 -0.5q19 -1 36 -1.5t35.5 -1t40.5 -0.5h51q50 0 99 0.5t99 1.5q17 0 31 0.5t28 0.5h30.5t38.5 1q-5 -38 -10.5 -78.5t-9.5 -79.5h-28l1 19q1 20 -5.5 41.5t-18.5 32.5t-35 16t-70 5 q-29 0 -59 -1t-59 -3z"/>
<glyph glyph-name="afii10053" unicode="Є" horiz-adv-x="741" d="M537 481q-4 -18 -7.5 -32l-6.5 -26t-5 -24.5t-5 -28.5t-5 -29.5t-4 -27.5t-4 -30t-5 -39h-28q0 9 1.5 22t1.5 26.5t-3 24.5t-13 16q-18 9 -116 9h-20h-32t-37 -0.5t-35 -0.5q-1 -11 -1.5 -22.5t-0.5 -23.5q0 -66 16.5 -114.5t51.5 -87.5q61 -67 151 -67q86 0 154 60 q13 11 23 22t19 24.5t19 31t22 41.5l28 -8q-8 -27 -14 -46.5t-10.5 -37.5t-8.5 -38t-10 -48q-10 2 -15 2q-20 0 -42 -8.5t-41 -13.5q-42 -11 -77 -16t-70 -5q-73 0 -134.5 23.5t-106 67t-69.5 104t-25 134.5q0 87 31.5 160.5t87 127t130.5 83.5t161 30q43 0 85.5 -8.5 t81.5 -25.5q11 -5 20 -8.5t21 -3.5q21 0 26 20l22 -4q-7 -29 -12 -50.5t-9 -41.5t-7 -42t-6 -52l-28 3q-1 83 -45 126.5t-127 43.5q-56 0 -103.5 -20t-84.5 -57.5t-62 -90.5t-36 -118h38.5t42.5 -0.5t38 -0.5h23q50 0 76.5 5.5t39.5 17.5q11 10 16 23t15 49h29z"/>
<glyph glyph-name="afii10054" unicode="Ѕ" horiz-adv-x="538" d="M463 516l1.5 16.5t0.5 12.5q0 58 -30.5 95t-91.5 37q-50 0 -81 -28t-31 -73q0 -24 11 -46.5t27.5 -43.5t35.5 -39.5t35 -34.5q23 -23 47 -48t43 -52.5t31 -58.5t12 -66q0 -43 -17 -80t-47 -64t-71.5 -42t-91.5 -15q-44 0 -80 11.5t-75 29.5l-40 -30l-17 2q5 33 8.5 57 t6.5 46t5.5 46t5.5 57l29 2v-10q0 -78 39.5 -123.5t106.5 -45.5q59 0 94 31t35 83q0 30 -14.5 57.5t-36.5 52.5t-46 47t-44 41q-41 39 -66.5 84t-25.5 102q0 42 16 76.5t44.5 59.5t69 38.5t88.5 13.5q26 0 51.5 -3.5t49.5 -13.5q6 -2 15 -6t17 -4q14 0 17 14l24 -2 q-6 -30 -10.5 -52t-7.5 -41t-6 -39.5t-7 -47.5z"/>
<glyph glyph-name="afii10055" unicode="І" horiz-adv-x="352" d="M-5 31h22q24 0 38 6t22 17t12 27.5t8 38.5l74 395q7 36 11.5 63.5t4.5 48.5q0 15 -6.5 23t-17 11.5t-23 4.5t-23.5 1h-15l4 31h4q35 0 70.5 -1.5t70.5 -1.5q39 0 77.5 1.5t77.5 1.5h6l-5 -31h-6q-42 0 -60.5 -8.5t-22.5 -30.5l-77 -407q-26 -138 -26 -158q0 -12 7 -18.5 t16.5 -9.5t20.5 -3.5t20 -0.5h16l-5 -31q-11 0 -20.5 0.5t-20.5 1.5q-15 1 -41.5 1.5t-52.5 0.5q-21 0 -41.5 -0.5t-45.5 -1.5q-20 -1 -38.5 -1.5t-38.5 -0.5z"/>
<glyph glyph-name="afii10056" unicode="Ї" horiz-adv-x="352" d="M394 869q24 0 41 -17t17 -41t-17 -40.5t-41 -16.5t-41 16.5t-17 40.5t17 41t41 17zM187 754q-24 0 -41 16.5t-17 40.5t17 41t41 17t41 -17t17 -41t-17 -40.5t-41 -16.5zM-5 31h22q24 0 38 6t22 17t12 27.5t8 38.5l74 395q7 36 11.5 63.5t4.5 48.5q0 15 -6.5 23t-17 11.5 t-23 4.5t-23.5 1h-15l4 31h4q35 0 70.5 -1.5t70.5 -1.5q39 0 77.5 1.5t77.5 1.5h6l-5 -31h-6q-42 0 -60.5 -8.5t-22.5 -30.5l-77 -407q-26 -138 -26 -158q0 -12 7 -18.5t16.5 -9.5t20.5 -3.5t20 -0.5h16l-5 -31q-11 0 -20.5 0.5t-20.5 1.5q-15 1 -41.5 1.5t-52.5 0.5 q-21 0 -41.5 -0.5t-45.5 -1.5q-20 -1 -38.5 -1.5t-38.5 -0.5z"/>
<glyph glyph-name="afii10057" unicode="Ј" horiz-adv-x="352" d="M98 700h22q35 0 69 -1t69 -1h46h30t25 0.5t29 0.5l31 1l-4 -31q-19 -2 -34.5 -2t-27 -3.5t-19 -14.5t-12.5 -36l-57 -303q-18 -95 -32 -163t-28.5 -118.5t-30.5 -88t-38 -71.5q-64 -102 -176 -102q-45 0 -73 22.5t-28 58.5q0 28 16 44t43 16q24 0 38 -12t14 -33 q0 -6 -0.5 -12.5t-0.5 -12.5q0 -11 7.5 -18.5t18.5 -7.5q28 0 42 34q11 25 21 61t16 69l105 547q5 27 10 54.5t5 55.5q0 21 -18 28.5t-71 7.5h-12z"/>
<glyph glyph-name="afii10058" unicode="Љ" horiz-adv-x="963" d="M935 235q0 -54 -23 -98.5t-65 -75.5t-95.5 -46t-109.5 -15q-43 0 -81 1.5t-92 1.5h-36.5t-25.5 -0.5l-22 -1t-27 -0.5l-28 -1l4 31h23q23 0 36 5t20.5 15t11 25t7.5 36l101 540q-8 1 -18.5 1.5t-21.5 0.5h-27.5t-28.5 -1q-14 -1 -26.5 -2.5t-23 -7.5t-18.5 -16.5 t-13 -29.5l-22 -84q-17 -67 -35 -130t-46 -135q-19 -49 -41.5 -95.5t-50 -83t-60 -59t-73.5 -22.5q-12 0 -24 3.5t-22.5 11t-17 19t-6.5 27.5q0 32 17.5 47t40.5 15q16 0 26 -5.5t14 -9.5q5 -6 13.5 -8t13.5 -2q13 0 34 21t47 69.5t55.5 128t58.5 196.5l26 104 q8 33 -3.5 47.5t-53.5 14.5h-19l5 31h20q32 0 62.5 -1.5t61.5 -1.5h225h41t23 0.5l18 1t25 0.5l30 1l-5 -31h-15q-33 0 -48.5 -10t-20.5 -38l-41 -231h58q37 0 80.5 -2t72.5 -12q52 -17 83.5 -52.5t31.5 -86.5zM802 231q0 57 -41 86t-107 29h-53l-43 -239q-3 -15 -3 -23 q0 -26 18 -33.5t40 -7.5q38 0 71.5 11.5t58.5 34.5q29 27 44 63.5t15 78.5z"/>
<glyph glyph-name="afii10059" unicode="Њ" horiz-adv-x="1013" d="M985 235q0 -54 -23 -98.5t-65 -75.5t-95.5 -46t-109.5 -15q-22 0 -40 0.5t-36.5 1t-39.5 1t-48 0.5h-37.5t-28.5 -0.5t-25 -1t-28 -0.5l-28 -1l4 31h23q23 0 36 5t20.5 15t11 25t7.5 36l44 234h-263l-44 -237q-2 -12 -4 -25t-2 -18q0 -24 13.5 -29.5t33.5 -5.5h34l-5 -31 l-20 1q-35 2 -70 2h-70h-36.5h-25.5t-22 -0.5t-27 -1.5l-28 -1l4 31h21q20 0 32.5 3t21 10.5t13.5 21t9 34.5l84 451q5 26 7.5 48t2.5 33q0 21 -17 28t-65 7l5 31l19 -1q19 -1 31.5 -1.5t24 -0.5h26h38.5h44t29.5 0.5t24 1t27.5 0.5l30 1l-5 -31h-15q-33 0 -48.5 -10 t-20.5 -38l-43 -231h265l32 183q3 17 5 31t2 31q0 21 -17.5 27.5t-65.5 6.5l4 31l21 -1q17 -1 30.5 -1.5t27.5 -0.5h30h38h43t27 0.5t21.5 1t26.5 0.5l30 1l-5 -31h-15q-33 0 -48.5 -10t-20.5 -38l-43 -231h58q37 0 80.5 -2t72.5 -12q52 -17 83.5 -52.5t31.5 -86.5zM852 231 q0 57 -41 86t-107 29h-53l-43 -239q-3 -15 -3 -23q0 -26 18 -33.5t40 -7.5q38 0 71.5 11.5t58.5 34.5q59 56 59 142z"/>
<glyph glyph-name="afii10060" unicode="Ћ" horiz-adv-x="862" d="M827 0l-19 1q-30 2 -60 2h-60h-44t-29.5 -0.5t-23.5 -1t-28 -0.5l-30 -1l5 31h15q25 0 38.5 5.5t20.5 16.5t10 27t7 37q6 31 11.5 62t5.5 62q0 54 -26 77.5t-86 23.5q-23 0 -62.5 -9.5t-74.5 -23.5l-29 -153q-8 -45 -10 -63t-2 -27q0 -20 13.5 -27.5t47.5 -7.5h30l-4 -31 l-22 1q-21 1 -34.5 1.5t-27.5 0.5t-32 -0.5t-48 -0.5h-41h-28.5h-24.5t-30 -1l-31 -1l5 31h25q32 0 50 10q8 5 14 16t10 24.5t6.5 27t3.5 21.5l95 525h-80q-26 0 -48 -4t-38 -12q-54 -27 -72 -113h-32q8 31 13 53.5t9.5 43.5t8.5 43.5t10 53.5h23q4 -13 15 -17.5t36 -4.5 h449q22 0 33.5 5t17.5 17h27q-5 -31 -8.5 -53.5t-6 -43.5t-5 -43.5t-5.5 -53.5h-29q1 8 1.5 20t0.5 19q0 45 -20 67q-11 13 -33 17.5t-71 4.5h-68l-55 -297q20 7 43 15t47.5 14.5t48 10.5t43.5 4q96 0 141 -32.5t45 -110.5q0 -28 -4.5 -55t-9.5 -54q-5 -28 -7.5 -49.5 t-2.5 -31.5q0 -21 17 -29t65 -8z"/>
<glyph glyph-name="afii10061" unicode="Ќ" horiz-adv-x="685" d="M498 901q11 11 22 20t27 9q19 0 32 -12t13 -29q0 -23 -25 -38l-164 -97h-44zM111 698h19q18 0 30 -0.5t23 -0.5t24.5 -0.5t34.5 -0.5h48.5h31.5h24.5t27.5 1l29 1l-5 -31h-16q-34 0 -48 -11.5t-20 -43.5l-49 -252q14 1 23.5 3t18.5 6.5t18.5 13t22.5 21.5l111 108 q111 108 111 136q0 11 -12.5 15t-47.5 4h-10l5 31l23 -1q28 -2 53 -1.5t53 0.5h32h21.5t18 0.5t21.5 0.5l23 1l-5 -31h-20q-14 0 -27 -3t-24 -9q-11 -7 -25 -18t-26 -22l-241 -238l139 -208q13 -19 23 -33.5t19.5 -26.5t19 -23.5t21.5 -23.5q17 -17 31 -24t34 -7h19l-4 -31 h-23q-15 0 -23 0.5t-14.5 0.5h-12.5h-16q-28 -1 -35.5 -2t-12.5 -1q-20 0 -31.5 1.5t-18.5 5.5q-5 3 -10.5 8t-13.5 15t-18.5 25t-26.5 39l-148 224q-4 5 -8 7.5t-13 2.5l-37 -206q-2 -14 -5 -28.5t-3 -28.5q0 -33 60 -33h9t11 1l-5 -31l-20 1q-19 1 -31.5 1.5t-25.5 0.5 t-29 -0.5t-43 -0.5h-40.5h-27.5h-23.5t-28.5 -1l-29 -1l4 31h15q23 0 37 2.5t23 9.5t14 20t9 34l85 454q5 28 8 46.5t3 29.5q0 23 -14.5 31.5t-52.5 8.5h-16z"/>
<glyph glyph-name="afii10062" unicode="Ў" horiz-adv-x="687" d="M418 857q-3 -10 -3 -20q0 -20 17.5 -30t34.5 -10q25 0 38.5 10.5t20.5 19.5t8 20t3 23q4 21 20 34.5t38 13.5q26 0 35 -11.5t9 -25.5q0 -30 -16.5 -53t-42.5 -38t-56.5 -22.5t-59.5 -7.5q-40 0 -67.5 9.5t-45 23.5t-25 30.5t-7.5 31.5q0 26 16.5 44.5t43.5 18.5 q23 0 33 -10t10 -27q0 -6 -1 -12t-3 -12zM782 667h-14q-29 0 -53 -14t-48 -49l-309 -450q-20 -29 -42.5 -58.5t-48 -53.5t-54 -39t-60.5 -15q-41 0 -62.5 19.5t-21.5 46.5t14.5 47t43.5 20q38 0 51 -24q5 -9 15.5 -16t19.5 -7q10 0 22.5 9t25 22t23.5 27t17 23l17 25 l-141 430q-12 37 -34 47t-50 10h-16l5 31l31 -1q32 -1 63 -1h63h57t57 1l27 1l-3 -31h-21q-25 0 -39.5 -2t-14.5 -21q0 -5 1 -13.5t3 -11.5l99 -311l166 244q5 7 11.5 18.5t13.5 25t11.5 26t4.5 21.5q0 11 -7.5 16t-18 6.5t-21.5 1.5h-19h-10l5 31l25 -1q25 -1 49.5 -1h49.5 q26 0 51 -0.5t51 1.5l19 1z"/>
<glyph glyph-name="afii10145" unicode="Џ" horiz-adv-x="796" d="M130 3h-36.5h-25.5t-22 -0.5t-27 -1.5l-28 -1l4 31h21q20 0 32.5 3t21 10.5t13.5 21t9 34.5l84 451q5 26 7.5 48t2.5 33q0 21 -17 28t-65 7l5 31l19 -1q30 -2 60 -2h60h44t29.5 0.5t24 1t27.5 0.5l30 1l-5 -31h-15q-33 0 -48.5 -10t-20.5 -38l-92 -496q-2 -12 -4 -25 t-2 -18q0 -24 13.5 -29.5t33.5 -5.5h204q23 0 36 5t20.5 15t11 25t7.5 36l83 445q3 17 5 31t2 31q0 21 -17.5 27.5t-65.5 6.5l4 31l21 -1q35 -2 68 -2h68h36t25 0.5t21.5 1t25.5 0.5l28 1l-5 -31h-22q-22 0 -33 -5q-11 -4 -17.5 -16t-10.5 -26.5t-6 -29t-4 -24.5l-81 -450 l-4 -26t-2 -27q0 -23 16.5 -27.5t34.5 -4.5h30l-5 -31l-21 1q-20 1 -35 1.5t-26 0.5h-116q-29 0 -53 -6.5t-45.5 -26t-41.5 -55.5t-40 -95h-28q2 59 -5 95t-21.5 55.5t-36.5 26t-51 6.5h-87z"/>
<glyph glyph-name="afii10017" unicode="А" horiz-adv-x="685" d="M463 726l14 -8l82 -484q12 -72 22.5 -118.5t21.5 -63.5q14 -21 56 -21h25l-5 -31h-3q-4 0 -13 0.5t-24 1.5t-38.5 1.5t-49.5 0.5q-20 0 -41.5 -0.5t-47.5 -1.5q-29 -1 -48.5 -1.5t-30.5 -0.5h-6l5 31h13q43 0 55 6q10 6 10 23q0 6 -0.5 11t-2.5 16l-23 155h-235l-41 -77 q-20 -36 -32 -67t-12 -43q0 -13 16.5 -18.5t54.5 -5.5h15l-4 -31h-4q-3 0 -10.5 0.5t-19.5 1.5q-13 1 -33 1.5t-41 0.5q-17 0 -34.5 -0.5t-40.5 -1.5q-25 -1 -41 -1.5t-24 -0.5h-6l5 31q42 0 60 8q23 11 48 53l320 559q5 10 13.5 25t20.5 35zM227 292h199l-48 274z"/>
<glyph glyph-name="afii10018" unicode="Б" horiz-adv-x="625" d="M612 698q-5 -38 -10 -76.5t-9 -77.5h-28v15q0 52 -24 74q-12 11 -35 16t-70 5q-32 0 -58 -1t-57 -3l-47 -249q11 1 30.5 2.5t37.5 1.5q51 0 97 -8.5t81.5 -28.5t56 -52.5t20.5 -80.5q0 -54 -23 -98.5t-65 -75.5t-95.5 -46t-109.5 -15q-22 0 -40.5 0.5t-38 1t-42.5 1 t-53 0.5q-28 0 -55.5 -0.5t-55.5 -1.5l-28 -1l4 31h21q20 0 32.5 3t21 10.5t13.5 21t9 34.5l84 449q5 26 7.5 48t2.5 33q0 21 -17 29t-65 8l5 31l19 -1q30 -2 60 -2h60q60 0 118 -1t118 0q17 0 31 0.5l28 1t30.5 1t38.5 1.5zM464 237q0 82 -55 109q-18 9 -41.5 12.5 t-49.5 3.5q-8 0 -23 -1t-29 -2l-46 -252q-3 -15 -3 -23q0 -26 18 -33.5t40 -7.5q38 0 71.5 11.5t58.5 34.5q29 27 44 66.5t15 81.5z"/>
<glyph glyph-name="afii10019" unicode="В" horiz-adv-x="630" d="M95 698l17 -1q29 -2 48.5 -2.5t40.5 -0.5q14 0 25.5 0.5l34.5 1.5q47 2 69.5 2h37.5q38 0 79.5 -6t76 -23t56.5 -47t22 -78q0 -39 -17 -69t-43 -51t-58.5 -34.5t-64.5 -20.5q33 -5 62.5 -15t52 -27.5t36 -45t13.5 -68.5q0 -90 -71 -147q-42 -35 -96.5 -50.5t-135.5 -15.5 q-23 0 -33.5 0.5t-19 0.5t-21.5 0.5t-41 0.5h-49h-50t-53 -1l-27 -1l5 31h11q29 0 51 8q12 5 18.5 16.5t12.5 37.5l4 18l79 417q5 22 8.5 48.5t3.5 40.5q0 19 -7 29t-18 14.5t-25.5 5.5t-29.5 1h-13zM287 385q49 0 80 9.5t54 32.5q22 21 34.5 54.5t12.5 70.5q0 53 -32 82 q-16 14 -36 19.5t-58 5.5q-7 0 -14 -0.5t-14 -0.5l-50 -273h23zM218 139q-3 -16 -5 -30t-2 -31q0 -21 14 -29t50 -8q86 0 126 45q21 24 34 62.5t13 79.5q0 61 -37 92q-18 15 -45 21t-78 6q-7 0 -11.5 -0.5t-13.5 -0.5h-6z"/>
<glyph glyph-name="afii10020" unicode="Г" d="M222 123q-2 -14 -4 -27t-2 -27q0 -19 11 -27.5t37 -9.5l48 -1l-4 -31l-22 1q-37 2 -72.5 2h-72.5h-41t-28 -0.5l-24 -1t-29 -0.5l-31 -1l5 31q9 0 16 -0.5t12 -0.5q35 0 50 16.5t22 50.5l60 315q17 91 24.5 142.5t7.5 66.5q0 23 -12 32q-17 14 -78 14l4 31q8 0 14 -0.5 t11 -0.5q19 -1 36 -1.5t35.5 -1t40.5 -0.5h51q50 0 99 0.5t99 1.5q17 0 31 0.5t28 0.5h30.5t38.5 1q-5 -38 -10.5 -78.5t-9.5 -79.5h-28l1 19q1 20 -5.5 41.5t-18.5 32.5t-35 16t-70 5q-29 0 -59 -1t-59 -3z"/>
<glyph glyph-name="afii10021" unicode="Д" horiz-adv-x="722" d="M765 667h-22q-22 0 -33 -5q-11 -4 -18 -16t-10.5 -26.5t-5.5 -29t-4 -24.5l-80 -441l-4 -22t-2 -15q0 -29 21 -36t54 -7h25l-48 -217h-27v25q0 46 -3.5 75.5t-16.5 46t-38.5 22.5t-68.5 6h-298q-37 0 -70 -7.5t-60 -24.5t-48.5 -46t-36.5 -72l-9 -25h-28l46 217h15 q38 0 60.5 14.5t38.5 34.5q14 18 31.5 45.5t36.5 61.5t38 73.5t36 82.5q10 24 23 61.5t25 78t20 77.5t8 58t-17 28t-65 7l5 31l19 -1q25 -2 60 -1.5t61 0.5l259 -1h36t25 0.5t21.5 1t25.5 0.5l28 1zM452 652q-22 0 -37.5 -2.5t-26 -10.5t-18 -23.5t-13.5 -41.5 q-16 -67 -34 -123.5t-39 -109.5t-47.5 -107t-61.5 -116q-8 -15 -14.5 -28.5t-6.5 -24.5q0 -9 7.5 -14.5t26.5 -5.5h203q23 0 36 5t20.5 15t11 25t7.5 36l98 526h-112z"/>
<glyph glyph-name="afii10022" unicode="Е" horiz-adv-x="648" d="M109 698l22 -1q36 -2 62.5 -3t49.5 -1q10 0 28 0.5t38 1t38.5 1t29.5 0.5l197 2h57q-4 -24 -6.5 -42t-4.5 -34t-4 -33.5t-4 -41.5h-31q1 9 1.5 14t0.5 10q0 45 -23 65q-13 11 -39 15.5t-73 4.5h-44q-21 0 -42.5 -1t-42.5 -3l-48 -265h13t22 -0.5t24 -0.5h21 q50 0 76.5 5.5t39.5 17.5q11 10 16 23t15 49h29q-4 -18 -7.5 -32l-6.5 -26t-5 -24.5t-5 -28.5t-5 -29.5t-4 -27.5t-4 -30t-5 -39h-28q0 9 1.5 22t1.5 26.5t-3 24.5t-13 16q-18 9 -116 9h-33t-33 -2l-40 -216q-3 -14 -4 -25t-1 -19q0 -20 11.5 -26t28.5 -7q26 -1 62.5 -1.5 t63.5 -0.5q57 0 91 7.5t54 24.5q8 7 14.5 14.5t13 18t14.5 25.5t18 39h31q-8 -28 -14 -48.5t-11 -39.5t-10 -39t-11 -47l-38 1l-162 2q-63 1 -99 1.5t-45 0.5q-10 0 -45 -0.5t-96 -1.5q-22 0 -36 -0.5t-24.5 -0.5t-19 -0.5t-20.5 -1.5l5 31h17q21 0 34.5 2.5t22.5 8.5t14 17 t8 29l89 473q3 17 5.5 33.5t2.5 33.5q0 22 -15.5 30.5t-55.5 8.5h-13z"/>
<glyph glyph-name="afii10024" unicode="Ж" horiz-adv-x="1047" d="M1097 666h-20q-14 0 -27 -2.5t-24 -8.5q-11 -7 -25.5 -17.5t-25.5 -22.5l-231 -238l129 -208q12 -19 22 -34t20 -27t19.5 -23t21.5 -23q17 -17 31 -24t34 -7h19l-4 -31h-23q-17 0 -33 1t-33 0q-28 -1 -35.5 -2t-12.5 -1q-20 0 -31 1.5t-18 5.5q-5 3 -10.5 8t-13 14.5 t-17.5 25t-25 39.5l-135 222q-3 5 -11 8.5t-17 3.5l-37 -206q-2 -14 -5 -28.5t-3 -28.5q0 -33 60 -33h9t11 1l-5 -31l-20 1q-32 2 -64.5 1.5t-64.5 -0.5h-57t-57 -1l-29 -1l4 31h15q23 0 37 2.5t23 9.5t14 20t9 34l43 229h-2q-10 0 -20 -3t-18 -11l-218 -220 q-24 -24 -40.5 -39.5t-27.5 -25t-19 -14.5t-14 -8q-15 -7 -58 -7q-5 0 -12.5 1t-34.5 2q-17 1 -35 0t-35 -1h-20l4 31h20q20 0 36.5 7t39.5 24q16 12 30 24.5t28 26.5t29.5 30.5t34.5 35.5l215 211l-150 225q-8 11 -17.5 22t-18.5 18q-16 12 -46 12h-21l4 31l23 -1 q23 -1 48 -1h48q28 0 56 1t56 1h15l-4 -31h-15h-19.5t-22.5 -2t-19 -8t-8 -18q0 -17 17.5 -48t49.5 -79l72 -108q18 -27 31 -35.5t35 -8.5h9l36 192q11 58 11 77q0 23 -14.5 30.5t-52.5 7.5h-16l5 31h19q18 0 30 -0.5t23 -0.5t24.5 -0.5t34.5 -0.5h63t63 1l29 1l-5 -32h-16 q-34 0 -48 -10.5t-20 -42.5l-49 -253h7q20 0 36 9t40 35l101 108q53 57 82 89.5t29 46.5q0 11 -12.5 15t-47.5 4h-10l5 31h17q28 0 55.5 -1t56.5 -1h46.5t46.5 1l23 1z"/>
<glyph glyph-name="afii10025" unicode="З" horiz-adv-x="611" d="M583 569q0 -51 -22.5 -85t-62.5 -60q-19 -12 -42.5 -21.5t-44.5 -15.5v-3q69 -5 111.5 -45.5t42.5 -107.5q0 -39 -11.5 -72.5t-31 -61t-46.5 -48t-58 -34.5q-35 -16 -75.5 -22.5t-81.5 -6.5q-43 0 -84 12.5t-80 30.5l-40 -30l-17 2q5 33 8.5 57t6.5 46t5.5 46t5.5 57 l29 2v-10q0 -78 40.5 -124.5t125.5 -46.5q39 0 69.5 18.5t51.5 48.5t32.5 66.5t11.5 72.5q0 57 -33 87.5t-102 30.5h-9.5t-19 -0.5t-20 -1t-13.5 -0.5l17 46q8 -1 26 -1h25q32 0 60 12.5t50 35.5q23 25 37 57t14 66q0 50 -27 81t-84 31q-27 0 -53.5 -10t-50 -27.5t-41 -41.5 t-25.5 -53q-2 -7 -3 -9t-3 -13l-29 3q4 27 8 45.5t7 35.5t6 37t5 50l25 2v-2q0 -12 13 -12q8 0 18 4t17 6q27 10 63.5 16t62.5 6q98 0 157 -37.5t59 -108.5z"/>
<glyph glyph-name="afii10026" unicode="И" horiz-adv-x="796" d="M398 667h-15q-33 0 -48.5 -10t-20.5 -38l-76 -412l387 366q3 16 5 29.5t2 30.5q0 21 -17.5 27.5t-65.5 6.5l4 31l21 -1q35 -2 68 -2h68h36t25 0.5t21.5 1t25.5 0.5l28 1l-5 -31h-22q-22 0 -33 -5q-11 -4 -17.5 -16t-10.5 -26.5t-6 -29t-4 -24.5l-81 -450l-4 -26t-2 -27 q0 -23 16.5 -27.5t34.5 -4.5h30l-5 -31l-21 1q-35 2 -69.5 2h-69.5h-36.5t-25.5 -0.5l-22 -1t-27 -0.5l-28 -1l4 31h23q23 0 36 5t20.5 15t11 25t7.5 36l71 381l-388 -368q-2 -13 -5.5 -29.5t-3.5 -29.5q0 -24 13.5 -29.5t33.5 -5.5h34l-5 -31l-20 1q-35 2 -70 2h-70h-36.5 h-25.5t-22 -0.5t-27 -1.5l-28 -1l4 31h21q20 0 32.5 3t21 10.5t13.5 21t9 34.5l84 451q5 26 7.5 48t2.5 33q0 21 -17 28t-65 7l5 31l19 -1q19 -1 31.5 -1.5t24 -0.5h26h38.5h44t29.5 0.5t24 1t27.5 0.5l30 1z"/>
<glyph glyph-name="afii10027" unicode="Й" horiz-adv-x="796" d="M451 857q-3 -10 -3 -20q0 -20 17.5 -30t34.5 -10q25 0 38.5 10.5t20.5 19.5t8 20t3 23q4 21 20 34.5t38 13.5q26 0 35 -11.5t9 -25.5q0 -30 -16.5 -53t-42.5 -38t-56.5 -22.5t-59.5 -7.5q-40 0 -67.5 9.5t-45 23.5t-25 30.5t-7.5 31.5q0 26 16.5 44.5t43.5 18.5 q23 0 33 -10t10 -27q0 -6 -1 -12t-3 -12zM398 667h-15q-33 0 -48.5 -10t-20.5 -38l-76 -412l387 366q3 16 5 29.5t2 30.5q0 21 -17.5 27.5t-65.5 6.5l4 31l21 -1q35 -2 68 -2h68h36t25 0.5t21.5 1t25.5 0.5l28 1l-5 -31h-22q-22 0 -33 -5q-11 -4 -17.5 -16t-10.5 -26.5 t-6 -29t-4 -24.5l-81 -450l-4 -26t-2 -27q0 -23 16.5 -27.5t34.5 -4.5h30l-5 -31l-21 1q-35 2 -69.5 2h-69.5h-36.5t-25.5 -0.5l-22 -1t-27 -0.5l-28 -1l4 31h23q23 0 36 5t20.5 15t11 25t7.5 36l71 381l-388 -368q-2 -13 -5.5 -29.5t-3.5 -29.5q0 -24 13.5 -29.5t33.5 -5.5 h34l-5 -31l-20 1q-35 2 -70 2h-70h-36.5h-25.5t-22 -0.5t-27 -1.5l-28 -1l4 31h21q20 0 32.5 3t21 10.5t13.5 21t9 34.5l84 451q5 26 7.5 48t2.5 33q0 21 -17 28t-65 7l5 31l19 -1q19 -1 31.5 -1.5t24 -0.5h26h38.5h44t29.5 0.5t24 1t27.5 0.5l30 1z"/>
<glyph glyph-name="afii10028" unicode="К" horiz-adv-x="685" d="M111 698h19q18 0 30 -0.5t23 -0.5t24.5 -0.5t34.5 -0.5h48.5h31.5h24.5t27.5 1l29 1l-5 -31h-16q-34 0 -48 -11.5t-20 -43.5l-49 -252q14 1 23.5 3t18.5 6.5t18.5 13t22.5 21.5l111 108q111 108 111 136q0 11 -12.5 15t-47.5 4h-10l5 31l23 -1q28 -2 53 -1.5t53 0.5h32 h21.5t18 0.5t21.5 0.5l23 1l-5 -31h-20q-14 0 -27 -3t-24 -9q-11 -7 -25 -18t-26 -22l-241 -238l139 -208q13 -19 23 -33.5t19.5 -26.5t19 -23.5t21.5 -23.5q17 -17 31 -24t34 -7h19l-4 -31h-23q-15 0 -23 0.5t-14.5 0.5h-12.5h-16q-28 -1 -35.5 -2t-12.5 -1 q-20 0 -31.5 1.5t-18.5 5.5q-5 3 -10.5 8t-13.5 15t-18.5 25t-26.5 39l-148 224q-4 5 -8 7.5t-13 2.5l-37 -206q-2 -14 -5 -28.5t-3 -28.5q0 -33 60 -33h9t11 1l-5 -31l-20 1q-19 1 -31.5 1.5t-25.5 0.5t-29 -0.5t-43 -0.5h-40.5h-27.5h-23.5t-28.5 -1l-29 -1l4 31h15 q23 0 37 2.5t23 9.5t14 20t9 34l85 454q5 28 8 46.5t3 29.5q0 23 -14.5 31.5t-52.5 8.5h-16z"/>
<glyph glyph-name="afii10029" unicode="Л" horiz-adv-x="700" d="M743 667h-22q-22 0 -33 -5q-11 -4 -17.5 -16t-10.5 -26.5t-6 -29t-4 -24.5l-81 -450l-4 -26t-2 -27q0 -23 16.5 -27.5t34.5 -4.5h30l-5 -31l-21 1q-35 2 -69.5 2h-69.5h-36.5t-25.5 -0.5l-22 -1t-27 -0.5l-28 -1l4 31h23q23 0 36 5t20.5 15t11 25t7.5 36l101 540 q-8 1 -18.5 1.5t-21.5 0.5h-14h-18.5t-19 -0.5t-14.5 -0.5q-14 -1 -26.5 -2.5t-23 -7.5t-18.5 -16.5t-13 -29.5l-22 -84q-17 -67 -35 -130t-46 -135q-19 -49 -41.5 -95.5t-50 -83t-60 -59t-73.5 -22.5q-12 0 -24 3.5t-22.5 11t-17 19t-6.5 27.5q0 32 17.5 47t40.5 15 q16 0 26 -5.5t14 -9.5q5 -6 13.5 -8t13.5 -2q13 0 34 21t47 69.5t55.5 128t58.5 196.5l26 104q8 33 -3.5 47.5t-53.5 14.5h-19l5 31h20q32 0 62.5 -1.5t61.5 -1.5h235h36t25 0.5t21.5 1t25.5 0.5l28 1z"/>
<glyph glyph-name="afii10030" unicode="М" horiz-adv-x="944" d="M102 698h13q22 0 43.5 -1t43.5 -1h27.5h18t15 0.5t17.5 0.5l19 1l163 -522l260 469q8 14 15 26.5t14 26.5h14q12 0 20 -0.5t15.5 -0.5t16 -0.5t21.5 -0.5h39.5h24.5t18.5 0.5t20.5 0.5l22 1l-3 -31h-8q-28 0 -43.5 -3.5t-23.5 -11.5q-6 -6 -10 -18t-8 -34t-6.5 -55 t-5.5 -80l-20 -370q-2 -41 14.5 -52.5t56.5 -11.5h18l-4 -31l-21 1q-21 1 -34.5 1.5t-27.5 0.5t-32.5 -0.5t-48.5 -0.5h-39.5h-27.5t-23.5 -0.5t-28.5 -0.5l-31 -1l5 31h24q24 0 38 5t22 15t11 25.5t4 36.5l34 470q-13 -22 -33 -56t-42 -71.5t-42 -72.5t-32 -58 q-21 -38 -46.5 -83.5t-50 -90t-44.5 -84.5t-30 -68h-40q-4 16 -7.5 32t-8.5 32l-140 442l-84 -339q-11 -43 -14 -63t-3 -33q0 -21 13.5 -30t45.5 -9h22l-3 -31l-16 1q-16 1 -26.5 1.5t-21.5 0.5t-25 -0.5t-37 -0.5h-29h-20h-18t-22 -1l-22 -1l4 31q27 0 44 3t28 11.5 t18 24.5t14 42l124 465q-8 30 -14 43.5t-17 26.5q-11 12 -26 16t-46 4z"/>
<glyph glyph-name="afii10031" unicode="Н" horiz-adv-x="796" d="M109 698l19 -1q19 -1 31.5 -1.5t24 -0.5h26h38.5h44t29.5 0.5t24 1t27.5 0.5l30 1l-5 -31h-15q-33 0 -48.5 -11t-20.5 -39l-43 -229h322l32 181q3 17 5 31t2 31q0 21 -17.5 28.5t-65.5 7.5l4 31l21 -1q17 -1 31 -1.5t27.5 -0.5h29.5h38h40.5t27.5 0.5t23.5 1t26.5 0.5 l28 1l-5 -31h-22q-22 0 -33 -5q-11 -4 -17.5 -16t-10.5 -27t-6 -30t-4 -25l-81 -448l-4 -26t-2 -27q0 -23 16.5 -27.5t34.5 -4.5h30l-5 -31l-21 1q-35 2 -69.5 2h-69.5h-36.5t-25.5 -0.5l-22 -1t-27 -0.5l-28 -1l4 31h23q23 0 36 5t20.5 15t11 25t7.5 36l42 225h-320 l-42 -228q-2 -12 -4 -25t-2 -18q0 -24 13.5 -29.5t33.5 -5.5h34l-5 -31l-20 1q-35 2 -70 2h-70h-36.5h-25.5t-22 -0.5t-27 -1.5l-28 -1l4 31h21q20 0 32.5 3t21 10.5t13.5 21t9 34.5l84 449q5 26 7.5 48t2.5 33q0 21 -17 29t-65 8z"/>
<glyph glyph-name="afii10032" unicode="О" horiz-adv-x="852" d="M483 715q75 0 138 -24t108 -67.5t70.5 -103t25.5 -131.5q0 -86 -33.5 -160t-91 -128t-133 -84.5t-159.5 -30.5q-77 0 -139.5 23t-107 66t-69 103t-24.5 134q0 88 31 162t86 127.5t131.5 83.5t166.5 30zM409 24q76 0 129 37.5t86 95t47.5 126.5t14.5 133q0 125 -52.5 193 t-149.5 68q-73 0 -125.5 -38t-86.5 -95.5t-49.5 -126t-15.5 -130.5q0 -125 53 -194t149 -69z"/>
<glyph glyph-name="afii10033" unicode="П" horiz-adv-x="796" d="M841 667h-22q-22 0 -33 -5q-11 -4 -17.5 -16t-10.5 -26.5t-6 -29t-4 -24.5l-81 -450l-4 -26t-2 -27q0 -23 16.5 -27.5t34.5 -4.5h30l-5 -31l-21 1q-35 2 -69.5 2h-69.5h-36.5t-25.5 -0.5l-22 -1t-27 -0.5l-28 -1l4 31h23q23 0 36 5t20.5 15t11 25t7.5 36l82 444 q3 17 5 31t2 31q0 21 -17.5 27.5t-65.5 6.5h-166q-33 0 -48.5 -10t-20.5 -38l-91 -495q-2 -12 -4 -25t-2 -18q0 -24 13.5 -29.5t33.5 -5.5h34l-5 -31l-20 1q-35 2 -70 2h-70h-36.5h-25.5t-22 -0.5t-27 -1.5l-28 -1l4 31h21q20 0 32.5 3t21 10.5t13.5 21t9 34.5l84 451 q5 26 7.5 48t2.5 33q0 21 -17 28t-65 7l5 31l19 -1q19 -1 31.5 -1.5t24 -0.5h26h38.5h462h36t25 0.5t21.5 1t25.5 0.5l28 1z"/>
<glyph glyph-name="afii10034" unicode="Р" horiz-adv-x="593" d="M-2 31h23q33 0 49 12q6 4 11 10t8.5 17.5t7.5 29t9 44.5l72 400q4 19 7 38t3 38q0 27 -18.5 37t-69.5 10h-3l5 31q27 -2 60.5 -2h66.5q42 0 83.5 1t83.5 1q220 0 220 -161q0 -42 -17.5 -82t-46.5 -67q-32 -30 -83 -46.5t-111 -16.5q-18 0 -32 1t-25 4l7 37q17 -5 41 -5 q54 0 85 40q21 27 32.5 64t11.5 78q0 114 -113 114q-12 0 -20.5 -0.5t-20.5 -2.5l-93 -505q-4 -19 -7 -38t-3 -39q0 -16 6.5 -24.5t16.5 -12.5t22.5 -4.5t24.5 -0.5h26l-4 -31l-28 1q-40 2 -77.5 1.5t-76.5 -0.5h-34.5h-24t-21.5 -0.5t-28 -0.5l-30 -1z"/>
<glyph glyph-name="afii10035" unicode="С" horiz-adv-x="741" d="M739 686q-7 -29 -12 -50.5t-9 -41.5t-7 -42t-6 -52l-28 3q-1 83 -45 126.5t-127 43.5q-65 0 -119 -27.5t-92.5 -77t-60 -119.5t-21.5 -154q0 -66 16.5 -114.5t51.5 -87.5q61 -67 151 -67q86 0 154 60q13 11 23 22t19 24.5t19 31t22 41.5l28 -8q-8 -27 -14 -46.5 t-10.5 -37.5t-8.5 -38t-10 -48q-10 2 -15 2q-20 0 -42 -8.5t-41 -13.5q-42 -11 -77 -16t-70 -5q-73 0 -134.5 23.5t-106 67t-69.5 104t-25 134.5q0 87 31.5 160.5t87 127t130.5 83.5t161 30q43 0 85.5 -8.5t81.5 -25.5q11 -5 20 -8.5t21 -3.5q21 0 26 20z"/>
<glyph glyph-name="afii10036" unicode="Т" horiz-adv-x="667" d="M127 720q4 -13 15 -17.5t36 -4.5h469q22 0 33.5 5t17.5 17h27q-5 -31 -8.5 -53.5t-6 -43.5t-5 -43.5t-5.5 -53.5h-29q1 8 1.5 20t0.5 19q0 45 -20 67q-11 13 -33 18t-71 5h-78l-93 -499q-8 -45 -10 -63t-2 -27q0 -20 13.5 -27.5t47.5 -7.5h30l-4 -31l-22 1 q-21 1 -34.5 1.5t-27.5 0.5t-32 -0.5t-48 -0.5h-41h-28.5h-24.5t-30 -1l-31 -1l5 31h25q32 0 50 10q8 5 14 16t10 24.5t6.5 27t3.5 21.5l95 525h-90q-26 0 -48 -4t-38 -12q-54 -27 -72 -113h-32q8 31 13 53.5t9.5 43.5t8.5 43.5t10 53.5h23z"/>
<glyph glyph-name="afii10037" unicode="У" horiz-adv-x="687" d="M782 667h-14q-29 0 -53 -14t-48 -49l-309 -450q-20 -29 -42.5 -58.5t-48 -53.5t-54 -39t-60.5 -15q-41 0 -62.5 19.5t-21.5 46.5t14.5 47t43.5 20q38 0 51 -24q5 -9 15.5 -16t19.5 -7q10 0 22.5 9t25 22t23.5 27t17 23l17 25l-141 430q-12 37 -34 47t-50 10h-16l5 31 l31 -1q32 -1 63 -1h63h57t57 1l27 1l-3 -31h-21q-25 0 -39.5 -2t-14.5 -21q0 -5 1 -13.5t3 -11.5l99 -311l166 244q5 7 11.5 18.5t13.5 25t11.5 26t4.5 21.5q0 11 -7.5 16t-18 6.5t-21.5 1.5h-19h-10l5 31l25 -1q25 -1 49.5 -1h49.5q26 0 51 -0.5t51 1.5l19 1z"/>
<glyph glyph-name="afii10038" unicode="Ф" horiz-adv-x="853" d="M831 396q0 -80 -41.5 -142.5t-109.5 -99.5q-45 -24 -97 -34.5t-106 -10.5h-22q-2 -8 -4 -22.5t-2 -23.5q0 -12 7 -18.5t16.5 -9.5t20.5 -3.5t20 -0.5h16l-5 -31h-3q-4 0 -13 0.5t-25 1.5q-15 1 -41.5 1.5t-52.5 0.5q-21 0 -41.5 -0.5t-45.5 -1.5q-27 -1 -45 -1.5 t-26 -0.5h-6l4 31h22q24 0 38 5.5t21.5 16t11 24.5t7.5 32h-6q-53 0 -103 12.5t-88.5 38.5t-61.5 66t-23 95q0 77 39 138.5t102 99.5q46 28 100.5 40.5t111.5 12.5h20q0 3 1 7v10q0 15 -6.5 22.5t-17 11t-23 4t-23.5 0.5h-15l4 31h4q35 0 70.5 -1.5t70.5 -1.5q39 0 77.5 1.5 t77.5 1.5h6l-5 -31h-6q-42 0 -60 -7.5t-23 -29.5l-4 -18h6q53 0 103 -12t88.5 -38t62 -67t23.5 -99zM694 393q0 83 -38 131.5t-114 54.5l-80 -434q56 3 99.5 26t73 57.5t44.5 77.5t15 87zM416 576q-57 -3 -100 -26.5t-72.5 -58.5t-44.5 -78.5t-15 -87.5q0 -74 37.5 -125.5 t113.5 -57.5z"/>
<glyph glyph-name="afii10039" unicode="Х" horiz-adv-x="667" d="M65 698h21q32 0 63.5 -1t63.5 -1h47h30.5t24 0.5t28.5 0.5l30 1l-4 -31h-13q-7 0 -18 0.5t-21 -1.5t-17 -6.5t-7 -15.5q0 -7 2 -13.5t7 -17.5l92 -182l138 165q19 22 25.5 32.5t6.5 18.5q0 20 -64 20h-9l4 31h18q26 0 52.5 -1t53.5 -1h37h24t19.5 0.5t22.5 0.5l25 1 l-5 -31h-5q-35 0 -60 -11.5t-54 -43.5l-208 -225l151 -290q12 -22 20.5 -35t18 -20t22.5 -9t33 -2h15l-5 -31l-21 1q-21 1 -34.5 1.5t-27 0.5t-31.5 -0.5t-47 -0.5h-41h-28t-24 -0.5t-29 -0.5l-31 -1l5 31h30q5 0 13 0.5t16 2.5t13.5 6t5.5 12q0 7 -5 19.5t-13 29.5l-95 188 l-156 -192q-7 -8 -14.5 -19t-7.5 -22q0 -14 15 -19.5t50 -5.5h13l-5 -31l-18 1q-18 1 -29 1.5t-23 0.5t-27 -0.5t-40 -0.5h-33.5h-22.5t-20 -0.5t-24 -0.5l-26 -1l5 31q29 2 43 4.5t28 9.5q12 7 34.5 27.5t42.5 43.5l193 217l-142 275q-10 20 -17.5 31t-17 16.5t-22 7.5 t-33.5 3q-2 0 -5 0.5t-7 0.5z"/>
<glyph glyph-name="afii10040" unicode="Ц" horiz-adv-x="796" d="M841 667h-22q-22 0 -33 -5q-11 -4 -17.5 -16t-10.5 -26.5t-6 -29t-4 -24.5l-80 -441l-4 -22t-2 -15q0 -29 21 -36t54 -7h25l-48 -217h-27v25q0 46 -5.5 75.5t-19.5 46t-39 22.5t-63 6h-430h-36.5h-25.5t-22 -0.5t-27 -1.5l-28 -1l4 31h21q20 0 32.5 3t21 10.5t13.5 21 t9 34.5l84 451q5 26 7.5 48t2.5 33q0 21 -17 28t-65 7l5 31l19 -1q26 -2 40 -2h32h48h44t29.5 0.5t24 1t27.5 0.5l30 1l-5 -31h-15q-33 0 -48.5 -10t-20.5 -38l-92 -496q-2 -12 -4 -25t-2 -18q0 -24 13.5 -29.5t33.5 -5.5h204q23 0 36 5t20.5 15t11 25t7.5 36l83 445 q3 17 5 31t2 31q0 21 -17.5 27.5t-65.5 6.5l4 31l21 -1q35 -2 68 -2h68h36t25 0.5t21.5 1t25.5 0.5l28 1z"/>
<glyph glyph-name="afii10041" unicode="Ч" horiz-adv-x="722" d="M767 667h-22q-22 0 -33 -5q-11 -4 -17.5 -16t-10.5 -26.5t-6 -29t-4 -24.5l-81 -450l-4 -26t-2 -27q0 -23 16.5 -27.5t34.5 -4.5h30l-5 -31l-21 1q-35 2 -69.5 2h-69.5h-36.5t-25.5 -0.5l-22 -1t-27 -0.5l-38 -1l4 31h33q23 0 36 5t20.5 15t11 25t7.5 36l43 232 q-19 -7 -43 -15t-48.5 -15t-49 -11t-44.5 -4q-96 0 -141 32.5t-45 110.5q0 28 4.5 55t9.5 54q5 28 7.5 49.5t2.5 31.5q0 21 -17 28t-65 7l5 31l19 -1q30 -2 60 -2h60h44t29.5 0.5t24 1t27.5 0.5l30 1l-5 -31h-15q-25 0 -38.5 -5.5t-20.5 -16t-10 -26t-7 -36.5 q-6 -31 -11.5 -62t-5.5 -62q0 -54 26 -77.5t86 -23.5q23 0 63.5 10t76.5 24l33 179q3 17 5 31t2 31q0 21 -17.5 27.5t-65.5 6.5l4 31l21 -1q35 -2 68 -2h68h36t25 0.5t21.5 1t25.5 0.5l28 1z"/>
<glyph glyph-name="afii10042" unicode="Ш" horiz-adv-x="1097" d="M1142 667h-22q-22 0 -33 -5q-11 -4 -17.5 -16t-10.5 -26.5t-6 -29t-4 -24.5l-81 -450l-4 -26t-2 -27q0 -23 16.5 -27.5t34.5 -4.5h30l-5 -31l-21 1q-20 1 -53.5 1.5t-62.5 0.5h-771h-36.5h-25.5t-22 -0.5t-27 -1.5l-28 -1l4 31h21q20 0 32.5 3t21 10.5t13.5 21t9 34.5 l84 451q5 26 7.5 48t2.5 33q0 21 -17 28t-65 7l5 31l19 -1q19 -1 31.5 -1.5t24 -0.5h26h38.5h44t29.5 0.5t24 1t27.5 0.5l30 1l-5 -31h-15q-33 0 -48.5 -10t-20.5 -38l-92 -496q-2 -12 -4 -25t-2 -18q0 -24 13.5 -29.5t33.5 -5.5h132q23 0 36 5t20.5 15t11 25t7.5 36l83 445 q3 17 5 31t2 31q0 21 -17.5 27.5t-65.5 6.5l4 31l21 -1q30 -2 59.5 -2h59.5h44t29 0.5t23.5 1t27.5 0.5l30 1l-5 -31h-15q-33 0 -48.5 -10t-20.5 -38l-91 -496q-2 -12 -4 -25t-2 -18q0 -24 13.5 -29.5t33.5 -5.5h132q23 0 36 5t20.5 15t11 25t7.5 36l83 445q3 17 5 31t2 31 q0 21 -17.5 27.5t-65.5 6.5l4 31l21 -1q35 -2 68 -2h68h36t25 0.5t21.5 1t25.5 0.5l28 1z"/>
<glyph glyph-name="afii10043" unicode="Щ" horiz-adv-x="1097" d="M130 3h-36.5h-25.5t-22 -0.5t-27 -1.5l-28 -1l4 31h21q20 0 32.5 3t21 10.5t13.5 21t9 34.5l84 451q5 26 7.5 48t2.5 33q0 21 -17 28t-65 7l5 31l19 -1q19 -1 31.5 -1.5t24 -0.5h26h38.5h44t29.5 0.5t24 1t27.5 0.5l30 1l-5 -31h-15q-33 0 -48.5 -10t-20.5 -38l-92 -496 q-2 -12 -4 -25t-2 -18q0 -24 13.5 -29.5t33.5 -5.5h132q23 0 36 5t20.5 15t11 25t7.5 36l83 445q3 17 5 31t2 31q0 21 -17.5 27.5t-65.5 6.5l4 31l21 -1q30 -2 59.5 -2h59.5h44t29 0.5t23.5 1t27.5 0.5l30 1l-5 -31h-15q-33 0 -48.5 -10t-20.5 -38l-91 -496q-2 -12 -4 -25 t-2 -18q0 -24 13.5 -29.5t33.5 -5.5h132q23 0 36 5t20.5 15t11 25t7.5 36l83 445q3 17 5 31t2 31q0 21 -17.5 27.5t-65.5 6.5l4 31l21 -1q35 -2 68 -2h68h36t25 0.5t21.5 1t25.5 0.5l28 1l-5 -31h-22q-22 0 -33 -5q-11 -4 -17.5 -16t-10.5 -26.5t-6 -29t-4 -24.5l-79 -441 l-4 -22t-2 -15q0 -29 21 -36t54 -7h25l-48 -217h-27v25q0 46 -5.5 75.5t-19.5 46t-39 22.5t-63 6h-732z"/>
<glyph glyph-name="afii10044" unicode="Ъ" horiz-adv-x="778" d="M750 235q0 -54 -23 -98.5t-65 -75.5t-95.5 -46t-109.5 -15q-22 0 -40.5 0.5t-38 1t-42.5 1t-53 0.5q-28 0 -55.5 -0.5t-55.5 -1.5l-28 -1l4 31h21q20 0 32.5 3t21 10.5t13.5 21t9 34.5l103 552h-105q-35 0 -52.5 -4t-33.5 -12q-54 -27 -72 -113h-32q8 31 13 53.5 t9.5 43.5t8.5 43.5t10 53.5h23q4 -13 15 -17.5t36 -4.5h233h44t29.5 0.5t24 1t27.5 0.5l30 1l-5 -31h-15q-33 0 -48.5 -11t-20.5 -39l-40 -216q11 1 30.5 2.5t37.5 1.5q51 0 97 -8.5t81.5 -28.5t56 -52.5t20.5 -80.5zM616 237q0 82 -54 109q-18 9 -41.5 12.5t-49.5 3.5 q-8 0 -23 -1t-29 -2l-46 -252q-3 -15 -3 -23q0 -26 18 -33.5t40 -7.5q38 0 71.5 11.5t58.5 34.5q29 27 43.5 66.5t14.5 81.5z"/>
<glyph glyph-name="afii10045" unicode="Ы" horiz-adv-x="916" d="M464 237q0 82 -55 109q-18 9 -41.5 12.5t-49.5 3.5q-8 0 -23 -1t-29 -2l-46 -252q-3 -15 -3 -23q0 -26 18 -33.5t40 -7.5q38 0 71.5 11.5t58.5 34.5q29 27 44 66.5t15 81.5zM-9 0l4 31h21q20 0 32.5 3t21 10.5t13.5 21t9 34.5l84 451q5 26 7.5 48t2.5 33q0 21 -17 28 t-65 7l5 31l19 -1q30 -2 60 -2h60h44t29.5 0.5t24 1t27.5 0.5l30 1l-5 -31h-15q-33 0 -48.5 -10t-20.5 -38l-40 -218q11 1 30.5 2.5t37.5 1.5q51 0 97 -8.5t81.5 -28.5t56 -52.5t20.5 -80.5q0 -54 -23 -98.5t-65 -75.5t-95.5 -46t-109.5 -15q-22 0 -40.5 0.5t-38 1t-42.5 1 t-53 0.5q-28 0 -55.5 -0.5t-55.5 -1.5zM752 633q0 21 -17.5 27.5t-65.5 6.5l4 31l21 -1q35 -2 68 -2h68h36t25 0.5t21.5 1t25.5 0.5l28 1l-5 -31h-22q-22 0 -33 -5q-11 -4 -17.5 -16t-10.5 -26.5t-6 -29t-4 -24.5l-81 -450l-4 -26t-2 -27q0 -23 16.5 -27.5t34.5 -4.5h30 l-5 -31l-21 1q-35 2 -69.5 2h-69.5h-36.5t-25.5 -0.5l-22 -1t-27 -0.5l-28 -1l4 31h23q23 0 36 5t20.5 15t11 25t7.5 36l85 459q3 17 5 31t2 31z"/>
<glyph glyph-name="afii10046" unicode="Ь" horiz-adv-x="625" d="M464 237q0 82 -55 109q-18 9 -41.5 12.5t-49.5 3.5q-8 0 -23 -1t-29 -2l-46 -252q-3 -15 -3 -23q0 -26 18 -33.5t40 -7.5q38 0 71.5 11.5t58.5 34.5q29 27 44 66.5t15 81.5zM-9 0l4 31h21q20 0 32.5 3t21 10.5t13.5 21t9 34.5l84 451q5 26 7.5 48t2.5 33q0 21 -17 28 t-65 7l5 31l19 -1q30 -2 60 -2h60h44t29.5 0.5t24 1t27.5 0.5l30 1l-5 -31h-15q-33 0 -48.5 -10t-20.5 -38l-40 -218q11 1 30.5 2.5t37.5 1.5q51 0 97 -8.5t81.5 -28.5t56 -52.5t20.5 -80.5q0 -54 -23 -98.5t-65 -75.5t-95.5 -46t-109.5 -15q-22 0 -40.5 0.5t-38 1t-42.5 1 t-53 0.5q-28 0 -55.5 -0.5t-55.5 -1.5z"/>
<glyph glyph-name="afii10047" unicode="Э" horiz-adv-x="741" d="M251 695q42 11 70 16t63 5q72 0 132 -23.5t104 -67t68.5 -104t24.5 -134.5q0 -87 -31.5 -160.5t-87 -127t-130.5 -83.5t-161 -30q-43 0 -92.5 8.5t-88.5 25.5q-11 5 -20 8.5t-21 3.5q-21 0 -26 -20l-22 4q8 29 12.5 50.5t8.5 41.5t7 42t6 52l28 -3q1 -83 52 -126.5 t134 -43.5q59 0 108.5 22t87 63t61.5 98.5t32 127.5h-43t-48 0.5t-42 0.5h-25q-50 0 -76.5 -5.5t-39.5 -17.5q-10 -10 -15.5 -23t-15.5 -49h-29q5 18 8 32t6 26t5 24.5t5 28.5q3 17 5 30t4 27t4 30.5t5 38.5h28q0 -9 -1.5 -22t-1.5 -26.5t3 -24.5t13 -16q18 -9 116 -9h21.5 h36t42 0.5t39.5 0.5v21q0 50 -13.5 98.5t-40 86.5t-66.5 61t-93 23q-43 0 -75 -13.5t-65 -42.5q-26 -23 -44 -49t-39 -74l-28 8q8 27 14.5 49t11.5 43.5t9.5 43.5t9.5 49h24q0 -15 12 -15q13 0 27 7.5t33 12.5z"/>
<glyph glyph-name="afii10048" unicode="Ю" horiz-adv-x="1159" d="M790 715q75 0 138 -24t108 -67.5t70.5 -103t25.5 -131.5q0 -86 -33.5 -160t-91 -128t-133 -84.5t-159.5 -30.5q-77 0 -139.5 23t-107 66t-69 103t-24.5 134v12.5t1 12.5h-117l-42 -228q-2 -12 -4 -25t-2 -18q0 -24 13.5 -29.5t33.5 -5.5h34l-5 -31l-20 1q-35 2 -70 2h-70 h-36.5h-25.5t-22 -0.5t-27 -1.5l-28 -1l4 31h21q20 0 32.5 3t21 10.5t13.5 21t9 34.5l84 451q5 26 7.5 48t2.5 33q0 21 -17 28t-65 7l5 31l19 -1q19 -1 31.5 -1.5t24 -0.5h26h38.5h44t29.5 0.5t24 1t27.5 0.5l30 1l-5 -31h-15q-33 0 -48.5 -10t-20.5 -38l-43 -231h113 q13 73 48.5 133t88.5 103t122.5 67t149.5 24zM716 24q76 0 129 37.5t86 95t47.5 126.5t14.5 133q0 125 -52.5 193t-149.5 68q-73 0 -125.5 -38t-86.5 -95.5t-49.5 -126t-15.5 -130.5q0 -125 53 -194t149 -69z"/>
<glyph glyph-name="afii10049" unicode="Я" horiz-adv-x="687" d="M732 667h-22q-20 0 -33 -5q-11 -4 -17.5 -16t-10.5 -26.5t-6 -29t-4 -24.5l-81 -450l-4 -26t-2 -27q0 -23 16.5 -27.5t34.5 -4.5h30l-5 -31l-21 1q-35 2 -69.5 2h-69.5h-36.5t-25.5 -0.5l-22 -1t-27 -0.5l-28 -1l4 31h23q23 0 36.5 5t20.5 15t10.5 25t7.5 36l43 229 q-2 1 -8.5 1.5t-8.5 0.5q-9 0 -18.5 -4.5t-23 -17.5t-33 -36.5t-48.5 -61.5l-66 -88q-24 -32 -39.5 -51t-28 -32t-24.5 -24t-30 -28h-13q-19 0 -34 1t-42 1q-12 0 -20 -0.5t-16 -0.5t-18 -0.5t-26 -0.5h-21l4 31h17q10 0 23 4t32 18t45 40.5t62 72.5l64 82q25 32 48.5 59.5 t58.5 49.5q-23 6 -45.5 19.5t-40 32.5t-28.5 43t-11 51q0 63 32 103.5t80 63.5q36 17 77 22.5t79 5.5q3 0 20.5 -0.5t41 -1t47.5 -1t39 -0.5h36t25 0.5t21.5 1t25.5 0.5l28 1zM536 657q-6 0 -17 0.5t-17 0.5q-39 0 -72 -11.5t-57 -32.5t-38 -50.5t-14 -65.5 q0 -33 10.5 -56.5t28 -39t40.5 -22.5t47 -7q12 0 19.5 1t14.5 2z"/>
<glyph glyph-name="afii10065" unicode="а" horiz-adv-x="537" d="M434 477q4 7 18 7h36q11 0 15 -2.5t4 -6.5t-10 -37l-87 -288q-4 -14 -7.5 -29t-3.5 -21q0 -7 4.5 -12t11.5 -5q8 0 17 6q10 6 17 11t14.5 12t16 16t21.5 24l21 -21q-9 -12 -16 -20t-15.5 -17t-20.5 -19.5t-31 -27.5q-37 -33 -61.5 -46.5t-46.5 -13.5q-19 0 -31.5 14.5 t-12.5 34.5q0 6 1.5 12.5t5 19t10.5 34t18 57.5l8 25q-11 -19 -19.5 -32.5t-19 -26.5t-24.5 -27t-35 -34q-44 -42 -77 -60t-66 -18t-52 23t-19 64q0 64 32 130.5t94 132.5q56 60 111 94t97 34q20 0 33 -7.5t27 -27.5zM322 409q-62 0 -120 -70q-42 -51 -65.5 -105.5 t-23.5 -102.5q0 -21 12.5 -37.5t28.5 -16.5q20 0 40 10t38 24.5t33 32t25 32.5q76 109 76 184q0 19 -13.5 34t-30.5 15z"/>
<glyph glyph-name="afii10066" unicode="б" horiz-adv-x="537" d="M311 453q42 0 77 -13t60 -37.5t38.5 -59t13.5 -76.5q0 -58 -21 -109t-57 -89.5t-84.5 -60.5t-103.5 -22q-43 0 -79 14t-61 40t-39 62t-14 80q0 75 24.5 159t66.5 157t97.5 124t117.5 61l160 25q28 5 39.5 17t17.5 21l24 -9q-26 -60 -55 -98t-72 -43q-18 -2 -40.5 -5.5 t-44 -7t-40 -6.5t-28.5 -5q-45 -9 -77.5 -30.5t-55.5 -53.5t-38.5 -73.5t-26.5 -91.5l2 -1q40 63 87.5 97t111.5 34zM313 419q-45 0 -76 -35t-49.5 -83.5t-27 -99.5t-8.5 -83q0 -49 19.5 -73.5t55.5 -24.5q29 0 53.5 14t42.5 43q15 23 27 53t20.5 64t13.5 69t5 67 q0 42 -20.5 65.5t-55.5 23.5z"/>
<glyph glyph-name="afii10067" unicode="в" horiz-adv-x="500" d="M482 392q0 -54 -40 -87t-106 -50v-3q23 0 45 -5t40 -16t29 -28.5t11 -41.5q0 -29 -14.5 -60t-46 -56.5t-80 -42t-116.5 -16.5q-78 0 -125 38t-47 111q0 67 29.5 126t77.5 103.5t109.5 70.5t125.5 26q47 0 77.5 -17t30.5 -52zM370 392q0 30 -35 30q-24 0 -47.5 -15 t-44.5 -39.5t-38.5 -56t-30.5 -63.5q23 4 43.5 7t38.5 8q53 12 83.5 42t30.5 87zM344 149q0 22 -7 37t-19 24t-27.5 12.5t-31.5 3.5q-14 0 -43.5 -6t-53.5 -9q-7 -20 -11 -40.5t-4 -37.5q0 -111 76 -111q26 0 48.5 11.5t38.5 30t25 41t9 44.5z"/>
<glyph glyph-name="afii10068" unicode="г" horiz-adv-x="389" d="M227 398q-20 0 -55 -16.5t-66 -51.5l-22 21q20 20 43 39.5t48.5 35t53.5 25.5t56 10q17 0 33.5 -4t29 -12.5t20.5 -22.5t8 -35q0 -23 -9.5 -41.5t-24.5 -33.5t-35 -28t-41 -26q-48 -29 -80 -67.5t-32 -83.5q0 -22 12 -35t35 -13q22 0 59.5 16t71.5 44l16 13l20 -23 l-13 -12q-19 -18 -44.5 -37.5t-55 -36t-59.5 -27t-58 -10.5q-53 0 -83 25t-30 75q0 28 12.5 51.5t32 43.5t43.5 37t48 32q33 21 52.5 38t30 31.5t13.5 26.5t3 24q0 10 -7 19t-26 9z"/>
<glyph glyph-name="afii10069" unicode="д" horiz-adv-x="537" d="M235 762q81 -26 143 -81.5t94 -128.5q39 -85 39 -202q0 -83 -16.5 -144.5t-51.5 -109.5q-39 -53 -93 -81.5t-117 -28.5q-91 0 -143.5 55t-52.5 149q0 54 21.5 103t58 86.5t85 59.5t101.5 22q32 0 52.5 -6.5t44.5 -30.5q-1 29 -2.5 45.5t-6.5 40.5q-16 78 -62 129.5 t-119 92.5zM148 123q0 -51 21 -77.5t61 -26.5q30 0 54 17t42 44.5t30.5 62t20.5 69t11.5 66t3.5 53.5q0 47 -21 72t-59 25q-46 0 -77 -35t-50.5 -84t-28 -101t-8.5 -85z"/>
<glyph glyph-name="afii10070" unicode="е" horiz-adv-x="444" d="M146 197q-2 -14 -3.5 -25t-1.5 -24q0 -39 20.5 -66t62.5 -27q45 0 85.5 24.5t73.5 52.5l19 -24q-61 -63 -119.5 -92.5t-119.5 -29.5q-60 0 -97.5 40.5t-37.5 106.5q0 63 25.5 122.5t67.5 105t96.5 73.5t112.5 28q50 0 78.5 -22t28.5 -61q0 -73 -89 -122 q-25 -14 -46 -23.5t-43.5 -16t-49 -11t-63.5 -9.5zM158 232q38 4 69 17.5t53.5 34.5t35 47.5t12.5 56.5q0 35 -32 35q-19 0 -40 -16t-40 -42.5t-34.5 -61t-23.5 -71.5z"/>
<glyph glyph-name="afii10072" unicode="ж" horiz-adv-x="871" d="M871 418q0 -20 -13 -36.5t-35 -16.5q-9 0 -17 3t-21 13q-11 8 -15.5 10t-11.5 2q-16 0 -32.5 -16t-36.5 -45q-13 -20 -26.5 -48t-24 -58t-17 -60t-6.5 -55q0 -26 13 -42t38 -16q26 0 50 13.5t44 30.5q10 8 18 16t28 27l21 -24q-21 -24 -44 -47.5t-48 -41.5t-53.5 -29.5 t-61.5 -11.5q-47 0 -80.5 28.5t-33.5 84.5q0 65 22 119h-43l-75 -222l-101 -11l-3 5l76 228h-44q-26 -60 -75.5 -110.5t-121.5 -88.5q-29 -16 -55.5 -24.5t-43.5 -8.5q-18 0 -30 12.5t-12 30.5q0 20 13 36.5t35 16.5q9 0 17 -3t21 -13q11 -8 15.5 -10t11.5 -2q16 0 32 16 t36 45q14 20 27 48t23.5 58t17 60t6.5 55q0 26 -12.5 42t-37.5 16q-26 0 -50 -13.5t-44 -30.5q-10 -8 -18 -16t-28 -27l-21 24q21 24 44 47.5t48 41.5t53.5 29.5t61.5 11.5q47 0 80.5 -28.5t33.5 -84.5q0 -52 -15 -99h42l65 194q7 5 21.5 8t41.5 3q11 0 24 -5t16 -9 l-64 -191h46q56 108 188 179q29 16 55.5 24.5t42.5 8.5q19 0 31 -12.5t12 -30.5z"/>
<glyph glyph-name="afii10073" unicode="з" horiz-adv-x="444" d="M400 369q0 -28 -12 -48.5t-30 -35.5t-39.5 -25.5t-41.5 -16.5q44 -2 70.5 -27t26.5 -72q0 -42 -25 -79t-67 -58q-23 -11 -55.5 -16t-58.5 -5q-34 0 -68.5 11t-67.5 43q-8 8 -13.5 18.5t-5.5 21.5q0 21 13 32.5t28 11.5q28 0 36 -17t11 -36q3 -23 16.5 -36.5t42.5 -13.5 q18 0 35.5 9.5t30.5 25.5t21 37.5t8 44.5q0 39 -17.5 59.5t-58.5 20.5h-12t-19 -1l7 38q21 2 41.5 7.5t33.5 14.5q17 12 33 31.5t16 43.5q0 28 -17.5 40t-43.5 12q-13 0 -28 -5t-30 -13t-28 -16.5t-21 -16.5l-18 24q40 35 90 59.5t109 24.5q22 0 41.5 -6.5t34.5 -18.5 t23.5 -29t8.5 -38z"/>
<glyph glyph-name="afii10074" unicode="и" horiz-adv-x="574" d="M451 165q-8 -22 -13.5 -43t-5.5 -26q0 -7 5 -11.5t13 -4.5q20 0 63 49q3 4 7.5 8.5l10.5 10.5l21 -22l-10 -10q-67 -67 -106.5 -99t-70.5 -32q-18 0 -31 13.5t-13 33.5q0 8 2 18t5 21q6 23 11 41t12 39.5t17.5 51.5t26.5 75q-14 -21 -24 -36.5t-17 -25.5 q-75 -111 -141 -169.5t-115 -58.5q-20 0 -32.5 15t-12.5 38q0 10 2 22t6.5 29t12 40.5t18.5 55.5l32 93q12 34 16 46t4 16q0 6 -4.5 10t-9.5 4q-11 0 -25 -10t-46 -40q-2 -2 -4 -3.5t-5 -4.5l-21 21q10 10 16.5 17t11.5 12q33 33 56.5 55t41.5 34.5t33.5 17.5t31.5 5 q19 0 32.5 -13.5t13.5 -33.5q0 -10 -1.5 -22.5t-6.5 -26.5l-75 -222q-3 -9 -8 -20.5t-5 -21.5q0 -14 13 -14q22 0 54 34.5t87 106.5q36 47 60.5 91.5t47.5 92.5q5 10 9.5 19.5t9.5 19.5t15 10q12 0 66 -26l8 -4z"/>
<glyph glyph-name="afii10075" unicode="й" horiz-adv-x="574" d="M543 676q-37 -43 -84.5 -74t-107.5 -31q-21 0 -42.5 4t-38.5 13t-28 22.5t-11 32.5q0 9 4.5 19.5t11.5 15.5q17 13 25.5 14.5t18.5 1.5q20 0 29 -13t16 -30q7 -18 18 -24.5t31 -6.5q17 0 35 6t35.5 15.5t33.5 22.5t27 27l15 19l24 -20zM451 165q-8 -22 -13.5 -43 t-5.5 -26q0 -7 5 -11.5t13 -4.5q20 0 63 49q3 4 7.5 8.5l10.5 10.5l21 -22l-10 -10q-67 -67 -106.5 -99t-70.5 -32q-18 0 -31 13.5t-13 33.5q0 8 2 18t5 21q6 23 11 41t12 39.5t17.5 51.5t26.5 75q-14 -21 -24 -36.5t-17 -25.5q-75 -111 -141 -169.5t-115 -58.5 q-20 0 -32.5 15t-12.5 38q0 10 2 22t6.5 29t12 40.5t18.5 55.5l32 93q12 34 16 46t4 16q0 6 -4.5 10t-9.5 4q-11 0 -25 -10t-46 -40q-2 -2 -4 -3.5t-5 -4.5l-21 21q10 10 16.5 17t11.5 12q33 33 56.5 55t41.5 34.5t33.5 17.5t31.5 5q19 0 32.5 -13.5t13.5 -33.5 q0 -10 -1.5 -22.5t-6.5 -26.5l-75 -222q-3 -9 -8 -20.5t-5 -21.5q0 -14 13 -14q22 0 54 34.5t87 106.5q36 47 60.5 91.5t47.5 92.5q5 10 9.5 19.5t9.5 19.5t15 10q12 0 66 -26l8 -4z"/>
<glyph glyph-name="afii10076" unicode="к" horiz-adv-x="537" d="M537 411q0 -19 -12 -33.5t-38 -14.5q-4 0 -12.5 2.5t-11.5 4.5q-8 5 -14 10.5t-21 5.5q-13 0 -32 -10.5t-41 -29t-45.5 -43t-45.5 -52.5q13 4 28 4q25 0 41.5 -19t27.5 -48l35 -88q11 -27 23.5 -34.5t23.5 -7.5q16 0 32.5 9.5t26.5 19.5l7 7l21 -18l-7 -9 q-28 -35 -61 -57t-70 -22q-35 0 -60 17.5t-38 55.5l-32 94q-9 26 -16 34.5t-15 8.5t-17 -11t-17 -25t-14.5 -28.5t-9.5 -21.5q-7 -15 -14.5 -33t-16.5 -41q-4 -9 -6 -17.5t-6 -15t-11.5 -10.5t-22.5 -4q-33 0 -50.5 4t-17.5 15q0 7 2 16t11 33l68 181q17 46 23 67.5t6 33.5 q0 17 -12 17q-13 0 -61 -43q-3 -2 -7.5 -6.5t-10.5 -9.5l-19 20l15 16q63 68 103.5 97t74.5 29q19 0 31 -12.5t12 -33.5q0 -7 -1.5 -22t-7.5 -32l-45 -129h3q19 27 48.5 66.5t65.5 75.5t75 61.5t77 25.5q18 0 29.5 -5t17.5 -12.5t8.5 -16.5t2.5 -16z"/>
<glyph glyph-name="afii10077" unicode="л" horiz-adv-x="500" d="M480 125l-16 -16q-33 -35 -57.5 -58.5t-44.5 -38t-37 -20.5t-34 -6q-20 0 -34 14.5t-14 34.5q0 26 21.5 94t63.5 177q11 27 11 44q0 7 -4.5 15t-15.5 8q-15 0 -28 -8.5t-24 -21t-20 -28.5t-15 -31l-83 -189q-9 -21 -23 -41t-31 -35t-37 -24t-42 -9q-27 0 -50.5 15 t-23.5 44q0 24 13.5 41t39.5 17q17 0 29 -10t12 -26q0 -6 4.5 -8.5t10.5 -2.5q13 0 33 18t37 57l68 153q10 23 24.5 53t37 58t55 47t79.5 19q21 0 35 -6t22.5 -15t12 -20t3.5 -21q0 -13 -4 -29.5t-15 -47.5l-56 -153q-13 -35 -17 -47.5t-4 -19.5q0 -8 5 -14t13 -6 q11 0 25.5 10.5t37.5 35.5l18 18z"/>
<glyph glyph-name="afii10078" unicode="м" horiz-adv-x="708" d="M238 317q-8 -29 -20 -63.5t-33 -82.5q-35 -81 -74.5 -131.5t-89.5 -50.5q-35 0 -51.5 18t-16.5 41q0 20 14 38.5t37 18.5q20 0 33 -13q8 -8 10.5 -14.5t14.5 -6.5q15 0 41.5 33.5t54.5 97.5q29 66 43.5 117.5t22.5 93.5q-19 13 -77 13l5 31l19 -1l28.5 -1.5t15 -0.5h10.5 h16h23.5t29.5 1h34l13 -336l243 315q11 14 20 20.5t27 6.5q43 0 53.5 -4t10.5 -15q0 -7 -4 -22.5t-8 -26.5l-80 -226q-13 -35 -16 -46.5t-3 -18.5q0 -16 15 -16q11 0 25.5 8.5t37.5 33.5l18 18l19 -21l-16 -16q-33 -35 -57.5 -58.5t-44.5 -38t-37 -20.5t-34 -6 q-20 0 -35.5 14.5t-15.5 34.5q0 14 5 39t19 63l74 203l-265 -347h-42z"/>
<glyph glyph-name="afii10079" unicode="н" horiz-adv-x="574" d="M266 415q0 -7 -2 -22t-7 -32l-36 -106h157l55 152q3 9 6 17.5t7.5 15t12.5 10.5t23 4q43 0 53.5 -4t10.5 -15q0 -7 -2.5 -16t-10.5 -33l-77 -219q-13 -35 -16 -46.5t-3 -18.5q0 -16 15 -16q11 0 25.5 8.5t37.5 33.5l18 18l19 -21l-16 -16q-33 -35 -57.5 -58.5t-44.5 -38 t-37 -20.5t-34 -6q-20 0 -35.5 14.5t-15.5 34.5q0 14 5 39t19 63l28 78h-157l-60 -177q-3 -9 -6 -17.5t-8 -15t-13.5 -10.5t-23.5 -4q-33 0 -50.5 4t-17.5 15q0 7 2 16t11 33l68 181q17 46 23 67.5t6 33.5q0 17 -12 17q-13 0 -61 -43q-3 -2 -7.5 -6.5t-10.5 -9.5l-19 20 l15 16q63 68 103.5 97t74.5 29q19 0 32 -12.5t13 -33.5z"/>
<glyph glyph-name="afii10080" unicode="о" horiz-adv-x="537" d="M312 461q43 0 78.5 -13.5t61 -38t39.5 -59.5t14 -79q0 -59 -21 -111t-58 -90.5t-86 -61t-105 -22.5q-44 0 -80.5 14.5t-62.5 41t-40 63t-14 81.5q0 57 21.5 107t59 87.5t87 59t106.5 21.5zM394 334q0 44 -21 68.5t-59 24.5q-29 0 -54.5 -16t-44.5 -46q-31 -51 -48.5 -115 t-17.5 -128q0 -50 20.5 -76t58.5 -26q61 0 99 59q15 23 27 53.5t21 64.5t14 69t5 68z"/>
<glyph glyph-name="afii10081" unicode="п" horiz-adv-x="574" d="M28 318l13 15q61 70 100 99t73 29q19 0 30.5 -12.5t11.5 -33.5q0 -12 -5 -29l-57 -175q20 27 34.5 47.5t27.5 37t26.5 31t30.5 31.5q100 103 172 103q19 0 33 -14.5t14 -34.5q0 -27 -23 -90l-56 -153q-13 -35 -17 -47.5t-4 -19.5q0 -8 5 -14t13 -6q11 0 25.5 10.5 t37.5 35.5l18 18l19 -21l-16 -16q-33 -35 -57.5 -58.5t-44.5 -38t-37 -20.5t-34 -6q-20 0 -34 14.5t-14 34.5q0 26 19 87.5t61 170.5q10 24 10 44q0 19 -19 19q-33 0 -112 -94q-66 -76 -103 -157q-5 -11 -12 -28t-16 -40q-3 -8 -7.5 -20.5t-9.5 -17.5q-6 -9 -32 -9 q-33 0 -45.5 4t-12.5 15q0 7 2.5 16t10.5 33q8 23 16 46.5t16 46.5q17 50 28 82.5t17 53.5t8.5 33t2.5 20q0 17 -13 17q-8 0 -21 -11t-36 -32q-3 -2 -7.5 -6.5t-10.5 -9.5z"/>
<glyph glyph-name="afii10082" unicode="р" d="M32 376q14 7 25 12t24 10t29.5 10.5t42.5 12.5l31 128l110 30l-35 -132q26 8 54 12.5t62 4.5q159 0 159 -123q0 -65 -28.5 -130.5t-80.5 -122.5q-45 -49 -96 -75t-101 -26q-23 0 -43.5 5.5t-34.5 16.5l-44 -181l79 -17l-4 -24q-9 -1 -12 -1t-10 -1t-21.5 -3t-45.5 -6 q-16 -2 -27 -4t-21 -3.5t-19.5 -3.5t-22.5 -5l-13 7l153 614q-15 -4 -26 -7.5t-22 -8t-24 -9.5t-32 -12l-13 -5zM176 104q-4 -13 -4 -26q0 -26 15.5 -41t42.5 -15q28 0 55 18t49 51q19 30 35 63t27 66.5t17.5 66t6.5 59.5q0 37 -22 57t-63 20q-21 0 -44.5 -3t-38.5 -8z"/>
<glyph glyph-name="afii10083" unicode="с" horiz-adv-x="444" d="M431 126q-8 -8 -13.5 -13t-9.5 -9q-63 -58 -125 -88t-120 -30q-60 0 -96.5 40.5t-36.5 106.5q0 113 102 212q57 54 123.5 85t126.5 31q34 0 52.5 -15t18.5 -42q0 -25 -14 -39.5t-40 -14.5q-12 0 -24 3q-9 3 -17 7.5t-31 19.5q-15 11 -21 13.5t-14 2.5q-19 0 -38.5 -13.5 t-33.5 -36.5q-16 -25 -29 -53t-22.5 -56.5t-14.5 -55t-5 -48.5q0 -33 22.5 -55t56.5 -22q31 0 57 11q19 8 33 15t28 16.5t29 22t35 31.5z"/>
<glyph glyph-name="afii10084" unicode="т" horiz-adv-x="833" d="M28 320l52 54l10.5 10.5l11.5 11.5q20 19 35 31.5t28 20t24 10.5t24 3q43 0 43 -46q0 -18 -9 -49.5t-31 -94.5l-19 -55q22 30 40.5 55t37.5 48t41.5 45t53.5 47q33 27 58 38.5t50 11.5q20 0 31.5 -11.5t11.5 -31.5q0 -5 -3.5 -19t-8.5 -28q-6 -19 -14 -43 q-7 -22 -15.5 -50t-19.5 -62q14 21 24 36.5t19.5 28.5t19.5 24.5t22 24.5q27 30 54.5 54t54 41.5t49.5 27t41 9.5q20 0 33.5 -14.5t13.5 -35.5q0 -11 -3.5 -26.5t-7.5 -26.5l-83 -237q-5 -12 -5 -22q0 -7 4.5 -12t10.5 -5q7 0 15 5q10 6 17 11t14 11t15.5 14.5l21.5 21.5 l20 -19q-4 -5 -7 -8.5t-5 -5.5q-31 -35 -56 -59t-46 -39t-39.5 -21.5t-36.5 -6.5q-22 0 -34.5 13.5t-12.5 36.5q0 22 8.5 48t15.5 46l47 138q2 5 5 14.5t6 20t5.5 20.5t2.5 14q0 18 -18 18q-19 0 -46.5 -21.5t-58.5 -59.5q-62 -77 -101 -164q-5 -10 -12 -26.5t-16 -39.5 q-4 -9 -8.5 -21.5t-10.5 -19.5q-11 -13 -45 -13q-50 0 -50 20q0 9 5 23.5t8 23.5l80 232q11 31 11 49q0 7 -5 12t-12 5q-26 0 -66.5 -38t-81.5 -100q-17 -26 -30 -48t-25 -46t-24.5 -52.5t-28.5 -67.5q-1 -7 -5 -9q-5 -3 -14 -4.5t-20 -1.5q-25 0 -40.5 5t-15.5 14q0 5 6 21 l79 238q5 15 12 36.5t7 35.5q0 16 -16 16t-57 -40l-18 -17z"/>
<glyph glyph-name="afii10085" unicode="у" horiz-adv-x="519" d="M36 282l-24 15q0 16 0.5 27t2 20t4 18t6.5 20q13 36 37 59.5t65 23.5q61 0 93 -50q12 -19 21.5 -40t18 -51t16.5 -73t18 -106l13 -80l21 34q25 41 41.5 70.5t26 52t13.5 39.5t4 32q0 16 -5.5 34.5t-10.5 34.5q-6 23 -6 38q0 29 17.5 47.5t44.5 18.5q25 0 39 -16t14 -45 q0 -22 -5 -45.5t-14 -47.5q-64 -163 -210 -346q-52 -65 -111 -126q-38 -40 -66 -55.5t-61 -15.5q-58 0 -58 52q0 23 10 37t27 14q8 0 16 -1.5t16 -3.5q14 -3 24 -4.5t18 -1.5q12 0 20 1t16 4.5t16.5 9.5t21.5 17q56 46 56 81v8.5t-2 11.5l-29 163q-9 53 -20.5 93.5 t-23.5 69.5q-12 28 -29 43.5t-36 15.5q-34 0 -34 -55q0 -23 3 -35z"/>
<glyph glyph-name="afii10086" unicode="ф" horiz-adv-x="748" d="M722 307q0 -36 -12 -77.5t-34 -81.5t-52.5 -74.5t-67.5 -55.5q-55 -32 -123 -32q-17 0 -32.5 5.5t-29.5 14.5l-50 -198q9 -3 15.5 -5t13.5 -3.5t16.5 -2.5t24.5 -2l-4 -26l-21 1q-26 2 -47.5 3t-46.5 1q-39 0 -78.5 -1.5t-62.5 -3.5l5 27l7 1l40.5 6t34.5 7l54 213 q-28 -17 -57 -27t-57 -10q-63 0 -97.5 39.5t-34.5 114.5q0 36 12 77.5t34 81.5t52.5 74.5t67.5 55.5q55 32 123 32q17 0 32.5 -5.5t29.5 -14.5l58 238l-62 31l5 19l42 3.5t37 5.5t41.5 10t56.5 16l11 -8q-4 -11 -6 -19t-4 -13q-4 -13 -8.5 -27t-9.5 -31t-10.5 -39.5 t-13.5 -52.5l-38 -150q28 17 57 27t57 10q63 0 97.5 -39.5t34.5 -114.5zM607 311q0 40 -16 67.5t-52 27.5q-17 0 -36 -6.5t-38 -20.5l-82 -326q14 -32 51 -32q42 0 74.5 30.5t54.5 75t33 94.5t11 90zM365 394q-14 32 -51 32q-42 0 -74.5 -30.5t-54.5 -75t-33 -94.5t-11 -90 t16 -67.5t52 -27.5q35 0 74 27z"/>
<glyph glyph-name="afii10087" unicode="х" d="M64 109q-1 -3 -1 -9q0 -32 33 -32q20 0 43.5 20t61.5 68l35 43l-21 74q-3 12 -7.5 29t-11.5 32.5t-18 26.5t-27 11q-21 0 -37 -19q-10 -11 -15.5 -19t-16.5 -30l-26 15q57 142 143 142q25 0 41.5 -12t28 -31t18 -40.5t12.5 -41.5q2 -6 4.5 -15.5t6.5 -21.5q14 21 34 49.5 t44.5 54t52 43.5t54.5 18q23 0 37 -15t14 -38q0 -20 -16 -41t-39 -32l-16 6v3q0 12 -8.5 20.5t-20.5 8.5q-14 0 -29 -9t-29 -22t-26 -27t-19 -24q-5 -7 -10.5 -14.5t-11.5 -16.5l29 -94q3 -11 8.5 -27t13 -31t18 -26t24.5 -11q17 0 37.5 19t37.5 51l24 -19 q-9 -17 -15.5 -29.5t-13.5 -22.5t-15.5 -20t-20.5 -22q-44 -45 -90 -45q-34 0 -57.5 30.5t-44.5 109.5l-9 34l-14 -19l-21 -28t-18 -23.5t-18 -22t-21 -23.5q-29 -32 -50.5 -45t-47.5 -13q-27 0 -43.5 15t-16.5 41q0 20 11 38.5t36 37.5z"/>
<glyph glyph-name="afii10088" unicode="ц" horiz-adv-x="574" d="M456 38q-24 -26 -48 -38.5t-43 -12.5q-18 0 -31 13.5t-13 33.5q0 8 2 18t5 21q6 23 11 41t12 39.5t17.5 51.5t26.5 75q-14 -21 -24 -36.5t-17 -25.5q-75 -111 -141 -169.5t-115 -58.5q-20 0 -32.5 15t-12.5 38q0 10 2 22t6.5 29t12 40.5t18.5 55.5l32 93q12 34 16 46 t4 16q0 6 -4.5 10t-9.5 4q-11 0 -25 -10t-46 -40q-2 -2 -4 -3.5t-5 -4.5l-21 21q10 10 16.5 17t11.5 12q33 33 56.5 55t41.5 34.5t33.5 17.5t31.5 5q19 0 32.5 -13.5t13.5 -33.5q0 -10 -1.5 -22.5t-6.5 -26.5l-75 -222q-3 -9 -8 -20.5t-5 -21.5q0 -14 16 -14q13 0 32 16.5 t38.5 39t37 45.5t27.5 36q18 24 32.5 45.5t27 43.5t25 45.5t26.5 53.5q5 10 9.5 19.5t9.5 19.5t15 10q12 0 66 -26l8 -4l-89 -266q-8 -22 -13.5 -43t-5.5 -26q0 -7 5 -11.5t13 -4.5q20 0 63 49q3 4 7.5 8.5l10.5 10.5l21 -22q-24 -24 -38 -50.5t-14 -62.5q0 -17 3 -37t3 -37 q0 -25 -11 -48t-30.5 -42t-45.5 -33.5t-57 -22.5l-11 26q40 17 57 41t17 57q0 20 1.5 35t5 28.5t10 26t16.5 27.5z"/>
<glyph glyph-name="afii10089" unicode="ч" d="M216 233q0 -10 3.5 -14t15.5 -4q14 0 40 15.5t46 34.5q42 38 61 75t32 73q4 11 9 20t10 19t15 10q12 0 66 -26l8 -4l-89 -266q-8 -22 -13.5 -43t-5.5 -26q0 -7 5 -11.5t13 -4.5q20 0 63 49q3 4 7.5 8.5l10.5 10.5l21 -22l-10 -10q-67 -67 -106.5 -99t-70.5 -32 q-18 0 -31 13.5t-13 33.5q0 22 6.5 46.5t15.5 50.5l49 142q-27 -28 -52 -49.5t-50.5 -36t-53 -22t-60.5 -7.5q-27 0 -40.5 15.5t-13.5 34.5q0 11 4 25t7 24l9 26q12 34 16 46t4 16q0 6 -4.5 10t-9.5 4q-11 0 -25 -10t-46 -40q-2 -2 -4 -3.5t-5 -4.5l-21 21q10 10 16.5 17 t11.5 12q33 33 56.5 55t41.5 34.5t33.5 17.5t31.5 5q19 0 32.5 -13.5t13.5 -33.5q0 -10 -1.5 -22.5t-6.5 -26.5l-29 -85q-2 -8 -7.5 -24t-5.5 -24z"/>
<glyph glyph-name="afii10090" unicode="ш" horiz-adv-x="833" d="M795 106q-24 -24 -46.5 -46t-43.5 -38.5t-40.5 -26t-39.5 -9.5q-21 0 -32 12.5t-11 35.5q0 18 9 49t31 94l29 82h-3q-37 -57 -79.5 -116t-100.5 -106q-33 -27 -58 -38.5t-50 -11.5q-20 0 -31.5 11.5t-11.5 31.5q0 14 9 43.5t21 64.5l41 121h-3q-5 -8 -16 -24t-22 -33 q-25 -37 -56.5 -75.5t-65.5 -69.5t-67.5 -51t-63.5 -20q-20 0 -33.5 14.5t-13.5 35.5q0 11 3.5 26.5t7.5 26.5l68 196q2 4 5 12.5t6 17.5t5 17t2 10q0 7 -4.5 11t-10.5 4t-14 -4t-15.5 -9.5t-14.5 -11.5t-11 -10q-5 -5 -10.5 -10t-13.5 -13l-21 21l15 16q32 35 56.5 58.5 t44.5 38.5t37.5 21.5t35.5 6.5q22 0 35 -13t13 -36q0 -22 -9 -48.5t-16 -46.5l-47 -138q-1 -4 -5 -14.5t-8 -22.5t-7 -22t-3 -15q0 -8 3.5 -13t14.5 -5q9 0 22.5 10t28.5 26t31.5 36t31.5 39q31 38 53.5 69t41.5 74q13 28 27 56.5t26 55.5q2 5 6.5 7.5t8.5 2.5q12 0 66 -26 l8 -4l-92 -275l-10 -30t-5 -24q0 -7 3.5 -12t10.5 -5q13 0 31.5 15t39 37.5t41 48.5t36.5 48q19 25 33.5 46t27 44t25.5 51t29 67q8 19 20 19t66 -26l8 -4l-84 -252q-3 -7 -7 -19t-7.5 -24.5t-6.5 -24t-3 -18.5q0 -15 16 -15q17 0 66 51l16 17l21 -22z"/>
<glyph glyph-name="afii10091" unicode="щ" horiz-adv-x="833" d="M815 126q-24 -24 -38 -50.5t-14 -62.5q0 -17 3 -37t3 -37q0 -25 -11 -48t-30.5 -42t-45.5 -33.5t-57 -22.5l-11 26q40 17 57 41t17 57q0 20 1.5 35t5 28.5t10 26t16.5 27.5l-2 2q-24 -26 -48 -38.5t-43 -12.5q-21 0 -33.5 13t-12.5 36q0 18 9 49t31 94l29 82h-3 q-37 -57 -79.5 -116t-100.5 -106q-33 -27 -58 -38.5t-50 -11.5q-20 0 -31.5 11.5t-11.5 31.5q0 14 9 43.5t21 64.5l41 121h-3q-5 -8 -16 -24t-22 -33q-25 -37 -56.5 -75.5t-65.5 -69.5t-67.5 -51t-63.5 -20q-20 0 -33.5 14.5t-13.5 35.5q0 11 3.5 26.5t7.5 26.5l68 196 q2 4 5 12.5t6 17.5t5 17t2 10q0 7 -4.5 11t-10.5 4t-14 -4t-15.5 -9.5t-14.5 -11.5t-11 -10q-5 -5 -10.5 -10t-13.5 -13l-21 21l15 16q32 35 56.5 58.5t44.5 38.5t37.5 21.5t35.5 6.5q22 0 35 -13t13 -36q0 -22 -9 -48.5t-16 -46.5l-47 -138q-1 -4 -5 -14.5t-8 -22.5t-7 -22 t-3 -15q0 -8 3.5 -13t14.5 -5q9 0 22.5 10t28.5 26t31.5 36t31.5 39q31 38 53.5 69t41.5 74q13 28 27 56.5t26 55.5q2 5 6.5 7.5t8.5 2.5q12 0 66 -26l8 -4l-92 -275l-10 -30t-5 -24q0 -7 3.5 -12t10.5 -5q13 0 31.5 15t39 37.5t41 48.5t36.5 48q19 25 33.5 46t27 44 t25.5 51t29 67q8 19 20 19t66 -26l8 -4l-84 -252q-3 -7 -7 -19t-7.5 -24.5t-6.5 -24t-3 -18.5q0 -15 16 -15q17 0 66 51l16 17z"/>
<glyph glyph-name="afii10092" unicode="ъ" d="M524 193q0 -23 -9.5 -46.5t-26.5 -46t-39 -43t-48 -35.5q-29 -17 -60.5 -26.5t-60.5 -9.5q-81 0 -126 33.5t-45 103.5q0 48 25 88.5t56.5 71t60 50t35.5 25.5l-1 3q-5 -4 -18 -7t-20 -3q-14 0 -33 1t-41 9q-14 5 -35.5 16t-35.5 11q-33 0 -33 -29q0 -6 1 -9l5 -13 q1 -3 1 -10q0 -11 -7.5 -18.5t-19.5 -7.5q-30 0 -30 30q0 9 2 16t7.5 16t16 21t28.5 31q24 26 44.5 37t43.5 11q27 0 53 -11.5t38 -17.5q13 -6 29 -10.5t25 -4.5q20 0 34 9t19 13t15.5 8.5t15.5 4.5q12 0 17 -9.5t5 -18.5q0 -4 -6 -9.5t-11 -7.5q-10 -5 -19 -7.5t-17 -11.5 q-17 -18 -37 -43.5t-38 -61.5q-4 -8 -8.5 -18t-9.5 -21q13 9 31 18.5t38 16.5t39 11.5t34 4.5q60 0 88 -29.5t28 -74.5zM406 190q0 23 -9.5 38.5t-33.5 15.5q-18 0 -51.5 -12.5t-63.5 -34.5q-9 -28 -15.5 -56.5t-6.5 -54.5q0 -37 13 -53.5t35 -16.5q26 0 50 17.5t42 44 t29 57t11 55.5z"/>
<glyph glyph-name="afii10093" unicode="ы" horiz-adv-x="741" d="M719 125l-16 -16q-33 -35 -57.5 -58.5t-44.5 -38t-37 -20.5t-34 -6q-20 0 -35.5 14.5t-15.5 34.5q0 14 5 39t19 63l97 270q3 9 6 17.5t7.5 15t12.5 10.5t23 4q43 0 53.5 -4t10.5 -15q0 -7 -2.5 -16t-10.5 -33l-77 -219q-13 -35 -16 -46.5t-3 -18.5q0 -16 15 -16 q11 0 25.5 8.5t37.5 33.5l18 18zM350 186q0 23 -9.5 40.5t-33.5 17.5q-19 0 -50 -13.5t-58 -35.5l-19 -52q-6 -17 -8 -33t-2 -24q0 -37 13 -53.5t35 -16.5q26 0 50 17t42 42.5t29 55.5t11 55zM468 189q0 -23 -9.5 -46t-26.5 -45t-39 -41.5t-48 -34.5q-29 -17 -63 -26.5 t-63 -9.5q-30 0 -56.5 10t-46.5 28t-31.5 43.5t-11.5 56.5q0 30 14 66l37 93q14 33 17 45.5t3 16.5q0 6 -4.5 10t-9.5 4q-11 0 -25 -10t-46 -40q-2 -2 -4 -3.5t-5 -4.5l-21 21q10 10 16.5 17t11.5 12q33 33 56.5 55t41.5 34.5t33.5 17.5t31.5 5q19 0 32.5 -13.5t13.5 -33.5 q0 -10 -1.5 -22.5t-6.5 -26.5l-42 -123q29 19 67 36t69 17q63 0 89.5 -31.5t26.5 -76.5z"/>
<glyph glyph-name="afii10094" unicode="ь" horiz-adv-x="500" d="M350 186q0 23 -9.5 40.5t-33.5 17.5q-19 0 -50 -13.5t-58 -35.5l-19 -52q-6 -17 -8 -33t-2 -24q0 -37 13 -53.5t35 -16.5q26 0 50 17t42 42.5t29 55.5t11 55zM468 189q0 -23 -9.5 -46t-26.5 -45t-39 -41.5t-48 -34.5q-29 -17 -63 -26.5t-63 -9.5q-30 0 -56.5 10t-46.5 28 t-31.5 43.5t-11.5 56.5q0 30 14 66l37 93q14 33 17 45.5t3 16.5q0 6 -4.5 10t-9.5 4q-11 0 -25 -10t-46 -40q-2 -2 -4 -3.5t-5 -4.5l-21 21q10 10 16.5 17t11.5 12q33 33 56.5 55t41.5 34.5t33.5 17.5t31.5 5q19 0 32.5 -13.5t13.5 -33.5q0 -10 -1.5 -22.5t-6.5 -26.5 l-42 -123q29 19 67 36t69 17q63 0 89.5 -31.5t26.5 -76.5z"/>
<glyph glyph-name="afii10095" unicode="э" horiz-adv-x="476" d="M444 303q0 -74 -25.5 -132.5t-66.5 -99.5t-92 -63t-102 -22q-27 0 -53 6.5t-46.5 19.5t-33 32.5t-12.5 45.5q0 20 14.5 33.5t36.5 13.5q19 0 35 -14t16 -34q0 -8 -2 -14t-2 -13q0 -20 14.5 -29.5t33.5 -9.5q28 0 52 16.5t44 43.5t35.5 61.5t24.5 70.5h-191l12 38h188 q4 19 5.5 36.5t1.5 33.5q0 34 -20.5 56.5t-52.5 22.5q-42 0 -85.5 -21t-78.5 -56l-22 24l18 16q49 43 103 69.5t105 26.5q73 0 109.5 -43.5t36.5 -114.5z"/>
<glyph glyph-name="afii10096" unicode="ю" horiz-adv-x="778" d="M553 461q43 0 78.5 -13.5t61 -38t39.5 -59.5t14 -79q0 -59 -21 -111t-58 -90.5t-86 -61t-105 -22.5q-44 0 -80.5 14.5t-62.5 41t-40 63t-14 81.5q0 8 0.5 14.5t1.5 14.5h-74l-60 -177q-3 -9 -6 -17.5t-8 -15t-13.5 -10.5t-23.5 -4q-33 0 -50.5 4t-17.5 15q0 7 2 16t11 33 l68 181q17 46 23 67.5t6 33.5q0 17 -12 17q-13 0 -61 -43q-3 -2 -7.5 -6.5t-10.5 -9.5l-19 20l15 16q63 68 103.5 97t74.5 29q19 0 32 -12.5t13 -33.5q0 -7 -2 -22t-7 -32l-37 -108h67q11 45 36 83t60 65.5t78.5 43.5t91.5 16zM635 334q0 44 -21 68.5t-59 24.5 q-29 0 -54.5 -16t-44.5 -46q-31 -51 -48.5 -115t-17.5 -128q0 -50 20.5 -76t58.5 -26q61 0 99 59q15 23 27 53.5t21 64.5t14 69t5 68z"/>
<glyph glyph-name="afii10097" unicode="я" horiz-adv-x="526" d="M379 400q0 17 -8.5 22t-26.5 5q-67 0 -99.5 -32t-32.5 -74q0 -13 3.5 -27t12.5 -26t23.5 -19.5t35.5 -7.5h40l38 105q4 11 9 28.5t5 25.5zM506 125l-16 -16q-33 -35 -57.5 -58.5t-44.5 -38t-37 -20.5t-34 -6q-20 0 -35.5 14.5t-15.5 34.5q0 14 5 39t19 63l27 74h-10 q-21 0 -33 -7.5t-24 -25.5l-79 -118q-9 -14 -20.5 -27.5t-27 -24t-36 -16.5t-48.5 -6q-32 0 -55.5 11t-42.5 23l11 27q10 -6 22.5 -8.5t24.5 -2.5q13 0 25 6.5t24 23.5l77 110q17 25 39 36t39 13l1 2q-20 3 -38.5 10.5t-33 19.5t-23 29t-8.5 39q0 44 23 70.5t58 41 t76.5 19.5t77.5 5q86 0 119.5 -13t33.5 -43q0 -10 -2.5 -20.5t-7.5 -23.5l-69 -194q-13 -35 -16 -46.5t-3 -18.5q0 -16 15 -16q11 0 25.5 8.5t37.5 33.5l18 18z"/>
<glyph glyph-name="afii10071" unicode="ё" horiz-adv-x="444" d="M146 198q-2 -14 -3.5 -25t-1.5 -24q0 -39 20.5 -66t62.5 -27q45 0 85.5 24.5t73.5 52.5l19 -24q-61 -63 -119.5 -92.5t-119.5 -29.5q-60 0 -97.5 40.5t-37.5 106.5q0 63 25.5 122.5t67.5 105t96.5 73.5t112.5 28q50 0 78.5 -22t28.5 -61q0 -73 -89 -122 q-25 -14 -46 -23.5t-43.5 -16t-49 -11t-63.5 -9.5zM158 233q38 4 69 17.5t53.5 34.5t35 47.5t12.5 56.5q0 35 -32 35q-19 0 -40 -16t-40 -42.5t-34.5 -61t-23.5 -71.5zM440 686q24 0 41 -17t17 -41t-17 -40.5t-41 -16.5t-41 16.5t-17 40.5t17 41t41 17zM233 571 q-24 0 -41 16.5t-17 40.5t17 41t41 17t41 -17t17 -41t-17 -40.5t-41 -16.5z"/>
<glyph glyph-name="afii10099" unicode="ђ" horiz-adv-x="530" d="M498 358q0 -13 -6.5 -35.5t-16.5 -54.5l-54 -178q-18 -61 -54 -114q-41 -59 -96.5 -93t-110.5 -34q-21 0 -33.5 11.5t-12.5 29.5q0 28 10.5 46t27.5 18q8 0 17 -3.5t33 -16.5q12 -6 20 -8.5t18 -2.5q15 0 24 7.5t17 28t17.5 56t24.5 91.5l37 133q4 14 6.5 24.5t2.5 19.5 q0 19 -19 19q-21 0 -51 -21.5t-58.5 -51.5t-51.5 -61.5t-32 -51.5q-7 -14 -13 -37.5t-12 -45.5q-3 -10 -5 -17t-4 -10q-5 -6 -16 -9t-26 -3q-26 0 -37.5 5t-11.5 16q0 4 1 8t3 14l111 467h-75l14 46h72l31 129l-60 28l6 22l18 3q32 5 60.5 9t42.5 8q20 5 29 7.5t13.5 3.5 t6.5 2t7 2l10 -8l-55 -206h220l-14 -46h-219l-81 -302l1 -2q22 30 53 66.5t67.5 67.5t76.5 52t80 21q19 0 33 -14.5t14 -34.5z"/>
<glyph glyph-name="afii10100" unicode="ѓ" horiz-adv-x="389" d="M223 398q-20 0 -53 -16.5t-64 -51.5l-22 21q20 20 42.5 39.5t47.5 35t52 25.5t55 10q17 0 33.5 -4t29 -12.5t20.5 -22.5t8 -35q0 -23 -8.5 -41.5t-23.5 -33.5t-34 -28t-40 -26q-48 -29 -77.5 -67.5t-29.5 -83.5q0 -22 12 -35t35 -13q22 0 57 16t69 44l16 13l20 -23 l-13 -12q-19 -18 -44 -37.5t-53 -36t-57.5 -27t-57.5 -10.5q-53 0 -83 25t-30 75q0 28 11.5 51.5t30.5 43.5t42 37t47 32q33 21 52 38t28.5 31.5t12 26.5t2.5 24q0 10 -7 19t-26 9zM333 706q11 11 22 20t27 9q19 0 32 -12t13 -29q0 -23 -25 -38l-164 -97h-44z"/>
<glyph glyph-name="afii10101" unicode="є" horiz-adv-x="444" d="M453 404q0 -25 -14 -39.5t-40 -14.5q-12 0 -24 3q-9 3 -17 7.5t-31 19.5q-15 11 -21 13.5t-14 2.5q-19 0 -38.5 -13.5t-33.5 -36.5q-14 -21 -25 -45t-20 -48h179l-12 -38h-180q-6 -23 -9.5 -44t-3.5 -38q0 -33 22.5 -55t56.5 -22q47 0 88.5 24.5t74.5 54.5q5 4 9.5 8 t9.5 9l21 -26q-8 -8 -13.5 -13t-9.5 -9q-63 -58 -125 -88t-120 -30q-60 0 -96.5 40.5t-36.5 106.5t32.5 125.5t83.5 104.5t113.5 71.5t122.5 26.5q34 0 52.5 -15t18.5 -42z"/>
<glyph glyph-name="afii10102" unicode="ѕ" horiz-adv-x="389" d="M57 142q7 -40 45 -61t102 -21q72 0 72 38q0 15 -12.5 27t-41.5 32l-77 51q-40 26 -55 47.5t-15 51.5q0 35 21.5 58.5t47.5 43.5q30 23 49.5 34t37.5 15q7 2 20 2.5t25 0.5q93 0 93 -63q0 -16 -5 -28.5t-20 -34.5h-22q-8 28 -34.5 43t-68.5 15q-33 0 -51.5 -10.5 t-18.5 -29.5q0 -15 13.5 -29.5t47.5 -36.5l72 -46q33 -21 45.5 -39.5t12.5 -47.5q0 -60 -60 -115q-33 -30 -65 -42t-77 -12q-60 0 -96 25t-36 65q0 23 8.5 37t22.5 30h20z"/>
<glyph glyph-name="afii10103" unicode="і" horiz-adv-x="315" d="M244 714q26 0 44 -17.5t18 -43.5t-18 -44.5t-44 -18.5t-43.5 18.5t-17.5 44.5t17.5 43.5t43.5 17.5zM285 127l-11 -12q-59 -64 -99.5 -95t-78.5 -31q-20 0 -34 13.5t-14 33.5t11 51l72 217q5 14 7 25t2 16q0 17 -15 17q-8 0 -17 -5t-22 -18l-37 -35l-20 24 q57 67 105.5 101.5t87.5 34.5q19 0 33 -13t14 -30q0 -11 -3.5 -28.5t-10.5 -37.5l-66 -194q-1 -4 -4 -13t-6.5 -18.5t-6 -18.5t-2.5 -13q0 -14 13 -14q9 0 20.5 7.5t23 18t22 21.5t17.5 18z"/>
<glyph glyph-name="afii10104" unicode="ї" horiz-adv-x="315" d="M285 127l-11 -12q-59 -64 -99.5 -95t-78.5 -31q-20 0 -34 13.5t-14 33.5t11 51l72 217q5 14 7 25t2 16q0 17 -15 17q-8 0 -17 -5t-22 -18l-37 -35l-20 24q57 67 105.5 101.5t87.5 34.5q19 0 33 -13t14 -30q0 -11 -3.5 -28.5t-10.5 -37.5l-66 -194l-7 -21q-6 -19 -9 -28 t-3 -14q0 -14 13 -14q19 0 67 48q2 3 6.5 7.5l9.5 9.5zM330 686q24 0 41 -17t17 -41t-17 -40.5t-41 -16.5t-41 16.5t-17 40.5t17 41t41 17zM123 571q-24 0 -41 16.5t-17 40.5t17 41t41 17t41 -17t17 -41t-17 -40.5t-41 -16.5z"/>
<glyph glyph-name="afii10105" unicode="ј" horiz-adv-x="296" d="M244 714q26 0 44 -17.5t18 -43.5t-18 -44.5t-44 -18.5t-43.5 18.5t-17.5 44.5t17.5 43.5t43.5 17.5zM-53 -200q15 7 22.5 13t18.5 20q17 22 30.5 52.5t20.5 56.5l92 342q2 5 4.5 14t5 18.5t4.5 18.5t2 13q0 18 -17 18q-8 0 -20 -8t-23.5 -18.5t-21.5 -21t-14 -14.5 l-21 22q15 20 38 42t41 39q35 32 60.5 46t46.5 14t35 -14t14 -35t-11.5 -70.5t-32.5 -122.5l-72 -248q-22 -73 -57 -120q-11 -15 -23 -27t-28 -22t-36.5 -19t-48.5 -19z"/>
<glyph glyph-name="afii10106" unicode="љ" horiz-adv-x="687" d="M661 193q0 -23 -9.5 -46.5t-26.5 -46t-39 -43t-48 -35.5q-29 -17 -62.5 -26.5t-62.5 -9.5q-30 0 -57 10t-47.5 28t-33 43.5t-12.5 56.5q0 16 4 33.5t10 32.5l48 119q5 13 9 24t4 20q0 7 -4 13.5t-15 6.5q-15 0 -28 -8.5t-24 -21t-20 -28.5t-15 -31l-83 -189 q-9 -21 -23 -41t-31 -35t-37 -24t-42 -9q-27 0 -50.5 15t-23.5 44q0 24 13.5 41t39.5 17q17 0 29 -10t12 -26q0 -6 4.5 -8.5t10.5 -2.5q13 0 33 18t37 57l68 153q10 23 24.5 53t37 58t55 47t79.5 19q21 0 35 -6t22.5 -15t12 -20t3.5 -21q0 -13 -3.5 -29.5t-15.5 -47.5 l-30 -78q15 9 32 18t35 17t36 13t33 5q63 0 89.5 -27t26.5 -77zM543 200q0 23 -10 36t-33 13q-19 0 -48.5 -15.5t-59.5 -38.5l-19 -52q-6 -17 -8 -33t-2 -24q0 -37 13 -53.5t35 -16.5q26 0 50 19t42 47.5t29 60.5t11 57z"/>
<glyph glyph-name="afii10107" unicode="њ" horiz-adv-x="741" d="M715 193q0 -23 -9.5 -46.5t-26.5 -46t-39 -43t-48 -35.5q-29 -17 -60.5 -26.5t-60.5 -9.5q-30 0 -56.5 10t-47 28t-32.5 43.5t-12 56.5q0 16 3.5 33.5t8.5 32.5l9 25h-137l-60 -177q-3 -9 -6 -17.5t-8 -15t-13.5 -10.5t-23.5 -4q-33 0 -50.5 4t-17.5 15q0 7 2 16t11 33 l68 181q17 46 23 67.5t6 33.5q0 17 -12 17q-13 0 -61 -43q-3 -2 -7.5 -6.5t-10.5 -9.5l-19 20l15 16q63 68 103.5 97t74.5 29q19 0 32 -12.5t13 -33.5q0 -7 -2 -22t-7 -32l-36 -106h137l55 152q3 9 6 17.5t7.5 15t12.5 10.5t23 4q43 0 53.5 -4t10.5 -15q0 -7 -2.5 -16 t-10.5 -33l-50 -142q15 9 32 18t35 17t36 13t33 5q63 0 89.5 -27t26.5 -77zM597 200q0 23 -10 36t-33 13q-19 0 -48.5 -15.5t-59.5 -38.5l-19 -52q-6 -17 -8 -33t-2 -24q0 -37 13 -53.5t35 -16.5q26 0 50 19t42 47.5t29 60.5t11 57z"/>
<glyph glyph-name="afii10108" unicode="ћ" d="M536 128l-16 -16q-33 -35 -57.5 -58.5t-44.5 -38t-37 -20.5t-34 -6q-20 0 -34 14.5t-14 34.5q0 13 3 29t10 39.5t18.5 55.5t28.5 77q10 24 10 44q0 19 -19 19q-21 0 -51 -21.5t-58.5 -51.5t-51.5 -61.5t-32 -51.5q-7 -14 -13 -37.5t-12 -45.5q-3 -10 -5 -17t-4 -10 q-5 -6 -16 -9t-26 -3q-26 0 -37.5 5t-11.5 16q0 4 1 8t3 14l111 467h-75l14 46h72l31 129l-60 28l6 22l18 3q32 5 60.5 9t42.5 8q20 5 29 7.5t13.5 3.5t6.5 2t7 2l10 -8l-55 -206h220l-14 -46h-219l-81 -302l1 -2q22 30 53 66.5t67.5 67.5t76.5 52t80 21q19 0 33 -14.5 t14 -34.5q0 -27 -23 -90l-36 -96q-14 -35 -17.5 -47.5t-3.5 -19.5q0 -8 5 -14t13 -6q11 0 25.5 10.5t37.5 35.5l18 18z"/>
<glyph glyph-name="afii10109" unicode="ќ" horiz-adv-x="537" d="M373 706q11 11 22 20t27 9q19 0 32 -12t13 -29q0 -23 -25 -38l-164 -97h-44zM537 411q0 -19 -12 -33.5t-38 -14.5q-4 0 -12.5 2.5t-11.5 4.5q-8 5 -14 10.5t-21 5.5q-13 0 -32 -10.5t-41 -29t-45.5 -43t-45.5 -52.5q13 4 28 4q25 0 41.5 -19t27.5 -48l35 -88 q11 -27 23.5 -34.5t23.5 -7.5q16 0 32.5 9.5t26.5 19.5l7 7l21 -18l-7 -9q-28 -35 -61 -57t-70 -22q-35 0 -60 17.5t-38 55.5l-32 94q-9 26 -16 34.5t-15 8.5t-17 -11t-17 -25t-14.5 -28.5t-9.5 -21.5q-7 -15 -14.5 -33t-16.5 -41q-4 -9 -6 -17.5t-6 -15t-11.5 -10.5 t-22.5 -4q-33 0 -50.5 4t-17.5 15q0 7 2 16t11 33l68 181q17 46 23 67.5t6 33.5q0 17 -12 17q-13 0 -61 -43q-3 -2 -7.5 -6.5t-10.5 -9.5l-19 20l15 16q63 68 103.5 97t74.5 29q19 0 31 -12.5t12 -33.5q0 -7 -1.5 -22t-7.5 -32l-45 -129h3q19 27 48.5 66.5t65.5 75.5 t75 61.5t77 25.5q18 0 29.5 -5t17.5 -12.5t8.5 -16.5t2.5 -16z"/>
<glyph glyph-name="afii10110" unicode="ў" horiz-adv-x="519" d="M36 282l-24 15q0 16 0.5 27t2 20t4 18t6.5 20q13 36 37 59.5t65 23.5q61 0 93 -50q12 -19 21.5 -40t18 -51t16.5 -73t18 -106l13 -80l21 34q25 41 41.5 70.5t26 52t13.5 39.5t4 32q0 16 -5.5 34.5t-10.5 34.5q-6 23 -6 38q0 29 17.5 47.5t44.5 18.5q25 0 39 -16t14 -45 q0 -22 -5 -45.5t-14 -47.5q-64 -163 -210 -346q-52 -65 -111 -126q-38 -40 -66 -55.5t-61 -15.5q-58 0 -58 52q0 23 10 37t27 14q8 0 16 -1.5t16 -3.5q14 -3 24 -4.5t18 -1.5q12 0 20 1t16 4.5t16.5 9.5t21.5 17q56 46 56 81v8.5t-2 11.5l-29 163q-9 53 -20.5 93.5 t-23.5 69.5q-12 28 -29 43.5t-36 15.5q-34 0 -34 -55q0 -23 3 -35zM523 676q-37 -43 -84.5 -74t-107.5 -31q-21 0 -42.5 4t-38.5 13t-28 22.5t-11 32.5q0 9 4.5 19.5t11.5 15.5q17 13 25.5 14.5t18.5 1.5q20 0 29 -13t16 -30q7 -18 18 -24.5t31 -6.5q17 0 35 6t35.5 15.5 t33.5 22.5t27 27l15 19l24 -20z"/>
<glyph glyph-name="afii10193" unicode="џ" horiz-adv-x="574" d="M296 60q-7 -14 -9 -27.5t-2 -25.5q0 -21 4 -38t4 -28q0 -25 -11 -48t-30.5 -42t-45.5 -33.5t-57 -22.5l-11 26q40 17 57 41t17 57q0 26 2 45t10 36q9 20 22.5 36.5t27.5 33.5zM451 167q-8 -22 -13.5 -43t-5.5 -26q0 -7 5 -11.5t13 -4.5q20 0 63 49q3 4 7.5 8.5l10.5 10.5 l21 -22l-10 -10q-67 -67 -106.5 -99t-70.5 -32q-18 0 -31 13.5t-13 33.5q0 8 2 18t5 21q6 23 11 41t12 39.5t17.5 51.5t26.5 75q-14 -21 -24 -36.5t-17 -25.5q-75 -111 -141 -169.5t-115 -58.5q-20 0 -32.5 15t-12.5 38q0 10 2 22t6.5 29t12 40.5t18.5 55.5l32 93 q12 34 16 46t4 16q0 6 -4.5 10t-9.5 4q-11 0 -25 -10t-46 -40q-2 -2 -4 -3.5t-5 -4.5l-21 21q10 10 16.5 17t11.5 12q33 33 56.5 55t41.5 34.5t33.5 17.5t31.5 5q19 0 32.5 -13.5t13.5 -33.5q0 -10 -1.5 -22.5t-6.5 -26.5l-75 -222q-3 -9 -8 -20.5t-5 -21.5q0 -14 13 -14 q22 0 54 34.5t87 106.5q36 47 60.5 91.5t47.5 92.5q5 10 9.5 19.5t9.5 19.5t15 10q12 0 66 -26l8 -4z"/>
<glyph glyph-name="afii10050" unicode="Ґ" d="M569 653h-35.5t-30.5 0.5t-30.5 0.5h-35.5q-29 0 -59 -1t-59 -3l-97 -527q-2 -14 -4 -27t-2 -27q0 -19 11 -27.5t37 -9.5l48 -1l-4 -31l-22 1q-21 1 -37.5 1.5t-27.5 0.5h-80h-41t-28 -0.5l-24 -1t-29 -0.5l-31 -1l5 31q9 0 16 -0.5t12 -0.5q35 0 50 16.5t22 50.5l60 315 q17 91 24.5 142.5t7.5 66.5q0 23 -12 32q-17 14 -78 14l4 31q8 0 14 -0.5t11 -0.5q19 -1 36 -1.5t35.5 -1t40.5 -0.5h51h49t44 1h43q57 1 97 25.5t61 85.5h28z"/>
<glyph glyph-name="afii10098" unicode="ґ" horiz-adv-x="389" d="M483 479q-5 -13 -15.5 -35t-23.5 -43.5t-28.5 -37t-30.5 -15.5q-10 0 -25 5.5t-30 11.5q-17 7 -31 11.5t-22 4.5q-6 0 -15.5 -11t-17.5 -47l-50 -213q-14 -60 -51 -91.5t-88 -31.5q-22 0 -37.5 7t-25 18.5t-13.5 26t-4 29.5q0 20 10.5 43t15.5 35l31 -11 q-6 -12 -14 -31.5t-8 -37.5q0 -21 8 -26t15 -5q12 0 27 13t25 50l56 203q6 20 16.5 36.5t24 30t27.5 25t26 22.5q26 23 48.5 34.5t34.5 11.5q8 0 21 -5t27 -11q13 -5 24.5 -9.5t19.5 -4.5q14 0 26 18.5t20 39.5z"/>
</font>
</defs>
</svg>
