<?xml version="1.0" encoding="UTF-8" standalone="no"?>
<!DOCTYPE svg  PUBLIC '-//W3C//DTD SVG 1.1//EN'  'http://www.w3.org/Graphics/SVG/1.1/DTD/svg11.dtd'>
<svg xmlns="http://www.w3.org/2000/svg" version="1.1">
<defs>
<font id="SabonLTCYR-Roman" horiz-adv-x="556">
<font-face underline-position="-150" descent="-200" units-per-em="1000" cap-height="698" unicode-range="U+0020-0491" panose-1="0 0 0 0 0 0 0 0 0 0" underline-thickness="50" ascent="800" bbox="-42 -250 1090 911" x-height="442" font-family="R" font-weight="400"/>
<missing-glyph/>
<glyph glyph-name="space" unicode=" " horiz-adv-x="278"/>
<glyph d="M157 188l-33 241q-5 36 -10 72.5t-5 73.5q0 96 59 96q29 0 45.5 -23.5t16.5 -65.5q0 -21 -4 -62t-11 -88l-36 -244h-22zM231 49q0 -26 -18 -44.5t-44 -18.5t-44.5 18.5t-18.5 44.5t18.5 44t44.5 18t44 -18t18 -44z" glyph-name="exclam" unicode="!" horiz-adv-x="333"/>
<glyph d="M168 645q0 1 -0.5 7.5t-1 14.5t-1 15t-0.5 8q0 21 10.5 33.5t28.5 12.5q17 0 27.5 -12.5t10.5 -35.5q0 -11 -1 -21.5t-2 -21.5l-21 -213h-30zM317 645q-1 11 -2 23t-1 23q0 20 10.5 32.5t27.5 12.5q18 0 28.5 -12.5t10.5 -32.5q0 -8 -1 -23.5t-2 -22.5l-20 -213h-30z" glyph-name="quotedbl" unicode='&quot;'/>
<glyph d="M40 0l74 224h-108l14 42h108l59 182h-108l14 42h108l74 225h59l-73 -225h122l73 225h60l-74 -225h108l-14 -42h-108l-59 -182h108l-14 -42h-108l-74 -224h-59l73 224h-122l-73 -224h-60zM369 448h-122l-60 -182h122z" glyph-name="numbersign" unicode="#"/>
<glyph d="M258 767h36v-57q27 -1 46 -2.5t34.5 -4t31 -5.5t36.5 -8l6 -130h-20q-3 15 -6 24.5t-6 17t-6.5 14t-9.5 15.5q-29 44 -106 47v-279q11 -5 19 -8t13 -5q19 -8 35 -16t29 -15q47 -26 72.5 -69.5t25.5 -95.5q0 -54 -25 -100.5t-73 -72.5q-23 -13 -42 -18t-54 -8v-87h-36v86 q-28 0 -48.5 2t-39.5 6.5t-40 12t-49 19.5l-5 45t-4 33.5t-5 30.5l-7 35l22 4q25 -83 66 -119.5t110 -37.5v292q-94 38 -135 86t-41 119q0 81 48.5 130.5t127.5 59.5v59zM258 677q-45 -8 -72 -42t-27 -82q0 -27 7 -47.5t20 -36.5t31.5 -29.5t40.5 -26.5v264zM294 22 q48 6 76.5 43t28.5 92q0 56 -34 93q-14 16 -28 25.5t-43 23.5v-277z" glyph-name="dollar" unicode="$"/>
<glyph d="M646 727h46l-387 -757h-50zM82 537q0 36 13.5 67t36.5 53.5t54.5 35.5t68.5 13q35 0 64 -12t50 -33t32.5 -50t11.5 -64q0 -37 -13 -68.5t-36 -54.5t-54 -36t-68 -13q-35 0 -64.5 12t-50.5 33t-33 51t-12 66zM551 149q0 36 13.5 67t36.5 53.5t54.5 35.5t68.5 13 q35 0 63.5 -11.5t49.5 -32.5t32.5 -50t11.5 -64q0 -37 -13 -69t-35.5 -55t-53.5 -36t-68 -13q-36 0 -65.5 12t-50.5 33.5t-32.5 51t-11.5 65.5zM246 400q42 0 65.5 39.5t23.5 111.5q0 21 -3.5 44.5t-12.5 43t-25.5 32t-43.5 12.5q-42 0 -66.5 -40.5t-24.5 -109.5 q0 -64 22.5 -98.5t64.5 -34.5zM714 12q43 0 66.5 39.5t23.5 111.5q0 21 -3.5 44t-13 42.5t-26 32.5t-42.5 13q-42 0 -67 -40.5t-25 -109.5q0 -64 22.5 -98.5t64.5 -34.5z" glyph-name="percent" unicode="%" horiz-adv-x="1000"/>
<glyph d="M234 421q-42 28 -61.5 59.5t-19.5 73.5q0 31 11.5 58t32.5 46.5t49 30.5t61 11q64 0 103 -30.5t39 -79.5q0 -27 -9 -48t-24 -37.5t-34.5 -30t-41.5 -25.5q38 -30 64.5 -52.5t49 -45.5t45 -51t52.5 -67q17 20 29 34.5t22.5 28.5t20.5 29t22 35q26 40 37.5 64t11.5 37 q0 12 -7 18.5t-17 9.5t-21 3.5t-19 0.5v26l17 -1q17 -1 28 -1.5t22 -0.5h25h37h38.5t25.5 0.5t21 1t25 0.5l27 1v-26q-44 -1 -70 -6.5t-45 -18.5t-36 -34.5t-43 -54.5l-134 -169l30 -39q32 -41 56 -68.5t45 -44t41.5 -23t44.5 -6.5q35 0 59.5 20t45.5 44l16 -15 q-17 -22 -35 -42.5t-39 -36.5t-46 -25t-55 -9q-41 0 -73 15.5t-57.5 40.5t-47 56t-42.5 62l-35 -38q-30 -33 -55.5 -55t-49.5 -35.5t-48.5 -19t-53.5 -5.5q-43 0 -80 16t-64.5 43.5t-43 65t-15.5 80.5q0 44 13 77.5t35.5 60.5t53.5 49t66 43zM316 463q70 48 70 118 q0 42 -23.5 68t-61.5 26q-35 0 -58.5 -24.5t-23.5 -62.5q0 -22 9 -40t23 -33t31.5 -27.5t33.5 -24.5zM494 163q-28 37 -50 63.5t-47.5 52.5t-58 55.5t-82.5 72.5q-48 -27 -82 -69t-34 -100q0 -36 14.5 -68.5t39.5 -57t58 -39t69 -14.5q30 0 54 8t44 22t38 33t37 41z" glyph-name="ampersand" unicode="&amp;" horiz-adv-x="944"/>
<glyph d="M104 645q-1 11 -2.5 22t-1.5 22q0 22 10.5 34.5t28.5 12.5q19 0 29 -12.5t10 -35.5q0 -11 -1 -21.5t-2 -21.5l-20 -213h-31z" glyph-name="quotesingle" unicode="&apos;" horiz-adv-x="278"/>
<glyph d="M273 688q-27 -53 -52 -104.5t-43.5 -105.5t-30 -111t-11.5 -120q0 -115 36.5 -219t96.5 -197l-34 -25q-33 45 -60.5 98t-46.5 110.5t-29.5 116.5t-10.5 115q0 69 10.5 128.5t30 115t47.5 109.5t62 112z" glyph-name="parenleft" unicode="(" horiz-adv-x="333"/>
<glyph d="M53 -171q29 52 53.5 104t43.5 105.5t29.5 110.5t10.5 120q0 119 -35 219.5t-97 196.5l33 26q34 -44 61 -97t46 -110t29.5 -116.5t10.5 -116.5q0 -69 -10.5 -128.5t-30 -115t-47.5 -109.5t-62 -112z" glyph-name="parenright" unicode=")" horiz-adv-x="333"/>
<glyph d="M261 575v44v31t1 19.5t2 12t4 9.5q8 16 33 16q17 0 28.5 -9.5t11.5 -24.5q0 -14 -11.5 -32.5t-34.5 -49.5l-17 -22zM226 553l-11 3q-63 17 -86 29.5t-23 32.5q0 17 12 29t29 12q28 0 73 -67l17 -25zM293 551l10 3q26 8 42 12t25.5 6t16 2.5t12.5 0.5q16 0 27 -11t11 -28 t-10.5 -27.5t-27.5 -10.5q-10 0 -25.5 5.5t-51.5 18.5q-5 2 -12 4.5t-17 5.5v19zM240 514l-8 -12q-18 -27 -30 -43t-21 -24.5t-16.5 -11.5t-16.5 -3q-14 0 -25.5 12.5t-11.5 28.5q0 19 20 31.5t75 30.5l21 7zM283 513q5 -9 6 -11q14 -21 23 -35.5t14 -25t7 -19t2 -16.5 q0 -16 -11.5 -25.5t-30.5 -9.5q-37 0 -37 44q0 10 0.5 29.5t3.5 43.5l2 18z" glyph-name="asterisk" unicode="*"/>
<glyph d="M245 219h-219v66h219v219h66v-219h219v-66h-219v-219h-66v219z" glyph-name="plus" unicode="+"/>
<glyph d="M46 -165q27 5 39.5 10.5t28.5 16.5q20 14 33 38.5t13 48.5q0 21 -10 36q-4 6 -12 8.5t-25 4.5q-66 6 -66 57q0 27 18.5 43.5t49.5 16.5q47 0 76 -34t29 -89q0 -37 -17 -74t-44 -62q-11 -9 -21 -16t-22 -12t-27 -9.5t-36 -8.5z" glyph-name="comma" unicode="," horiz-adv-x="278"/>
<glyph d="M277 211q-6 0 -15 1h-7q-23 1 -48.5 1.5t-48.5 0.5q-13 0 -28.5 -0.5t-33.5 -0.5q-20 -1 -31 -1t-29 -1l9 67l11 -1q19 -2 35 -2h49q32 0 53.5 0.5t32.5 0.5q16 1 27.5 0.5t32.5 1.5z" glyph-name="hyphen" unicode="-" horiz-adv-x="333"/>
<glyph d="M67 50q0 27 19.5 46.5t46.5 19.5q28 0 47 -19.5t19 -46.5q0 -28 -19 -47t-47 -19q-27 0 -46.5 19t-19.5 47z" glyph-name="period" unicode="." horiz-adv-x="278"/>
<glyph d="M230 719h57l-237 -732h-57z" glyph-name="slash" unicode="/" horiz-adv-x="278"/>
<glyph d="M281 698q48 0 89 -25.5t70.5 -70.5t46 -107.5t16.5 -136.5q0 -77 -19 -145t-51.5 -118.5t-76 -80t-93.5 -29.5q-56 0 -96.5 32.5t-67 82t-39.5 109t-13 113.5q0 81 17.5 149.5t49 119t74.5 79t93 28.5zM263 17q36 0 60.5 19.5t41 51t25.5 70.5t13.5 78t5.5 74.5t1 59.5 q0 20 -1.5 50t-6 63.5t-13.5 66.5t-24 59.5t-36.5 43t-51.5 16.5q-35 0 -59 -20t-40 -51.5t-24.5 -70.5t-12.5 -77.5t-5 -72.5t-1 -55t1 -52t4.5 -64.5t11.5 -67.5t22 -60.5t36 -43.5t53 -17z" glyph-name="zero" unicode="0"/>
<glyph d="M91 561q33 17 57.5 31t47.5 28t48.5 31t61.5 40l23 15l9 -5v-629q0 -14 1 -20t4 -12q5 -8 24 -11.5t71 -3.5h11v-25l-22 1q-21 1 -34.5 1.5t-27 0.5t-31 -0.5t-46.5 -0.5h-45h-30h-25.5t-30.5 -1l-32 -1v25h12q39 0 60.5 2.5t31.5 7.5q9 5 12.5 18t3.5 41v519 q-19 -11 -33 -19.5t-27.5 -16t-28.5 -15.5t-35 -17l-17 -8z" glyph-name="one" unicode="1"/>
<glyph d="M53 564q22 29 42.5 53.5t44 42.5t53 28t69.5 10q78 0 125 -48t47 -128q0 -63 -24 -111q-24 -49 -56.5 -92.5t-69 -84t-75.5 -79t-77 -76.5h325l27 53l23 -2l-29 -130h-455v17l49 47q48 46 89.5 88.5t74.5 83.5q51 63 79 130t28 128q0 64 -34.5 103.5t-91.5 39.5 q-27 0 -47 -7t-36.5 -20t-31 -29.5t-30.5 -36.5z" glyph-name="two" unicode="2"/>
<glyph d="M164 365q21 3 35 6t25.5 7t22.5 9.5t24 14.5q31 20 49 53t18 71q0 51 -31 83t-81 32q-43 0 -71.5 -17.5t-57.5 -47.5l-15 19q39 47 84 75.5t108 28.5q64 0 104.5 -37.5t40.5 -97.5q0 -30 -13 -60.5t-36 -55.5q-9 -10 -17.5 -18t-18.5 -15t-23 -14t-31 -16q17 -1 29 -2 t21 -2.5t18 -4.5t20 -7q41 -16 64.5 -56t23.5 -92q0 -49 -21 -92t-57 -75t-84 -51t-102 -19q-30 0 -58.5 7t-50 19.5t-35 28t-13.5 31.5q0 13 9.5 21t23.5 8q11 0 16 -4t13 -17q38 -64 110 -64q35 0 64 13t50 36t33 55t12 70q0 76 -44.5 115t-131.5 39h-5t-21 -1v24z" glyph-name="three" unicode="3"/>
<glyph d="M359 700h48v-413h100v-69h-100v-221h-84v221h-302v41zM323 595l-232 -308h232v308z" glyph-name="four" unicode="4"/>
<glyph d="M218 691h253l-21 -80h-225l-40 -104l24 -13q43 -23 77 -45t59 -44q35 -31 54.5 -77t19.5 -97q0 -52 -19 -97t-52.5 -78t-79 -52t-97.5 -19q-29 0 -55 6.5t-46 18t-31.5 26.5t-11.5 31q0 13 8 20.5t22 7.5q11 0 17.5 -4t14.5 -16q20 -29 43 -42.5t55 -13.5q34 0 62 12 t48.5 34t31.5 52t11 66q0 44 -16 84t-45 67q-16 15 -28.5 25.5t-28.5 21t-39 23t-60 30.5z" glyph-name="five" unicode="5"/>
<glyph d="M512 685q-37 -11 -64 -21t-48.5 -21t-41.5 -24.5t-43 -32.5q-32 -26 -58.5 -56.5t-46.5 -65.5q-15 -25 -24.5 -45t-16.5 -40t-11 -44t-8 -56q37 54 76.5 78t90.5 24q36 0 67 -13.5t54.5 -37.5t36.5 -56.5t13 -70.5q0 -44 -18 -84t-48 -70t-70 -48t-84 -18 q-46 0 -84.5 19.5t-67 54t-44.5 82t-16 103.5q0 93 45 179.5t130 158.5q35 29 63.5 48t58.5 33t65.5 24.5t84.5 20.5zM276 14q57 0 90.5 41.5t33.5 111.5q0 69 -35 110.5t-93 41.5q-53 0 -92 -37q-18 -17 -24 -32.5t-6 -46.5q0 -42 9 -77t25.5 -60t40 -38.5t51.5 -13.5z" glyph-name="six" unicode="6"/>
<glyph d="M522 689l8 -8l-361 -705l-39 21l319 611h-351l-27 -56l-26 4l26 133h451z" glyph-name="seven" unicode="7"/>
<glyph d="M215 335q-27 19 -51 37t-42 39.5t-28.5 48.5t-10.5 63q0 40 14.5 73.5t40.5 58t62 38t78 13.5q39 0 71 -11.5t55.5 -32.5t36.5 -49.5t13 -62.5q0 -32 -12.5 -59.5t-32 -50t-44.5 -40t-51 -30.5q147 -82 147 -197q0 -38 -16 -72t-44 -59.5t-65 -40.5t-78 -15 q-36 0 -69.5 11t-60 32t-42 51.5t-15.5 69.5q0 35 12 62.5t32 49.5t46 39.5t54 33.5zM291 383q91 67 91 162q0 60 -31 96.5t-80 36.5q-48 0 -78 -33.5t-30 -86.5q0 -33 10.5 -58t28.5 -45t41 -37t48 -35zM235 318q-51 -38 -72 -76t-21 -91q0 -62 31.5 -99t85.5 -37 q51 0 83.5 34t32.5 86q0 33 -12.5 60t-32 48.5t-44.5 40t-51 34.5z" glyph-name="eight" unicode="8"/>
<glyph d="M30 0q37 11 63.5 21t48.5 21t42 24.5t43 32.5q64 52 105 122q15 25 24.5 45t16 40t11 44t7.5 56q-37 -54 -76.5 -78t-90.5 -24q-36 0 -67 14t-54.5 38t-36.5 56.5t-13 69.5q0 44 18 84t48 70.5t70 48.5t84 18q46 0 85 -19.5t67.5 -54.5t44.5 -82t16 -103 q0 -93 -45.5 -179.5t-130.5 -158.5q-34 -28 -62.5 -48t-58.5 -34t-66 -24.5t-85 -20.5zM266 671q-57 0 -91 -41.5t-34 -111.5q0 -69 35 -110.5t93 -41.5q26 0 50 9.5t43 27.5q17 17 23 33t6 46q0 42 -9 77t-25.5 60t-39.5 38.5t-51 13.5z" glyph-name="nine" unicode="9"/>
<glyph d="M194 348q0 -26 -18 -44t-44 -18t-44.5 18t-18.5 44t18.5 44.5t44.5 18.5t44 -18.5t18 -44.5zM194 49q0 -26 -18 -44.5t-44 -18.5t-44.5 18.5t-18.5 44.5t18.5 44t44.5 18t44 -18t18 -44z" glyph-name="colon" unicode=":" horiz-adv-x="278"/>
<glyph d="M199 348q0 -26 -18 -44t-44 -18t-44.5 18t-18.5 44t18.5 44.5t44.5 18.5t44 -18.5t18 -44.5zM61 -165q27 5 39.5 10.5t28.5 16.5q20 14 33 38.5t13 48.5q0 21 -10 36q-4 6 -12 8.5t-25 4.5q-65 6 -65 57q0 27 18 43.5t49 16.5q47 0 76 -34t29 -89q0 -37 -17 -74t-44 -62 q-11 -9 -21 -16t-22 -12t-27 -9.5t-36 -8.5z" glyph-name="semicolon" unicode=";" horiz-adv-x="278"/>
<glyph d="M-9 240v25l574 247v-72l-452 -188l452 -188v-72z" glyph-name="less" unicode="&lt;"/>
<glyph d="M26 385h504v-66h-504v66zM26 185h504v-66h-504v66z" glyph-name="equal" unicode="="/>
<glyph d="M565 264v-25l-574 -247v72l452 188l-452 188v72z" glyph-name="greater" unicode="&gt;"/>
<glyph d="M155 188v181q17 2 28 3t20.5 3t18.5 5l21 7q37 14 58 42.5t21 66.5q0 51 -32 82t-85 31h-17q-11 0 -12 -0.5t-12 -0.5q-23 0 -35.5 12t-12.5 34q0 21 14 33t40 12q35 0 67.5 -16.5t56.5 -46.5q34 -42 54 -96t20 -103q0 -29 -10.5 -59t-27.5 -47q-19 -20 -52 -31 q-3 -2 -11.5 -4.5t-17.5 -5.5q-11 -3 -23 -6q-14 -4 -22 -8t-12.5 -10t-6 -15.5t-1.5 -25.5v-37h-29zM248 49q0 -26 -18.5 -44.5t-44.5 -18.5t-44 18.5t-18 44.5t18 44t44 18t44.5 -18t18.5 -44z" glyph-name="question" unicode="?" horiz-adv-x="444"/>
<glyph d="M705 78q-135 -98 -292 -98q-85 0 -157 27t-124.5 75t-82.5 113.5t-30 142.5q0 83 33 155.5t90.5 126.5t134.5 85t165 31q74 0 136.5 -22.5t107.5 -62t70 -94.5t25 -121q0 -64 -25.5 -126.5t-69.5 -105.5q-55 -52 -111 -52q-42 0 -65.5 24t-25.5 67q-41 -91 -123 -91 q-28 0 -52 11t-42 30.5t-28 46.5t-10 58q0 43 16 85.5t46 77.5q32 38 71 60t77 22q39 0 64.5 -19.5t32.5 -54.5l19 63h56l-5 -15l-34 -113q-22 -71 -30.5 -108t-8.5 -57q0 -25 16 -41t41 -16q31 0 62 27q45 38 72 99.5t27 125.5q0 60 -22.5 110t-63 86t-96 56t-122.5 20 q-78 0 -147 -29t-121 -79.5t-82 -117.5t-30 -143q0 -71 26.5 -131t73.5 -103.5t111 -68t140 -24.5q145 0 273 90zM368 182q38 0 65 28t49 91q9 25 18 56.5t14 51.5q3 17 3 33q0 32 -19 51.5t-49 19.5q-50 0 -94 -55q-30 -38 -48.5 -86t-18.5 -90q0 -46 22 -73t58 -27z" glyph-name="at" unicode="@" horiz-adv-x="800"/>
<glyph d="M376 726l236 -646q3 -9 9.5 -18.5t14.5 -16.5q11 -11 25.5 -15.5t39.5 -4.5v-25q-32 2 -59 2h-56h-75t-71 -2v25q11 0 23.5 0.5t23.5 3.5t18.5 10t7.5 19q0 15 -8 39l-57 165h-233l-32 -101q-5 -16 -12 -41.5t-7 -51.5q0 -16 8.5 -25t21 -13t27 -4.5t26.5 -0.5h8v-25 q-31 2 -60.5 2h-61.5h-58.5t-58.5 -2v25q30 4 44 8.5t23 13.5q5 5 10.5 13t10.5 17.5t9.5 19t6.5 16.5l160 447q8 23 15.5 49.5t7.5 51.5q0 5 -0.5 10t-1.5 11q15 7 24.5 11.5t15.5 9t10 10t8 13.5h17zM433 303l-108 294l-98 -294h206z" glyph-name="A" unicode="A" horiz-adv-x="721"/>
<glyph d="M23 698q14 -1 25.5 -2t22.5 -1.5t24 -0.5h31q20 0 40.5 1t40.5 1h37q45 0 96 -6t91 -29q31 -18 50 -52t19 -72q0 -36 -15 -62.5t-38.5 -46t-52 -32.5t-56.5 -20q21 -2 35.5 -3.5t26 -4t22.5 -6.5t26 -10q51 -20 82.5 -65t31.5 -99q0 -43 -18.5 -77.5t-53 -59t-82.5 -38 t-108 -13.5q-6 0 -17 0.5t-26 0.5l-62 1l-39 1.5t-26 0.5q-26 0 -53.5 -1.5t-55.5 -2.5v25q14 1 22.5 2t14.5 2t11.5 3t13.5 6q17 8 23.5 27t6.5 59v472q0 20 -2 29t-8 19q-8 13 -25 21t-46 8h-9v25zM211 387q10 -1 17.5 -1h12.5q75 0 117 34.5t42 113.5q0 75 -38.5 104 t-109.5 29h-17.5t-23.5 -2v-278zM211 100q0 -16 1.5 -24t6.5 -16q9 -13 30.5 -20.5t50.5 -7.5q75 0 118 41.5t43 113.5q0 37 -13 70.5t-36 54.5q-24 23 -62.5 34.5t-87.5 11.5q-10 0 -22.5 -0.5t-28.5 -1.5v-256z" glyph-name="B" unicode="B" horiz-adv-x="611"/>
<glyph d="M680 517h-22q-30 162 -210 162q-64 0 -117 -22.5t-91 -63t-58.5 -97.5t-20.5 -127q0 -73 22.5 -136t62 -109.5t93 -73t115.5 -26.5q48 0 89 16.5t69 46.5q10 11 17.5 21t12.5 21.5t9 26t8 34.5l23 -6l-23 -144q-116 -52 -242 -52q-78 0 -144 27.5t-114.5 75.5t-76 114 t-27.5 144t29 144t80.5 115t121.5 76.5t152 27.5q62 0 120 -15t111 -37z" glyph-name="C" unicode="C" horiz-adv-x="722"/>
<glyph d="M28 698q5 0 8 -0.5t5 -0.5q29 0 58 -0.5t58 -0.5h14.5h10.5t18.5 0.5t38.5 0.5q19 0 33 0.5t24 0.5q106 0 179 -23t131 -75q55 -49 83.5 -113t28.5 -139q0 -78 -29 -142t-82 -109.5t-127 -71t-164 -25.5h-17t-24 1q-35 1 -67.5 1h-64.5h-57.5t-57.5 -2v25l10 1 q61 6 72 31q5 10 7.5 29.5t2.5 41.5v458q0 26 -4 43t-14.5 27t-28 13.5t-45.5 3.5v25zM216 117q0 -47 24 -65.5t84 -18.5q129 0 206 81q39 42 60 100t21 126q0 73 -23 133.5t-65 103.5t-101 66.5t-130 23.5q-11 0 -27 -0.5t-39 -2.5l-10 -1v-546z" glyph-name="D" unicode="D" horiz-adv-x="778"/>
<glyph d="M25 698l33 -1q34 -1 58.5 -1.5t53.5 -0.5h52h65t65.5 0.5t52.5 0.5q30 0 44 0.5t22.5 0.5t16.5 0.5t26 0.5v-149l-19 -5q-6 35 -16 58t-28.5 36.5t-47.5 19t-72 5.5h-113v-279h113q29 0 41 1.5t26 6.5q26 11 32 66l1 10h25q0 -26 -1 -53t-1 -53q0 -29 1.5 -58.5 t4.5 -58.5h-26q0 4 -0.5 6.5t-0.5 4.5q-3 38 -9 52.5t-22 21.5q-23 10 -71 10h-113v-229q0 -39 19 -56q11 -11 29 -15.5t50 -4.5h35q50 0 77.5 2.5t48.5 10.5q28 10 51.5 39t36.5 70l24 -4l-7 -21q-9 -28 -15 -45.5t-9.5 -31t-5.5 -26t-5 -29.5l-34 1q-34 1 -58 1h-57h-268 q-26 0 -52.5 -1t-52.5 -1v25h10q26 0 42 4t26 14.5t13.5 29t3.5 46.5v469q0 26 -3.5 42.5t-12.5 26t-25 13t-42 3.5h-12v25z" glyph-name="E" unicode="E" horiz-adv-x="611"/>
<glyph d="M466 465q0 -28 -1.5 -56t-1.5 -56q0 -26 1.5 -51.5t3.5 -51.5h-21q-1 4 -1 9q-3 24 -7.5 39.5t-13.5 24t-23 12t-36 3.5h-141v-238q0 -42 20.5 -58.5t63.5 -16.5h10v-25q-33 2 -68 2h-70h-85t-68 -2v25h10q42 0 65.5 14t23.5 59v491q0 20 -1 31t-4 20q-4 12 -13 18.5 t-22 9.5t-27.5 4t-29.5 1v25l37 -1q38 -1 65 -1.5t58 -0.5h114t114 1q29 0 42.5 0.5t22 0.5t16 0.5t24.5 0.5l5 -141l-23 -4q-5 31 -18.5 59.5t-47.5 37.5q-26 8 -58 10.5t-59 2.5h-97v-281h128q24 0 40 3t26 11.5t15.5 23t8.5 37.5l1 8h22z" glyph-name="F" unicode="F" horiz-adv-x="557"/>
<glyph d="M703 519h-22q-6 20 -10.5 33.5t-10 24t-11.5 19.5t-15 18q-28 30 -79 49t-105 19q-61 0 -113 -24t-90 -66t-59 -100t-21 -127q0 -73 22 -136t61 -109.5t92.5 -72.5t115.5 -26q35 0 67.5 9t64.5 26v149q0 28 -3 39.5t-11 17.5q-19 13 -78 13v26l24 -1q16 -1 26 -1h21h26.5 h41.5h31h21.5t19 0.5t23.5 0.5l25 1v-25q-13 0 -29 -2t-27 -10q-8 -6 -12 -16.5t-4 -29.5v-142l17 -16v-18q-67 -24 -135.5 -39.5t-140.5 -15.5q-163 0 -266 109q-49 52 -75.5 118.5t-26.5 136.5q0 78 28.5 144t79 114.5t119.5 76t150 27.5q66 0 127.5 -16t123.5 -38z" glyph-name="G" unicode="G" horiz-adv-x="778"/>
<glyph d="M302 673h-11q-35 0 -48.5 -6t-19.5 -18t-7.5 -23t-1.5 -42v-202h405v218q0 23 -3.5 37t-13 22t-27 11t-44.5 3v25q35 -2 73 -2h75h63.5t63.5 2v-25h-11q-44 0 -62 -14t-18 -58v-509q0 -41 23 -54t61 -13h7v-25q-35 2 -69 2h-69h-68t-69 -2v25q23 1 39.5 3t27.5 9t16 21.5 t5 39.5v238h-405v-231q0 -34 6.5 -49.5t18 -21.5t27.5 -6t36 -3v-25q-33 2 -66 2h-67h-70.5t-70.5 -2v25q25 1 42.5 3.5t28 11.5t15.5 26t5 46v494q0 26 -12 44q-8 11 -24.5 17t-46.5 6h-8v25q35 -2 70 -2h70h67t67 2v-25z" glyph-name="H" unicode="H" horiz-adv-x="834"/>
<glyph d="M302 673h-11q-28 0 -43.5 -5t-23 -15.5t-9 -27.5t-1.5 -41v-479q0 -24 3 -39.5t11 -24.5t24 -12.5t41 -3.5h9v-25q-29 2 -59.5 2h-73.5h-74t-67 -2v25q13 0 21 0.5t14 1.5t11 2.5t13 4.5q18 8 25 24.5t7 53.5v494q0 42 -22.5 54.5t-60.5 12.5h-8v25q35 -2 70 -2h70h67 t67 2v-25z" glyph-name="I" unicode="I" horiz-adv-x="332"/>
<glyph d="M69 698q37 -2 73.5 -2h74.5h70t70 2v-25h-15q-28 0 -43.5 -6.5t-23 -19t-9.5 -30.5t-2 -41v-501q0 -42 -6 -85.5t-17 -76.5q-9 -29 -27.5 -53t-42.5 -41t-53 -27t-59 -10q-45 0 -73 19.5t-28 51.5q0 20 11 31.5t29 11.5q33 0 36 -32q2 -22 15 -34t35 -12q83 0 83 163v595 q0 31 -3.5 50t-14 29.5t-30 14t-50.5 3.5v25z" glyph-name="J" unicode="J" horiz-adv-x="389"/>
<glyph d="M442 698q23 -2 53 -2h58h57.5t56.5 2v-25q-29 -1 -44.5 -4t-28.5 -9q-16 -8 -41.5 -29t-47.5 -44l-188 -197l266 -295q21 -23 36.5 -36.5t29.5 -21.5q11 -6 22.5 -8t34.5 -4v-25q-23 2 -44 2h-44h-44t-37 -2q-29 36 -69 81t-82.5 92t-84.5 92.5t-75 81.5l249 263 q5 6 14.5 17.5t9.5 19.5q0 26 -49 26h-8v25zM39 698q33 -2 67.5 -2h68.5h64.5t59.5 2v-25h-8q-43 0 -56 -9t-13 -37v-558q0 -17 5 -27q9 -17 65 -17h11v-25q-32 2 -66.5 2h-69.5h-30h-28.5t-31 -0.5t-38.5 -1.5v25h12q26 0 40.5 2t22 8.5t9.5 19t2 34.5v507q0 46 -15 61.5 t-61 15.5h-10v25z" glyph-name="K" unicode="K" horiz-adv-x="722"/>
<glyph d="M42 698q38 -2 74.5 -2h74.5h61.5t60.5 2v-25q-28 0 -41 -1.5t-21 -3.5q-17 -5 -23 -16t-6 -36v-492q0 -48 27.5 -68.5t90.5 -20.5h40q28 0 58.5 4t50.5 12q25 9 42.5 32.5t35.5 73.5l22 -4l-37 -153q-9 0 -26.5 0.5t-37 0.5t-37.5 0.5t-28 0.5h-264q-10 0 -27 -0.5 t-35 -0.5t-35.5 -0.5t-29.5 -0.5v25h17q44 0 60 20t16 74v464q0 44 -12 67t-56 23h-15v25z" glyph-name="L" unicode="L" horiz-adv-x="611"/>
<glyph d="M63 698q21 -2 41 -2h41h44t44 2l269 -561l189 385q21 42 42.5 86.5t38.5 89.5q22 -2 42.5 -2h41.5h43t43 2v-25h-8q-29 0 -41.5 -3t-22.5 -11q-9 -8 -13.5 -20.5t-3.5 -34.5l13 -481q1 -23 2.5 -35t6.5 -26q7 -19 26.5 -28t56.5 -9h17v-25q-38 2 -83 2h-89h-70t-69 -2v25 h19q43 0 63 14q11 8 15.5 21.5t4.5 38.5l-7 481l-222 -457q-7 -15 -15 -33q-7 -17 -12.5 -29t-9.5 -23l-8 -22t-9 -26h-20q-6 16 -11.5 28t-11.5 25.5t-14 30.5t-21 44l-212 440l-14 -425q-2 -62 16.5 -85t66.5 -23h16v-25q-28 2 -61.5 2h-65.5h-66t-64 -2v25q29 1 41.5 3.5 t29.5 11.5q24 13 34.5 44.5t13.5 99.5l16 363q0 5 0.5 7t0.5 5v8v17q0 48 -18 68.5t-61 20.5h-15v25z" glyph-name="M" unicode="M" horiz-adv-x="1000"/>
<glyph d="M12 698q23 -2 47.5 -2h48.5h40.5t37.5 2q5 -7 8 -11t4 -5q11 -15 36.5 -44.5t66.5 -73.5l380 -411l-1 189q-1 103 -4 168t-7 94q-3 23 -13 36.5t-24.5 20.5t-33 9.5t-38.5 2.5v25q32 -2 65 -2h65h62.5t62.5 2v-25q-24 0 -33.5 -1.5t-23.5 -6.5q-12 -5 -20 -14.5 t-12.5 -27.5t-6.5 -46t-2 -70q0 -18 0.5 -46t1.5 -60.5t1.5 -66.5t0.5 -63v-281h-23l-527 575v-371q0 -15 0.5 -35t3.5 -40t8 -38.5t14 -29.5q11 -14 32.5 -20t61.5 -6h3v-25q-27 2 -58.5 2h-78.5h-64.5t-64.5 -2v25q3 1 7 0h4q28 0 45 5t26.5 18.5t13 37t3.5 59.5v426 q0 23 -2.5 35t-10.5 25q-24 39 -102 42v25z" glyph-name="N" unicode="N" horiz-adv-x="833"/>
<glyph d="M416 712q74 0 139.5 -28.5t114.5 -78t77.5 -115.5t28.5 -141q0 -74 -28.5 -140t-77 -115t-114 -77.5t-140.5 -28.5q-73 0 -138 29t-113.5 78.5t-77 114.5t-28.5 138q0 75 27 141.5t75 116t113.5 78t141.5 28.5zM427 24q53 0 97.5 22t76 61t49 93.5t17.5 120.5 q0 57 -16 119.5t-48.5 115t-81.5 87t-116 34.5q-52 0 -96 -21.5t-75 -60.5t-48.5 -93.5t-17.5 -120.5q0 -56 15.5 -118.5t48 -115.5t81 -88t114.5 -35z" glyph-name="O" unicode="O" horiz-adv-x="833"/>
<glyph d="M32 698q32 -2 65 -3.5t65 -1.5q29 0 57 1.5t57 1.5q125 0 191 -57q29 -24 45 -60t16 -76q0 -42 -17 -79t-48 -66q-33 -29 -73 -42.5t-100 -13.5q-7 0 -14 0.5t-14 0.5l2 28q9 -1 14.5 -1.5t10.5 -0.5q63 0 100 44t37 119q0 39 -12 71t-33.5 55t-52 35.5t-67.5 12.5 q-8 0 -20 -0.5t-23 -2.5v-546q0 -32 4 -49t14 -26q8 -8 27 -12.5t43 -4.5h7v-25q-20 2 -57.5 2h-88.5h-36.5h-38.5t-35 -0.5t-27 -1.5v25q27 1 44.5 5t27.5 14.5t14 27.5t4 43v453q0 32 -3.5 52.5t-13.5 32t-27 16t-44 4.5v25z" glyph-name="P" unicode="P"/>
<glyph d="M664 -109q20 -15 33 -24.5t23.5 -14t20 -6t22.5 -1.5q10 0 16.5 1.5t14.5 5.5l9 -17q-41 -56 -102 -56q-33 0 -62.5 14.5t-56.5 36t-51 46.5t-47 45q-31 28 -61 45.5t-59 25.5l-52 15q-55 16 -101.5 49.5t-80.5 78.5t-52.5 100t-18.5 114q0 76 27.5 142.5t75.5 115.5 t113 77t139 28q75 0 141 -28.5t115 -78t77.5 -115.5t28.5 -142q0 -62 -20 -118.5t-54.5 -101.5t-81.5 -77t-101 -46zM405 677q-52 0 -96 -21.5t-75 -60.5t-48.5 -93.5t-17.5 -120.5q0 -56 15.5 -119t48 -116t81.5 -87.5t115 -34.5q53 0 97 22t75.5 61t49 93.5t17.5 120.5 q0 57 -16 120t-48.5 115.5t-81.5 86.5t-116 34z" glyph-name="Q" unicode="Q" horiz-adv-x="833"/>
<glyph d="M42 698q26 -2 56.5 -2.5t59.5 -0.5q37 0 73.5 1.5t73.5 1.5q69 0 112.5 -11.5t75.5 -37.5q28 -22 43 -55.5t15 -72.5q0 -68 -40 -110t-100 -61l128 -190q9 -14 22 -30.5t27 -32t27 -28.5t23 -21q14 -11 28 -16t40 -7v-25q-20 2 -38 2h-38h-42t-42 -2q-23 26 -39 45 t-28.5 35t-23.5 32t-23 35l-116 183h-91v-227q0 -23 4 -38t15 -24t29.5 -12.5t46.5 -3.5h6v-25q-32 2 -76.5 2h-85.5h-64t-56 -2v25h12q42 0 56.5 14.5t14.5 56.5v496q0 24 -3.5 40t-13.5 25t-26 12.5t-42 3.5v25zM225 370q14 -5 27 -6.5t30 -1.5q38 0 69 11.5t53 31.5 t34.5 48t12.5 62q0 76 -45.5 113.5t-118.5 37.5q-14 0 -31 -2t-31 -4v-290z" glyph-name="R" unicode="R" horiz-adv-x="722"/>
<glyph d="M40 171h24q17 -69 58.5 -108t98.5 -39q29 0 54 10t43 27.5t28 42t10 53.5q0 33 -10.5 55.5t-28.5 39.5t-41.5 30.5t-49.5 27.5q-37 20 -67.5 39t-52.5 43t-34.5 55t-12.5 74t15 78t42.5 60.5t66 39.5t84.5 14q26 0 61.5 -4.5t67.5 -10.5l16 -128h-23q-6 48 -39.5 79 t-88.5 31q-54 0 -87 -33.5t-33 -90.5q0 -37 13.5 -61.5t35 -42.5t49.5 -32l56 -28q32 -16 60 -33.5t48.5 -40.5t32.5 -52.5t12 -70.5q0 -44 -18 -82t-49.5 -65.5t-74.5 -43.5t-94 -16q-40 0 -78 10t-74 27z" glyph-name="S" unicode="S" horiz-adv-x="500"/>
<glyph d="M45 726q2 -6 4.5 -8.5l7.5 -7.5q9 -7 19.5 -9.5t31.5 -2.5h433q14 0 27.5 1t24.5 3q26 4 34 24h21l-8 -159h-24q-1 4 -1 9q-2 35 -7 49.5t-19 21.5q-11 5 -24.5 7t-40.5 2h-144v-547q0 -48 16.5 -66t61.5 -18h17v-25q-36 2 -77 2h-80h-69t-64 -2v25h16q48 0 64 15 q17 16 17 93v523h-143q-24 0 -40.5 -3.5t-27.5 -12.5t-18.5 -24.5t-12.5 -39.5l-2 -9h-24l11 159h20z" glyph-name="T" unicode="T" horiz-adv-x="666"/>
<glyph d="M19 698q32 -2 66 -2h67h63.5t62.5 2v-25h-14q-40 0 -53 -14q-14 -15 -14 -105v-270q0 -46 4 -78.5t14 -61.5q8 -25 25.5 -46.5t41 -37.5t52 -24.5t59.5 -8.5q24 0 49 6t46.5 18t39.5 29.5t28 40.5q11 24 14.5 47.5t3.5 61.5v322q0 40 -2.5 66t-13.5 39q-7 9 -22 12.5 t-44 3.5h-13v25q30 -2 60 -2h61h53t53 2v-25h-10q-12 0 -22 -2.5t-18 -6.5q-29 -15 -29 -104v-322q0 -42 -6 -71.5t-20 -57.5q-31 -60 -92 -91t-149 -31q-57 0 -101 14t-80 44q-41 34 -59 79.5t-18 114.5v353q0 18 -2.5 34t-6.5 25q-5 11 -19 16.5t-46 5.5h-9v25z" glyph-name="U" unicode="U" horiz-adv-x="722"/>
<glyph d="M7 698q29 -2 69.5 -2h77.5h64t57 2v-25h-5h-18t-21 -2t-17.5 -8t-7.5 -17q0 -8 4 -24.5t12 -35.5l181 -466l136 357q24 63 34 98t10 55q0 23 -17.5 33t-58.5 10v25q26 -2 59 -2h65h43.5t43.5 2v-25q-18 -1 -27.5 -3.5t-17.5 -9.5t-19 -25.5t-17 -33.5l-245 -618h-37 l-242 607q-9 23 -21 43.5t-20 26.5q-6 4 -10 6t-10.5 3.5t-17 2t-27.5 1.5v25z" glyph-name="V" unicode="V" horiz-adv-x="723"/>
<glyph d="M2 698q30 -2 68.5 -2h74.5h60t52 2v-25q-35 0 -49 -6t-14 -20q0 -7 3.5 -18t8.5 -25l196 -488l101 219l-119 276q-7 18 -13.5 29.5t-15 19t-21.5 10.5t-34 3h-11v25q29 -2 64.5 -2h68.5h56.5t53.5 2v-25q-55 -1 -55 -24q0 -11 3.5 -20t7.5 -19l66 -170l67 151 q13 30 13 51q0 15 -9 22q-5 5 -14.5 7t-33.5 2h-10v25q23 -2 52 -2h56h50t44 2v-25q-20 -1 -30.5 -3t-22.5 -10q-13 -9 -20 -18t-18 -33l-102 -215l120 -278l167 459q8 22 13 40t5 26q0 17 -16.5 23.5t-58.5 8.5v25q18 -2 46.5 -2h54.5h49.5t41.5 2v-25q-18 -1 -27 -3.5 t-16 -8.5q-6 -5 -15 -22.5t-16 -34.5l-239 -621h-26l-134 303l-142 -303h-28l-253 621q-8 20 -18.5 35.5t-20.5 21.5q-17 12 -50 12h-11v25z" glyph-name="W" unicode="W" horiz-adv-x="1000"/>
<glyph d="M30 698q11 -1 27 -1.5t34.5 -0.5h37.5h36h72.5t70.5 2v-25h-6q-34 0 -49 -5t-15 -18q0 -8 6.5 -20t22.5 -34l135 -180l106 135q26 32 39.5 58t13.5 40q0 13 -15.5 18.5t-50.5 5.5v25q10 -1 25.5 -1.5t33.5 -0.5h36.5h34.5h60t51 2v-25q-27 -1 -46 -5t-35.5 -13.5 t-32.5 -25.5t-35 -41l-159 -206l222 -291q16 -21 28 -33.5t23.5 -19.5t24.5 -9.5t31 -3.5v-25q-29 2 -62.5 2h-65.5h-69.5t-61.5 -2v25h4q3 0 12 0.5t18.5 2t17 4t7.5 7.5q0 9 -20 37l-168 229l-134 -180q-6 -7 -13.5 -17.5t-14 -21.5t-11.5 -21t-5 -17q0 -8 10 -15 q7 -4 17.5 -6t39.5 -2h11v-25q-27 2 -58.5 2h-62.5h-65.5t-57.5 -2v25q30 1 46 4.5t30 13.5q20 14 43 40.5t39 46.5l160 210l-215 284q-10 14 -18 23t-17.5 15t-22 8.5t-30.5 2.5h-10v25z" glyph-name="X" unicode="X" horiz-adv-x="778"/>
<glyph d="M35 698q33 -2 71 -2h74h58t58 2v-25h-4q-29 0 -40.5 -5.5t-11.5 -17.5q0 -6 6 -19t17 -28l150 -211l143 195q17 22 22.5 35t5.5 24q0 15 -12 21t-40 6h-20v25q25 -2 49.5 -2h49.5h48.5t48.5 2v-25q-14 -1 -21.5 -3t-16.5 -8q-11 -7 -18.5 -16t-21.5 -27l-195 -263v-254 q0 -30 12 -50q6 -10 16.5 -15t22 -7.5t22 -2.5t17.5 -2v-25q-32 2 -70.5 2h-75.5h-77t-54 -2v25l10 1q24 2 39.5 6.5t24.5 15t12.5 28.5t3.5 46v217l-210 289q-18 26 -34.5 35.5t-49.5 9.5h-9v25z" glyph-name="Y" unicode="Y" horiz-adv-x="722"/>
<glyph d="M108 712q3 -8 11 -11t27 -3h524l-500 -656h302q71 0 104 12q65 23 100 122l22 -7l-46 -169l-39 1q-32 1 -63 1.5t-79 0.5h-23h-17h-25h-48t-86 -0.5t-138 -0.5h-20h-22.5t-29 -0.5t-40.5 -1.5l505 660h-319q-25 0 -41 -3t-30 -10q-20 -10 -35.5 -34.5t-25.5 -61.5h-23 l5 22q8 32 11.5 52t6 34t3.5 25.5t2 27.5h27z" glyph-name="Z" unicode="Z" horiz-adv-x="722"/>
<glyph d="M104 -184q1 24 2 49.5t1 50.5v30t0.5 39t0.5 43.5v43.5v9.5v10.5v33v79t-0.5 147.5t-0.5 237.5v33.5t-0.5 25t-1 23.5t-1.5 29l2 3q22 -4 48 -4h49t46.5 0.5t46.5 3.5v-28h-77q-40 0 -49 -8q-5 -4 -7.5 -13t-2.5 -27v-732q0 -20 2 -29t7 -14q13 -11 58 -11h69v-27 q-25 0 -50 1.5t-50 1.5q-45 0 -90 -3z" glyph-name="bracketleft" unicode="[" horiz-adv-x="333"/>
<glyph d="M-25 736h61l267 -756h-61z" glyph-name="backslash" unicode="\" horiz-adv-x="278"/>
<glyph d="M223 -186q-45 3 -90 3q-25 0 -50 -1.5t-50 -1.5v27h69q45 0 58 11q5 5 7 14t2 29v732q0 18 -2.5 27t-7.5 13q-9 8 -49 8h-77v28q23 -3 46.5 -3.5t46.5 -0.5q20 0 48.5 0.5t48.5 3.5l2 -3q-1 -17 -1.5 -29t-1 -23.5t-0.5 -25v-33.5q0 -145 -0.5 -237.5t-0.5 -147.5v-79 v-33v-10.5v-9.5v-43.5t0.5 -43.5t0.5 -39v-30q0 -25 1 -50.5t2 -49.5z" glyph-name="bracketright" unicode="]" horiz-adv-x="333"/>
<glyph d="M265 736h26l188 -423h-65l-136 318l-136 -318h-65z" glyph-name="asciicircum" unicode="^"/>
<glyph d="M0 -75h500v-50h-500v50z" glyph-name="underscore" unicode="_" horiz-adv-x="500"/>
<glyph d="M11 646q-19 12 -19 30q0 14 9.5 24.5t23.5 10.5q10 0 18 -4.5t19 -16.5q4 -4 8 -7.5t8 -7.5l134 -133h-35z" glyph-name="grave" unicode="`" horiz-adv-x="278"/>
<glyph d="M306 321q0 15 -2 25.5t-7 19.5q-9 20 -33 31.5t-54 11.5q-71 0 -77 -71q-1 -11 -2.5 -15t-6.5 -9q-9 -8 -23 -13t-26 -5q-14 0 -14 20q0 18 9.5 36t23.5 29q3 2 17.5 11.5t40.5 26.5q36 23 60.5 31.5t51.5 8.5q51 0 88 -27q19 -14 26 -30t7 -46v-273q0 -17 11.5 -27.5 t30.5 -10.5q9 0 16 2.5t17 10.5l8 -17q-52 -53 -101 -53q-24 0 -40.5 20.5t-19.5 54.5q-82 -75 -163 -75q-42 0 -70.5 28.5t-28.5 70.5q0 24 15 44.5t37.5 36.5t49.5 28t50 19l109 34v72zM306 224l-15 -4q-90 -24 -128 -50t-38 -62q0 -29 21 -50t52 -21q32 0 58.5 18.5 t49.5 38.5v130z" glyph-name="a" unicode="a" horiz-adv-x="500"/>
<glyph d="M170 385q48 39 82 54.5t72 15.5t71 -16t57.5 -44t38.5 -65.5t14 -81.5q0 -53 -19.5 -99.5t-53 -81.5t-78 -55.5t-95.5 -20.5q-35 0 -68 8.5t-65 21.5l-32 -21l-12 8q1 7 1.5 12t0.5 8q3 27 4.5 67.5t1.5 80.5v433q0 24 -2 38.5t-7.5 23.5t-16 14t-27.5 9v16l12 4 q37 12 62.5 23.5t42.5 19.5q4 2 9 2q7 0 7 -9v-365zM170 135q0 -21 2.5 -33t9.5 -25q13 -26 40 -41.5t57 -15.5q32 0 58.5 13.5t45.5 37t30 56.5t11 72q0 42 -13 78.5t-34.5 63.5t-51 43t-62.5 16q-28 0 -50 -13.5t-43 -30.5v-221z" glyph-name="b" unicode="b"/>
<glyph d="M433 91q-5 -5 -9 -9.5t-6 -6.5q-41 -43 -86 -65t-91 -22q-41 0 -78 17.5t-64.5 46.5t-44 68t-16.5 82q0 52 20 98t53.5 80.5t78.5 55t95 20.5q32 0 62 -7t50 -18q24 -13 24 -39q0 -20 -10.5 -32.5t-26.5 -12.5q-11 0 -18 4t-16 17q-22 29 -45 41.5t-53 12.5 q-29 0 -53.5 -13t-42.5 -35.5t-28 -53.5t-10 -68q0 -41 13.5 -76.5t37 -61.5t55.5 -41t69 -15t65.5 14t57.5 36z" glyph-name="c" unicode="c" horiz-adv-x="444"/>
<glyph d="M382 615q0 18 -1 27.5t-5 17.5q-7 20 -54 33l-7 1v17l14 4q38 11 64 21.5t43 18.5q9 4 16 4q13 0 13 -30v-654q0 -6 0.5 -13.5t1.5 -9.5q3 -6 17 -6h49v-21q-5 0 -7.5 -0.5t-3.5 -0.5q-10 -2 -23.5 -5t-31.5 -8q-20 -5 -34 -10t-22 -8q-12 -5 -17 -5q-12 0 -12 18v57 q-32 -36 -72.5 -55.5t-83.5 -19.5q-44 0 -78 18t-57.5 47t-36 67.5t-12.5 78.5q0 52 19 98.5t52.5 81t79 54.5t98.5 20q21 0 46 -4.5t45 -13.5v180zM382 314q0 23 -1.5 34t-6.5 21q-11 23 -39 37.5t-60 14.5q-33 0 -60.5 -13t-47.5 -37t-31 -57t-11 -73q0 -42 11.5 -78 t32.5 -62t50 -40.5t63 -14.5q10 0 24 3t28 8t26 13t17 18q4 7 4.5 15t0.5 30v181z" glyph-name="d" unicode="d"/>
<glyph d="M114 280q-1 -8 -1 -15v-12q0 -45 11 -82.5t31 -65t47.5 -42.5t60.5 -15q44 0 74.5 18.5t61.5 47.5l14 -14q-21 -25 -40.5 -45.5t-42 -35.5t-49 -23t-60.5 -8q-43 0 -77.5 16t-59 45.5t-37.5 71.5t-13 94q0 48 15 91.5t42.5 77t66.5 53t87 19.5q34 0 64.5 -11.5t53 -31.5 t35 -47t10.5 -58l-1 -16q0 -5 -2 -8.5t-7 -3.5h-284zM283 310q25 0 32 4.5t7 20.5q0 42 -23.5 66.5t-62.5 24.5q-26 0 -49.5 -10.5t-37.5 -29.5q-12 -15 -18.5 -29.5t-14.5 -46.5h167z" glyph-name="e" unicode="e" horiz-adv-x="444"/>
<glyph d="M319 442v-51h-127v-319q0 -15 3 -24t12.5 -14.5t27 -7t46.5 -1.5h8v-25q-27 2 -62.5 2h-78.5h-59.5t-53.5 -2v25h11.5t21 1t22 4t14.5 8t5.5 12t1.5 21v320h-69v15l68 43q2 29 3.5 49t4.5 36.5t7.5 32.5t11.5 37q11 32 31 61t45 51t52.5 35t53.5 13q17 0 28 -11.5 t11 -29.5t-8.5 -30t-20.5 -12q-6 0 -11 1.5t-13 5.5q-12 5 -20.5 7.5t-18.5 2.5q-36 0 -55 -26.5t-19 -77.5v-152h127z" glyph-name="f" unicode="f" horiz-adv-x="333"/>
<glyph d="M146 1q-86 25 -86 88q0 19 4 31q20 14 41 24.5t40 25.5q-50 26 -72 57.5t-22 77.5q0 34 13 62.5t37 49t57 32t72 11.5q24 0 53.5 -5.5t52.5 -13.5q17 -6 35.5 -9.5t37.5 -3.5q11 0 30.5 1t28.5 2l13 1v-49l-99 4q27 -33 27 -75q0 -34 -14 -62.5t-38.5 -49t-58.5 -32 t-75 -11.5q-13 0 -24.5 1t-30.5 5q-17 -13 -23.5 -24t-6.5 -25q0 -22 15 -34t36.5 -13.5t39.5 -1.5h105q51 0 76 -6t42 -20q29 -26 29 -70q0 -37 -18.5 -72.5t-52.5 -64.5q-79 -67 -195 -67q-40 0 -74.5 9t-59.5 25t-39 38t-14 48t11 45t28 33t38 23t41 15zM233 182 q42 0 67.5 32t25.5 83q0 60 -28 98t-72 38q-42 0 -66.5 -33t-24.5 -88q0 -57 27.5 -93.5t70.5 -36.5zM233 -198q38 0 70.5 8.5t56 24t37 36.5t13.5 45q0 37 -30 59q-9 6 -19.5 10.5t-26 6.5t-37.5 3.5t-54 1.5q-24 0 -49.5 -3t-46 -13t-34 -28.5t-13.5 -48.5q0 -46 36.5 -74 t96.5 -28z" glyph-name="g" unicode="g" horiz-adv-x="500"/>
<glyph d="M21 710q5 2 8 2.5t5 1.5q99 35 114 42q8 3 12 3q7 0 7 -8v-380l14 12q25 21 44 35.5t35 22.5t30.5 11.5t30.5 3.5q62 0 98.5 -45.5t36.5 -123.5v-222q0 -11 1 -16t3 -11q2 -5 9 -8t15 -4t16 -1h12h7v-25q-23 2 -46.5 2h-51.5h-54t-50 -2v25h8q35 0 42 13q5 8 7.5 43 t2.5 78v57q0 20 -0.5 35t-1.5 27t-3 23t-5 24q-8 33 -32 52t-59 19t-59 -16.5t-50 -36.5v-276q0 -10 1.5 -20.5t10.5 -15.5q5 -3 19 -4.5t33 -1.5h7v-25q-24 2 -50 2h-64h-55.5t-49.5 -2v25h11q20 0 31.5 1.5t17 6.5t6.5 14t1 24v552q0 15 -2 25.5t-8.5 18t-18 13.5 t-30.5 12l-6 2v16z" glyph-name="h" unicode="h"/>
<glyph d="M141 612q-20 0 -34 14.5t-14 34.5t14 34.5t34 14.5t34.5 -14.5t14.5 -34.5t-14.5 -34.5t-34.5 -14.5zM46 415l14 5q26 9 43.5 15t27.5 11q14 7 22.5 10.5t11.5 5.5q2 1 6 1q10 0 10 -14v-385q0 -9 0.5 -15t2.5 -11q2 -7 15 -10t41 -3h5v-25q-25 2 -51.5 2h-58.5h-52.5 t-52.5 -2v25h11q16 0 28 1.5t17 4.5q7 4 9 12t2 25v269q0 26 -11 36.5t-33 23.5q-4 2 -7 3v15z" glyph-name="i" unicode="i" horiz-adv-x="278"/>
<glyph d="M144 612q-20 0 -34.5 14.5t-14.5 34.5t14.5 34.5t34.5 14.5t34 -14.5t14 -34.5t-14 -34.5t-34 -14.5zM32 415l14 4l65 23q38 13 46 18q6 3 11 3q10 0 10 -19v-486q0 -31 -4 -52t-15 -40q-35 -61 -138 -92l-7 23q24 8 45 24.5t31 42.5q6 17 8 33t2 51v380q0 22 -1 28.5 t-5 14.5q-2 5 -10 10t-17.5 9t-19 6.5t-15.5 3.5v15z" glyph-name="j" unicode="j" horiz-adv-x="278"/>
<glyph d="M37 712q14 5 24.5 8.5t22 8t28 11t42.5 17.5q4 2 11 2q11 0 11 -12v-502l30 4q7 1 19 10t43 40l58 57q30 30 30 43q0 19 -50 20v23q26 -2 51.5 -2h53.5h49t45 2v-23q-24 -1 -39 -5q-24 -7 -65 -37.5t-110 -96.5l-21 -20l169 -188q24 -26 41 -36.5t39 -10.5h11v-25 q-20 2 -39 2h-41h-33t-30 -2q-4 5 -10.5 14t-12.5 16l-168 191l-20 1v-162q0 -11 2 -17.5t10 -11.5q6 -3 25.5 -4.5t31.5 -1.5h5v-25q-29 2 -55 2h-68h-55.5t-46.5 -2v25h7q21 0 33.5 2t19 6.5t8.5 12.5t2 20v561q0 17 -1 24.5t-5 15.5q-5 9 -15.5 16t-30.5 10l-6 1v18z" glyph-name="k" unicode="k"/>
<glyph d="M37 712q14 5 24.5 8.5t22 8t28 11t42.5 17.5q4 2 11 2q11 0 11 -12v-687q0 -8 1.5 -16t10.5 -13q6 -3 25.5 -4.5t31.5 -1.5h5v-25q-29 2 -64.5 2h-58.5h-20.5h-26.5t-28.5 -0.5t-26.5 -1.5v25h8q22 0 36.5 2.5t19.5 7.5q4 4 5 10.5t1 20.5v561q0 17 -1 24.5t-5 15.5 q-5 9 -15.5 16t-30.5 10l-6 1v18z" glyph-name="l" unicode="l" horiz-adv-x="278"/>
<glyph d="M657 301q0 99 -87 99q-32 0 -61 -15.5t-55 -33.5v-285q0 -17 2 -25t7 -11q4 -2 17 -3.5t30 -1.5h13v-25q-25 2 -47.5 2h-55.5h-39h-28.5t-23 -0.5t-23.5 -1.5v25h30q29 0 33 11.5t4 34.5v228q0 20 -1.5 33t-6.5 26q-16 45 -75 45q-36 0 -63.5 -15.5t-55.5 -36.5v-293 q0 -7 1.5 -16t9.5 -12q5 -2 17 -3.5t29 -1.5h13v-25q-26 2 -53.5 2h-59.5h-55t-45 -2v25h24q23 0 30.5 6t7.5 26v282q0 12 -0.5 18t-3.5 12q-7 17 -44 31v16q12 4 28.5 10t31.5 13q14 7 28 13t28 13l6 2q7 0 7 -8v-79l18 12q26 17 46.5 29.5t38 20t34 11t35.5 3.5 q85 0 106 -79l17 12q53 37 88 52t72 15q54 0 84.5 -37.5t30.5 -104.5v-261q0 -8 0.5 -11.5t2.5 -6.5q3 -5 14 -7.5t38 -2.5h5v-25q-25 2 -48 2h-53h-36.5h-27.5t-22.5 -0.5t-23.5 -1.5v25h7q32 0 46 4.5t14 28.5v243z" glyph-name="m" unicode="m" horiz-adv-x="832"/>
<glyph d="M32 410l13 4q37 11 63 24t43 23q7 4 13 4t6 -10v-73q58 41 97.5 57.5t78.5 16.5q31 0 53 -11t35.5 -29.5t20 -43.5t6.5 -54v-260q0 -14 3 -22q3 -6 14.5 -8.5t40.5 -2.5h4v-25q-12 1 -22.5 1.5t-21.5 0.5h-24.5h-32.5h-58t-51 -2v25h24q32 0 38 9q3 4 4 10t1 20v227 q0 23 -1.5 35.5t-6.5 25.5q-8 23 -30 35.5t-52 12.5q-36 0 -63.5 -12.5t-56.5 -32.5v-281q0 -17 1.5 -26.5t7.5 -14.5t18.5 -6.5t33.5 -1.5h7v-25q-20 2 -46 2h-63h-35h-25.5t-22 -0.5t-23.5 -1.5v25h26t26 4q15 5 15 32v277q0 12 -6 20.5t-15 14.5t-19 10t-18 8v19z" glyph-name="n" unicode="n"/>
<glyph d="M280 456q50 0 92.5 -17.5t74.5 -48.5t50 -73t18 -90q0 -49 -19 -93t-51 -76t-75.5 -51t-93.5 -19t-92.5 18t-74 49.5t-49.5 74.5t-18 93q0 49 18.5 91.5t50.5 74t75.5 49.5t93.5 18zM420 212q0 47 -11.5 87t-31 69t-46.5 46t-58 17q-30 0 -55.5 -14.5t-44 -40.5 t-28.5 -62t-10 -80q0 -46 11.5 -86t31 -69.5t47 -46t58.5 -16.5q30 0 55 14.5t43 41t28.5 62.5t10.5 78z" glyph-name="o" unicode="o"/>
<glyph d="M167 -165q0 -7 1.5 -19t9.5 -15q5 -2 23 -3.5t52 -1.5h6v-25h-17q-17 0 -28 0.5t-22 0.5t-26 0.5t-40 0.5h-31h-21.5h-19t-23.5 -1l-24 -1v25h12q23 0 36.5 2t20.5 6q5 3 7.5 11.5t2.5 25.5v463q0 40 -10 57t-41 30l-7 3v15l13 6q32 14 58.5 26t46.5 23q6 3 11 3 q10 0 10 -24v-60q26 21 46 35t38 22.5t34.5 12t35.5 3.5q38 0 70.5 -17t57.5 -46t39 -67.5t14 -82.5q0 -52 -19.5 -98t-53 -81t-78.5 -55.5t-95 -20.5q-24 0 -43.5 4.5t-45.5 15.5v-173zM167 88q39 -66 108 -66q31 0 57 13.5t45.5 37.5t30.5 56.5t11 69.5q0 42 -11.5 77 t-32 60.5t-49 40t-62.5 14.5q-28 0 -51 -10t-46 -24v-269z" glyph-name="p" unicode="p"/>
<glyph d="M454 465l12 -7v-633q0 -8 0.5 -11.5t2.5 -7.5q3 -5 14.5 -7.5t35.5 -2.5h11v-25h-16q-15 0 -27 1t-22 1h-65h-25h-18h-16.5t-20.5 -1l-21 -1v25h9q36 0 49 1.5t19 5.5q3 2 5 9t2.5 15.5t1 16t0.5 10.5v190l-14 -9q-42 -26 -70.5 -36.5t-60.5 -10.5q-42 0 -78.5 16t-63 44 t-41.5 66.5t-15 83.5q0 52 19.5 99t53.5 82t78.5 56t93.5 21q34 0 61 -8t56 -24zM385 349q-14 35 -44 56t-68 21q-31 0 -58.5 -14.5t-47 -39.5t-31 -59t-11.5 -73q0 -42 13 -78.5t36 -63.5t54 -42.5t67 -15.5q46 0 90 28v281z" glyph-name="q" unicode="q"/>
<glyph d="M46 400q20 8 33.5 14.5t25.5 12.5t23.5 13.5t26.5 17.5q8 5 14 5q9 0 9 -24v-82l10 14q32 46 60 65.5t61 19.5q24 0 40 -13.5t16 -34.5q0 -24 -13.5 -40t-33.5 -16q-8 0 -13 2t-13 8q-10 8 -18 11t-19 3q-9 0 -25 -5t-27 -16q-18 -17 -21.5 -33t-3.5 -40v-213q0 -9 3 -21 t14 -15q9 -3 28 -5.5t45 -2.5h14v-25q-18 1 -33.5 1.5t-32.5 0.5h-36h-44h-22.5h-29t-31 -0.5t-28.5 -1.5v25h6q45 0 57 6q5 2 7 9t2 24v280q0 9 -5.5 15.5t-13 11.5t-16.5 8.5t-16 5.5v15z" glyph-name="r" unicode="r" horiz-adv-x="389"/>
<glyph d="M319 328h-20q-21 101 -108 101q-36 0 -57.5 -19t-21.5 -51q0 -33 25 -53q8 -6 15 -10.5t16.5 -9.5t23 -11t34.5 -15q20 -9 32 -14.5t20 -10t14.5 -9t14.5 -12.5q17 -15 26.5 -38t9.5 -48q0 -30 -12.5 -55.5t-35 -44.5t-53.5 -29.5t-67 -10.5t-65 9.5t-61 26.5l-11 115 l18 5q29 -125 124 -125q37 0 61 21t24 53q0 20 -6.5 34t-17.5 24t-25.5 17.5t-30.5 14.5q-24 11 -49 23t-45.5 28.5t-33 39t-12.5 53.5q0 59 41 94t108 35q32 0 61.5 -7t58.5 -19z" glyph-name="s" unicode="s" horiz-adv-x="389"/>
<glyph d="M167 544v-102h150v-51h-150v-257q0 -17 2 -33t9 -28.5t20 -20t35 -7.5q19 0 33.5 5.5t33.5 20.5l15 -15q-63 -68 -135 -68q-49 0 -70.5 25.5t-21.5 70.5l-1 307h-66v15q26 18 44.5 31.5t33 28.5t27.5 33.5t29 44.5h12z" glyph-name="t" unicode="t" horiz-adv-x="333"/>
<glyph d="M30 435q35 2 69 5t54 6q3 1 7 1q11 0 11 -15v-293q0 -48 21.5 -73t62.5 -25q37 0 66 19t56 42v251q0 14 -0.5 19t-3.5 8q-5 6 -26.5 14t-52.5 16v18q37 3 76.5 8t68.5 10q2 0 4 0.5t4 0.5q11 0 11 -11v-378q0 -15 6 -19t26 -4h13q10 0 13.5 0.5t8.5 1.5v-21q-5 -1 -9 -1 t-6 -1q-11 -1 -28 -4.5t-35 -8t-34.5 -9.5t-27.5 -9q-4 -1 -6 1t-2 3v84q-28 -23 -51 -39t-43.5 -26t-40.5 -14t-42 -4q-51 0 -80 31t-29 87v247q0 32 -14 46.5t-47 17.5v18z" glyph-name="u" unicode="u"/>
<glyph d="M9 442q24 -2 46.5 -2h48.5h57t52 2v-25h-6q-51 0 -51 -26q0 -5 2 -11.5t7 -21.5l94 -252l84 207q7 17 12 38t5 32q0 17 -11.5 24.5t-40.5 9.5v25q18 -2 38 -2h39h43.5t41.5 2v-25q-13 -1 -19 -2t-14 -5q-25 -13 -48 -70l-140 -352h-29l-141 371q-7 18 -13 29t-13.5 17.5 t-18 9t-25.5 2.5v25z" glyph-name="v" unicode="v" horiz-adv-x="500"/>
<glyph d="M9 442q25 -2 50.5 -2h52.5h49.5t46.5 2v-25h-4q-48 0 -48 -21q0 -4 1.5 -10t3.5 -11l108 -277l77 198q9 23 11.5 33.5t2.5 21.5q0 26 -15 44q-8 9 -21 14t-37 8v25q26 -2 52.5 -2h54.5h52t49 2v-25q-58 -1 -58 -23q0 -14 7 -31l102 -265l71 176q10 23 20.5 56t10.5 56 q0 17 -14 24t-46 7v25q23 -2 45.5 -2h48.5h39.5t37.5 2v-25q-14 -1 -20.5 -2t-14.5 -6q-26 -15 -57 -94l-126 -323l-37 -4l-121 312l-121 -308l-36 -4l-147 375q-10 27 -20.5 38.5t-40.5 14.5l-9 1v25z" glyph-name="w" unicode="w" horiz-adv-x="778"/>
<glyph d="M7 25q5 1 10 1q36 2 48 6q10 4 23.5 12.5t24.5 22.5l117 138l-137 177q-14 17 -28.5 25t-39.5 10v25q25 -2 47.5 -2h51.5h60t54 2v-25h-4q-48 0 -48 -16q0 -8 13 -24l85 -110l91 108q9 11 9 21q0 20 -46 21v25q23 -2 43.5 -2h50.5h49.5t41.5 2v-25q-36 -1 -59.5 -10.5 t-43.5 -32.5l-116 -134l145 -184q16 -20 30 -24.5t44 -6.5v-25q-27 2 -53 2h-62h-54.5t-50.5 -2v25h3h14.5t17 1.5t14 4t5.5 6.5t-2.5 9t-10.5 14l-94 119l-97 -114q-6 -8 -10.5 -15t-4.5 -9q0 -8 12.5 -12t34.5 -4h12v-25q-23 2 -45.5 2h-51.5h-48.5t-44.5 -2v25z" glyph-name="x" unicode="x"/>
<glyph d="M9 442q14 -1 26.5 -1.5t25.5 -0.5h28.5h36.5h29.5h21t18.5 0.5t20 1.5v-25q-6 0 -15.5 -1t-18.5 -3t-15 -7.5t-6 -14.5t3 -18t6 -17l93 -236l85 204q15 36 15 57q0 36 -50 36h-6v25q23 -2 44 -2h51h41t33 2v-25q-31 -2 -47 -14.5t-32 -50.5l-226 -531q-24 -55 -65 -55 q-20 0 -34 14t-14 35q0 22 14.5 37t36.5 15q11 0 19.5 -2.5t18.5 -10.5q7 13 16.5 34t19.5 44.5t19 46l15 37.5l-129 331q-8 22 -12.5 30t-12.5 19q-9 11 -20.5 16t-32.5 5v25z" glyph-name="y" unicode="y" horiz-adv-x="500"/>
<glyph d="M39 336l14 127h20q2 -11 8.5 -16t22.5 -5h294l-265 -413l142 3q22 1 40.5 4.5t31.5 23.5l44 71l21 -5l-28 -126h-362v8l262 402h-131q-38 0 -57.5 -16t-31.5 -58h-25z" glyph-name="z" unicode="z" horiz-adv-x="444"/>
<glyph d="M4 267q39 10 58 18.5t35 24.5q17 17 23.5 41.5t6.5 69.5v105q0 55 9 88.5t30 59.5q25 30 64 45t99 17v-33q-69 -6 -96.5 -41.5t-27.5 -106.5v-97q0 -29 -1 -49t-3.5 -35t-7 -26t-10.5 -23q-26 -49 -110 -60q58 -7 91 -37.5t38 -87.5q2 -17 2.5 -42t0.5 -46v-77 q0 -73 29 -108t95 -40v-33q-18 0 -30.5 1t-23 3t-21 5t-23.5 8q-33 12 -53 31.5t-31.5 44.5t-15.5 54.5t-4 61.5v106q0 30 -4 59t-26 52q-14 15 -34 24t-59 18v5z" glyph-name="braceleft" unicode="{" horiz-adv-x="333"/>
<glyph d="M78 750h66v-1000h-66v1000z" glyph-name="bar" unicode="|" horiz-adv-x="222"/>
<glyph d="M330 262q-39 -9 -59 -18t-34 -24q-22 -23 -26 -52t-4 -59v-106q0 -32 -4 -61.5t-15.5 -54.5t-31.5 -44.5t-53 -31.5q-13 -5 -23.5 -8t-21 -5t-23 -3t-30.5 -1v33q66 5 95 40t29 108v77q0 21 0.5 46t2.5 42q5 57 38 87.5t91 37.5q-84 11 -110 60q-6 12 -10.5 23t-7 26 t-3.5 35t-1 49v97q0 71 -27.5 106.5t-96.5 41.5v33q60 -2 99 -17t64 -45q21 -26 30 -59.5t9 -88.5v-105q0 -45 6.5 -69.5t23.5 -41.5q16 -16 35 -24.5t58 -18.5v-5z" glyph-name="braceright" unicode="}" horiz-adv-x="333"/>
<glyph d="M-10 157q18 85 55 130t90 45q23 0 55 -9.5t54 -19.5t44 -18l44 -16q37 -14 59.5 -20t39.5 -6q35 0 60 24.5t43 79.5h32q-7 -26 -17.5 -56.5t-26.5 -57t-39.5 -44.5t-56.5 -18q-26 0 -59 9t-83 29q-7 3 -10 4t-8.5 3.5t-16 6.5t-33.5 13q-32 13 -53.5 18.5t-40.5 5.5 q-34 0 -60 -26.5t-40 -76.5h-32z" glyph-name="asciitilde" unicode="~"/>
<glyph d="M124 116q11 26 18 44.5t12 41t9 54t9 82.5l3 30h-112l4 42h114q10 55 17 88.5t14.5 57.5t17.5 45t26 51q29 52 78 83.5t103 31.5q42 0 65.5 -15.5t23.5 -41.5q0 -17 -12 -28t-31 -11q-10 0 -15 3.5t-8 16.5q-5 23 -16 34t-33 11q-25 0 -44.5 -14.5t-35 -47t-27.5 -84 t-23 -126.5l-8 -54h136l-5 -42h-138q-8 -43 -16.5 -74t-19.5 -57.5t-27.5 -53t-40.5 -60.5q6 1 10.5 1h9.5h6q26 0 47.5 -5t37.5 -13q6 -3 25.5 -15t52.5 -34q15 -10 32.5 -17.5t27.5 -7.5q18 0 32 15t14 34q0 30 -34 43q-2 6 -2 10q0 16 9.5 25t25.5 9q20 0 32 -15t12 -39 q0 -27 -11 -50.5t-30.5 -40.5t-46 -27t-57.5 -10q-28 0 -48 7q-17 5 -34.5 15t-46.5 33q-17 13 -28 21t-20 12.5t-18 6t-21 2.5q-24 -41 -49.5 -64.5t-45.5 -23.5q-8 0 -14 6.5t-6 15.5q0 14 10 32t26 32q14 13 26.5 19.5t37.5 15.5z" glyph-name="sterling" unicode="£"/>
<glyph d="M115 228q-14 20 -23 35t-14 30t-7 30.5t-2 34.5q0 20 2 35t7 30t14 31t23 36l-65 64l33 32l64 -63q20 14 35 22.5t29.5 13.5t30 7t35.5 2t36 -2t30.5 -7t30 -14.5t34.5 -23.5l65 65l33 -32l-65 -64q14 -20 23 -35.5t14 -30.5t7 -30.5t2 -35.5q0 -19 -2 -34.5t-7 -30.5 t-14 -30t-23 -35l65 -65l-33 -32l-65 63q-19 -13 -34.5 -22t-30 -13.5t-30 -6.5t-35.5 -2t-36 2t-30.5 7t-29.5 14t-35 22l-64 -64l-33 32zM278 508q-31 0 -58 -11.5t-47 -32t-32 -47.5t-12 -58t12 -58t32 -47t47 -32t58 -12t58 11.5t47.5 32t32 47.5t11.5 58t-11.5 58 t-32 47.5t-47.5 32t-58 11.5z" glyph-name="currency" unicode="¤"/>
<glyph d="M78 125h66v-250h-66v250zM78 625h66v-250h-66v250z" glyph-name="brokenbar" unicode="¦" horiz-adv-x="222"/>
<glyph d="M133 -72q17 0 27.5 -10.5t18.5 -24.5q17 -29 31 -40.5t35 -11.5q34 0 54 28t20 76q0 33 -12 67.5t-29 66t-35 58.5t-31 46q-21 32 -42.5 65t-39 68t-29 72t-11.5 76q0 49 17.5 92.5t47 76.5t69 52t83.5 19q25 0 51 -7.5t46 -19.5q27 -15 27 -43q0 -17 -11 -27.5 t-29 -10.5q-11 0 -19 4t-14.5 10t-17.5 22q-14 20 -28 28.5t-33 8.5q-31 0 -48.5 -22.5t-17.5 -60.5q0 -36 10 -60q8 -21 17.5 -41t24 -45t36 -58.5t52.5 -80.5q20 -29 37 -57.5t30.5 -58t21 -61.5t7.5 -69q0 -52 -17.5 -97t-48 -78t-72 -51.5t-89.5 -18.5q-27 0 -50 6.5 t-40.5 17.5t-27.5 26t-10 32q0 14 12 25t27 11zM337 -120l7 7l5 5q27 29 42 69.5t15 82.5q0 29 -7 57.5t-23.5 64t-44.5 81.5t-71 109q-15 22 -29.5 44t-26.5 45.5t-19.5 49t-7.5 52.5q0 20 4 39.5t9 37.5q-57 -66 -57 -152q0 -37 14 -75t34.5 -75t43.5 -71t42 -63 q16 -24 32 -50t29.5 -53.5t22 -56t8.5 -57.5q0 -24 -5.5 -45.5t-16.5 -45.5z" glyph-name="section" unicode="§"/>
<glyph d="M400 736q78 0 147 -29.5t120.5 -81t81 -120.5t29.5 -147t-29.5 -147t-81 -120.5t-120.5 -81t-147 -29.5t-147 29.5t-120.5 81t-81 120.5t-29.5 147t29.5 147t81 120.5t120.5 81t147 29.5zM400 700q-71 0 -133 -27t-108.5 -73.5t-73.5 -108.5t-27 -133t27 -133 t73.5 -108.5t108.5 -73.5t133 -27t133 27t108.5 73.5t73.5 108.5t27 133t-27 133t-73.5 108.5t-108.5 73.5t-133 27zM573 267q-29 -55 -69 -87.5t-107 -32.5q-43 0 -80 15.5t-64 43.5t-42.5 65.5t-15.5 81.5q0 48 15.5 89t43 71t65 47t80.5 17q50 0 96 -26q12 -7 16.5 -9 t9.5 -2q8 0 11.5 5t6.5 19h27l4 -151h-29q-4 15 -6 23t-7 19q-35 86 -121 86q-33 0 -60.5 -14t-48 -39t-32 -59.5t-11.5 -74.5q0 -37 11.5 -68t32.5 -54t49 -36t61 -13q27 0 47.5 7.5t37 20.5t29.5 31t25 39z" glyph-name="copyright" unicode="©" horiz-adv-x="800"/>
<glyph d="M450 384l-104 -149l104 -149l-16 -14l-168 163l168 163zM284 384l-105 -149l105 -149l-17 -14l-167 163l167 163z" glyph-name="guillemotleft" unicode="«"/>
<glyph d="M26 385h504v-266h-66v200h-438v66z" glyph-name="logicalnot" unicode="¬"/>
<glyph d="M389 547q0 -39 -15 -73.5t-40.5 -60t-60 -40.5t-73.5 -15t-73.5 15t-60 40.5t-40.5 60t-15 73.5t15 73.5t40.5 60t60 40.5t73.5 15t73.5 -15t60 -40.5t40.5 -60t15 -73.5zM366 547q0 35 -13 65t-35.5 52.5t-52.5 35.5t-65 13q-34 0 -64.5 -13t-53 -35.5t-35.5 -52.5 t-13 -65q0 -34 13 -64.5t35.5 -53t53 -35.5t64.5 -13t64.5 13t53 35.5t35.5 53t13 64.5zM314 493q-5 -49 -38 -49q-27 0 -33 35l-3 19q-3 18 -13 29q-14 17 -46 17h-21v-52q0 -18 6 -24t26 -6v-14h-91v14q20 0 26 6t6 27v113q0 16 -5 21q-4 4 -9.5 5t-17.5 1v15h114 q6 0 12 -1t13 -3q23 -5 35.5 -17.5t12.5 -29.5q0 -40 -67 -48v-2q9 -2 17 -8q14 -9 21 -20t12 -29l3 -12q5 -16 12 -16q13 0 16 28h11zM258 597q0 17 -15.5 27.5t-40.5 10.5h-13q-16 0 -23 -7q-4 -4 -5 -9.5t-1 -22.5v-38h9h5t5 0.5t10 0.5q68 2 68 39z" glyph-name="registered" unicode="®" horiz-adv-x="400"/>
<glyph d="M200 735q30 0 56 -11t45.5 -30.5t30.5 -45.5t11 -56t-11.5 -56t-31 -45.5t-45.5 -30.5t-55 -11q-30 0 -56 11t-45.5 30.5t-30.5 45.5t-11 56t11 56t30.5 45.5t45.5 30.5t56 11zM200 693q-21 0 -39.5 -8t-32 -21.5t-21.5 -32t-8 -39.5t8 -39.5t21.5 -32t32 -21.5t39.5 -8 t39 8t32 21.5t22 32t8 39.5t-8 39.5t-21.5 32t-32 21.5t-39.5 8z" glyph-name="degree" unicode="°" horiz-adv-x="400"/>
<glyph d="M245 276h-219v66h219v172h66v-172h219v-66h-219v-173h-66v173zM26 66h504v-66h-504v66z" glyph-name="plusminus" unicode="±"/>
<glyph d="M91 353q0 32 -14 46.5t-47 17.5v18q35 2 69 5t54 6q3 1 7 1q11 0 11 -15v-295q0 -48 21.5 -73t62.5 -25q37 0 66 19t56 42v253q0 14 -0.5 19t-3.5 8q-5 6 -26.5 14t-52.5 16v18q37 3 76.5 8t68.5 10q2 0 4 0.5t4 0.5q11 0 11 -11v-378q0 -15 6 -19t26 -4h13 q10 0 13.5 0.5t8.5 1.5v-21q-5 -1 -9 -1t-6 -1q-11 -1 -28 -4.5t-35 -8t-34.5 -9.5t-27.5 -9q-4 -1 -6 1t-2 3v82q-28 -23 -51 -39t-43.5 -26t-40.5 -14t-42 -4q-15 0 -29 3v-218h-80v582z" glyph-name="mu" unicode="µ"/>
<glyph d="M549 679h-11q-29 0 -42 -9.5t-20 -34.5t-10.5 -56.5t-4.5 -64.5t-1 -65v-59v-287q0 -66 -16 -122.5t-50 -98.5t-86.5 -66t-125.5 -24q-54 0 -86 18.5t-32 49.5q0 20 14 34t34 14t34 -14.5t14 -35.5q0 -8 -2 -14t-8 -14q3 -1 5.5 -1h4.5q34 0 53.5 23.5t29.5 56t12.5 67 t2.5 57.5q1 37 1.5 72t0.5 51v111h-21q-50 0 -96 14t-81 41.5t-55.5 69.5t-20.5 98q0 71 28 114.5t72.5 68.5t100.5 33.5t111 8.5h251v-36zM342 679q-28 -21 -35 -57q-6 -28 -8.5 -69.5t-2.5 -102.5v-338v-59t-1 -38q-1 -33 -7 -63.5t-14 -52.5q-5 -11 -10 -21t-13 -20 q-10 -13 -17.5 -19t-21.5 -14l2 -7q89 22 126.5 75t43.5 142q2 31 3 62.5t1 76.5v247q0 26 -0.5 62t3.5 73t13.5 70.5t28.5 52.5h-91z" glyph-name="paragraph" unicode="¶"/>
<glyph d="M139 306q23 0 37.5 -15.5t15.5 -38.5q0 -22 -15 -37.5t-38 -15.5t-38 15.5t-15 37.5q-1 23 14.5 38.5t38.5 15.5z" glyph-name="periodcentered" unicode="·" horiz-adv-x="278"/>
<glyph d="M447 235l-168 -163l-16 14l104 149l-104 149l16 14zM280 235l-168 -163l-16 14l104 149l-104 149l16 14z" glyph-name="guillemotright" unicode="»"/>
<glyph d="M26 285h504v-66h-504v66zM278 125q22 0 37.5 -15t15.5 -37q0 -23 -15.5 -38t-37.5 -15t-37.5 15.5t-15.5 37.5q0 21 15.5 36.5t37.5 15.5zM278 485q22 0 37.5 -15.5t15.5 -37.5t-15.5 -37.5t-37.5 -15.5t-37.5 15.5t-15.5 37.5t15.5 37.5t37.5 15.5z" glyph-name="divide" unicode="÷"/>
<glyph d="M347 800q0 20 13 33t33 13t33 -13t13 -33t-13 -33t-33 -13q-19 0 -32.5 13t-13.5 33zM151 800q0 20 13.5 33t32.5 13q20 0 33.5 -13t13.5 -33t-13.5 -33t-32.5 -13q-20 0 -33.5 13t-13.5 33zM25 698l33 -1q34 -1 58.5 -1.5t53.5 -0.5h52h65t65.5 0.5t52.5 0.5 q30 0 44 0.5t22.5 0.5t16.5 0.5t26 0.5v-149l-19 -5q-6 35 -16 58t-28.5 36.5t-47.5 19t-72 5.5h-113v-279h113q29 0 41 1.5t26 6.5q26 11 32 66l1 10h25q0 -26 -1 -53t-1 -53q0 -29 1.5 -58.5t4.5 -58.5h-26q0 4 -0.5 6.5t-0.5 4.5q-3 38 -9 52.5t-22 21.5q-23 10 -71 10 h-113v-229q0 -39 19 -56q11 -11 29 -15.5t50 -4.5h35q50 0 77.5 2.5t48.5 10.5q28 10 51.5 39t36.5 70l24 -4l-7 -21q-9 -28 -15 -45.5t-9.5 -31t-5.5 -26t-5 -29.5l-34 1q-34 1 -58 1h-57h-268q-26 0 -52.5 -1t-52.5 -1v25h10q26 0 42 4t26 14.5t13.5 29t3.5 46.5v469 q0 26 -3.5 42.5t-12.5 26t-25 13t-42 3.5h-12v25z" glyph-name="afii10023" unicode="Ё" horiz-adv-x="611"/>
<glyph d="M678 206q0 86 -45.5 131t-117.5 45q-38 0 -73.5 -11t-65.5 -26v-345q-14 1 -27 1q-12 0 -24 0.5t-21 0.5h-36t-54 -1l-33 -1v25h16q48 0 64 15q17 16 17 93v523h-139q-24 0 -40.5 -3.5t-27.5 -12.5t-18.5 -24.5t-12.5 -39.5l-2 -9h-24l11 159h20q2 -6 4.5 -8.5l7.5 -7.5 q9 -7 19.5 -9.5t31.5 -2.5h429q14 0 27.5 1t24.5 3q26 4 34 24h21l-8 -159h-24q-1 8 -1.5 19.5t-2.5 23.5t-7 22t-16 15t-24.5 7t-40.5 2h-144v-271q26 14 68.5 28t98.5 14q48 0 91.5 -13.5t75.5 -39.5t51 -65.5t19 -91.5q0 -54 -20 -97t-53.5 -72t-76.5 -44.5t-89 -15.5 q-45 0 -73 19.5t-28 51.5q0 20 11 31.5t29 11.5q33 0 36 -32q2 -22 15 -36t29 -14q23 0 44.5 13t38 37t26 58.5t9.5 77.5z" glyph-name="afii10051" unicode="Ђ" horiz-adv-x="803"/>
<glyph d="M198 738l134 133l23.5 23.5t29.5 12.5q13 0 23 -10.5t10 -24.5q0 -18 -19 -30l-166 -104h-35zM225 100q0 -14 1.5 -23.5t5.5 -17.5q17 -34 77 -34h20v-25q-28 2 -70 2h-78h-83t-70 -2v25h10q32 0 48.5 6t27.5 19q8 10 10.5 19.5t2.5 28.5v492q0 20 -1 31t-4 20 q-11 32 -76 32h-16v25l37 -1q38 -1 65 -1.5t58 -0.5h114t114 1q29 0 42.5 0.5t22 0.5t16 0.5t24.5 0.5l5 -141l-23 -4q-5 31 -18.5 59.5t-47.5 37.5q-26 8 -58 10.5t-59 2.5h-97v-563z" glyph-name="afii10052" unicode="Ѓ" horiz-adv-x="536"/>
<glyph d="M478 245q0 4 -0.5 6.5t-0.5 4.5q-3 38 -9 52.5t-22 21.5q-23 10 -71 10h-213q5 -68 29 -126t63 -100t90 -66t110 -24q48 0 89 16.5t69 46.5q10 11 17.5 21t12.5 21.5t9 26t8 34.5l23 -6l-23 -144q-116 -52 -242 -52q-78 0 -144 27.5t-114.5 75.5t-76 114t-27.5 144 t29 144t80.5 115t121.5 76.5t152 27.5q62 0 120 -15t111 -37l11 -143h-22q-30 162 -210 162q-63 0 -114.5 -21t-89 -59.5t-59.5 -93t-24 -121.5h214q29 0 41 1.5t26 6.5q26 11 32 66l1 10h25q0 -26 -1 -53t-1 -53q0 -29 1.5 -58.5t4.5 -58.5h-26z" glyph-name="afii10053" unicode="Є" horiz-adv-x="722"/>
<glyph d="M40 171h24q17 -69 58.5 -108t98.5 -39q29 0 54 10t43 27.5t28 42t10 53.5q0 33 -10.5 55.5t-28.5 39.5t-41.5 30.5t-49.5 27.5q-37 20 -67.5 39t-52.5 43t-34.5 55t-12.5 74t15 78t42.5 60.5t66 39.5t84.5 14q26 0 61.5 -4.5t67.5 -10.5l16 -128h-23q-6 48 -39.5 79 t-88.5 31q-54 0 -87 -33.5t-33 -90.5q0 -37 13.5 -61.5t35 -42.5t49.5 -32l56 -28q32 -16 60 -33.5t48.5 -40.5t32.5 -52.5t12 -70.5q0 -44 -18 -82t-49.5 -65.5t-74.5 -43.5t-94 -16q-40 0 -78 10t-74 27z" glyph-name="afii10054" unicode="Ѕ" horiz-adv-x="500"/>
<glyph d="M302 673h-11q-28 0 -43.5 -5t-23 -15.5t-9 -27.5t-1.5 -41v-479q0 -24 3 -39.5t11 -24.5t24 -12.5t41 -3.5h9v-25q-29 2 -59.5 2h-73.5h-74t-67 -2v25q13 0 21 0.5t14 1.5t11 2.5t13 4.5q18 8 25 24.5t7 53.5v494q0 42 -22.5 54.5t-60.5 12.5h-8v25q35 -2 70 -2h70h67 t67 2v-25z" glyph-name="afii10055" unicode="І" horiz-adv-x="332"/>
<glyph d="M217 800q0 20 13 33t33 13t33 -13t13 -33t-13 -33t-33 -13q-19 0 -32.5 13t-13.5 33zM21 800q0 20 13.5 33t32.5 13q20 0 33.5 -13t13.5 -33t-13.5 -33t-32.5 -13q-20 0 -33.5 13t-13.5 33zM302 673h-11q-28 0 -43.5 -5t-23 -15.5t-9 -27.5t-1.5 -41v-479q0 -24 3 -39.5 t11 -24.5t24 -12.5t41 -3.5h9v-25q-29 2 -59.5 2h-73.5h-74t-67 -2v25q13 0 21 0.5t14 1.5t11 2.5t13 4.5q18 8 25 24.5t7 53.5v494q0 42 -22.5 54.5t-60.5 12.5h-8v25q35 -2 70 -2h70h67t67 2v-25z" glyph-name="afii10056" unicode="Ї" horiz-adv-x="333"/>
<glyph d="M69 698q37 -2 73.5 -2h74.5h70t70 2v-25h-15q-28 0 -43.5 -6.5t-23 -19t-9.5 -30.5t-2 -41v-501q0 -42 -6 -85.5t-17 -76.5q-9 -29 -27.5 -53t-42.5 -41t-53 -27t-59 -10q-45 0 -73 19.5t-28 51.5q0 20 11 31.5t29 11.5q33 0 36 -32q2 -22 15 -34t35 -12q83 0 83 163v595 q0 31 -3.5 50t-14 29.5t-30 14t-50.5 3.5v25z" glyph-name="afii10057" unicode="Ј" horiz-adv-x="389"/>
<glyph d="M960 201q0 -97 -70.5 -149t-195.5 -52q-6 0 -22 0.5t-31 0.5q-17 0 -45 0.5t-48 0.5t-51.5 0.5t-62.5 -1.5l-27 -1v25q57 1 75 14q8 6 12.5 22.5t4.5 36.5v563h-141q-38 0 -52.5 -13t-17.5 -51l-7 -84q-5 -67 -11.5 -130t-21.5 -135q-8 -37 -21.5 -82.5t-35.5 -85 t-54 -66t-76 -26.5q-23 0 -41.5 13t-18.5 39q0 32 18.5 44.5t37.5 12.5q16 0 23.5 -4.5l12.5 -7.5t11 -6t11 -3q18 0 36.5 22.5t35.5 73t30.5 131.5t21.5 198l7 104q1 25 -12 45q-17 23 -76 23h-8v25l18 -1q17 -1 28 -1.5t22 -0.5t26 0.5t40 0.5h275h32.5h22.5t20 0.5 t24 0.5l28 1v-25h-11q-45 0 -62.5 -14t-17.5 -59v-218h72q56 0 108.5 -8.5t93.5 -29.5t66 -56t25 -87zM858 190q0 46 -17 76t-45 48t-64.5 25t-75.5 7h-23h-20h-18v-246q0 -16 1.5 -24t6.5 -16q9 -13 23 -20.5t48 -7.5q41 0 75 12.5t58 34t37.5 50.5t13.5 61z" glyph-name="afii10058" unicode="Љ" horiz-adv-x="980"/>
<glyph d="M980 201q0 -97 -70.5 -149t-195.5 -52q-6 0 -22 0.5t-31 0.5l-93 1q-23 0 -37.5 0.5t-25.5 0.5t-21.5 -0.5t-25.5 -1.5l-27 -1v25q29 1 45 4t26 10q8 6 12.5 22.5t4.5 36.5v248h-305v-241q0 -24 3 -39t11 -23.5t24 -12t41 -4.5q5 0 9 -1v-25q-33 2 -67 2h-66h-69.5 t-71.5 -2v25q26 1 43 3.5t28 11.5t15.5 26t4.5 46v494q0 42 -22.5 54.5t-60.5 12.5h-8v25q35 -2 70.5 -2h69.5h66.5t67.5 2v-25h-11q-28 0 -43.5 -5t-23 -15.5t-9 -27.5t-1.5 -41v-202h305v218q0 23 -3.5 37t-13 22t-27 11t-44.5 3v25q38 -2 75 -2h73h63t64 2v-25h-11 q-44 0 -62 -14t-18 -58v-219h72q56 0 108.5 -8.5t93.5 -29.5t66 -56t25 -87zM878 190q0 46 -17 76t-45 48t-64.5 25t-75.5 7h-23h-20h-18v-246q0 -16 1.5 -24t6.5 -16q9 -13 23 -20.5t48 -7.5q41 0 75 12.5t58 34t37.5 50.5t13.5 61z" glyph-name="afii10059" unicode="Њ" horiz-adv-x="1000"/>
<glyph d="M840 1q-18 1 -29.5 1.5t-23.5 0.5t-27.5 -0.5t-41.5 -0.5h-36h-25t-21 -0.5t-25 -0.5l-27 -1v26h11q35 0 48.5 6t19.5 18t7.5 23t1.5 42v64q0 49 -4.5 85t-20.5 60t-47 36t-85 12q-25 0 -64.5 -11t-74.5 -26v-226q0 -48 16.5 -66t61.5 -18h17v-25l-20 1q-19 1 -32 1.5 t-26.5 0.5t-31 -0.5t-47.5 -0.5h-34.5h-24t-21 -0.5t-25.5 -0.5l-28 -1v25h16q48 0 64 15q17 16 17 93v523h-139q-24 0 -40.5 -3.5t-27.5 -12.5t-18.5 -24.5t-12.5 -39.5l-2 -9h-24l11 159h20q2 -6 4.5 -8.5l7.5 -7.5q9 -7 19.5 -9.5t31.5 -2.5h429q14 0 27.5 1t24.5 3 q26 4 34 24h21l-8 -159h-24q-1 8 -1.5 19.5t-2.5 23.5t-7 22t-16 15t-24.5 7t-40.5 2h-144v-281q34 14 80.5 28t91.5 14q57 0 98 -11t68 -36t39.5 -65.5t12.5 -99.5v-112q0 -24 13 -44q8 -11 24.5 -17t46.5 -6h8v-26z" glyph-name="afii10060" unicode="Ћ" horiz-adv-x="872"/>
<glyph d="M250 738l134 133l23.5 23.5t29.5 12.5q13 0 23 -10.5t10 -24.5q0 -18 -19 -30l-166 -104h-35zM706 0q-23 2 -44 2h-44q-12 0 -26 -0.5t-26 -0.5q-15 0 -29 -1l-280 326q-15 16 -41 16v-273q0 -17 5 -27q9 -17 65 -17h11v-25q-32 2 -66.5 2h-69.5h-30h-28.5t-31 -0.5 t-38.5 -1.5v25h12q26 0 40.5 2t22 8.5t9.5 19t2 34.5v507q0 46 -15 61.5t-61 15.5h-10v25q33 -2 67.5 -2h68.5h64.5t59.5 2v-25h-8q-43 0 -56 -9t-13 -37v-251q23 1 40.5 7.5t40.5 31.5l182 195q5 6 14.5 17.5t9.5 19.5q0 26 -49 26h-8v25q23 -2 53 -2h58h57.5t56.5 2v-25 q-29 -1 -44.5 -4t-28.5 -9q-16 -8 -42 -29t-47 -44l-184 -197l258 -295q20 -23 36 -36.5t30 -21.5q11 -6 22.5 -8t34.5 -4v-25z" glyph-name="afii10061" unicode="Ќ" horiz-adv-x="722"/>
<glyph d="M359 763q-43 0 -72.5 11.5t-48.5 27.5t-27.5 34t-8.5 30q0 14 8.5 29.5t34.5 15.5q23 0 33 -12t10 -29q0 -12 1 -23.5t7 -22.5t20.5 -19t42.5 -8q26 0 40 8t20 19t7 22.5t1 23.5q0 17 11.5 29t30.5 12q26 0 34.5 -13t8.5 -27t-8.5 -33t-26.5 -35.5t-47 -28t-71 -11.5z M518 539q17 31 21.5 51t4.5 40q0 23 -19 33t-60 10v25q24 -2 56 -2h62h52t52 2v-25q-18 -1 -27 -3.5t-17 -9.5t-21 -26t-21 -33l-256 -467q-10 -19 -24.5 -44.5t-34 -48t-45.5 -38t-61 -15.5q-38 0 -56.5 19.5t-18.5 46.5t17 40t37 13q19 0 29 -9t18 -18q6 -6 12 -10.5 t15 -4.5q11 0 25 14t34 49l29 52l-209 410q-11 22 -23.5 43t-20.5 27q-6 4 -10.5 6t-11.5 3.5t-18 2t-28 1.5v25q26 -2 68 -2h79h60.5t60.5 2v-25h-5h-18t-21 -2t-17.5 -8t-7.5 -17q0 -8 5 -25t14 -35l157 -307z" glyph-name="afii10062" unicode="Ў" horiz-adv-x="687"/>
<glyph d="M787 1q-8 0 -24 0.5t-34.5 0.5h-37.5h-33h-109q-29 0 -48 -10t-32.5 -31.5t-22 -56.5t-16.5 -85h-24q-8 50 -16.5 85t-21.5 56.5t-32.5 31.5t-48.5 10h-108h-40.5h-30h-25.5t-28 -1l-27 -1v25q25 1 42.5 3.5t28 11.5t15.5 26t5 46v494q0 26 -12 44q-8 11 -24.5 17 t-46.5 6h-8v25q35 -2 68.5 -2h71.5h68.5t65.5 2v-25h-11q-35 0 -48.5 -6t-19.5 -18t-7.5 -22.5t-1.5 -42.5v-472q0 -38 25 -56.5t69 -18.5h217q44 0 69 18.5t25 56.5v488q0 23 -3.5 37t-13 22t-27 11t-44.5 3v25q31 -2 63.5 -2h84.5h65t62 2v-25h-11q-32 0 -47 -5.5 t-22 -16.5q-11 -16 -11 -50v-509q0 -41 23 -54t61 -13h7v-25z" glyph-name="afii10145" unicode="Џ" horiz-adv-x="833"/>
<glyph d="M376 726l236 -646q3 -9 9.5 -18.5t14.5 -16.5q11 -11 25.5 -15.5t39.5 -4.5v-25q-32 2 -59 2h-56h-75t-71 -2v25q11 0 23.5 0.5t23.5 3.5t18.5 10t7.5 19q0 15 -8 39l-57 165h-233l-32 -101q-5 -16 -12 -41.5t-7 -51.5q0 -16 8.5 -25t21 -13t27 -4.5t26.5 -0.5h8v-25 q-31 2 -60.5 2h-61.5h-58.5t-58.5 -2v25q30 4 44 8.5t23 13.5q5 5 10.5 13t10.5 17.5t9.5 19t6.5 16.5l160 447q8 23 15.5 49.5t7.5 51.5q0 5 -0.5 10t-1.5 11q15 7 24.5 11.5t15.5 9t10 10t8 13.5h17zM433 303l-108 294l-98 -294h206z" glyph-name="afii10017" unicode="А" horiz-adv-x="721"/>
<glyph d="M211 100q0 -16 1.5 -24t6.5 -16q9 -13 23 -20.5t48 -7.5q37 0 70.5 13t58.5 35.5t40 53t15 66.5q0 37 -13 70.5t-36 54.5q-24 23 -64 34.5t-89 11.5q-10 0 -27.5 -1t-33.5 -2v-268zM575 211q0 -52 -19 -91.5t-54 -66t-83.5 -40t-108.5 -13.5q-6 0 -22 0.5t-31 0.5l-62 1 l-39 1.5t-26 0.5q-19 0 -40 -1t-43 -2l-26 -1v25q14 1 22.5 2t14.5 2t11.5 3t13.5 6q17 8 23.5 27t6.5 59v472q0 20 -2 29t-8 19q-8 13 -25 21t-46 8h-9v25q29 -2 67.5 -2.5t73.5 -0.5h54.5h70t70.5 0.5t55 0.5q36 1 49.5 1h22.5q7 0 14.5 0.5t22.5 0.5v-149l-19 -5 q-6 35 -16 58t-28.5 36.5t-47.5 19t-72 5.5h-129v-264q18 2 36 3t36 1q56 0 108.5 -9t93.5 -30.5t65.5 -58.5t24.5 -94z" glyph-name="afii10018" unicode="Б" horiz-adv-x="625"/>
<glyph d="M23 698q14 -1 25.5 -2t22.5 -1.5t24 -0.5h31q20 0 40.5 1t40.5 1h37q45 0 96 -6t91 -29q31 -18 50 -52t19 -72q0 -36 -15 -62.5t-38.5 -46t-52 -32.5t-56.5 -20q21 -2 35.5 -3.5t26 -4t22.5 -6.5t26 -10q51 -20 82.5 -65t31.5 -99q0 -43 -18.5 -77.5t-53 -59t-82.5 -38 t-108 -13.5q-6 0 -17 0.5t-26 0.5l-62 1l-39 1.5t-26 0.5q-26 0 -53.5 -1.5t-55.5 -2.5v25q14 1 22.5 2t14.5 2t11.5 3t13.5 6q17 8 23.5 27t6.5 59v472q0 20 -2 29t-8 19q-8 13 -25 21t-46 8h-9v25zM211 387q10 -1 17.5 -1h12.5q75 0 117 34.5t42 113.5q0 75 -38.5 104 t-109.5 29h-17.5t-23.5 -2v-278zM211 100q0 -16 1.5 -24t6.5 -16q9 -13 30.5 -20.5t50.5 -7.5q75 0 118 41.5t43 113.5q0 37 -13 70.5t-36 54.5q-24 23 -62.5 34.5t-87.5 11.5q-10 0 -22.5 -0.5t-28.5 -1.5v-256z" glyph-name="afii10019" unicode="В" horiz-adv-x="611"/>
<glyph d="M225 100q0 -14 1.5 -23.5t5.5 -17.5q17 -34 77 -34h20v-25q-28 2 -70 2h-78h-83t-70 -2v25h10q32 0 48.5 6t27.5 19q8 10 10.5 19.5t2.5 28.5v492q0 20 -1 31t-4 20q-11 32 -76 32h-16v25l37 -1q38 -1 65 -1.5t58 -0.5h114t114 1q29 0 42.5 0.5t22 0.5t16 0.5t24.5 0.5 l5 -141l-23 -4q-5 31 -18.5 59.5t-47.5 37.5q-26 8 -58 10.5t-59 2.5h-97v-563z" glyph-name="afii10020" unicode="Г" horiz-adv-x="536"/>
<glyph d="M702 -181h-25q-9 59 -22.5 95t-31.5 55t-41 25t-52 6h-334q-31 0 -57.5 -6t-47.5 -25t-37 -55t-25 -95h-25l8 213q6 -1 12.5 -1h12.5q29 0 47 11.5t40 48.5q15 27 33.5 72.5t35.5 103t30 122.5t18 129q2 26 2.5 44t0.5 44t-12 44q-8 11 -24.5 17t-46.5 6h-8v25l18 -1 q31 -2 61 -1.5t61 0.5h272h49.5t49.5 1l28 1v-25h-11q-32 0 -47 -5.5t-22 -16.5q-11 -16 -11 -50v-509q0 -40 23.5 -50.5t60.5 -10.5h7t18 1zM505 663h-139q-38 0 -57.5 -12.5t-21.5 -52.5q-4 -76 -11.5 -138t-21 -120.5t-33 -117.5t-47.5 -128q-5 -11 -8.5 -20.5 t-3.5 -17.5q0 -10 9 -15t32 -5h209q93 0 93 77v550z" glyph-name="afii10021" unicode="Д" horiz-adv-x="722"/>
<glyph d="M25 698l33 -1q34 -1 58.5 -1.5t53.5 -0.5h52h65t65.5 0.5t52.5 0.5q30 0 44 0.5t22.5 0.5t16.5 0.5t26 0.5v-149l-19 -5q-6 35 -16 58t-28.5 36.5t-47.5 19t-72 5.5h-113v-279h113q29 0 41 1.5t26 6.5q26 11 32 66l1 10h25q0 -26 -1 -53t-1 -53q0 -29 1.5 -58.5 t4.5 -58.5h-26q0 4 -0.5 6.5t-0.5 4.5q-3 38 -9 52.5t-22 21.5q-23 10 -71 10h-113v-229q0 -39 19 -56q11 -11 29 -15.5t50 -4.5h35q50 0 77.5 2.5t48.5 10.5q28 10 51.5 39t36.5 70l24 -4l-7 -21q-9 -28 -15 -45.5t-9.5 -31t-5.5 -26t-5 -29.5l-34 1q-34 1 -58 1h-57h-268 q-26 0 -52.5 -1t-52.5 -1v25h10q26 0 42 4t26 14.5t13.5 29t3.5 46.5v469q0 26 -3.5 42.5t-12.5 26t-25 13t-42 3.5h-12v25z" glyph-name="afii10022" unicode="Е" horiz-adv-x="611"/>
<glyph d="M1005 0q-20 2 -42 2h-44h-42.5t-38.5 -2l-262 333q-5 6 -12 8.5t-15 3.5v-276q0 -17 5 -27q9 -17 65 -17h11v-25q-28 2 -64.5 2h-71.5h-65.5t-62.5 -2v25h12q26 0 40.5 2t22 8.5t9.5 19t2 34.5v256q-8 -1 -15 -3.5t-12 -8.5l-262 -333q-17 2 -38.5 2h-42.5h-44t-42 -2v25 q23 2 34.5 4t22.5 8q14 8 30 21t36 37l239 299l-168 189q-21 23 -43.5 46t-38.5 31q-13 6 -28.5 9t-44.5 4v25q24 -2 50.5 -2h53.5h60.5t60.5 2v-25h-8q-49 0 -49 -26q0 -8 6 -21t11 -19l167 -192q14 -17 29 -26.5t36 -12.5v220q0 46 -15 61.5t-61 15.5h-10v25q34 -2 68 -2 h68h62t62 2v-25h-8q-43 0 -56 -9t-13 -37v-251q21 3 36 12.5t29 26.5l167 192q5 6 11 19t6 21q0 26 -49 26h-8v25q30 -2 60.5 -2h60.5h53.5t50.5 2v-25q-29 -1 -44.5 -4t-28.5 -9q-16 -8 -38.5 -31t-43.5 -46l-168 -189l239 -299q20 -24 36 -37t30 -21q11 -6 22.5 -8 t34.5 -4v-25z" glyph-name="afii10024" unicode="Ж" horiz-adv-x="1000"/>
<glyph d="M492 558q0 -33 -14.5 -61.5t-37 -51.5t-50.5 -39t-55 -24v-3q38 -2 70.5 -13.5t56.5 -33t38 -52.5t14 -72q0 -66 -36 -118t-97 -78q-29 -12 -62.5 -18t-68.5 -6q-22 0 -48 2.5t-51.5 7.5t-49 12t-41.5 15l-20 146h24q9 -36 28.5 -63.5t45 -46t55.5 -28t58 -9.5 q41 0 71.5 13.5t50.5 36.5t30 54.5t10 67.5q0 76 -46.5 117t-133.5 41h-9.5t-17 -0.5t-18 -1t-13.5 -0.5l11 38q9 -1 25 -1h24q16 0 41 4t45 17q31 20 51 56t20 74q0 64 -33.5 101.5t-94.5 37.5q-75 0 -124.5 -38t-60.5 -96h-23l16 128l31.5 10.5t44.5 13t55 11t63 4.5 q57 0 100 -12q57 -15 91.5 -51.5t34.5 -90.5z" glyph-name="afii10025" unicode="З" horiz-adv-x="572"/>
<glyph d="M214 102q0 -38 11 -55q6 -9 15.5 -13.5t20.5 -6.5t22 -2h19v-25q-25 2 -62.5 2h-70.5h-74t-67 -2v25q25 1 42.5 3.5t28 11.5t15.5 26t5 46v494q0 42 -22.5 54.5t-60.5 12.5h-8v25q32 -2 68.5 -2h71.5h67t67 2v-25h-11q-28 0 -43.5 -5t-23 -15.5t-9 -27.5t-1.5 -41v-425 l405 451q-1 19 -5 31t-14 19t-26.5 10t-42.5 3v25q27 -2 69 -2h79h63t62 2v-25h-9q-44 0 -62 -14t-18 -58v-509q0 -41 23 -54t61 -13h7v-25q-32 2 -67.5 2h-70.5h-69t-67 -2v25q23 1 39 3t27 9t16 21.5t5 39.5v455z" glyph-name="afii10026" unicode="И" horiz-adv-x="833"/>
<glyph d="M424 763q-43 0 -72.5 11.5t-48.5 27.5t-27.5 34t-8.5 30q0 14 8.5 29.5t34.5 15.5q23 0 33 -12t10 -29q0 -12 1 -23.5t7 -22.5t20.5 -19t42.5 -8q26 0 40 8t20 19t7 22.5t1 23.5q0 17 11.5 29t30.5 12q26 0 34.5 -13t8.5 -27t-8.5 -33t-26.5 -35.5t-47 -28t-71 -11.5z M214 102q0 -38 11 -55q6 -9 15.5 -13.5t20.5 -6.5t22 -2h19v-25q-25 2 -62.5 2h-70.5h-74t-67 -2v25q25 1 42.5 3.5t28 11.5t15.5 26t5 46v494q0 42 -22.5 54.5t-60.5 12.5h-8v25q32 -2 68.5 -2h71.5h67t67 2v-25h-11q-28 0 -43.5 -5t-23 -15.5t-9 -27.5t-1.5 -41v-425 l405 451q-1 19 -5 31t-14 19t-26.5 10t-42.5 3v25q27 -2 69 -2h79h63t62 2v-25h-9q-44 0 -62 -14t-18 -58v-509q0 -41 23 -54t61 -13h7v-25q-32 2 -67.5 2h-70.5h-69t-67 -2v25q23 1 39 3t27 9t16 21.5t5 39.5v455z" glyph-name="afii10027" unicode="Й" horiz-adv-x="833"/>
<glyph d="M706 0q-23 2 -44 2h-44q-12 0 -26 -0.5t-26 -0.5q-15 0 -29 -1l-280 326q-15 16 -41 16v-273q0 -17 5 -27q9 -17 65 -17h11v-25q-32 2 -66.5 2h-69.5h-30h-28.5t-31 -0.5t-38.5 -1.5v25h12q26 0 40.5 2t22 8.5t9.5 19t2 34.5v507q0 46 -15 61.5t-61 15.5h-10v25 q33 -2 67.5 -2h68.5h64.5t59.5 2v-25h-8q-43 0 -56 -9t-13 -37v-251q23 1 40.5 7.5t40.5 31.5l182 195q5 6 14.5 17.5t9.5 19.5q0 26 -49 26h-8v25q23 -2 53 -2h58h57.5t56.5 2v-25q-29 -1 -44.5 -4t-28.5 -9q-16 -8 -42 -29t-47 -44l-184 -197l258 -295q20 -23 36 -36.5 t30 -21.5q11 -6 22.5 -8t34.5 -4v-25z" glyph-name="afii10028" unicode="К" horiz-adv-x="722"/>
<glyph d="M695 0q-35 2 -69 2h-69h-70.5t-70.5 -2v25q57 1 75 14q8 6 12.5 22.5t4.5 36.5v563h-153q-38 0 -53 -13t-17 -51l-4 -84q-3 -68 -10 -136t-20 -129q-8 -37 -22 -82.5t-36.5 -85t-55 -66t-76.5 -26.5q-23 0 -40.5 13t-17.5 39q0 32 17.5 44.5t36.5 12.5q16 0 23.5 -4.5 l12.5 -7.5t11 -6t11 -3q18 0 38 25t37.5 77t31 132t17.5 191l4 104q1 25 -12 45q-17 23 -76 23h-8v25q34 -2 67 -2h67h287h64t63 2v-25h-11q-45 0 -62.5 -14t-17.5 -59v-508q0 -8 2 -16l4 -16q12 -35 78 -35h7v-25z" glyph-name="afii10029" unicode="Л" horiz-adv-x="722"/>
<glyph d="M63 698q21 -2 41 -2h41h44t44 2l269 -561l189 385q21 42 42.5 86.5t38.5 89.5q22 -2 42.5 -2h41.5h43t43 2v-25h-8q-29 0 -41.5 -3t-22.5 -11q-9 -8 -13.5 -20.5t-3.5 -34.5l13 -481q1 -23 2.5 -35t6.5 -26q7 -19 26.5 -28t56.5 -9h17v-25q-38 2 -83 2h-89h-70t-69 -2v25 h19q43 0 63 14q11 8 15.5 21.5t4.5 38.5l-7 481l-222 -457q-7 -15 -15 -33q-7 -17 -12.5 -29t-9.5 -23l-8 -22t-9 -26h-20q-6 16 -11.5 28t-11.5 25.5t-14 30.5t-21 44l-212 440l-14 -425q-2 -62 16.5 -85t66.5 -23h16v-25q-28 2 -61.5 2h-65.5h-66t-64 -2v25q29 1 41.5 3.5 t29.5 11.5q24 13 34.5 44.5t13.5 99.5l16 363q0 5 0.5 7t0.5 5v8v17q0 48 -18 68.5t-61 20.5h-15v25z" glyph-name="afii10030" unicode="М" horiz-adv-x="1000"/>
<glyph d="M302 673h-11q-35 0 -48.5 -6t-19.5 -18t-7.5 -23t-1.5 -42v-202h405v218q0 23 -3.5 37t-13 22t-27 11t-44.5 3v25q35 -2 73 -2h75h63.5t63.5 2v-25h-11q-44 0 -62 -14t-18 -58v-509q0 -41 23 -54t61 -13h7v-25q-35 2 -69 2h-69h-68t-69 -2v25q23 1 39.5 3t27.5 9t16 21.5 t5 39.5v238h-405v-231q0 -34 6.5 -49.5t18 -21.5t27.5 -6t36 -3v-25q-33 2 -66 2h-67h-70.5t-70.5 -2v25q25 1 42.5 3.5t28 11.5t15.5 26t5 46v494q0 26 -12 44q-8 11 -24.5 17t-46.5 6h-8v25q35 -2 70 -2h70h67t67 2v-25z" glyph-name="afii10031" unicode="Н" horiz-adv-x="834"/>
<glyph d="M416 712q74 0 139.5 -28.5t114.5 -78t77.5 -115.5t28.5 -141q0 -74 -28.5 -140t-77 -115t-114 -77.5t-140.5 -28.5q-73 0 -138 29t-113.5 78.5t-77 114.5t-28.5 138q0 75 27 141.5t75 116t113.5 78t141.5 28.5zM427 24q53 0 97.5 22t76 61t49 93.5t17.5 120.5 q0 57 -16 119.5t-48.5 115t-81.5 87t-116 34.5q-52 0 -96 -21.5t-75 -60.5t-48.5 -93.5t-17.5 -120.5q0 -56 15.5 -118.5t48 -115.5t81 -88t114.5 -35z" glyph-name="afii10032" unicode="О" horiz-adv-x="833"/>
<glyph d="M806 0q-28 2 -65.5 2h-72.5h-75.5t-61.5 -2v25q23 1 39.5 3t27.5 9t16 21.5t5 39.5v499q0 38 -20 51t-57 13h-251q-38 0 -57.5 -13t-19.5 -51v-492q0 -24 3 -39t11 -23.5t24 -12t41 -4.5q5 0 9 -1v-25q-33 2 -66.5 2h-66.5h-73t-68 -2v25q25 1 42.5 3.5t28 11.5t15.5 26 t5 46v494q0 42 -22.5 54.5t-60.5 12.5h-8v25q32 -2 68.5 -2h71.5h511h67.5t59.5 2v-25h-11q-44 0 -62 -14t-18 -58v-509q0 -41 23 -54t61 -13h7v-25z" glyph-name="afii10033" unicode="П" horiz-adv-x="833"/>
<glyph d="M32 698q32 -2 65 -3.5t65 -1.5q29 0 57 1.5t57 1.5q125 0 191 -57q29 -24 45 -60t16 -76q0 -42 -17 -79t-48 -66q-33 -29 -73 -42.5t-100 -13.5q-7 0 -14 0.5t-14 0.5l2 28q9 -1 14.5 -1.5t10.5 -0.5q63 0 100 44t37 119q0 39 -12 71t-33.5 55t-52 35.5t-67.5 12.5 q-8 0 -20 -0.5t-23 -2.5v-546q0 -32 4 -49t14 -26q8 -8 27 -12.5t43 -4.5h7v-25q-20 2 -57.5 2h-88.5h-36.5h-38.5t-35 -0.5t-27 -1.5v25q27 1 44.5 5t27.5 14.5t14 27.5t4 43v453q0 32 -3.5 52.5t-13.5 32t-27 16t-44 4.5v25z" glyph-name="afii10034" unicode="Р"/>
<glyph d="M680 517h-22q-30 162 -210 162q-64 0 -117 -22.5t-91 -63t-58.5 -97.5t-20.5 -127q0 -73 22.5 -136t62 -109.5t93 -73t115.5 -26.5q48 0 89 16.5t69 46.5q10 11 17.5 21t12.5 21.5t9 26t8 34.5l23 -6l-23 -144q-116 -52 -242 -52q-78 0 -144 27.5t-114.5 75.5t-76 114 t-27.5 144t29 144t80.5 115t121.5 76.5t152 27.5q62 0 120 -15t111 -37z" glyph-name="afii10035" unicode="С" horiz-adv-x="722"/>
<glyph d="M45 726q2 -6 4.5 -8.5l7.5 -7.5q9 -7 19.5 -9.5t31.5 -2.5h433q14 0 27.5 1t24.5 3q26 4 34 24h21l-8 -159h-24q-1 4 -1 9q-2 35 -7 49.5t-19 21.5q-11 5 -24.5 7t-40.5 2h-144v-547q0 -48 16.5 -66t61.5 -18h17v-25q-36 2 -77 2h-80h-69t-64 -2v25h16q48 0 64 15 q17 16 17 93v523h-143q-24 0 -40.5 -3.5t-27.5 -12.5t-18.5 -24.5t-12.5 -39.5l-2 -9h-24l11 159h20z" glyph-name="afii10036" unicode="Т" horiz-adv-x="666"/>
<glyph d="M518 539q17 31 21.5 51t4.5 40q0 23 -19 33t-60 10v25q24 -2 56 -2h62h52t52 2v-25q-18 -1 -27 -3.5t-17 -9.5t-21 -26t-21 -33l-256 -467q-10 -19 -24.5 -44.5t-34 -48t-45.5 -38t-61 -15.5q-38 0 -56.5 19.5t-18.5 46.5t17 40t37 13q19 0 29 -9t18 -18q6 -6 12 -10.5 t15 -4.5q11 0 25 14t34 49l29 52l-209 410q-11 22 -23.5 43t-20.5 27q-6 4 -10.5 6t-11.5 3.5t-18 2t-28 1.5v25q26 -2 68 -2h79h60.5t60.5 2v-25h-5h-18t-21 -2t-17.5 -8t-7.5 -17q0 -8 5 -25t14 -35l157 -307z" glyph-name="afii10037" unicode="У" horiz-adv-x="687"/>
<glyph d="M808 375q0 -60 -21.5 -108.5t-61.5 -82.5t-95.5 -52t-123.5 -18h-16t-16 1v-10q0 -24 3 -39.5t11 -24.5t24 -12.5t41 -3.5h9v-25q-23 2 -61.5 2h-71.5h-36.5h-38.5t-35.5 -0.5t-27.5 -1.5v25h9q26 0 41.5 3.5t23.5 12.5t11 24.5t3 39.5v10q-8 -1 -16 -1h-16 q-68 0 -123.5 18t-95.5 52t-61.5 82.5t-21.5 108.5q0 65 27.5 110.5t72 75t101.5 43t116 13.5h16q0 11 -2 17.5t-6 14.5q-6 12 -19.5 18t-48.5 6h-11v25q28 -2 65 -2h72h67.5t66.5 2v-25h-11q-35 0 -48.5 -6t-19.5 -18q-4 -8 -6 -14.5t-2 -17.5h16q59 0 116 -13.5t101.5 -43 t72 -75t27.5 -110.5zM699 370q0 47 -14 86.5t-41 68t-66 44.5t-89 16h-15v-436h13q110 0 161 57.5t51 163.5zM379 585h-15q-50 0 -89 -16t-66 -44.5t-41 -68t-14 -86.5q0 -106 51 -163.5t160 -57.5h14v436z" glyph-name="afii10038" unicode="Ф" horiz-adv-x="853"/>
<glyph d="M30 698q11 -1 27 -1.5t34.5 -0.5h37.5h36h72.5t70.5 2v-25h-6q-34 0 -49 -5t-15 -18q0 -8 6.5 -20t22.5 -34l135 -180l106 135q26 32 39.5 58t13.5 40q0 13 -15.5 18.5t-50.5 5.5v25q10 -1 25.5 -1.5t33.5 -0.5h36.5h34.5h60t51 2v-25q-27 -1 -46 -5t-35.5 -13.5 t-32.5 -25.5t-35 -41l-159 -206l222 -291q16 -21 28 -33.5t23.5 -19.5t24.5 -9.5t31 -3.5v-25q-29 2 -62.5 2h-65.5h-69.5t-61.5 -2v25h4q3 0 12 0.5t18.5 2t17 4t7.5 7.5q0 9 -20 37l-168 229l-134 -180q-6 -7 -13.5 -17.5t-14 -21.5t-11.5 -21t-5 -17q0 -8 10 -15 q7 -4 17.5 -6t39.5 -2h11v-25q-27 2 -58.5 2h-62.5h-65.5t-57.5 -2v25q30 1 46 4.5t30 13.5q20 14 43 40.5t39 46.5l160 210l-215 284q-10 14 -18 23t-17.5 15t-22 8.5t-30.5 2.5h-10v25z" glyph-name="afii10039" unicode="Х" horiz-adv-x="778"/>
<glyph d="M774 -181q-9 59 -22.5 95t-31.5 55.5t-41 26t-52 6.5h-448h-40.5h-30h-25.5t-28 -1l-27 -1v25q13 0 21 0.5t14 1.5t11 2.5t13 4.5q18 8 25 24.5t7 53.5v494q0 42 -22.5 54.5t-60.5 12.5h-8v25q35 -2 70 -2h70h67.5t66.5 2v-25h-11q-28 0 -43.5 -5t-23 -15.5t-9 -27.5 t-1.5 -41v-474q0 -38 25 -56.5t69 -18.5h200q44 0 69 18.5t25 56.5v490q0 23 -3.5 37t-13 22t-27 11t-44.5 3v25q37 -2 74 -2h74h63.5t63.5 2v-25h-11q-44 0 -62 -14t-18 -58v-509q0 -40 23.5 -50.5t60.5 -10.5q8 0 13.5 0.5t11.5 0.5l-8 -213h-25z" glyph-name="afii10040" unicode="Ц" horiz-adv-x="833"/>
<glyph d="M508 352q-16 -7 -38.5 -16t-48 -17t-53 -13t-53.5 -5q-57 0 -98 11t-68 36t-39.5 65.5t-12.5 99.5v93q0 41 -23.5 54t-60.5 13h-8v25q35 -2 70 -2h70h67t67 2v-25h-11q-28 0 -43.5 -5t-23 -15.5t-9 -27.5t-1.5 -41v-45q0 -49 4.5 -85t20.5 -60t47 -36t85 -12q14 0 34.5 4 t42.5 10.5t44 15t39 17.5v207q0 23 -3.5 37t-13 22t-27 11t-44.5 3v25q37 -2 74 -2h74h63.5t63.5 2v-25h-11q-44 0 -62 -14t-18 -58v-509q0 -8 2 -16l4 -16q12 -35 78 -35h7v-25q-35 2 -69 2h-69h-68.5t-68.5 -2v25q29 1 45 4t26 10q8 6 12.5 22.5t4.5 36.5v254z" glyph-name="afii10041" unicode="Ч" horiz-adv-x="722"/>
<glyph d="M1045 1q-16 1 -26.5 1h-22h-26.5h-39h-762h-39h-26.5h-22t-26.5 -1l-27 -1v25q25 1 42.5 3.5t28 11.5t15.5 26t5 46v494q0 42 -22.5 54.5t-60.5 12.5h-8v25q35 -2 70 -2h70h67t67 2v-25h-11q-28 0 -43.5 -5t-23 -15.5t-9 -27.5t-1.5 -41v-474q0 -38 25 -56.5t69 -18.5 h100q44 0 69 18.5t25 56.5v490q0 23 -3.5 37t-13 22t-27 11t-44.5 3v25q38 -2 74.5 -2h73.5h63.5t63.5 2v-25h-11q-44 0 -62 -14t-18 -58v-491q0 -38 25 -56.5t69 -18.5h100q44 0 69 18.5t25 56.5v474q0 24 -1.5 41t-9 27.5t-23 15.5t-43.5 5h-11v25q33 -2 66.5 -2h67.5h70 t70 2v-25h-8q-38 0 -60.5 -12.5t-22.5 -54.5v-494q0 -29 5 -46t15.5 -26t28 -11.5t42.5 -3.5v-25z" glyph-name="afii10042" unicode="Ш" horiz-adv-x="1100"/>
<glyph d="M169 2h-39h-26.5h-22t-26.5 -1l-27 -1v25q13 0 21 0.5t14 1.5t11 2.5t13 4.5q18 8 25 24.5t7 53.5v494q0 42 -22.5 54.5t-60.5 12.5h-8v25q35 -2 70 -2h70h71t63 2v-25h-11q-28 0 -43.5 -5t-23 -15.5t-9 -27.5t-1.5 -41v-474q0 -38 25 -56.5t69 -18.5h100q44 0 69 18.5 t25 56.5v490q0 23 -3.5 37t-13 22t-27 11t-44.5 3v25q35 -2 73 -2h75h64.5t62.5 2v-25h-11q-44 0 -62 -14t-18 -58v-491q0 -38 25 -56.5t69 -18.5h100q44 0 69 18.5t25 56.5v474q0 24 -1.5 41t-9 27.5t-23 15.5t-43.5 5h-11v25q32 -2 66 -2h68h70.5t69.5 2v-25h-8 q-38 0 -60.5 -12.5t-22.5 -54.5v-514q0 -20 6.5 -32t17.5 -18.5t26 -8.5t32 -2h11t16 1l-8 -213h-25q-9 59 -22.5 95t-31.5 55.5t-41 26t-52 6.5h-741z" glyph-name="afii10043" unicode="Щ" horiz-adv-x="1115"/>
<glyph d="M749 211q0 -100 -70.5 -155.5t-195.5 -55.5q-6 0 -22 0.5t-31 0.5l-62 1q-26 1 -39 1h-26q-19 0 -40 -0.5t-43 -1.5l-26 -1v25q14 1 22.5 2t14.5 2t11.5 3t13.5 6q17 8 23.5 27t6.5 59v537h-147q-48 0 -68 -18t-31 -67l-2 -9h-24l11 159h20q2 -6 4.5 -8.5l7.5 -7.5 q9 -7 19.5 -9.5t31.5 -2.5q48 -1 91 -1q40 0 76.5 -0.5t59.5 -0.5h37h25.5t22 0.5t25.5 0.5l27 1v-26h-11q-35 0 -48.5 -6t-19.5 -18t-7.5 -23t-1.5 -42v-184q18 2 36 3t36 1q56 0 108.5 -9.5t93.5 -31.5t66 -59t25 -92zM647 200q0 37 -13 70.5t-36 54.5q-49 46 -153 46 q-10 0 -27.5 -1t-33.5 -2v-268q0 -16 1.5 -24t6.5 -16q9 -13 23 -20.5t48 -7.5q41 0 75 13t58 35.5t37.5 53t13.5 66.5z" glyph-name="afii10044" unicode="Ъ" horiz-adv-x="778"/>
<glyph d="M686 600q0 23 -3.5 37t-13 22t-27 11t-44.5 3v25q30 -2 62.5 -2h85.5h67.5t59.5 2v-25h-11q-44 0 -62 -14t-18 -58v-509q0 -41 23 -54t61 -13h7v-25q-10 1 -26.5 1.5t-35.5 0.5h-38.5h-37.5h-74t-63 -2v25q23 1 39.5 3t27.5 9t16 21.5t5 39.5v502zM218 100 q0 -40 19.5 -54t59.5 -14q41 0 75 13t58 35.5t37.5 53t13.5 66.5q0 37 -13 70.5t-36 54.5q-49 46 -153 46q-10 0 -27.5 -1t-33.5 -2v-268zM218 399q18 2 36 3t36 1q56 0 108.5 -10t93.5 -32.5t66 -59t25 -90.5q0 -49 -19 -88.5t-53.5 -66.5t-83.5 -41.5t-110 -14.5 q-6 0 -22 0.5t-31 0.5l-62 1q-26 1 -39 1h-26q-27 0 -54.5 -1t-54.5 -2v25q14 1 22.5 2t14.5 2t11.5 3t13.5 6q17 8 23.5 27t6.5 59v482q0 42 -22.5 54.5t-60.5 12.5h-8v25q32 -2 68.5 -2h71.5h73t64 2v-25h-11q-28 0 -43.5 -5t-23 -15.5t-9 -27.5t-1.5 -41v-185z" glyph-name="afii10045" unicode="Ы" horiz-adv-x="900"/>
<glyph d="M218 100q0 -16 1.5 -24t6.5 -16q9 -13 23 -20.5t48 -7.5q41 0 75 13t58 35.5t37.5 53t13.5 66.5q0 37 -13 70.5t-36 54.5q-49 46 -153 46q-10 0 -27.5 -1t-33.5 -2v-268zM218 399q18 2 36 3t36 1q56 0 108.5 -10t93.5 -32.5t66 -59t25 -90.5q0 -49 -19 -88.5t-53.5 -66.5 t-83.5 -41.5t-110 -14.5q-6 0 -22 0.5t-31 0.5l-62 1q-26 1 -39 1h-26q-27 0 -58 -1t-51 -2v25q14 1 22.5 2t14.5 2t11.5 3t13.5 6q17 8 23.5 27t6.5 59v482q0 42 -22.5 54.5t-60.5 12.5h-8v25q31 -2 68 -2h72h69t68 2v-25h-11q-28 0 -43.5 -5t-23 -15.5t-9 -27.5t-1.5 -41 v-185z" glyph-name="afii10046" unicode="Ь" horiz-adv-x="611"/>
<glyph d="M667 351q0 -78 -29 -144t-80.5 -115t-121.5 -76.5t-152 -27.5q-62 0 -120 15t-111 37l-11 143h22q30 -162 210 -162q65 0 117.5 22.5t90.5 63t58.5 97.5t20.5 127v9h-214q-48 0 -71 -10q-16 -7 -22 -21.5t-9 -52.5q0 -2 -0.5 -4.5t-0.5 -6.5h-26q3 29 4.5 58.5t1.5 58.5 q0 26 -1 53t-1 53h25l1 -10q6 -55 32 -66q14 -5 26 -6.5t41 -1.5h211q-8 63 -33 116.5t-63.5 92.5t-88 61t-105.5 22q-48 0 -89 -16.5t-69 -46.5q-10 -11 -17.5 -21t-12.5 -21.5t-9 -26t-8 -34.5l-23 6l23 144q116 52 242 52q78 0 144 -27.5t114.5 -75.5t76 -114t27.5 -144z " glyph-name="afii10047" unicode="Э" horiz-adv-x="722"/>
<glyph d="M706 712q74 0 139.5 -28.5t114.5 -78t77.5 -115.5t28.5 -141q0 -74 -28.5 -140t-77 -115t-114 -77.5t-140.5 -28.5q-72 0 -136 28t-112.5 76t-77.5 112t-31 135h-135v-234q0 -24 3 -39t11 -23.5t24 -12t41 -4.5q5 0 9 -1v-25q-33 2 -67 2h-66h-70.5t-70.5 -2v25 q13 0 21 0.5t14 1.5t11 2.5t13 4.5q18 8 25 24.5t7 53.5v494q0 42 -22.5 54.5t-60.5 12.5h-8v25q35 -2 69.5 -2h70.5h67.5t66.5 2v-25h-11q-28 0 -43.5 -5t-23 -15.5t-9 -27.5t-1.5 -41v-205h136q6 70 35 131t76.5 106t110 70.5t134.5 25.5zM717 24q53 0 97.5 22t76 61 t49 93.5t17.5 120.5q0 57 -16 119.5t-48.5 115t-81.5 87t-116 34.5q-52 0 -96 -21.5t-75 -60.5t-48.5 -93.5t-17.5 -120.5q0 -56 15.5 -118.5t48 -115.5t81 -88t114.5 -35z" glyph-name="afii10048" unicode="Ю" horiz-adv-x="1123"/>
<glyph d="M659 673q-25 0 -41.5 -3.5t-26.5 -12.5t-13.5 -25t-3.5 -40v-496q0 -42 14.5 -56.5t56.5 -14.5h12v-25q-29 2 -59.5 2h-60.5q-41 0 -81 0.5t-81 -2.5v25h6q29 0 47 3.5t29 12.5t15 24t4 38v227h-91l-116 -183q-12 -19 -23 -35t-23.5 -32t-28.5 -35t-39 -45l-16 1 q-9 1 -15.5 1h-13h-15.5h-24h-20.5h-13t-10 -0.5t-12.5 -0.5l-20 -1v25q26 2 40 7t28 16q10 8 23 21t27 28.5t27 32t22 30.5l128 190q-60 19 -100 61t-40 110q0 39 15 72.5t43 55.5q32 26 75.5 37.5t112.5 11.5q37 0 73.5 -1.5t73.5 -1.5h47t52 2l17 1v-25zM476 660 q-14 2 -31 4t-31 2q-73 0 -118.5 -37.5t-45.5 -113.5q0 -34 12.5 -62t34.5 -48t53.5 -31.5t68.5 -11.5q17 0 30 1.5t27 6.5v290z" glyph-name="afii10049" unicode="Я" horiz-adv-x="687"/>
<glyph d="M306 321q0 15 -2 25.5t-7 19.5q-9 20 -33 31.5t-54 11.5q-71 0 -77 -71q-1 -11 -2.5 -15t-6.5 -9q-9 -8 -23 -13t-26 -5q-14 0 -14 20q0 18 9.5 36t23.5 29q3 2 17.5 11.5t40.5 26.5q36 23 60.5 31.5t51.5 8.5q51 0 88 -27q19 -14 26 -30t7 -46v-273q0 -17 11.5 -27.5 t30.5 -10.5q9 0 16 2.5t17 10.5l8 -17q-52 -53 -101 -53q-24 0 -40.5 20.5t-19.5 54.5q-82 -75 -163 -75q-42 0 -70.5 28.5t-28.5 70.5q0 24 15 44.5t37.5 36.5t49.5 28t50 19l109 34v72zM306 224l-15 -4q-90 -24 -128 -50t-38 -62q0 -29 21 -50t52 -21q32 0 58.5 18.5 t49.5 38.5v130z" glyph-name="afii10065" unicode="а" horiz-adv-x="500"/>
<glyph d="M497 220q0 -48 -18 -90t-48.5 -73.5t-72.5 -50t-90 -18.5q-67 0 -111 25t-70 63.5t-36.5 84t-10.5 87.5q0 51 10 115t34 121.5t64 100t99 51.5l168 26q28 5 36 14.5t16 18.5l15 -7q-12 -30 -22 -50t-21.5 -33.5t-26 -20t-36.5 -9.5q-18 -2 -41 -5t-45 -6t-40.5 -6 t-28.5 -5q-42 -9 -68 -31t-41 -53t-20.5 -69t-7.5 -80l2 -1q27 63 76.5 93t109.5 30q48 0 89 -17t71.5 -47t47.5 -70.5t17 -87.5zM403 206q0 45 -10.5 83.5t-29 67t-44 44.5t-54.5 16t-53 -14t-41.5 -39t-27 -60t-9.5 -77q0 -45 11 -83.5t29.5 -66.5t44 -44t55.5 -16 q28 0 51.5 14t41 39.5t27 60t9.5 75.5z" glyph-name="afii10066" unicode="б" horiz-adv-x="537"/>
<glyph d="M128 2h-55t-51 -2v25h26t26 4q15 5 15 32v320q0 28 -15 32q-13 4 -26 4h-26v25q9 -1 22 -1.5t28 -0.5h29.5h26.5q23 0 57 1t58 1q29 0 65.5 -4.5t62.5 -18.5q20 -11 32 -33t12 -46q0 -22 -10 -39t-26 -29t-35 -19.5t-37 -11.5q26 -2 38.5 -4.5t31.5 -10.5q32 -13 52 -43 t20 -64q0 -54 -47 -86.5t-123 -32.5q-29 0 -70.5 1t-80.5 1zM170 249q6 0 19 -0.5t30 -0.5q48 0 79.5 20.5t31.5 68.5q0 45 -30 62.5t-75 17.5h-10t-15.5 -0.5t-16.5 -1t-13 -0.5v-166zM170 67q0 -10 2 -14.5t5 -9.5q5 -8 21 -12.5t55 -4.5q48 0 78.5 25t30.5 68 q0 22 -8.5 42t-22.5 32q-15 14 -41.5 21t-57.5 7q-19 0 -35.5 -0.5t-26.5 -1.5v-152z" glyph-name="afii10067" unicode="в" horiz-adv-x="480"/>
<glyph d="M379 312q-4 26 -14.5 49t-34.5 34q-20 9 -46.5 13.5t-56.5 4.5h-55v-328q0 -17 1.5 -28.5t7.5 -18.5t18.5 -10t33.5 -3h17v-25q-24 2 -53.5 2h-65.5h-35h-25.5t-22 -0.5t-23.5 -1.5v25q14 0 26 1t21 5.5t14.5 14.5t5.5 28v307q0 28 -15 32q-13 4 -26 4h-26v25h370l5 -127 z" glyph-name="afii10068" unicode="г" horiz-adv-x="410"/>
<glyph d="M337 412h-78q-18 0 -29 -2t-17.5 -8t-9.5 -17t-5 -28q-3 -23 -7 -56.5t-11 -72.5t-18.5 -80t-28.5 -79q-8 -16 -8 -24q0 -14 28 -14h129q34 0 44.5 8t10.5 36v337zM484 417h-26t-26 -4q-15 -4 -15 -32v-295q0 -37 21 -46t54 -9h13l-7 -184h-23q-8 53 -18.5 83.5t-24.5 46 t-33.5 19.5t-45.5 4h-189q-28 0 -51 -4t-40.5 -19.5t-30.5 -46t-22 -83.5h-22l7 184h16q26 0 46 12t37 47q15 33 26.5 75t19 83.5t11 76.5t3.5 53q0 26 -15.5 32.5t-33.5 6.5h-18v25h387v-25z" glyph-name="afii10069" unicode="д" horiz-adv-x="523"/>
<glyph d="M114 280q-1 -8 -1 -15v-12q0 -45 11 -82.5t31 -65t47.5 -42.5t60.5 -15q44 0 74.5 18.5t61.5 47.5l14 -14q-21 -25 -40.5 -45.5t-42 -35.5t-49 -23t-60.5 -8q-43 0 -77.5 16t-59 45.5t-37.5 71.5t-13 94q0 48 15 91.5t42.5 77t66.5 53t87 19.5q34 0 64.5 -11.5t53 -31.5 t35 -47t10.5 -58l-1 -16q0 -5 -2 -8.5t-7 -3.5h-284zM283 310q25 0 32 4.5t7 20.5q0 42 -23.5 66.5t-62.5 24.5q-26 0 -49.5 -10.5t-37.5 -29.5q-12 -15 -18.5 -29.5t-14.5 -46.5h167z" glyph-name="afii10070" unicode="е" horiz-adv-x="444"/>
<glyph d="M752 0q-18 2 -36 2h-39q-17 0 -31 -0.5t-31 -1.5q-4 5 -11 13.5t-12 16.5l-130 181q-8 10 -21.5 12t-23.5 2v-165q0 -11 2 -17.5t10 -11.5q6 -3 25.5 -4.5t31.5 -1.5h5v-25q-29 2 -58 2h-64h-53.5t-48.5 -2v25q4 0 13.5 0.5t20 1.5t19 3t11.5 5q4 4 5 10.5t1 20.5v159 q-10 0 -24 -2t-21 -12l-130 -181q-5 -8 -12 -16.5t-11 -13.5q-15 2 -28.5 2h-33.5h-39.5t-35.5 -2v25h11q22 0 40.5 9t39.5 38l142 188l-76 86q-24 28 -53.5 44.5t-46.5 21.5q-6 2 -14.5 3t-22.5 2v25q23 -2 45 -2h49h51t46 2v-25q-50 -1 -50 -18q0 -8 8 -17t22 -26l79 -95 q7 -8 27 -11t38 -3v134q0 28 -15 32q-13 4 -26 4h-26v25q26 -2 49 -2h57h59t50 2v-25h-7q-21 0 -33.5 -1.5t-18.5 -6.5t-7.5 -14.5t-1.5 -26.5v-121q18 0 38 3t27 11l79 95q14 17 22 26t8 17q0 17 -50 18v25q23 -2 45 -2h52h48t46 2v-25q-14 -1 -22.5 -2t-14.5 -3 q-17 -5 -46.5 -21.5t-53.5 -44.5l-76 -86l142 -188q21 -29 39.5 -38t40.5 -9h11v-25z" glyph-name="afii10072" unicode="ж" horiz-adv-x="754"/>
<glyph d="M368 354q0 -21 -9.5 -39t-25 -31.5t-35 -23t-39.5 -14.5v-2q56 -5 92.5 -35t36.5 -81q0 -31 -15 -57t-41.5 -44.5t-61.5 -28.5t-76 -10q-33 0 -60 9t-49 23.5t-37.5 31.5t-25.5 33l23 17q20 -33 60.5 -51t85.5 -18q49 0 75.5 25.5t26.5 70.5q0 33 -13 53t-40 32 q-13 5 -29.5 6.5t-34.5 1.5q-8 0 -17 -0.5t-15 -1.5l6 30q6 -1 12.5 -1h14.5q11 0 30 2.5t32 10.5q20 13 29.5 34.5t9.5 59.5q0 33 -22 53t-54 20q-21 0 -42 -7.5t-38.5 -21t-30.5 -33t-18 -44.5h-20l5 102q15 6 34 11.5t39.5 10t40.5 7t36 2.5q77 0 118.5 -27t41.5 -75z " glyph-name="afii10073" unicode="з" horiz-adv-x="430"/>
<glyph d="M172 80v-6q0 -17 1.5 -26.5t7.5 -14.5t18.5 -6.5t33.5 -1.5h7v-25q-26 2 -48 2h-61h-58.5t-47.5 -2v25h26t26 4q15 5 15 32v320q0 28 -15 32q-13 4 -26 4h-26v25q25 -2 48 -2h58h35h27t23 0.5t24 1.5v-25h-7q-21 0 -33.5 -1.5t-18.5 -6.5t-7.5 -14.5t-1.5 -26.5v-242 l212 234v8q0 17 -1.5 26.5t-7.5 14.5t-18.5 6.5t-33.5 1.5h-7v25q26 -2 47.5 -2h61.5h33h26t23 0.5t24 1.5v-25h-26t-26 -4q-15 -4 -15 -32v-320q0 -27 15 -32q13 -4 26 -4h26v-25q-13 1 -23.5 1.5t-22.5 0.5h-26h-34h-60.5t-48.5 -2v25h7q21 0 33.5 1.5t18.5 6.5t7.5 14.5 t1.5 26.5v241z" glyph-name="afii10074" unicode="и"/>
<glyph d="M433 658q0 -14 -8 -32t-26 -34.5t-47 -28t-71 -11.5q-43 0 -72.5 11.5t-48 27.5t-26.5 33.5t-8 29.5q0 13 7.5 28t33.5 15q22 0 32 -11.5t10 -28.5q0 -9 1 -21.5t7.5 -24t21 -20t42.5 -8.5q27 0 41 8t20 19.5t7 24.5t1 22q0 17 11.5 28.5t30.5 11.5q25 0 33 -12.5 t8 -26.5zM172 80v-6q0 -17 1.5 -26.5t7.5 -14.5t18.5 -6.5t33.5 -1.5h7v-25q-26 2 -48 2h-61h-58.5t-47.5 -2v25h26t26 4q15 5 15 32v320q0 28 -15 32q-13 4 -26 4h-26v25q25 -2 48 -2h58h35h27t23 0.5t24 1.5v-25h-7q-21 0 -33.5 -1.5t-18.5 -6.5t-7.5 -14.5t-1.5 -26.5 v-242l212 234v8q0 17 -1.5 26.5t-7.5 14.5t-18.5 6.5t-33.5 1.5h-7v25q26 -2 47.5 -2h61.5h33h26t23 0.5t24 1.5v-25h-26t-26 -4q-15 -4 -15 -32v-320q0 -27 15 -32q13 -4 26 -4h26v-25q-13 1 -23.5 1.5t-22.5 0.5h-26h-34h-60.5t-48.5 -2v25h7q21 0 33.5 1.5t18.5 6.5 t7.5 14.5t1.5 26.5v241z" glyph-name="afii10075" unicode="й"/>
<glyph d="M250 0q-29 2 -56.5 2h-65.5h-58t-44 -2v25q4 0 13.5 0.5t20 1.5t19 3t11.5 5q4 4 5 10.5t1 20.5v315q0 28 -15 32q-13 4 -26 4h-26v25q26 -2 48.5 -2h57.5h57t52 2v-25h-7q-21 0 -33.5 -1.5t-18.5 -6.5t-7.5 -14.5t-1.5 -26.5v-119q27 0 46.5 8t29.5 18l76 81 q14 16 22 25.5t8 17.5q0 18 -50 18v25q26 -2 48.5 -2h54.5h53t41 2v-25q-8 0 -20.5 -0.5t-18.5 -2.5q-17 -5 -46.5 -23.5t-55.5 -44.5l-80 -83l143 -192q21 -29 40 -37.5t41 -8.5h16v-25q-18 1 -34 1.5t-42 0.5h-36t-30 -2l-152 208q-7 9 -17.5 10.5t-36.5 1.5v-160 q0 -11 2 -17.5t10 -11.5q6 -3 25.5 -4.5t31.5 -1.5h5v-25z" glyph-name="afii10076" unicode="к" horiz-adv-x="525"/>
<glyph d="M486 417h-26t-26 -4q-15 -4 -15 -32v-320q0 -27 15 -32q13 -4 26 -4h26v-25q-26 2 -50 2h-56h-58.5t-50.5 -2v25h7q21 0 33.5 1.5t18.5 6.5t7.5 14.5t1.5 26.5v338h-84q-33 0 -43.5 -7.5t-11.5 -34.5q-2 -48 -6.5 -95t-12.5 -95q-11 -61 -24.5 -98t-28.5 -56.5t-31 -26 t-32 -6.5q-32 0 -48.5 14.5t-16.5 34.5q0 29 14.5 40t33.5 11q8 0 16 -3.5t13 -8.5q6 -7 10 -16t13 -9q6 0 12.5 13t13.5 34.5t13 49t11 55.5q8 47 11.5 91.5t3.5 67.5q0 26 -4 35t-12 11q-13 4 -26 4h-26v25h389v-25z" glyph-name="afii10077" unicode="л" horiz-adv-x="510"/>
<glyph d="M329 105l111 226q13 26 27 54.5t25 56.5q17 -2 32.5 -2h32.5h40t39 2v-25h-26t-26 -4q-15 -4 -15 -32l8 -320q0 -27 15 -32q13 -4 26 -4h26v-25q-13 1 -22.5 1.5t-20 0.5h-25.5h-38h-63t-49 -2v25h7q21 0 33.5 1.5t18.5 6.5t7.5 14.5t1.5 26.5l-4 275l-138 -271 q-2 -5 -4.5 -10l-5.5 -11l-13.5 -33t-10.5 -30h-16q-4 10 -7.5 17.5t-7.5 16t-9 19.5t-13 28l-131 278l-9 -269q-1 -17 0.5 -28.5t8 -18t19 -9.5t33.5 -3h7v-25q-11 1 -20 1.5t-19 0.5h-22.5h-30.5h-47.5t-38.5 -2v25h23q20 0 30.5 7.5t15.5 20t5.5 29t1.5 35.5l10 229 q0 7 1 13t1 22q0 28 -15 32q-13 4 -26 4h-26v25q20 -1 41.5 -1.5t41.5 -0.5q23 0 34.5 0.5t25.5 1.5z" glyph-name="afii10078" unicode="м" horiz-adv-x="667"/>
<glyph d="M172 218v-144q0 -17 1.5 -26.5t7.5 -14.5t18.5 -6.5t33.5 -1.5h7v-25q-26 2 -48.5 2h-60.5h-59t-47 -2v25h23.5t28.5 4q15 5 15 32v320q0 28 -15 32q-13 4 -26 4h-26v25q25 -2 49 -2h57h60.5t48.5 2v-25h-7q-21 0 -33.5 -1.5t-18.5 -6.5t-7.5 -14.5t-1.5 -26.5v-117h212 v117q0 17 -1.5 26.5t-7.5 14.5t-18.5 6.5t-33.5 1.5h-7v25q27 -2 52 -2h57h58t48 2v-25h-26t-26 -4q-15 -4 -15 -32v-320q0 -27 15 -32q13 -4 26 -4h26v-25q-26 2 -47 2h-59h-56t-53 -2v25h7q21 0 33.5 1.5t18.5 6.5t7.5 14.5t1.5 26.5v144h-212z" glyph-name="afii10079" unicode="н"/>
<glyph d="M280 456q50 0 92.5 -17.5t74.5 -48.5t50 -73t18 -90q0 -49 -19 -93t-51 -76t-75.5 -51t-93.5 -19t-92.5 18t-74 49.5t-49.5 74.5t-18 93q0 49 18.5 91.5t50.5 74t75.5 49.5t93.5 18zM420 212q0 47 -11.5 87t-31 69t-46.5 46t-58 17q-30 0 -55.5 -14.5t-44 -40.5 t-28.5 -62t-10 -80q0 -46 11.5 -86t31 -69.5t47 -46t58.5 -16.5q30 0 55 14.5t43 41t28.5 62.5t10.5 78z" glyph-name="afii10080" unicode="о"/>
<glyph d="M531 417h-26t-26 -4q-15 -4 -15 -32v-320q0 -27 15 -32q13 -4 26 -4h26v-25q-25 2 -49.5 2h-56.5h-57.5t-51.5 -2v25h7q21 0 33.5 1.5t18.5 6.5t7.5 14.5t1.5 26.5v293q0 28 -10.5 36t-44.5 8h-102q-32 0 -43.5 -8.5t-11.5 -35.5v-293q0 -17 1.5 -26.5t7.5 -14.5 t18.5 -6.5t33.5 -1.5h7v-25q-24 2 -48.5 2h-60.5h-57.5t-48.5 -2v25h26t26 4q15 5 15 32v320q0 28 -15 32q-13 4 -26 4h-26v25h506v-25z" glyph-name="afii10081" unicode="п"/>
<glyph d="M167 -165q0 -7 1.5 -19t9.5 -15q5 -2 23 -3.5t52 -1.5h6v-25h-17q-17 0 -28 0.5t-22 0.5t-26 0.5t-40 0.5h-31h-21.5h-19t-23.5 -1l-24 -1v25h12q23 0 36.5 2t20.5 6q5 3 7.5 11.5t2.5 25.5v463q0 40 -10 57t-41 30l-7 3v15l13 6q32 14 58.5 26t46.5 23q6 3 11 3 q10 0 10 -24v-60q26 21 46 35t38 22.5t34.5 12t35.5 3.5q38 0 70.5 -17t57.5 -46t39 -67.5t14 -82.5q0 -52 -19.5 -98t-53 -81t-78.5 -55.5t-95 -20.5q-24 0 -43.5 4.5t-45.5 15.5v-173zM167 88q39 -66 108 -66q31 0 57 13.5t45.5 37.5t30.5 56.5t11 69.5q0 42 -11.5 77 t-32 60.5t-49 40t-62.5 14.5q-28 0 -51 -10t-46 -24v-269z" glyph-name="afii10082" unicode="р"/>
<glyph d="M433 91q-5 -5 -9 -9.5t-6 -6.5q-41 -43 -86 -65t-91 -22q-41 0 -78 17.5t-64.5 46.5t-44 68t-16.5 82q0 52 20 98t53.5 80.5t78.5 55t95 20.5q32 0 62 -7t50 -18q24 -13 24 -39q0 -20 -10.5 -32.5t-26.5 -12.5q-11 0 -18 4t-16 17q-22 29 -45 41.5t-53 12.5 q-29 0 -53.5 -13t-42.5 -35.5t-28 -53.5t-10 -68q0 -41 13.5 -76.5t37 -61.5t55.5 -41t69 -15t65.5 14t57.5 36z" glyph-name="afii10083" unicode="с" horiz-adv-x="444"/>
<glyph d="M261 74q0 -17 1.5 -26.5t7.5 -14.5t18.5 -6.5t33.5 -1.5h7v-25q-23 2 -47.5 2h-61.5h-56.5t-49.5 -2v25h26t26 4q15 5 15 32v348h-61q-43 0 -61 -16t-28 -61l-1 -8h-22l10 143h18q2 -5 4 -7.5t7 -6.5q8 -7 17 -9t29 -2h243q13 0 25 1t22 3q13 2 19.5 6.5t11.5 14.5h19 l-8 -143h-21q-1 3 -1 9v6q-1 22 -5.5 35.5t-14 21t-24.5 10.5t-38 3h-60v-335z" glyph-name="afii10084" unicode="т" horiz-adv-x="444"/>
<glyph d="M9 442q14 -1 26.5 -1.5t25.5 -0.5h28.5h36.5h29.5h21t18.5 0.5t20 1.5v-25q-6 0 -15.5 -1t-18.5 -3t-15 -7.5t-6 -14.5t3 -18t6 -17l93 -236l85 204q15 36 15 57q0 36 -50 36h-6v25q23 -2 44 -2h51h41t33 2v-25q-31 -2 -47 -14.5t-32 -50.5l-226 -531q-24 -55 -65 -55 q-20 0 -34 14t-14 35q0 22 14.5 37t36.5 15q11 0 19.5 -2.5t18.5 -10.5q7 13 16.5 34t19.5 44.5t19 46l15 37.5l-129 331q-8 22 -12.5 30t-12.5 19q-9 11 -20.5 16t-32.5 5v25z" glyph-name="afii10085" unicode="у" horiz-adv-x="500"/>
<glyph d="M685 229q0 -52 -15 -96t-41 -76t-61 -50.5t-76 -18.5q-29 0 -51.5 9t-37.5 19v-185q0 -8 1.5 -16t10.5 -13q6 -3 25.5 -4.5t31.5 -1.5h5v-25q-30 2 -57.5 2h-65.5h-52.5t-49.5 -2v25h8q22 0 36.5 2.5t19.5 7.5q4 4 5 10.5t1 20.5v179q-15 -10 -37.5 -19t-51.5 -9 q-41 0 -76 18.5t-61 50.5t-41 76t-15 96q0 51 15 92.5t40 71.5t58 46.5t69 16.5q16 0 31 -4.5t28.5 -11t24 -13.5t16.5 -13v213q0 17 -1 24.5t-5 15.5q-7 14 -22.5 19.5t-29.5 7.5v18q14 5 24.5 8.5t22 8t28 11t42.5 17.5q4 2 11 2q11 0 11 -12v-333q6 6 16.5 13t24 13.5 t28.5 11t31 4.5q36 0 69 -16.5t58 -46.5t40 -71.5t15 -92.5zM592 220q0 43 -6.5 80t-20 64t-33 42t-45.5 15q-23 0 -46 -14.5t-38 -31.5v-286q5 -11 12 -23.5t17.5 -23t25 -17t33.5 -6.5q30 0 49.5 19.5t31 49t16 65t4.5 67.5zM322 375q-15 17 -38 31.5t-46 14.5 q-26 0 -45.5 -15t-33 -42t-20 -64t-6.5 -80q0 -32 4.5 -67.5t16 -65t31 -49t49.5 -19.5q20 0 34.5 6.5t25 17t17.5 23t11 23.5v286z" glyph-name="afii10086" unicode="ф" horiz-adv-x="725"/>
<glyph d="M7 25q5 1 10 1q36 2 48 6q10 4 23.5 12.5t24.5 22.5l117 138l-137 177q-14 17 -28.5 25t-39.5 10v25q25 -2 47.5 -2h51.5h60t54 2v-25h-4q-48 0 -48 -16q0 -8 13 -24l85 -110l91 108q9 11 9 21q0 20 -46 21v25q23 -2 43.5 -2h50.5h49.5t41.5 2v-25q-36 -1 -59.5 -10.5 t-43.5 -32.5l-116 -134l145 -184q16 -20 30 -24.5t44 -6.5v-25q-27 2 -53 2h-62h-54.5t-50.5 -2v25h3h14.5t17 1.5t14 4t5.5 6.5t-2.5 9t-10.5 14l-94 119l-97 -114q-6 -8 -10.5 -15t-4.5 -9q0 -8 12.5 -12t34.5 -4h12v-25q-23 2 -45.5 2h-51.5h-48.5t-44.5 -2v25z" glyph-name="afii10087" unicode="х"/>
<glyph d="M545 -153h-22q-9 53 -19.5 83.5t-24.5 46t-33.5 19.5t-45.5 4h-375v25h26t26 4q15 5 15 32v320q0 28 -15 32q-13 4 -26 4h-26v25q27 -2 52 -2h54h57t52 2v-25h-7q-21 0 -33.5 -1.5t-18.5 -6.5t-7.5 -14.5t-1.5 -26.5v-293q0 -27 11.5 -35.5t43.5 -8.5h102q34 0 44.5 8 t10.5 36v293q0 17 -1.5 26.5t-7.5 14.5t-18.5 6.5t-33.5 1.5h-7v25q27 -2 51 -2h58h56.5t49.5 2v-25h-26t-26 -4q-15 -4 -15 -32v-298q0 -37 21 -46t55 -9h12z" glyph-name="afii10088" unicode="ц" horiz-adv-x="566"/>
<glyph d="M500 0q-12 1 -23 1.5t-22.5 0.5h-26h-34.5h-62t-53 -2v25h13q21 0 33.5 1.5t18.5 6.5t7.5 14.5t1.5 26.5v141q-14 -6 -31.5 -13t-36 -13t-37.5 -10t-35 -4q-72 0 -105 28t-33 103v75q0 28 -15 32q-13 4 -26 4h-26v25q27 -2 50 -2h56h57.5t51.5 2v-25h-7q-21 0 -33.5 -1.5 t-18.5 -6.5t-7.5 -14.5t-1.5 -26.5v-32q0 -31 3 -53.5t12.5 -37t27 -21.5t46.5 -7q22 0 52.5 8.5t56.5 19.5v123q0 17 -1.5 26.5t-7.5 14.5t-18.5 6.5t-33.5 1.5h-7v25q26 -2 52.5 -2h56.5h54.5t51.5 2v-25h-26t-26 -4q-15 -4 -15 -32v-320q0 -27 15 -32q13 -4 26 -4h26v-25 z" glyph-name="afii10089" unicode="ч" horiz-adv-x="520"/>
<glyph d="M25 25h26t26 4q15 5 15 32v320q0 28 -15 32q-13 4 -26 4h-26v25q26 -2 48.5 -2h57.5h35.5h26.5t23 0.5t24 1.5v-25h-7q-21 0 -33.5 -1.5t-18.5 -6.5t-7.5 -14.5t-1.5 -26.5v-293q0 -27 11.5 -35.5t43.5 -8.5h78q34 0 44.5 8t10.5 36v293q0 17 -1.5 26.5t-7.5 14.5 t-18.5 6.5t-33.5 1.5h-7v25q27 -2 52 -2h57h55.5t50.5 2v-25h-26t-26 -4q-15 -4 -15 -32v-306q0 -28 10.5 -36t44.5 -8h78q32 0 43.5 8.5t11.5 35.5v293q0 17 -1.5 26.5t-7.5 14.5t-18.5 6.5t-33.5 1.5h-7v25q27 -2 51.5 -2h57.5h55.5t50.5 2v-25h-26t-26 -4q-15 -4 -15 -32 v-320q0 -27 15 -32q13 -4 26 -4h26v-25h-750v25z" glyph-name="afii10090" unicode="ш" horiz-adv-x="800"/>
<glyph d="M789 -153h-22q-9 53 -19.5 83.5t-24.5 46t-33.5 19.5t-45.5 4h-619v25h26t26 4q15 5 15 32v320q0 28 -15 32q-13 4 -26 4h-26v25q26 -2 51.5 -2h54.5h57t52 2v-25h-7q-21 0 -33.5 -1.5t-18.5 -6.5t-7.5 -14.5t-1.5 -26.5v-293q0 -27 11.5 -35.5t43.5 -8.5h78q34 0 44.5 8 t10.5 36v293q0 17 -1.5 26.5t-7.5 14.5t-18.5 6.5t-33.5 1.5h-7v25q27 -2 51.5 -2h57.5h57.5t48.5 2v-25h-26t-26 -4q-15 -4 -15 -32v-306q0 -28 10.5 -36t44.5 -8h78q32 0 43.5 8.5t11.5 35.5v293q0 17 -1.5 26.5t-7.5 14.5t-18.5 6.5t-33.5 1.5h-7v25q27 -2 52.5 -2h56.5 h54.5t51.5 2v-25h-26t-26 -4q-15 -4 -15 -32v-298q0 -37 21 -46t55 -9h12z" glyph-name="afii10091" unicode="щ" horiz-adv-x="810"/>
<glyph d="M550 142q0 -31 -13 -57.5t-37 -45t-57 -29t-74 -10.5q-33 0 -65.5 1t-65.5 1h-44t-41 -1l-21 -1v25h26t26 4q14 4 14 32v348h-81q-43 0 -61 -16t-28 -61l-1 -8h-22l10 143h18q2 -5 4 -7.5t7 -6.5q8 -7 17 -9t29 -2h262v-25h-12q-21 0 -33.5 -1.5t-19 -6.5t-8 -14.5 t-1.5 -26.5v-110q12 2 34 4.5t48 2.5q88 0 139 -30t51 -93zM459 141q0 45 -26.5 71t-75.5 26q-23 0 -45 -2.5t-34 -4.5v-161q0 -17 5 -25t16.5 -13t32.5 -5q34 0 58 9t39.5 25t22.5 36.5t7 43.5z" glyph-name="afii10092" unicode="ъ" horiz-adv-x="577"/>
<glyph d="M675 0q-26 2 -47.5 2h-58.5h-34.5h-26.5t-23.5 -0.5t-24.5 -1.5v25h7q21 0 33.5 1.5t18.5 6.5t7.5 14.5t1.5 26.5v294q0 17 -1.5 26.5t-7.5 14.5t-18.5 6.5t-33.5 1.5h-7v25q27 -2 50 -2h59h57.5t48.5 2v-25h-26t-26 -4q-15 -4 -15 -32v-320q0 -27 15 -32q13 -4 26 -4h26 v-25zM444 142q0 -31 -13 -57.5t-37 -45t-57 -29t-73 -10.5q-33 0 -66.5 1t-66.5 1h-29h-19.5h-16.5t-20 -1l-21 -1v25h26t26 4q15 5 15 32v320q0 28 -15 32q-13 4 -26 4h-26v25q26 -2 50 -2h56h60.5t53.5 2v-25h-12q-21 0 -33.5 -1.5t-18.5 -6.5t-7.5 -14.5t-1.5 -26.5v-110 q12 2 34 4.5t48 2.5q88 0 139 -30t51 -93zM353 141q0 45 -26.5 71t-75.5 26q-23 0 -45 -2.5t-34 -4.5v-161q0 -17 5 -25t16.5 -13t32.5 -5q34 0 58 9t39.5 25t22.5 36.5t7 43.5z" glyph-name="afii10093" unicode="ы" horiz-adv-x="700"/>
<glyph d="M444 142q0 -31 -13 -57.5t-37 -45t-57 -29t-73 -10.5q-33 0 -66.5 1t-66.5 1h-29h-19.5h-16.5t-20 -1l-21 -1v25h26t26 4q15 5 15 32v320q0 28 -15 32q-13 4 -26 4h-26v25q26 -2 49.5 -2h56.5h61.5t52.5 2v-25h-12q-21 0 -33.5 -1.5t-18.5 -6.5t-7.5 -14.5t-1.5 -26.5 v-110q12 2 34 4.5t48 2.5q88 0 139 -30t51 -93zM353 141q0 45 -26.5 71t-75.5 26q-23 0 -45 -2.5t-34 -4.5v-161q0 -17 5 -25t16.5 -13t32.5 -5q34 0 58 9t39.5 25t22.5 36.5t7 43.5z" glyph-name="afii10094" unicode="ь" horiz-adv-x="470"/>
<glyph d="M413 211q0 -49 -14 -90t-39.5 -70.5t-62 -46t-82.5 -16.5q-31 0 -58 9t-50 24t-43 35t-37 41l17 16q28 -26 59 -45.5t76 -19.5q32 0 58.5 13t46 36t32.5 53.5t17 65.5h-185v31h187v5q0 37 -8 69t-24 55.5t-40.5 37t-58.5 13.5q-21 0 -43.5 -8t-42 -22.5t-34 -34.5 t-19.5 -45h-20l5 102q29 12 71 24.5t81 12.5q50 0 89.5 -20.5t66.5 -54t41 -78t14 -92.5z" glyph-name="afii10095" unicode="э" horiz-adv-x="444"/>
<glyph d="M503 456q50 0 92.5 -17.5t74.5 -48.5t50 -73t18 -90q0 -49 -19 -93t-51 -76t-75.5 -51t-93.5 -19q-49 0 -91.5 17.5t-74 49t-49.5 74t-19 91.5h-93v-146q0 -17 1.5 -26.5t7.5 -14.5t18.5 -6.5t33.5 -1.5h7v-25q-13 1 -23 1.5t-21 0.5h-26h-39h-34.5h-26t-22 -0.5 t-23.5 -1.5v25h26t26 4q15 5 15 32v320q0 28 -15 32q-13 4 -26 4h-26v25q23 -2 50.5 -2h55.5h57t52 2v-25h-7q-21 0 -33.5 -1.5t-18.5 -6.5t-7.5 -14.5t-1.5 -26.5v-118h94q5 44 25.5 81.5t52 65.5t72.5 43.5t87 15.5zM643 212q0 47 -11.5 87t-31 69t-46.5 46t-58 17 q-30 0 -55.5 -14.5t-44 -40.5t-28.5 -62t-10 -80q0 -46 11.5 -86t31 -69.5t47 -46t58.5 -16.5q30 0 55 14.5t43 41t28.5 62.5t10.5 78z" glyph-name="afii10096" unicode="ю" horiz-adv-x="778"/>
<glyph d="M471 417h-26t-26 -4q-15 -4 -15 -32v-320q0 -27 15 -32q13 -4 26 -4h26v-25q-20 2 -48.5 2h-57.5h-56t-53 -2v25h7q21 0 33.5 1.5t18.5 6.5t7.5 14.5t1.5 26.5v127h-77l-72 -108q-21 -32 -38 -54.5t-31 -38.5q-14 2 -28.5 2h-31.5h-30.5t-27.5 -2v25q17 2 26 4.5t17 9.5 q12 10 26.5 25.5t29.5 37.5l81 114q-38 12 -66.5 40.5t-28.5 71.5q0 33 14.5 55t37.5 35t53 18.5t61 5.5h232v-25zM324 413q-10 2 -28 3t-27 1q-46 0 -77.5 -25.5t-31.5 -69.5t33.5 -70t81.5 -26q11 0 26 1t23 3v183z" glyph-name="afii10097" unicode="я" horiz-adv-x="500"/>
<glyph d="M290 610q0 20 13 33t33 13t33 -13t13 -33t-13 -33t-33 -13q-19 0 -32.5 13t-13.5 33zM94 610q0 20 13.5 33t32.5 13q20 0 33.5 -13t13.5 -33t-13.5 -33t-32.5 -13q-20 0 -33.5 13t-13.5 33zM114 280q-1 -8 -1 -15v-12q0 -45 11 -82.5t31 -65t47.5 -42.5t60.5 -15 q44 0 74.5 18.5t61.5 47.5l14 -14q-21 -25 -40.5 -45.5t-42 -35.5t-49 -23t-60.5 -8q-43 0 -77.5 16t-59 45.5t-37.5 71.5t-13 94q0 48 15 91.5t42.5 77t66.5 53t87 19.5q34 0 64.5 -11.5t53 -31.5t35 -47t10.5 -58l-1 -16q0 -5 -2 -8.5t-7 -3.5h-284zM283 310q25 0 32 4.5 t7 20.5q0 42 -23.5 66.5t-62.5 24.5q-26 0 -49.5 -10.5t-37.5 -29.5q-12 -15 -18.5 -29.5t-14.5 -46.5h167z" glyph-name="afii10071" unicode="ё" horiz-adv-x="444"/>
<glyph d="M453 68q0 -81 -39.5 -131t-117.5 -73l-7 23q30 12 47 29.5t25.5 39.5t10.5 48t2 54v103q0 20 -0.5 35t-1.5 27t-3 23t-5 24q-8 33 -32 52t-59 19t-59 -16.5t-50 -36.5v-221q0 -10 1.5 -20.5t10.5 -15.5q5 -3 19 -4.5t33 -1.5h7v-25l-15 1q-14 1 -23.5 1.5t-19 0.5 t-22.5 -0.5t-34 -0.5h-28h-19.5h-16.5t-20 -1l-20 -1v25h10q20 0 31.5 1.5t17 6.5t6.5 14t1 24v424h-65v35h65v93q0 15 -2 25.5t-8.5 18t-18 13.5t-30.5 12l-6 2v16q5 2 8 2.5t5 1.5q99 35 114 42q8 3 12 3q7 0 7 -8v-221h222v-35h-222v-179l14 12q25 21 44 35.5t35 22.5 t30.5 11.5t30.5 3.5q62 0 98.5 -45.5t36.5 -123.5v-164z" glyph-name="afii10099" unicode="ђ" horiz-adv-x="500"/>
<glyph d="M131 542l134 133l23.5 23.5t29.5 12.5q13 0 23 -10.5t10 -24.5q0 -18 -19 -30l-166 -104h-35zM379 312q-4 26 -14.5 49t-34.5 34q-20 9 -46.5 13.5t-56.5 4.5h-55v-328q0 -17 1.5 -28.5t7.5 -18.5t18.5 -10t33.5 -3h17v-25q-24 2 -53.5 2h-65.5h-35h-25.5t-22 -0.5 t-23.5 -1.5v25q14 0 26 1t21 5.5t14.5 14.5t5.5 28v307q0 28 -15 32q-13 4 -26 4h-26v25h370l5 -127z" glyph-name="afii10100" unicode="ѓ" horiz-adv-x="410"/>
<glyph d="M430 91q-5 -5 -9 -9.5t-6 -6.5q-41 -43 -86 -65t-91 -22q-41 0 -78 17.5t-64.5 46.5t-44 68t-16.5 82q0 52 15.5 98t44.5 80.5t70 55t91 20.5q39 0 78.5 -12.5t68.5 -24.5l5 -102h-20q-5 25 -18.5 45t-31.5 34.5t-39.5 22.5t-42.5 8q-34 0 -60.5 -13.5t-45 -37 t-28.5 -55.5t-10 -69v-5h203v-31h-201q5 -34 18.5 -63.5t34 -51.5t47.5 -34t60 -12q45 0 77.5 15.5t61.5 37.5z" glyph-name="afii10101" unicode="є" horiz-adv-x="444"/>
<glyph d="M319 328h-20q-21 101 -108 101q-36 0 -57.5 -19t-21.5 -51q0 -33 25 -53q8 -6 15 -10.5t16.5 -9.5t23 -11t34.5 -15q20 -9 32 -14.5t20 -10t14.5 -9t14.5 -12.5q17 -15 26.5 -38t9.5 -48q0 -30 -12.5 -55.5t-35 -44.5t-53.5 -29.5t-67 -10.5t-65 9.5t-61 26.5l-11 115 l18 5q29 -125 124 -125q37 0 61 21t24 53q0 20 -6.5 34t-17.5 24t-25.5 17.5t-30.5 14.5q-24 11 -49 23t-45.5 28.5t-33 39t-12.5 53.5q0 59 41 94t108 35q32 0 61.5 -7t58.5 -19z" glyph-name="afii10102" unicode="ѕ" horiz-adv-x="389"/>
<glyph d="M141 612q-20 0 -34 14.5t-14 34.5t14 34.5t34 14.5t34.5 -14.5t14.5 -34.5t-14.5 -34.5t-34.5 -14.5zM46 415l14 5q26 9 43.5 15t27.5 11q14 7 22.5 10.5t11.5 5.5q2 1 6 1q10 0 10 -14v-385q0 -9 0.5 -15t2.5 -11q2 -7 15 -10t41 -3h5v-25q-25 2 -51.5 2h-58.5h-52.5 t-52.5 -2v25h11q16 0 28 1.5t17 4.5q7 4 9 12t2 25v269q0 26 -11 36.5t-33 23.5q-4 2 -7 3v15z" glyph-name="afii10103" unicode="і" horiz-adv-x="278"/>
<glyph d="M190 610q0 20 13 33t33 13t33 -13t13 -33t-13 -33t-33 -13q-19 0 -32.5 13t-13.5 33zM-6 610q0 20 13.5 33t32.5 13q20 0 33.5 -13t13.5 -33t-13.5 -33t-32.5 -13q-20 0 -33.5 13t-13.5 33zM46 415l14 5q26 9 43.5 15t27.5 11q14 7 22.5 10.5t11.5 5.5q2 1 6 1 q10 0 10 -14v-385q0 -9 0.5 -15t2.5 -11q2 -7 15 -10t41 -3h5v-25q-25 2 -51.5 2h-58.5h-52.5t-52.5 -2v25h11q16 0 28 1.5t17 4.5q7 4 9 12t2 25v269q0 26 -11 36.5t-33 23.5q-4 2 -7 3v15z" glyph-name="afii10104" unicode="ї" horiz-adv-x="278"/>
<glyph d="M144 612q-20 0 -34.5 14.5t-14.5 34.5t14.5 34.5t34.5 14.5t34 -14.5t14 -34.5t-14 -34.5t-34 -14.5zM32 415l14 4l65 23q38 13 46 18q6 3 11 3q10 0 10 -19v-486q0 -31 -4 -52t-15 -40q-35 -61 -138 -92l-7 23q24 8 45 24.5t31 42.5q6 17 8 33t2 51v380q0 22 -1 28.5 t-5 14.5q-2 5 -10 10t-17.5 9t-19 6.5t-15.5 3.5v15z" glyph-name="afii10105" unicode="ј" horiz-adv-x="278"/>
<glyph d="M675 137q0 -67 -51 -102.5t-131 -35.5q-2 0 -9.5 0.5t-17 0.5t-18.5 0.5t-14 0.5q-13 0 -27.5 0.5t-32.5 0.5q-20 0 -31.5 0.5t-20.5 0.5t-18 -0.5t-23 -1.5l-14 -1v25h7q21 0 33.5 1.5t18.5 6.5t7.5 14.5t1.5 26.5v338h-78q-33 0 -43.5 -7.5t-11.5 -34.5 q-2 -48 -6.5 -95t-12.5 -95q-11 -61 -24.5 -98t-28.5 -56.5t-31 -26t-32 -6.5q-32 0 -48.5 14.5t-16.5 34.5q0 29 14.5 40t33.5 11q8 0 16 -3.5t13 -8.5q6 -7 10 -16t13 -9q6 0 12.5 13t13.5 34.5t13 49t11 55.5q8 47 11.5 91.5t3.5 67.5q0 26 -4 35t-12 11q-13 4 -26 4h-26 v25h383v-25h-26t-26 -4q-15 -4 -15 -32v-126h54q36 0 72.5 -5.5t66.5 -19t48.5 -36t18.5 -57.5zM582 134q0 27 -10.5 45t-27.5 29.5t-40 16t-47 4.5h-42v-159q0 -17 5 -25q11 -18 35 -18q69 0 98 30.5t29 76.5z" glyph-name="afii10106" unicode="љ" horiz-adv-x="703"/>
<glyph d="M694 137q0 -67 -51 -102.5t-131 -35.5q-2 0 -9.5 0.5t-17 0.5t-18.5 0.5t-14 0.5q-13 0 -27.5 0.5t-32.5 0.5h-42.5t-42.5 -1l-22 -1v25h7q21 0 33.5 1.5t18.5 6.5t7.5 14.5t1.5 26.5v155h-182v-155q0 -17 1.5 -26.5t7.5 -14.5t18.5 -6.5t33.5 -1.5h7v-25l-22 1 q-9 0 -16.5 0.5t-16.5 0.5h-21.5h-32.5h-29h-19.5h-16.5t-20 -1l-21 -1v25h23.5t28.5 4q15 5 15 32v320q0 28 -15 32q-13 4 -26 4h-26v25l21 -1q12 0 20 -0.5t16.5 -0.5h19.5h29h33.5h24h19t18.5 1l14 1v-25h-7q-21 0 -33.5 -1.5t-18.5 -6.5t-7.5 -14.5t-1.5 -26.5v-113h182 v113q0 17 -1.5 26.5t-7.5 14.5t-18.5 6.5t-33.5 1.5h-7v25l14 -1q10 -1 18.5 -1h19h24h33.5h29h19.5h16.5t20 1l21 1v-25h-26t-26 -4q-15 -4 -15 -32v-126h54q36 0 72.5 -5.5t66.5 -19t48.5 -36t18.5 -57.5zM601 134q0 27 -10.5 45t-27.5 29.5t-40 16t-47 4.5h-42v-159 q0 -17 5 -25q11 -18 35 -18q69 0 98 30.5t29 76.5z" glyph-name="afii10107" unicode="њ" horiz-adv-x="722"/>
<glyph d="M513 1q-13 1 -21 1h-16.5h-19h-27.5h-29h-19.5h-16t-19.5 -1l-20 -1v25h8q35 0 42 13q5 8 7.5 43t2.5 78v2q0 20 -0.5 35t-1.5 27t-3 23t-5 24q-8 33 -32 52t-59 19t-59 -16.5t-50 -36.5v-221q0 -10 1.5 -20.5t10.5 -15.5q5 -3 19 -4.5t33 -1.5h7v-25l-15 1 q-14 1 -23.5 1.5t-19 0.5t-22.5 -0.5t-34 -0.5h-28h-19.5h-16.5t-20 -1l-20 -1v25h10q20 0 31.5 1.5t17 6.5t6.5 14t1 24v424h-65v35h65v93q0 15 -2 25.5t-8.5 18t-18 13.5t-30.5 12l-6 2v16q5 2 8 2.5t5 1.5q99 35 114 42q8 3 12 3q7 0 7 -8v-221h222v-35h-222v-179l14 12 q25 21 44 35.5t35 22.5t30.5 11.5t30.5 3.5q62 0 98.5 -45.5t36.5 -123.5v-167q0 -11 1 -16t3 -11q2 -5 9 -8t15 -4t16 -1h12h7v-25z" glyph-name="afii10108" unicode="ћ"/>
<glyph d="M176 542l134 133l23.5 23.5t29.5 12.5q13 0 23 -10.5t10 -24.5q0 -18 -19 -30l-166 -104h-35zM250 0q-29 2 -56.5 2h-65.5h-58t-44 -2v25q4 0 13.5 0.5t20 1.5t19 3t11.5 5q4 4 5 10.5t1 20.5v315q0 28 -15 32q-13 4 -26 4h-26v25q26 -2 48.5 -2h57.5h57t52 2v-25h-7 q-21 0 -33.5 -1.5t-18.5 -6.5t-7.5 -14.5t-1.5 -26.5v-119q27 0 46.5 8t29.5 18l76 81q14 16 22 25.5t8 17.5q0 18 -50 18v25q26 -2 48.5 -2h54.5h53t41 2v-25q-8 0 -20.5 -0.5t-18.5 -2.5q-17 -5 -46.5 -23.5t-55.5 -44.5l-80 -83l143 -192q21 -29 40 -37.5t41 -8.5h16v-25 q-18 1 -34 1.5t-42 0.5h-36t-30 -2l-152 208q-7 9 -17.5 10.5t-36.5 1.5v-160q0 -11 2 -17.5t10 -11.5q6 -3 25.5 -4.5t31.5 -1.5h5v-25z" glyph-name="afii10109" unicode="ќ" horiz-adv-x="525"/>
<glyph d="M423 658q0 -14 -8 -32t-26 -34.5t-47 -28t-71 -11.5q-43 0 -72.5 11.5t-48 27.5t-26.5 33.5t-8 29.5q0 13 7.5 28t33.5 15q22 0 32 -11.5t10 -28.5q0 -9 1 -21.5t7.5 -24t21 -20t42.5 -8.5q27 0 41 8t20 19.5t7 24.5t1 22q0 17 11.5 28.5t30.5 11.5q25 0 33 -12.5 t8 -26.5zM9 442q14 -1 26.5 -1.5t25.5 -0.5h28.5h36.5h29.5h21t18.5 0.5t20 1.5v-25q-6 0 -15.5 -1t-18.5 -3t-15 -7.5t-6 -14.5t3 -18t6 -17l93 -236l85 204q15 36 15 57q0 36 -50 36h-6v25q23 -2 44 -2h51h41t33 2v-25q-31 -2 -47 -14.5t-32 -50.5l-226 -531 q-24 -55 -65 -55q-20 0 -34 14t-14 35q0 22 14.5 37t36.5 15q11 0 19.5 -2.5t18.5 -10.5q7 13 16.5 34t19.5 44.5t19 46l15 37.5l-129 331q-8 22 -12.5 30t-12.5 19q-9 11 -20.5 16t-32.5 5v25z" glyph-name="afii10110" unicode="ў" horiz-adv-x="500"/>
<glyph d="M391 0q-26 0 -43 -7.5t-28 -25t-18 -47t-14 -73.5h-20q-7 44 -14 73.5t-18 47t-28 25t-43 7.5h-140v25h26t26 4q15 5 15 32v320q0 28 -15 32q-13 4 -26 4h-26v25q25 -2 50.5 -2h55.5h31h25t24.5 0.5t28.5 1.5v-25h-7q-21 0 -33.5 -1.5t-18.5 -6.5t-7.5 -14.5t-1.5 -26.5 v-293q0 -27 11.5 -35.5t43.5 -8.5h102q34 0 44.5 8t10.5 36v293q0 17 -1.5 26.5t-7.5 14.5t-18.5 6.5t-33.5 1.5h-7v25q16 -1 28 -1.5t23.5 -0.5h25h32.5h54t52 2v-25h-26t-26 -4q-15 -4 -15 -32v-320q0 -27 15 -32q13 -4 26 -4h26v-25h-140z" glyph-name="afii10193" unicode="џ"/>
<glyph d="M510 663h-285v-563q0 -14 1.5 -23.5t5.5 -17.5q17 -34 77 -34h10v-25l-19 1q-18 1 -30 1.5t-24 0.5t-26.5 -0.5t-38.5 -0.5h-43.5h-28.5h-23.5t-28.5 -1l-29 -1v25h10q32 0 48.5 6t27.5 19q8 10 10.5 19.5t2.5 28.5v491q0 20 -1 31t-4 20q-11 33 -76 33h-7t-9 -1v26 l37 -1q38 -1 65 -1.5t58 -0.5h53t42 1h37q24 0 40.5 0.5t29.5 2t24 4.5t23 8q17 6 28.5 18.5t20 27t13.5 30t8 27.5l22 -4z" glyph-name="afii10050" unicode="Ґ" horiz-adv-x="536"/>
<glyph d="M388 413h-161q-32 0 -43.5 -8.5t-11.5 -35.5v-285q0 -17 1.5 -28.5t7.5 -18t18.5 -9.5t33.5 -3h7v-25q-26 2 -50.5 2h-58.5h-58t-48 -2v25q13 0 25 1t21.5 5.5t15 14t5.5 25.5v310q0 28 -15 32q-13 4 -26 4h-26v25h202q30 0 59 4t49 13q24 11 33.5 35t15.5 49l21 -4z" glyph-name="afii10098" unicode="ґ" horiz-adv-x="410"/>
</font>
</defs>
</svg>
