<svg xmlns="http://www.w3.org/2000/svg" width="48" height="74" viewBox="0 0 48 74">
    <path fill="#DC001A" fill-rule="evenodd" d="M24.049 35.018c-5.574 0-10.284-4.984-10.284-10.883 0-5.75 4.615-10.43 10.284-10.43 6.035 0 10.586 4.484 10.586 10.43 0 5.996-4.75 10.88-10.586 10.883M23.897 0C10.497 0 0 10.452 0 23.795c0 8.543 3.27 13.094 9.788 22.162l1.4 1.95c8.649 12.677 10.448 23.535 10.485 23.757.285 1.283 1.26 2.144 2.427 2.144 1.168 0 2.142-.861 2.455-2.326.013-.107 1.38-10.858 10.244-23.567.46-.67.95-1.366 1.454-2.08 4.34-6.175 9.743-13.86 9.747-22.04C48 10.675 37.188 0 23.897 0"/>
</svg>
